<?xml version="1.0" encoding="UTF-8"?>
<svg version="1.1" xmlns="http://www.w3.org/2000/svg" width="320" height="320">
<path d="M0 0 C10.9725 -0.061875 21.945 -0.12375 33.25 -0.1875 C36.67020508 -0.21481201 40.09041016 -0.24212402 43.61425781 -0.27026367 C62.51786911 -0.35923603 81.05822629 -0.12818395 99.25 5.75 C100.46840576 6.12862183 100.46840576 6.12862183 101.71142578 6.51489258 C110.76071511 9.41671099 119.89395799 12.95326501 128.0703125 17.83203125 C130.94919858 19.29183604 130.94919858 19.29183604 133.93359375 18.390625 C134.94550781 17.93171875 135.95742187 17.4728125 137 17 C138.10472656 16.49984375 139.20945313 15.9996875 140.34765625 15.484375 C141.23855957 15.06623535 141.23855957 15.06623535 142.14746094 14.63964844 C149.02132703 11.44633278 155.97698109 8.88041829 163.25 6.75 C164.40640991 6.39953613 164.40640991 6.39953613 165.58618164 6.04199219 C186.0865438 0.28186631 206.74379287 0.61598826 227.82263184 0.79400635 C232.63711322 0.83068696 237.45171412 0.84396845 242.26629639 0.86136627 C249.51110445 0.89006838 256.75515158 0.94769762 264 1 C264 23.11 264 45.22 264 68 C247.83 68 231.66 68 215 68 C215 60.74 215 53.48 215 46 C201.56544528 46.39983794 189.10421046 47.12613263 176 50 C174.00206423 50.3454906 172.00265212 50.68298962 170 51 C171.96645518 54.45553038 173.94174465 57.90144075 175.96484375 61.32421875 C189.76552735 84.85370108 194.49938116 109.27321411 188 136 C184.44899604 148.61682469 178.38203119 160.21467158 171 171 C173.33159304 171.65272461 175.66497796 172.29725202 178 172.9375 C178.64839844 173.11990234 179.29679688 173.30230469 179.96484375 173.49023438 C188.06994262 175.69706823 196.14410415 176.19207148 204.5 176.5625 C205.87671875 176.62727539 205.87671875 176.62727539 207.28125 176.69335938 C209.52072061 176.79833456 211.76028092 176.90049248 214 177 C213.98839844 175.82824219 213.97679687 174.65648437 213.96484375 173.44921875 C213.95545181 171.86198078 213.94635314 170.27474106 213.9375 168.6875 C213.92912109 167.92115234 213.92074219 167.15480469 213.91210938 166.36523438 C213.88620177 160.12150111 214.42781555 154.294029 215 148 C231.17 148 247.34 148 264 148 C264 172.75 264 197.5 264 223 C251.8725 223.0825 239.745 223.165 227.25 223.25 C223.4643457 223.28641602 219.67869141 223.32283203 215.77832031 223.36035156 C183.68823157 223.5420816 183.68823157 223.5420816 168 219 C166.93072266 218.71205566 165.86144531 218.42411133 164.75976562 218.12744141 C162.17935364 217.39101224 159.65711489 216.5740677 157.125 215.6875 C156.26060303 215.39552734 155.39620605 215.10355469 154.50561523 214.80273438 C147.9499947 212.51658434 141.92334689 209.64489834 135.91015625 206.1875 C132.32317916 204.72382076 130.69547401 204.92036988 127 206 C124.76366044 207.00221143 122.55698066 208.07188235 120.375 209.1875 C97.74181963 220.21553285 72.93912512 223.19569979 48.046875 223.09765625 C46.82049316 223.09664917 45.59411133 223.09564209 44.33056641 223.09460449 C39.80370126 223.08942149 35.27684956 223.07546073 30.75 223.0625 C20.6025 223.041875 10.455 223.02125 0 223 C0 197.92 0 172.84 0 147 C7.734375 146.979375 15.46875 146.95875 23.4375 146.9375 C25.88212646 146.928396 28.32675293 146.91929199 30.84545898 146.90991211 C32.77067001 146.90699309 34.69588165 146.9044445 36.62109375 146.90234375 C37.63079224 146.89722778 38.64049072 146.89211182 39.68078613 146.88684082 C40.6348938 146.88671997 41.58900146 146.88659912 42.57202148 146.88647461 C43.40475082 146.884254 44.23748016 146.88203339 45.09544373 146.87974548 C47 147 47 147 48 148 C48.08783542 150.21855264 48.10694609 152.43988496 48.09765625 154.66015625 C48.0962413 155.32462265 48.09482635 155.98908905 48.09336853 156.6736908 C48.08775518 158.80333899 48.07520054 160.93288339 48.0625 163.0625 C48.05748671 164.50325369 48.05292351 165.94400903 48.04882812 167.38476562 C48.03778145 170.92321102 48.02050792 174.46159539 48 178 C63.01378474 177.18351033 77.51545931 176.20848432 92 172 C92 168.67433699 89.61943438 166.24677337 87.8125 163.5625 C74.05641298 142.57795577 68.57802344 117.67798252 73.52148438 92.95458984 C76.73314041 78.59763849 82.89620173 64.61227519 92 53 C89.95990245 52.34922704 87.91784331 51.70460176 85.875 51.0625 C84.73804687 50.70285156 83.60109375 50.34320313 82.4296875 49.97265625 C77.34659842 48.53109682 72.43627669 47.88201041 67.1640625 47.68359375 C66.10058594 47.64169922 65.03710938 47.59980469 63.94140625 47.55664062 C62.29978516 47.49766602 62.29978516 47.49766602 60.625 47.4375 C58.94857422 47.37272461 58.94857422 47.37272461 57.23828125 47.30664062 C54.49229801 47.20102589 51.74623119 47.0989203 49 47 C49.00523682 47.98766357 49.01047363 48.97532715 49.01586914 49.99291992 C49.13304938 74.35530287 48.75806874 98.6470418 48 123 C32.16 123 16.32 123 0 123 C0 82.41 0 41.82 0 0 Z M130 82 C122.07880666 96.43347878 119.38125698 110.89449942 123.93359375 127.05859375 C125.82376733 132.27214946 128.33900423 137.14303685 131 142 C131.66 142 132.32 142 133 142 C140.39022317 126.96391702 143.71337352 113.63380749 139.06640625 96.9765625 C137.19173846 91.74397328 134.66681954 86.86759295 132 82 C131.34 82 130.68 82 130 82 Z " fill="#000000" transform="translate(16,61)"/>
<path d="M0 0 C0.99 0.33 1.98 0.66 3 1 C4.04582046 3.71324124 4.89970066 6.27763884 5.6875 9.0625 C6.450625 11.681875 7.21375 14.30125 8 17 C13.94 15.02 19.88 13.04 26 11 C24.99853326 16.00733368 23.78277681 18.20265571 20.9375 22.3125 C20.20402344 23.38113281 19.47054687 24.44976562 18.71484375 25.55078125 C18.14894531 26.35902344 17.58304687 27.16726562 17 28 C18.0828125 28.61488281 19.165625 29.22976562 20.28125 29.86328125 C21.68783919 30.67910298 23.09407092 31.49554121 24.5 32.3125 C25.57314453 32.91868164 25.57314453 32.91868164 26.66796875 33.53710938 C28.49666109 34.6082006 30.25507952 35.79725124 32 37 C32 37.99 32 38.98 32 40 C25.73 40.33 19.46 40.66 13 41 C13.309375 42.464375 13.61875 43.92875 13.9375 45.4375 C14.91222871 50.28349169 15.52402173 55.08155789 16 60 C13 60 13 60 11.3515625 58.64453125 C10.78179687 58.03996094 10.21203125 57.43539062 9.625 56.8125 C9.06039062 56.22082031 8.49578125 55.62914062 7.9140625 55.01953125 C7.28242188 54.35308594 6.65078125 53.68664062 6 53 C4.33691114 51.32976319 2.67096772 49.66235448 1 48 C0.07316406 48.9384375 -0.85367188 49.876875 -1.80859375 50.84375 C-3.01809796 52.06263021 -4.22774051 53.28137316 -5.4375 54.5 C-6.35499023 55.43005859 -6.35499023 55.43005859 -7.29101562 56.37890625 C-8.1659668 57.25869141 -8.1659668 57.25869141 -9.05859375 58.15625 C-9.59798584 58.70087891 -10.13737793 59.24550781 -10.69311523 59.80664062 C-12 61 -12 61 -13 61 C-12.85780436 58.79142945 -12.71108153 56.58315013 -12.5625 54.375 C-12.48128906 53.14523438 -12.40007812 51.91546875 -12.31640625 50.6484375 C-12.03595855 47.41463318 -11.53362962 44.20177774 -11 41 C-17.27 40.67 -23.54 40.34 -30 40 C-28.6551963 35.96558889 -26.04690097 34.87332753 -22.5625 32.8125 C-21.96373047 32.44447266 -21.36496094 32.07644531 -20.74804688 31.69726562 C-16.27929325 29 -16.27929325 29 -14 29 C-14.45439453 28.2886792 -14.45439453 28.2886792 -14.91796875 27.56298828 C-16.28331246 25.41992379 -17.64172139 23.27254862 -19 21.125 C-19.47695312 20.37863281 -19.95390625 19.63226563 -20.4453125 18.86328125 C-20.89648438 18.14785156 -21.34765625 17.43242187 -21.8125 16.6953125 C-22.23144531 16.03547363 -22.65039062 15.37563477 -23.08203125 14.69580078 C-24 13 -24 13 -24 11 C-22.49890232 11.4337188 -20.99918823 11.87222635 -19.5 12.3125 C-18.6646875 12.55613281 -17.829375 12.79976562 -16.96875 13.05078125 C-13.26733567 14.23425978 -9.63858645 15.63553008 -6 17 C-4.02 11.39 -2.04 5.78 0 0 Z " fill="#000000" transform="translate(254,138)"/>
<path d="M0 0 C3.13272242 2.18562029 3.75929147 3.67718738 4.43359375 7.3828125 C4.68846522 10.86778981 4.79551185 13.73505182 2.89453125 16.7578125 C0.23619217 19.25223255 -1.99757768 19.99966003 -5.5625 20.5 C-9.89907279 19.86922578 -12.64512391 18.80650145 -15.3125 15.25 C-16.80849208 10.3540259 -16.57993785 7.09988213 -14.1875 2.5625 C-10.39082122 -1.4960187 -5.10428776 -1.0130048 0 0 Z M-8 3 C-8 3.33 -8 3.66 -8 4 C-6.35 4 -4.7 4 -3 4 C-3 3.67 -3 3.34 -3 3 C-4.65 3 -6.3 3 -8 3 Z M-11 5 C-11.67673447 8.40320934 -11.67673447 8.40320934 -12 12 C-11.34 12.66 -10.68 13.32 -10 14 C-10 11.03 -10 8.06 -10 5 C-10.33 5 -10.66 5 -11 5 Z M0 8 C1 10 1 10 1 10 Z M-1 10 C-1 13 -1 13 -1 13 Z M-7 11 C-7 12.65 -7 14.3 -7 16 C-6.01 15.67 -5.02 15.34 -4 15 C-4.99 13.68 -5.98 12.36 -7 11 Z " fill="#000000" transform="translate(300,36)"/>
</svg>
