<?xml version="1.0" encoding="UTF-8"?>
<svg version="1.1" xmlns="http://www.w3.org/2000/svg" width="4136" height="976">
<path d="M0 0 C50.49 0 100.98 0 153 0 C153.165 22.6875 153.33 45.375 153.5 68.75 C153.55220703 75.5675293 153.60441406 82.38505859 153.65820312 89.40917969 C154.12637112 157.94377273 154 226.45698941 154 295 C249.04 295 344.08 295 442 295 C442 197.65 442 100.3 442 0 C467.224375 -0.020625 492.44875 -0.04125 518.4375 -0.0625 C526.41607178 -0.071604 534.39464355 -0.08070801 542.61499023 -0.09008789 C552.3223877 -0.09460449 552.3223877 -0.09460449 556.86000061 -0.09544373 C560.04413035 -0.09637922 563.22824359 -0.10014188 566.41236877 -0.10557556 C570.4661859 -0.1124024 574.51997882 -0.11449717 578.57380116 -0.11307228 C580.06638192 -0.11337051 581.55896346 -0.11537241 583.0515393 -0.11921513 C585.05811145 -0.1241437 587.06469676 -0.12240378 589.0712738 -0.12025452 C590.19862662 -0.12117631 591.32597944 -0.1220981 592.48749447 -0.12304783 C595 0 595 0 596 1 C596.09775589 2.71907171 596.12447237 4.44220459 596.1241985 6.1640535 C596.12644579 7.29296671 596.12869308 8.42187993 596.13100848 9.58500263 C596.12706796 11.47258539 596.12706796 11.47258539 596.12304783 13.39830112 C596.12378659 14.73993331 596.12496423 16.08156531 596.12654433 17.42319676 C596.12963368 21.14363518 596.12642151 24.86404658 596.12226619 28.584483 C596.11884921 32.61923031 596.12119949 36.65397471 596.12284368 40.68872255 C596.12492348 47.77124458 596.12326336 54.85375824 596.11920547 61.9362793 C596.11318817 72.4678477 596.11286802 82.99941079 596.11374746 93.5309806 C596.11506363 111.24389714 596.11171138 128.95680996 596.10573006 146.66972542 C596.09982 164.216462 596.09596552 181.76319704 596.09487724 199.30993462 C596.0948085 200.39953445 596.09473976 201.48913427 596.09466894 202.61175228 C596.09433062 208.14491862 596.09402923 213.67808497 596.09374207 219.21125131 C596.09163973 258.43779164 596.08489701 297.66432995 596.07543945 336.89086914 C596.06626018 375.00707997 596.05917404 413.12329024 596.05493164 451.23950195 C596.05473435 453.00079658 596.05473435 453.00079658 596.05453308 454.79767292 C596.0532146 466.58906564 596.05193878 478.38045836 596.05069422 490.17185108 C596.04815777 514.19386735 596.04533652 538.21588357 596.04234314 562.23789978 C596.04220585 563.34247678 596.04206856 564.44705379 596.04192711 565.58510282 C596.03770267 599.45257388 596.03227069 633.32004459 596.02565002 667.18751526 C596.02536869 668.63026976 596.02536869 668.63026976 596.02508167 670.10217081 C596.01746503 709.06811403 596.00857203 748.03405698 596 787 C545.18 787 494.36 787 442 787 C442 672.82 442 558.64 442 441 C346.96 441 251.92 441 154 441 C154.01160156 463.71457031 154.02320313 486.42914062 154.03515625 509.83203125 C154.0402675 524.24674487 154.04512919 538.66145793 154.04882812 553.07617188 C154.05078563 560.65356448 154.052806 568.23095705 154.05493164 575.80834961 C154.05519539 576.75788865 154.05545914 577.7074277 154.05573088 578.68574065 C154.06006538 593.96142901 154.06794092 609.23711355 154.0771528 624.51279966 C154.08654575 640.22123218 154.09206749 655.92966273 154.09408849 671.63809794 C154.09545207 681.30997034 154.09973882 690.98183196 154.10791647 700.65370103 C154.11325372 707.31034392 154.11478865 713.96698134 154.11350138 720.62362621 C154.11286875 724.44865675 154.11375054 728.27366864 154.11920547 732.09869576 C154.12419688 735.62517403 154.12423984 739.15162172 154.12089889 742.67810162 C154.12029893 744.50726337 154.12449831 746.33642495 154.12908131 748.16558105 C154.10690867 761.13878093 153.48124117 774.00648841 153 787 C102.51 787 52.02 787 0 787 C0 527.29 0 267.58 0 0 Z " fill="#010101" transform="translate(24,59)"/>
<path d="M0 0 C1.33218567 -0.00101212 1.33218567 -0.00101212 2.69128418 -0.00204468 C55.0353234 0.0603947 107.36750315 9.20124423 154.6875 32.25 C155.59999512 32.69327637 156.51249023 33.13655273 157.45263672 33.59326172 C176.8409743 43.11671767 194.96722019 54.55428036 211.6875 68.25 C212.22906738 68.69005371 212.77063477 69.13010742 213.32861328 69.58349609 C222.02815256 76.70492153 230.09441471 84.45302729 238.0625 92.375 C238.97765381 93.28088867 239.89280762 94.18677734 240.83569336 95.12011719 C246.8760989 101.18850535 252.39396313 107.52279689 257.6875 114.25 C258.22632812 114.92949707 258.76515625 115.60899414 259.3203125 116.30908203 C310.77898083 181.89807876 325.98193699 263.65569713 321.6875 345.25 C160.9775 345.25 0.2675 345.25 -165.3125 345.25 C-162.38234147 360.11726205 -162.38234147 360.11726205 -158.0625 374.4375 C-157.76730469 375.25790771 -157.47210937 376.07831543 -157.16796875 376.92358398 C-142.87476133 415.53094262 -114.55788707 444.8441093 -77.46166992 462.06054688 C-61.38088427 469.24936854 -44.68191335 473.55602352 -27.3125 476.25 C-26.56129883 476.36859375 -25.81009766 476.4871875 -25.03613281 476.609375 C23.66567028 483.92444243 84.19328774 476.44748287 124.703125 446.58984375 C125.68796875 445.81769531 126.6728125 445.04554688 127.6875 444.25 C128.23341797 443.82605957 128.77933594 443.40211914 129.34179688 442.96533203 C136.6038101 437.4690487 136.6038101 437.4690487 142.41965389 430.57866192 C145.42967524 426.10641772 147.77653896 422.81507485 153.07704353 421.24770546 C157.25346643 420.89590789 161.3047023 420.88609975 165.48852539 421.0012207 C167.07603742 421.00432787 168.66356523 421.00257333 170.25106812 420.99635315 C174.53899165 420.9932101 178.82349713 421.05764842 183.11062932 421.13466668 C187.59875626 421.20366109 192.08697083 421.20991042 196.57554626 421.22294617 C205.06520587 421.25706968 213.55329823 421.34724286 222.04226917 421.45779055 C231.71075377 421.58095198 241.37931518 421.64127453 251.04838955 421.69644034 C270.92896617 421.81126839 290.80813417 422.00461673 310.6875 422.25 C310.20909958 423.69863578 309.72955032 425.1468922 309.24951172 426.59498596 C308.98258514 427.40152398 308.71565857 428.208062 308.44064331 429.03904057 C301.87137725 448.32405654 289.86593158 466.08971029 277.6875 482.25 C277.03031982 483.12350098 277.03031982 483.12350098 276.35986328 484.01464844 C270.65347846 491.54781616 264.64020921 498.67873122 258.1796875 505.57421875 C256.08552458 507.82265386 254.06009338 510.10390589 252.0625 512.4375 C246.52152496 518.81160494 240.4978037 524.71078385 234.078125 530.1953125 C232.19253152 531.81593696 230.33473262 533.45702343 228.484375 535.1171875 C184.90540421 573.95375836 131.54785873 595.40559696 74.0625 603.5 C72.45930908 603.72659302 72.45930908 603.72659302 70.82373047 603.95776367 C50.46354021 606.62817478 30.08414566 607.63361365 9.5625 607.5625 C8.4577533 607.56067719 7.35300659 607.55885437 6.21478271 607.55697632 C-11.79765082 607.50721105 -29.45915618 606.80803093 -47.3125 604.25 C-48.50278809 604.08371094 -49.69307617 603.91742187 -50.91943359 603.74609375 C-113.91077335 594.65716296 -177.81283328 568.24848126 -222.68359375 521.87890625 C-224.39292348 520.10313819 -224.39292348 520.10313819 -226.875 518.25 C-229.69132709 515.93916752 -231.90195472 513.37978286 -234.2578125 510.609375 C-235.69356073 508.96072114 -237.17159654 507.34837393 -238.6796875 505.765625 C-281.73578122 460.53756216 -306.81142657 398.20331308 -311.3125 336.25 C-311.36744629 335.54762207 -311.42239258 334.84524414 -311.47900391 334.12158203 C-317.09058552 260.21092751 -300.24762082 184.09322056 -255.3125 124.25 C-254.84457031 123.62512695 -254.37664062 123.00025391 -253.89453125 122.35644531 C-248.26697455 114.8963859 -242.30570484 107.84617711 -235.91015625 101.03515625 C-233.58952984 98.54702598 -231.35517401 96.00622035 -229.125 93.4375 C-219.16813807 82.37827122 -207.95650169 72.4770131 -196.06005859 63.56054688 C-194.27725987 62.22357236 -192.50796143 60.86989857 -190.73828125 59.515625 C-135.94064687 18.00848901 -68.0384539 0.04706501 0 0 Z M-123.3125 175.25 C-134.53193022 187.77772988 -143.74845052 202.36733069 -151.9375 217 C-152.55830444 218.10746582 -152.55830444 218.10746582 -153.19165039 219.23730469 C-155.40377937 223.28441584 -156.8167968 226.76289041 -158.3125 231.25 C-49.7425 231.25 58.8275 231.25 170.6875 231.25 C166.10441897 217.62589145 166.10441897 217.62589145 159.9375 205 C159.51267334 204.2560498 159.08784668 203.51209961 158.65014648 202.74560547 C149.48421086 187.06005849 137.1739759 173.18246048 122.6875 162.25 C122.16317383 161.85071289 121.63884766 161.45142578 121.09863281 161.04003906 C92.12620189 139.11819381 56.57516289 125.38504216 20.0078125 125.01171875 C19.20580414 125.00187958 18.40379578 124.99204041 17.57748413 124.98190308 C-33.9903052 124.48043651 -86.53484404 136.48564108 -123.3125 175.25 Z " fill="#010101" transform="translate(2158.3125,247.75)"/>
<path d="M0 0 C0.94294922 0.01353516 1.88589844 0.02707031 2.85742188 0.04101562 C5.13477388 0.07569611 7.41078593 0.12453599 9.6875 0.1875 C9.80431812 3.72888618 9.874955 7.2697724 9.9375 10.8125 C9.97101563 11.81152344 10.00453125 12.81054688 10.0390625 13.83984375 C10.1184084 19.8304594 9.93821812 23.60207966 5.6875 28.1875 C3.14481552 30.40193253 0.47829091 32.39601351 -2.25 34.375 C-3.78576401 35.51957729 -5.31959953 36.66674642 -6.8515625 37.81640625 C-7.60856445 38.38375488 -8.36556641 38.95110352 -9.14550781 39.53564453 C-12.21408858 41.87476322 -15.18456641 44.31503843 -18.125 46.8125 C-19.49591797 47.97652344 -19.49591797 47.97652344 -20.89453125 49.1640625 C-30.02900186 57.1678204 -38.81894639 65.50732543 -47.40454102 74.09423828 C-49.00454519 75.69203893 -50.61243615 77.28161551 -52.22070312 78.87109375 C-57.96590048 84.58553546 -63.32659189 90.42420146 -68.3840332 96.77099609 C-70.41995072 99.32214327 -72.54367109 101.77048835 -74.70703125 104.21289062 C-95.51529829 127.80958538 -112.92812025 155.82645265 -128.3125 183.1875 C-128.83859863 184.11626953 -129.36469727 185.04503906 -129.90673828 186.00195312 C-172.05837246 260.77528679 -194.35098011 345.7275482 -199.3125 431.1875 C-199.36889648 432.13898926 -199.42529297 433.09047852 -199.48339844 434.07080078 C-204.0519432 514.39879344 -192.60316679 598.22707467 -160.3125 682.1875 C-159.89919434 683.21327148 -159.48588867 684.23904297 -159.06005859 685.29589844 C-137.2437918 739.00378954 -107.53272765 788.73013472 -70.3125 833.1875 C-69.90911407 833.67346649 -69.50572815 834.15943298 -69.09011841 834.66012573 C-61.67172477 843.57591184 -53.84957329 851.96717992 -45.62133789 860.1394043 C-43.74061472 862.00933141 -41.87093181 863.88982638 -40.00195312 865.77148438 C-33.0757351 872.70538694 -26.01039975 879.11130607 -18.3125 885.1875 C-17.12909768 886.18132594 -15.9510593 887.18161556 -14.78125 888.19140625 C-8.93494118 893.23000135 -3.08001148 897.93705999 3.34765625 902.23828125 C6.97079663 905.25655679 9.40699707 907.89213547 9.99829102 912.73071289 C10.08090331 915.68530227 10.03660043 918.60854502 9.9375 921.5625 C9.91945312 922.58472656 9.90140625 923.60695313 9.8828125 924.66015625 C9.83589491 927.17024749 9.77026729 929.67837764 9.6875 932.1875 C-4.12942885 933.55903338 -16.68595746 931.34842768 -30.0625 928.1875 C-30.91893097 927.98545959 -31.77536194 927.78341919 -32.65774536 927.57525635 C-36.20791255 926.73599183 -39.75764469 925.89492126 -43.30665588 925.05078125 C-109.97199375 909.2943097 -179.03283536 900.44091999 -247.22094727 894.68261719 C-248.68692856 894.55672966 -248.68692856 894.55672966 -250.18252563 894.42829895 C-252.02831126 894.27125352 -253.87454504 894.11934241 -255.72128296 893.97392273 C-281.96490754 891.73742604 -306.68408058 880.21163197 -327.3125 864.1875 C-328.26253906 863.45402344 -329.21257813 862.72054687 -330.19140625 861.96484375 C-335.11543729 858.05911573 -339.56136741 854.1206865 -343.5703125 849.27734375 C-345.57150721 846.87680749 -347.6883344 844.60473931 -349.8125 842.3125 C-371.97710318 817.63940288 -382.53302959 786.20855637 -392.3125 755.1875 C-392.63514832 754.16803284 -392.95779663 753.14856567 -393.29022217 752.09820557 C-421.6607468 662.45507542 -449.08208791 569.88708006 -451.3125 475.1875 C-451.33441406 474.44516113 -451.35632812 473.70282227 -451.37890625 472.93798828 C-453.61858477 390.6484668 -431.79927447 307.68462808 -395.4752121 187.31647873 C-394.82020782 185.21226157 -394.16650937 183.1076422 -393.51300049 181.00296021 C-382.11282211 144.32196077 -382.11282211 144.32196077 -374 127.5625 C-373.525625 126.58031494 -373.05125 125.59812988 -372.5625 124.58618164 C-354.51532185 87.85981122 -323.32678213 57.81177692 -284.28125 44.4609375 C-271.57392769 40.32611326 -259.34268736 38.67308659 -246.06665039 37.53125 C-174.42623956 31.31970973 -103.2789536 20.53225076 -33.046875 5.1328125 C-32.28101074 4.96547607 -31.51514648 4.79813965 -30.72607422 4.62573242 C-27.35769687 3.88390273 -24.00723891 3.11089386 -20.66137695 2.27124023 C-13.63103582 0.51067665 -7.24017802 -0.20387505 0 0 Z " fill="#010101" transform="translate(4110.3125,21.8125)"/>
<path d="M0 0 C4.44695166 1.06501002 8.90470832 2.08246729 13.36309814 3.09835815 C14.30024658 3.31196487 15.23739502 3.52557159 16.20294189 3.74565125 C81.53651945 18.51261558 148.89099419 28.326864 215.69659424 33.30245972 C251.13504574 36.04540548 283.68302632 47.63687005 309.58575439 72.55148315 C311.65401636 74.69288992 311.65401636 74.69288992 313.84356689 75.66867065 C313.84356689 76.32867065 313.84356689 76.98867065 313.84356689 77.66867065 C314.50356689 77.66867065 315.16356689 77.66867065 315.84356689 77.66867065 C318.42637828 80.09739386 320.59927165 82.92979924 322.84356689 85.66867065 C323.60153564 86.59035034 324.35950439 87.51203003 325.14044189 88.4616394 C339.15846129 106.0734504 349.41974513 125.69639491 357.00762939 146.84054565 C357.39291809 147.91407791 357.77820679 148.98761017 358.1751709 150.09367371 C362.81565393 163.19638947 366.90315536 176.47136096 370.95562744 189.76457596 C371.60537499 191.89488553 372.25698248 194.02461897 372.90899658 196.15423584 C398.33166816 279.23367425 422.49511006 364.44368435 379.84356689 705.66867065 C379.51169373 706.76656921 379.17982056 707.86446777 378.83789062 708.99563599 C373.92111509 725.24532417 368.93228619 741.47197874 363.84356689 757.66867065 C363.59479797 758.46049744 363.34602905 759.25232422 363.08972168 760.06814575 C353.1902228 791.4973422 340.47741074 821.22248986 317.26885986 845.19210815 C315.82159703 846.6914308 314.3971916 848.21044171 312.97247314 849.73117065 C285.91413524 878.17815947 250.04842866 888.98239222 211.95535278 892.26602173 C205.86634667 892.79380409 199.78197283 893.36929456 193.6974659 893.94633484 C192.3262159 894.07632013 190.95492237 894.20584699 189.58358574 894.33491516 C169.26675567 896.24878061 149.04824695 898.81730322 128.84356689 901.66867065 C127.83968933 901.80984314 126.83581177 901.95101562 125.80151367 902.09646606 C82.01481449 908.28005428 38.19979654 915.6911063 -4.73480225 926.3835144 C-21.11832429 930.36575961 -21.11832429 930.36575961 -27.77752686 927.56710815 C-32.40249248 923.68810473 -35.65588062 920.54636841 -36.46502686 914.27804565 C-36.75681895 908.37146621 -35.90530995 905.43260884 -32.15643311 900.66867065 C-29.30877686 898.2116394 -29.30877686 898.2116394 -26.09393311 895.85617065 C-24.92885421 894.98774092 -23.76480852 894.11792349 -22.60174561 893.24679565 C-22.02198975 892.81560425 -21.44223389 892.38441284 -20.84490967 891.94015503 C-13.83597717 886.66217347 -7.2107638 880.92149136 -0.73846436 875.00460815 C0.66613543 873.73388097 2.07699158 872.46942395 3.51763916 871.23971558 C9.24054715 866.34159905 14.57766579 861.08729282 19.88922119 855.75338745 C21.40349269 854.23375397 22.9230412 852.71954548 24.44317627 851.20578003 C29.78689447 845.86598823 34.95638048 840.43377524 39.84356689 834.66867065 C41.11200439 833.22234253 41.11200439 833.22234253 42.40606689 831.74679565 C50.72178141 822.09843458 58.32336284 811.94424486 65.84356689 801.66867065 C66.37627197 800.94131714 66.90897705 800.21396362 67.45782471 799.46456909 C80.43982899 781.64040244 92.08404827 762.90717785 102.84356689 743.66867065 C103.3577417 742.75391968 103.8719165 741.8391687 104.40167236 740.896698 C145.22740101 667.96470393 166.6213855 585.83665999 173.09356689 435.98117065 C173.05066528 435.12206085 173.00776367 434.26295105 172.96356201 433.37780762 C168.59441309 348.32484674 147.69918428 263.73167705 37.00372314 88.0397644 C35.80684952 86.72601704 34.61809847 85.40418652 33.46514893 84.05172729 C28.33536167 78.05141655 22.81735944 72.45633005 17.23858643 66.87838745 C15.60529241 65.24291183 13.98018219 63.59959358 12.35528564 61.95578003 C5.83969577 55.4055656 -0.91170133 49.41816621 -8.15643311 43.66867065 C-9.33958634 42.6745482 -10.51764062 41.6742849 -11.68768311 40.6647644 C-16.73370343 36.31589163 -21.74850754 32.17308543 -27.21893311 28.35617065 C-31.17283423 25.50313705 -34.2190095 23.28158401 -36.15643311 18.66867065 C-37.03099436 13.01693608 -36.7420298 8.01469611 -33.47283936 3.20773315 C-24.29166716 -7.5263376 -12.10197828 -2.91136055 0 0 Z " fill="#010101" transform="translate(3169.1564331054688,25.331329345703125)"/>
<path d="M0 0 C50.82 0 101.64 0 154 0 C154.03738281 22.75453125 154.07476563 45.5090625 154.11328125 68.953125 C154.14357756 83.41797439 154.17459894 97.88281685 154.20898438 112.34765625 C154.22702952 119.95458933 154.24489273 127.56152281 154.26245117 135.16845703 C154.2657627 136.59820179 154.2657627 136.59820179 154.26914114 138.05683029 C154.30433369 153.36522356 154.32929161 168.6736168 154.35034702 183.98203531 C154.37225197 199.73913396 154.40543869 215.49618098 154.44870156 231.25323558 C154.47496794 240.94504841 154.49284633 250.63679714 154.49934604 260.32864371 C154.50467777 267.01062136 154.52114761 273.69251895 154.54566566 280.3744534 C154.55942047 284.20670621 154.56895294 288.03881672 154.56500816 291.87109566 C154.55186458 308.04702126 155.04053369 324.08119695 156.38249207 340.20648193 C156.44361293 340.95085684 156.50473379 341.69523175 156.5677068 342.46216348 C159.15981805 373.38200116 165.6278449 402.43889047 187 426 C187.53753906 426.61875 188.07507813 427.2375 188.62890625 427.875 C207.9392521 448.78244212 237.74400498 457.06031902 265.26953125 458.28515625 C297.61072556 459.1361609 328.23162728 450.48979819 352 428 C383.57157302 397.23245686 385.69158954 347.53405409 386.24589753 306.40329301 C386.29700652 300.18527285 386.31415121 293.96763462 386.31667423 287.74942625 C386.32045218 283.86780593 386.33564593 279.98622542 386.34928894 276.10462952 C386.3713089 269.41693247 386.38647196 262.72925005 386.39665604 256.04152489 C386.41138997 246.37281102 386.43696522 236.70414832 386.46498732 227.03546492 C386.51019197 211.33965633 386.54691401 195.64384025 386.578125 179.94799805 C386.60841948 164.72239879 386.6428407 149.49681779 386.68261719 134.27124023 C386.68633945 132.84354918 386.68633945 132.84354918 386.69013691 131.38701588 C386.70958246 123.94074217 386.72926345 116.49446909 386.74901867 109.0481962 C386.84539486 72.69881982 386.92128123 36.34942719 387 0 C437.82 0 488.64 0 541 0 C541.0806627 69.414733 541.0806627 69.414733 541.09765625 98.70703125 C541.10157027 105.40836599 541.10561074 112.10970063 541.10986328 118.81103516 C541.11039078 119.65060025 541.11091828 120.49016534 541.11146176 121.3551718 C541.1200912 134.79802628 541.13581929 148.24086313 541.15430559 161.68370725 C541.17320371 175.54466039 541.18415805 189.40560449 541.18817699 203.26656997 C541.19064268 211.02465503 541.1964784 218.78270346 541.21146011 226.5407753 C541.57216974 419.18391859 541.57216974 419.18391859 464.9375 526.3125 C459.59596397 531.59803605 453.96176197 536.42067558 448 541 C447.43941895 541.4316748 446.87883789 541.86334961 446.30126953 542.30810547 C395.89782269 580.88091442 333.87473619 593.2097183 271.5625 593.25 C270.47962708 593.25100708 269.39675415 593.25201416 268.28106689 593.25305176 C250.33782733 593.24180187 232.78395219 592.5137371 215 590 C213.4538501 589.7831958 213.4538501 589.7831958 211.87646484 589.56201172 C182.44214773 585.26603817 153.17881277 577.36165416 127 563 C125.6551057 562.2835579 124.31004974 561.56741919 122.96484375 560.8515625 C105.19919095 551.26035479 89.64358383 538.84024466 75 525 C74.14277344 524.19691406 73.28554688 523.39382813 72.40234375 522.56640625 C65.51835596 515.92243071 59.72972452 508.630581 54 501 C53.58250488 500.4539209 53.16500977 499.9078418 52.73486328 499.34521484 C-4.44944015 424.33192985 -0.37521339 321.38690904 -0.20707686 229.42028873 C-0.19245611 221.4445825 -0.18974754 213.46888311 -0.18748413 205.4931654 C-0.18315226 191.28034364 -0.16996861 177.06754539 -0.15087891 162.85473633 C-0.13240125 149.08292757 -0.11832673 135.31112533 -0.10986328 121.53930664 C-0.10932729 120.67575465 -0.10879129 119.81220266 -0.10823905 118.92248243 C-0.10407799 112.16471222 -0.10016492 105.40694187 -0.09632993 98.64917147 C-0.07760604 65.76609271 -0.03733649 32.88307309 0 0 Z " fill="#010101" transform="translate(671,262)"/>
<path d="M0 0 C55.11 0 110.22 0 167 0 C174.90464509 17.78545145 182.71828931 35.58369893 190.3125 53.5 C191.83506771 57.08475784 193.35846625 60.66916185 194.88192749 64.25354004 C195.88267718 66.60817393 196.88318953 68.9629087 197.88345337 71.31774902 C201.73632484 80.38683703 205.61118282 89.44628007 209.5 98.5 C216.37367279 114.50887107 223.19606492 130.53950212 230.01953125 146.56982422 C235.83025966 160.22015617 241.64751442 173.86751615 247.5 187.5 C254.16629147 203.02832461 260.78397675 218.57721468 267.40100098 234.12658691 C273.06104722 247.42541767 278.73096904 260.71992833 284.42578125 274.00390625 C284.69163969 274.62407309 284.95749813 275.24423992 285.23141289 275.88319969 C288.04167295 282.43814307 290.85387527 288.99225077 293.66772461 295.5456543 C294.60668749 297.73352712 295.54557226 299.92143346 296.484375 302.109375 C297.16168419 303.68704399 297.16168419 303.68704399 297.85267639 305.29658508 C300.29075269 310.98361166 302.71159446 316.67755053 305.11132812 322.38085938 C305.87222748 324.18759125 305.87222748 324.18759125 306.64849854 326.03082275 C307.62580478 328.35421873 308.60094446 330.6785275 309.57366943 333.00384521 C310.00858704 334.03801575 310.44350464 335.07218628 310.89160156 336.13769531 C311.2756012 337.05464172 311.65960083 337.97158813 312.05523682 338.9163208 C312.82770572 340.94504037 312.82770572 340.94504037 314 342 C314.32572998 341.29319092 314.65145996 340.58638184 314.98706055 339.8581543 C321.06144819 326.69115356 327.17921404 313.55104682 333.5 300.5 C337.78900826 291.64019109 341.9985826 282.74918552 346.125 273.8125 C351.42482555 262.33878536 356.81954101 250.91240655 362.25 239.5 C362.65452393 238.64979279 363.05904785 237.79958557 363.47583008 236.9236145 C363.88148193 236.07105072 364.28713379 235.21848694 364.70507812 234.34008789 C365.52475156 232.61735596 366.34441302 230.89461833 367.1640625 229.171875 C367.56985535 228.31903427 367.97564819 227.46619354 368.39373779 226.58750916 C372.48668387 217.98248762 376.55856175 209.3675736 380.625 200.75 C381.14507629 199.64797241 381.14507629 199.64797241 381.67565918 198.52368164 C383.41979172 194.82776725 385.16360024 191.13170011 386.90722656 187.43554688 C390.08135441 180.7074493 393.25855826 173.9808042 396.43548584 167.25402832 C398.20711233 163.50274305 399.97854658 159.751367 401.75 156 C402.45833241 154.49999956 403.16666574 152.99999956 403.875 151.5 C404.225625 150.7575 404.57625 150.015 404.9375 149.25 C442.125 70.49999999 442.125 70.49999999 443.18727112 68.25050354 C443.89638679 66.74883424 444.60548303 65.24715575 445.31455994 63.74546814 C447.07326503 60.0209334 448.83229549 56.29655305 450.59204102 52.57250977 C453.9246882 45.51891521 457.25375202 38.46368352 460.57223511 31.40341187 C462.14656137 28.05442534 463.72262466 24.70625765 465.29882812 21.3581543 C466.05246709 19.75602515 466.80524701 18.1534916 467.55712891 16.55053711 C468.59713734 14.33345581 469.6400496 12.11776253 470.68359375 9.90234375 C471.14486916 8.91596169 471.14486916 8.91596169 471.61546326 7.90965271 C472.93397942 5.11707072 474.28219454 2.57670818 476 0 C478.90104866 -0.36914349 478.90104866 -0.36914349 482.69436646 -0.36076355 C483.39027921 -0.36332682 484.08619196 -0.3658901 484.80319297 -0.36853105 C487.1465339 -0.37349182 489.48923748 -0.35693904 491.83251953 -0.34057617 C493.50766993 -0.33973039 495.18282144 -0.34020408 496.85797119 -0.34190369 C501.41565535 -0.34276698 505.97310426 -0.3250873 510.53073359 -0.30418181 C515.28999811 -0.28547057 520.0492676 -0.28366897 524.80856323 -0.28010559 C533.82545411 -0.27076876 542.8422363 -0.24613287 551.85907924 -0.21605712 C562.12251843 -0.182564 572.38596271 -0.16603992 582.64944291 -0.15097082 C603.76635601 -0.1195847 624.88317117 -0.06679245 646 0 C644.56924721 3.19064969 643.13681729 6.38054381 641.70410156 9.5703125 C641.30220612 10.46661377 640.90031067 11.36291504 640.48623657 12.28637695 C637.35670255 19.25063599 634.10138904 26.13952875 630.75 33 C626.3737739 42.02476494 622.07803355 51.08081674 617.875 60.1875 C612.55630062 71.70383289 607.13896958 83.17098675 601.6875 94.625 C595.74451767 107.1127577 589.81790572 119.60764298 583.9375 132.125 C578.31409391 144.09402305 572.66568153 156.05093001 567 168 C561.31452549 179.99121013 555.64496882 191.98966753 550 204 C543.97590826 216.81696089 537.92174714 229.61943528 531.85449219 242.41601562 C526.55129662 253.60208996 521.26591804 264.79633087 516 276 C510.37456311 287.96803862 504.72671641 299.92526595 499.0625 311.875 C493.15914861 324.32978981 487.26037118 336.78670189 481.375 349.25 C480.84894165 350.3639917 480.84894165 350.3639917 480.31225586 351.50048828 C474.88945125 362.98539658 469.4811898 374.47710775 464.0770874 385.9708252 C458.35931519 398.1299683 452.6110878 410.27453303 446.85476685 422.41546631 C441.55147772 433.60172252 436.26593254 444.79611162 431 456 C424.97590826 468.81696089 418.92174714 481.61943528 412.85449219 494.41601562 C407.55129676 505.60208967 402.26584545 516.79629692 397 528 C390.97590826 540.81696089 384.92174714 553.61943528 378.85449219 566.41601562 C373.55129676 577.60208967 368.26584545 588.79629692 363 600 C356.60939592 613.59675884 350.18532349 627.17742647 343.74609375 640.7512207 C339.93935853 648.77835211 336.14511505 656.81106502 332.375 664.85546875 C331.81800415 666.04307297 331.81800415 666.04307297 331.24975586 667.25466919 C329.47994077 671.02842748 327.71245368 674.80324085 325.94921875 678.58007812 C325.32041555 679.9219233 324.69151492 681.26372282 324.0625 682.60546875 C323.51722656 683.77231201 322.97195313 684.93915527 322.41015625 686.14135742 C321 689 321 689 319 692 C316.09895134 692.36914349 316.09895134 692.36914349 312.30563354 692.36076355 C311.60972079 692.36332682 310.91380804 692.3658901 310.19680703 692.36853105 C307.8534661 692.37349182 305.51076252 692.35693904 303.16748047 692.34057617 C301.49233007 692.33973039 299.81717856 692.34020408 298.14202881 692.34190369 C293.58434465 692.34276698 289.02689574 692.3250873 284.46926641 692.30418181 C279.71000189 692.28547057 274.9507324 692.28366897 270.19143677 692.28010559 C261.17454589 692.27076876 252.1577637 692.24613287 243.14092076 692.21605712 C232.87748157 692.182564 222.61403729 692.16603992 212.35055709 692.15097082 C191.23364399 692.1195847 170.11682883 692.06679245 149 692 C150.26591433 689.13852993 151.53379289 686.27793416 152.80200195 683.41748047 C153.15702034 682.61493332 153.51203873 681.81238617 153.87781525 680.98551941 C156.84560544 674.29576816 159.97406337 667.70055772 163.1875 661.125 C167.58494228 652.05870781 171.9028091 642.96169267 176.125 633.8125 C181.44365126 622.29613579 186.86155646 610.82926856 192.3125 599.375 C201.04350108 581.02252502 201.04350108 581.02252502 209.73471069 562.65118408 C210.39585285 561.25036319 211.05777988 559.84991238 211.72061157 558.44989014 C212.03106415 557.79401917 212.34151672 557.13814819 212.66137695 556.46240234 C213.11889847 555.4983699 213.11889847 555.4983699 213.58566284 554.51486206 C214.18195241 553.24021693 214.76644847 551.95998403 215.33865356 550.67434692 C216.80847059 547.38687109 218.37015428 544.35867138 220.34204102 541.34179688 C223.29642131 536.51701783 225.50828591 532.15212197 224.57769775 526.38110352 C222.39999031 518.73638922 218.8547891 511.64992607 215.4375 504.5 C214.35386549 502.11998282 213.27650705 499.73709925 212.20507812 497.3515625 C210.24874844 493.00377812 208.27399527 488.6653686 206.2741642 484.3374176 C201.10843975 473.15186947 196.29025676 461.82205277 191.47903442 450.48022461 C188.99109589 444.62601002 186.47805136 438.78258087 183.96875 432.9375 C177.64364012 418.18475313 171.35706001 403.41566961 165.07275391 388.64550781 C157.74242257 371.41860264 150.38086385 354.20531147 143 337 C134.66098461 317.56117007 126.3539592 298.10903172 118.07275391 278.64550781 C110.24344885 260.24597175 102.37605621 241.86300542 94.49276733 223.48654175 C86.58933072 205.06142187 78.72033418 186.6218868 70.87060547 168.17382812 C64.10398465 152.27238416 57.31377568 136.38129297 50.5 120.5 C40.66234822 97.56900698 30.87636702 74.61620258 21.11045837 51.65457153 C18.42569008 45.34404367 15.73462095 39.03625979 13.03671265 32.7313385 C11.41967417 28.95180361 9.80518769 25.17118161 8.19104004 21.39041138 C7.4446733 19.64415944 6.69705353 17.89844248 5.94812012 16.15328979 C4.93225091 13.7858435 3.92069229 11.41660152 2.91015625 9.046875 C2.61140091 8.35386795 2.31264557 7.6608609 2.00483704 6.94685364 C0 2.22792457 0 2.22792457 0 0 Z " fill="#010101" transform="translate(2440,262)"/>
<path d="M0 0 C50.82 0 101.64 0 154 0 C154 259.71 154 519.42 154 787 C103.18 787 52.36 787 0 787 C0 527.29 0 267.58 0 0 Z " fill="#010101" transform="translate(1641,59)"/>
<path d="M0 0 C1 1 1 1 1.12304783 3.20015812 C1.12212604 4.18002406 1.12120424 5.15989 1.12025452 6.16944885 C1.12231651 7.85013458 1.12231651 7.85013458 1.12442017 9.56477356 C1.12082489 10.80482651 1.11722961 12.04487946 1.11352539 13.32250977 C1.11367142 14.61988068 1.11381744 15.91725159 1.1139679 17.25393677 C1.11425586 20.82195929 1.10835932 24.38994848 1.10139394 27.95796323 C1.09516021 31.6829062 1.09455659 35.40784986 1.09336853 39.13279724 C1.09025527 46.19117363 1.08204195 53.2495346 1.07201904 60.30790418 C1.06085774 68.34162971 1.05534741 76.37535596 1.05032361 84.4090873 C1.03985934 100.93940057 1.02226 117.46969832 1 134 C-3.10579783 133.25018538 -6.44901928 131.99737029 -10.25 130.25 C-38.66802402 117.67059299 -69.81161462 116.11262589 -98.98510742 127.03173828 C-110.82827469 131.73319379 -121.48351407 138.52313018 -131 147 C-131.81855469 147.72445312 -132.63710937 148.44890625 -133.48046875 149.1953125 C-163.49330148 177.39341581 -169.74466188 222.9124016 -171 262 C-171.1854951 271.65655374 -171.18310797 281.31580771 -171.20060861 290.97385192 C-171.20871685 294.86315326 -171.22237757 298.75243593 -171.23532104 302.64172363 C-171.25693818 309.35962453 -171.27513551 316.07752746 -171.29092598 322.79544449 C-171.31376066 332.50809998 -171.34188359 342.22073467 -171.37124526 351.93337236 C-171.41875589 367.69629499 -171.46206414 383.45922619 -171.50268555 399.22216797 C-171.54212507 414.52295599 -171.583582 429.8237364 -171.62768555 445.12451172 C-171.63043505 446.07925373 -171.63318456 447.03399574 -171.63601738 448.01766932 C-171.65753996 455.48577621 -171.67917853 462.95388276 -171.70085371 470.4219892 C-171.80683586 506.94797735 -171.90271321 543.47398565 -172 580 C-222.82 580 -273.64 580 -326 580 C-326 387.28 -326 194.56 -326 -4 C-281.78 -4 -237.56 -4 -192 -4 C-191.67 14.15 -191.34 32.3 -191 51 C-188.69 47.37 -186.38 43.74 -184 40 C-162.55844488 9.26016532 -131.17711293 -9.6760753 -94.421875 -16.4921875 C-62.22242488 -21.27064471 -28.10899352 -17.35947343 0 0 Z " fill="#010101" transform="translate(1589,266)"/>
<path d="M0 0 C0.33 0 0.66 0 1 0 C1 4.62 1 9.24 1 14 C-2.96 14 -6.92 14 -11 14 C-10.2575 13.443125 -9.515 12.88625 -8.75 12.3125 C-4.48985398 8.73010448 -1.80999224 5.27914404 0 0 Z " fill="#F0F0F0" transform="translate(4119,940)"/>
<path d="M0 0 C4.29 0 8.58 0 13 0 C13 4.62 13 9.24 13 14 C12.34 12.68 11.68 11.36 11 10 C7.94942615 5.75961289 5.22795237 2.38386975 0 1 C0 0.67 0 0.34 0 0 Z " fill="#EFEFEF" transform="translate(4107,22)"/>
<path d="M0 0 C0.66 0.33 1.32 0.66 2 1 C-4.27 7.27 -10.54 13.54 -17 20 C-17.66 19.67 -18.32 19.34 -19 19 C-6.51480638 5.18223235 -6.51480638 5.18223235 0 0 Z " fill="#3E3E3E" transform="translate(3780,92)"/>
</svg>
