<?xml version="1.0" standalone="no"?>
<!DOCTYPE svg PUBLIC "-//W3C//DTD SVG 20010904//EN"
 "http://www.w3.org/TR/2001/REC-SVG-20010904/DTD/svg10.dtd">
<svg version="1.0" xmlns="http://www.w3.org/2000/svg"
 width="960.000000pt" height="440.000000pt" viewBox="0 0 960.000000 440.000000"
 preserveAspectRatio="xMidYMid meet">
<metadata>
Created by potrace 1.16, written by Peter Selinger 2001-2019
</metadata>
<g transform="translate(0.000000,440.000000) scale(0.100000,-0.100000)"
fill="#000000" stroke="none">
<path d="M2005 4239 c-861 -83 -1578 -702 -1789 -1545 -41 -163 -57 -301 -57
-494 0 -384 92 -727 280 -1042 430 -721 1245 -1107 2075 -983 806 121 1473
723 1671 1510 265 1050 -307 2110 -1325 2455 -267 91 -572 126 -855 99z m280
-439 l0 -75 -145 -7 c-80 -3 -181 -14 -225 -23 -206 -43 -421 -135 -586 -250
-108 -75 -299 -266 -374 -374 -119 -170 -211 -392 -252 -606 -25 -128 -24
-396 1 -530 88 -474 379 -867 806 -1089 360 -187 784 -220 1180 -94 382 122
713 406 894 765 80 161 140 371 153 535 l6 78 -519 2 -519 3 0 75 0 75 599 3
599 2 -6 -147 c-7 -169 -25 -279 -67 -423 -81 -270 -222 -504 -430 -710 -723
-717 -1914 -633 -2534 178 -224 294 -337 634 -337 1012 0 445 157 836 465
1157 314 329 773 526 1206 519 l85 -1 0 -75z m-598 -754 c75 -38 133 -131 133
-212 0 -42 -25 -110 -55 -150 -33 -44 -117 -84 -174 -84 -68 0 -112 16 -161
57 -55 47 -79 102 -80 176 0 98 46 172 135 214 41 20 61 23 110 20 34 -2 75
-12 92 -21z m603 -771 l0 -785 205 0 205 0 0 -75 0 -75 -285 0 -285 0 0 860 0
860 80 0 80 0 0 -785z"/>
<path d="M8270 3569 c-455 -27 -795 -214 -980 -539 -64 -113 -113 -250 -147
-406 -26 -123 -27 -141 -28 -409 0 -229 4 -298 19 -380 39 -212 96 -368 186
-503 160 -245 379 -383 715 -454 99 -21 137 -23 375 -23 209 0 288 4 375 18
226 37 472 116 595 190 l55 33 3 647 2 647 -530 0 -530 0 0 -250 0 -250 245 0
245 0 -2 -227 -3 -227 -56 -16 c-162 -48 -463 -61 -614 -27 -173 40 -312 139
-382 272 -76 145 -110 360 -100 625 10 247 48 390 139 526 80 120 199 195 363
229 107 22 313 22 420 0 147 -31 284 -108 368 -207 22 -27 44 -48 49 -48 8 0
372 332 383 349 8 14 -140 166 -210 216 -228 163 -560 238 -955 214z"/>
<path d="M5160 2210 l0 -1330 940 0 940 0 0 265 0 265 -630 0 -630 0 0 1065 0
1065 -310 0 -310 0 0 -1330z"/>
</g>
</svg>
