<?xml version="1.0" standalone="no"?>
<!DOCTYPE svg PUBLIC "-//W3C//DTD SVG 20010904//EN"
 "http://www.w3.org/TR/2001/REC-SVG-20010904/DTD/svg10.dtd">
<svg version="1.0" xmlns="http://www.w3.org/2000/svg"
 width="600.000000pt" height="600.000000pt" viewBox="0 0 600.000000 600.000000"
 preserveAspectRatio="xMidYMid meet">

<g transform="translate(0.000000,600.000000) scale(0.100000,-0.100000)"
fill="#000000" stroke="none">
<path d="M1512 4831 c-440 -152 -945 -1340 -1136 -2671 -43 -306 -76 -693 -76
-907 l0 -103 278 0 279 0 6 298 c22 1015 207 2113 452 2687 154 359 280 438
433 270 199 -218 351 -889 418 -1837 l6 -98 308 0 309 0 5 53 c3 28 10 117 16
197 44 579 146 1137 260 1426 107 268 234 389 349 329 199 -103 446 -848 570
-1725 17 -118 33 -230 36 -247 l6 -33 255 0 254 0 -5 23 c-2 12 -21 99 -40
192 -150 715 -390 1373 -643 1760 -129 198 -239 310 -362 369 -56 27 -76 31
-146 31 -73 0 -87 -4 -157 -38 -259 -128 -481 -566 -630 -1242 -20 -88 -44
-210 -53 -272 -10 -62 -21 -110 -24 -108 -4 3 -10 30 -14 61 -19 162 -107 543
-172 747 -97 302 -229 559 -355 693 -134 141 -288 193 -427 145z"/>
<path d="M1060 2413 c0 -4 -18 -123 -40 -263 -22 -140 -40 -258 -40 -262 0 -5
35 -8 78 -8 l79 0 18 145 c10 80 21 145 25 145 3 0 23 -65 45 -145 l38 -146
76 3 75 3 40 147 c22 82 41 146 43 145 2 -2 10 -55 18 -118 9 -63 18 -129 21
-146 l5 -33 79 0 79 0 -6 38 c-4 20 -23 141 -42 267 l-36 230 -96 3 -96 3 -38
-143 c-21 -79 -41 -147 -45 -151 -4 -4 -24 59 -46 140 l-39 148 -98 3 c-53 1
-97 -1 -97 -5z"/>
<path d="M2230 2150 l0 -270 175 0 c151 0 182 3 229 20 238 90 207 455 -44
509 -28 6 -121 11 -205 11 l-155 0 0 -270z m345 110 c50 -47 57 -151 14 -211
-23 -33 -77 -52 -134 -47 l-40 3 -3 144 -3 143 70 -4 c57 -3 75 -8 96 -28z"/>
<path d="M4420 2155 l0 -265 80 0 80 0 0 265 0 265 -80 0 -80 0 0 -265z"/>
<path d="M4960 2365 c0 -30 -2 -55 -4 -55 -2 0 -20 7 -39 15 -100 41 -216 -6
-260 -105 -37 -83 -22 -225 31 -283 48 -54 172 -75 237 -41 19 10 31 11 33 5
2 -7 36 -11 83 -11 l79 0 -2 263 -3 262 -77 3 -78 3 0 -56z m-21 -171 c31 -39
30 -148 -1 -181 -21 -23 -67 -30 -103 -17 -41 16 -60 126 -30 184 17 33 27 38
77 39 28 1 41 -5 57 -25z"/>
<path d="M5175 2356 c-4 -36 -4 -69 0 -75 3 -6 21 -11 40 -11 31 0 35 4 45 38
5 20 13 54 16 75 l7 37 -51 0 -50 0 -7 -64z"/>
<path d="M1865 2349 c-84 -32 -134 -103 -143 -205 -8 -107 34 -192 119 -239
45 -24 59 -27 123 -23 61 3 80 8 115 32 39 28 91 98 91 124 0 8 -23 12 -69 12
-64 0 -72 -2 -99 -30 -37 -36 -62 -38 -99 -6 -26 23 -28 29 -28 105 0 69 3 83
22 102 31 32 80 30 109 -4 21 -25 30 -27 94 -27 49 0 70 4 70 13 -1 27 -48 93
-87 121 -35 24 -53 29 -115 32 -40 2 -86 -1 -103 -7z"/>
<path d="M2959 2332 c-72 -37 -109 -97 -116 -184 -10 -118 28 -196 117 -241
49 -25 63 -28 136 -25 68 3 87 7 122 31 68 44 95 94 100 186 4 64 1 86 -17
127 -29 64 -46 82 -106 110 -74 35 -165 33 -236 -4z m196 -133 c22 -41 19
-127 -4 -166 -24 -39 -67 -51 -109 -29 -76 39 -67 213 12 234 42 12 83 -4 101
-39z"/>
<path d="M3575 2340 c-47 -24 -45 -24 -45 -5 0 12 -16 15 -80 15 l-80 0 0
-230 0 -230 80 0 80 0 0 136 0 136 29 29 c35 34 68 37 105 8 26 -20 26 -21 26
-165 l0 -144 80 0 80 0 0 193 c0 216 -2 222 -70 257 -53 27 -152 27 -205 0z"/>
<path d="M4027 2346 c-46 -17 -64 -32 -83 -67 -27 -53 -21 -59 59 -59 61 0 74
3 85 20 15 25 73 27 96 4 36 -35 7 -60 -79 -68 -190 -18 -268 -156 -150 -266
23 -22 36 -25 100 -25 60 0 79 4 104 23 37 27 41 27 41 2 0 -18 7 -20 80 -20
l80 0 0 179 c0 168 -1 180 -23 211 -37 56 -79 74 -182 77 -59 2 -103 -1 -128
-11z m173 -271 c0 -37 -42 -75 -83 -75 -56 0 -76 41 -37 80 15 15 33 20 70 20
47 0 50 -2 50 -25z"/>
<path d="M5386 2325 c-22 -8 -53 -28 -70 -45 -27 -26 -31 -37 -30 -82 0 -44 5
-55 31 -79 20 -17 52 -32 90 -39 91 -19 123 -35 123 -62 0 -31 -18 -48 -50
-48 -27 0 -60 27 -60 48 0 8 -24 12 -75 12 -73 0 -75 -1 -75 -25 0 -39 21 -74
59 -98 32 -19 50 -22 146 -22 93 0 115 3 145 21 73 43 99 118 60 181 -25 41
-62 60 -155 78 -92 17 -95 19 -95 55 0 23 6 31 24 36 37 9 60 1 71 -24 9 -20
17 -22 82 -22 72 0 73 0 73 26 0 79 -175 132 -294 89z"/>
<path d="M2202 1593 l3 -228 278 -3 277 -2 0 214 c0 118 3 221 6 230 6 14 -23
16 -280 16 l-286 0 2 -227z"/>
<path d="M4093 1708 c4 -62 10 -213 13 -335 l7 -223 273 0 274 0 0 148 c0 136
-11 346 -25 470 l-6 52 -271 0 -271 0 6 -112z"/>
<path d="M4904 1561 c-99 -61 -122 -189 -48 -271 83 -91 208 -88 281 6 21 29
28 49 31 98 4 76 -24 129 -83 163 -52 29 -137 31 -181 4z m171 -20 c68 -38 97
-140 60 -210 -59 -116 -225 -116 -282 -1 -28 55 -29 92 -3 144 43 87 139 115
225 67z"/>
<path d="M4910 1405 c0 -98 1 -105 20 -105 17 0 20 7 20 40 0 36 2 40 26 40
39 0 62 -17 69 -50 5 -21 13 -30 26 -30 26 0 25 44 -2 71 l-21 21 21 14 c29
20 28 68 -1 88 -15 11 -45 16 -90 16 l-68 0 0 -105z m131 59 c21 -25 -1 -49
-50 -52 -41 -3 -41 -3 -41 32 0 35 1 36 39 36 23 0 44 -6 52 -16z"/>
</g>
</svg>
