<?xml version="1.0" standalone="no"?>
<!DOCTYPE svg PUBLIC "-//W3C//DTD SVG 20010904//EN"
 "http://www.w3.org/TR/2001/REC-SVG-20010904/DTD/svg10.dtd">
<svg version="1.0" xmlns="http://www.w3.org/2000/svg"
 width="980.000000pt" height="980.000000pt" viewBox="0 0 980.000000 980.000000"
 preserveAspectRatio="xMidYMid meet">
<metadata>
Created by potrace 1.16, written by Peter Selinger 2001-2019
</metadata>
<g transform="translate(0.000000,980.000000) scale(0.100000,-0.100000)"
fill="#000000" stroke="none">
<path d="M2297 3763 c-32 -186 -57 -341 -57 -345 0 -8 220 -12 220 -4 0 14 51
330 54 333 2 2 29 -73 61 -167 l57 -170 97 0 96 0 60 173 c33 94 61 164 63
154 2 -10 11 -86 20 -170 l17 -152 118 -3 c90 -2 117 0 117 10 0 7 -25 163
-57 346 l-57 332 -136 0 -136 0 -42 -137 c-23 -76 -44 -151 -48 -166 -9 -38
-17 -26 -43 63 -13 41 -34 112 -47 158 l-25 82 -138 0 -137 0 -57 -337z"/>
<path d="M3920 3756 l0 -346 233 0 c261 0 315 8 405 63 104 62 148 157 140
306 -3 67 -10 97 -30 136 -35 68 -102 127 -174 155 -55 22 -77 24 -316 28
l-258 4 0 -346z m458 154 c51 -29 80 -72 88 -131 13 -95 -40 -185 -121 -208
-22 -6 -73 -11 -112 -11 l-73 0 0 191 0 191 88 -4 c68 -3 96 -9 130 -28z"/>
<path d="M6840 3751 l0 -349 108 1 107 2 3 348 2 347 -110 0 -110 0 0 -349z"/>
<path d="M7540 4018 c0 -77 -1 -80 -18 -65 -81 73 -257 59 -328 -27 -55 -64
-68 -111 -68 -236 -1 -101 2 -121 23 -163 64 -130 238 -178 350 -96 l41 29 0
-25 0 -25 105 0 105 0 0 345 0 345 -105 0 -105 0 0 -82z m-29 -215 c19 -19 24
-38 27 -94 5 -88 -10 -127 -56 -146 -42 -18 -82 -10 -113 23 -31 33 -40 144
-14 193 30 60 112 72 156 24z"/>
<path d="M7810 4000 l0 -100 60 0 59 0 22 73 c11 39 25 84 29 100 l9 27 -90 0
-89 0 0 -100z"/>
<path d="M5000 4019 c-162 -28 -259 -159 -248 -333 12 -183 131 -288 328 -288
204 0 330 118 330 310 0 83 -11 124 -50 185 -64 101 -210 152 -360 126z m150
-176 c23 -21 33 -40 38 -78 10 -69 0 -139 -24 -172 -41 -54 -127 -54 -168 0
-25 34 -34 147 -16 201 25 77 112 101 170 49z"/>
<path d="M8122 4010 c-124 -26 -190 -108 -171 -214 14 -79 70 -122 207 -155
97 -24 114 -34 110 -70 -7 -63 -100 -66 -127 -3 l-15 32 -104 0 -104 0 7 -37
c12 -67 46 -115 100 -142 45 -24 60 -26 170 -26 112 0 124 2 178 28 78 39 110
86 111 165 1 106 -41 143 -208 186 -111 28 -145 50 -127 84 7 13 26 24 48 28
31 6 39 3 55 -16 10 -12 18 -28 18 -36 0 -11 21 -14 101 -14 l101 0 -7 38
c-11 63 -36 95 -95 124 -62 30 -175 43 -248 28z"/>
<path d="M3416 3990 c-135 -54 -209 -206 -176 -365 21 -106 80 -175 179 -210
58 -20 203 -20 264 1 78 26 139 103 153 193 l7 41 -101 0 -101 0 -20 -44 c-21
-49 -45 -61 -97 -51 -49 9 -67 42 -72 133 -7 134 31 194 110 174 24 -6 38 -18
51 -45 l19 -37 99 0 c110 0 111 1 87 71 -18 53 -54 93 -110 125 -46 25 -65 29
-148 31 -76 3 -105 -1 -144 -17z"/>
<path d="M6360 3997 c-98 -23 -141 -56 -166 -124 -22 -64 -24 -63 89 -63 101
0 104 1 115 25 26 56 114 54 129 -3 9 -36 -18 -52 -92 -52 -123 0 -226 -44
-261 -112 -21 -40 -22 -134 -2 -173 38 -71 97 -99 201 -93 59 3 82 8 114 30
l41 27 6 -24 c6 -25 8 -25 109 -25 l102 0 -5 227 c-3 136 -10 238 -17 254 -16
37 -76 86 -120 99 -62 17 -183 21 -243 7z m170 -356 c0 -32 -6 -44 -31 -65
-72 -61 -167 -6 -111 64 17 22 63 37 115 39 25 1 27 -2 27 -38z"/>
<path d="M5752 3964 c-29 -14 -52 -30 -52 -35 0 -5 -4 -9 -10 -9 -5 0 -10 14
-10 30 l0 30 -100 0 -100 0 0 -288 0 -289 105 -2 105 -2 0 173 c0 153 2 177
19 205 23 37 68 51 110 33 48 -20 56 -49 58 -230 1 -91 2 -169 3 -173 0 -4 47
-7 105 -6 l105 2 0 211 c0 116 -5 227 -10 246 -12 43 -61 93 -112 114 -60 25
-155 21 -216 -10z"/>
</g>
</svg>
