<?xml version="1.0" standalone="no"?>
<!DOCTYPE svg PUBLIC "-//W3C//DTD SVG 20010904//EN"
 "http://www.w3.org/TR/2001/REC-SVG-20010904/DTD/svg10.dtd">
<svg version="1.0" xmlns="http://www.w3.org/2000/svg"
 width="1280.000000pt" height="517.000000pt" viewBox="0 0 1280.000000 517.000000"
 preserveAspectRatio="xMidYMid meet">
<metadata>
Created by potrace 1.16, written by Peter Selinger 2001-2019
</metadata>
<g transform="translate(0.000000,517.000000) scale(0.100000,-0.100000)"
fill="#000000" stroke="none">
<path d="M2220 3748 c0 -1572 3 -1497 -64 -1633 -79 -160 -234 -258 -451 -285
-267 -33 -496 74 -607 285 -63 121 -68 156 -68 489 l0 296 -516 0 -516 0 5
-367 c5 -414 17 -515 81 -708 159 -475 506 -744 1091 -846 171 -30 564 -38
761 -15 403 47 720 184 941 408 172 173 269 341 337 583 63 222 59 119 63
1738 l4 1477 -531 0 -530 0 0 -1422z"/>
<path d="M4665 4009 c-461 -64 -808 -327 -1020 -773 -61 -127 -94 -220 -129
-362 -45 -184 -51 -238 -51 -489 1 -211 3 -253 23 -345 120 -552 466 -940 964
-1084 269 -77 619 -87 907 -25 370 80 711 292 889 552 75 109 132 258 132 346
l0 41 -484 0 -484 0 -12 -29 c-19 -46 -109 -137 -173 -175 -152 -90 -405 -87
-553 7 -130 82 -209 248 -221 465 l-6 102 972 0 971 0 0 123 c0 227 -45 535
-106 729 -82 261 -228 489 -400 627 -182 147 -394 234 -674 276 -127 19 -449
28 -545 14z m408 -644 c190 -40 328 -188 371 -397 9 -42 16 -89 16 -103 l0
-25 -491 0 -492 0 7 79 c20 242 143 403 339 446 82 18 167 18 250 0z"/>
<path d="M7815 4013 c-151 -14 -308 -60 -456 -134 -423 -211 -719 -705 -779
-1298 -75 -754 292 -1390 929 -1606 363 -123 846 -112 1211 30 322 124 596
352 710 590 33 69 70 200 70 247 l0 28 -484 0 -484 0 -25 -43 c-35 -60 -123
-140 -193 -175 -75 -38 -144 -52 -247 -51 -202 1 -350 86 -432 248 -31 63 -63
198 -71 304 l-7 87 977 0 976 0 0 68 c0 189 -38 507 -80 672 -146 571 -480
898 -1020 1000 -182 34 -429 48 -595 33z m367 -647 c189 -41 322 -173 373
-371 8 -32 15 -81 15 -107 l0 -48 -490 0 -490 0 6 63 c24 260 142 420 344 463
75 17 162 16 242 0z"/>
<path d="M11433 3980 c-247 -25 -473 -130 -602 -278 -65 -75 -95 -92 -118 -69
-14 14 -18 42 -21 147 l-4 130 -489 0 -489 0 0 -1950 0 -1950 495 0 495 0 0
545 c0 533 0 545 20 565 19 19 23 19 48 6 15 -8 49 -35 76 -60 121 -113 362
-198 605 -215 602 -42 1038 266 1241 876 116 349 141 799 65 1179 -103 512
-393 869 -825 1015 -154 53 -340 75 -497 59z m-62 -774 c307 -65 449 -354 424
-861 -16 -327 -79 -538 -201 -665 -116 -122 -270 -162 -478 -125 -292 52 -419
264 -433 725 -12 378 53 640 197 793 96 103 197 145 345 146 44 0 110 -6 146
-13z"/>
<path d="M12357 789 c-228 -54 -318 -343 -161 -518 74 -82 176 -117 290 -99
104 16 186 78 233 178 21 44 26 70 26 130 0 81 -12 120 -57 187 -67 100 -207
151 -331 122z m172 -56 c61 -22 124 -83 151 -145 55 -128 6 -273 -119 -346
-40 -23 -57 -27 -126 -27 -92 0 -138 18 -195 75 -68 68 -96 174 -71 267 24 88
119 174 211 192 52 9 88 6 149 -16z"/>
<path d="M12310 490 l0 -170 25 0 c24 0 25 2 25 70 l0 70 44 0 43 0 31 -70
c27 -60 34 -70 56 -70 14 0 26 2 26 6 0 3 -13 37 -30 75 -25 59 -27 71 -14 76
18 7 44 55 44 82 0 70 -52 101 -169 101 l-81 0 0 -170z"/>
</g>
</svg>
