<?xml version="1.0" standalone="no"?>
<!DOCTYPE svg PUBLIC "-//W3C//DTD SVG 20010904//EN"
 "http://www.w3.org/TR/2001/REC-SVG-20010904/DTD/svg10.dtd">
<svg version="1.0" xmlns="http://www.w3.org/2000/svg"
 width="1280.000000pt" height="320.000000pt" viewBox="0 0 1280.000000 320.000000"
 preserveAspectRatio="xMidYMid meet">
<metadata>
Created by potrace 1.16, written by Peter Selinger 2001-2019
</metadata>
<g transform="translate(0.000000,320.000000) scale(0.100000,-0.100000)"
fill="#000000" stroke="none">
<path d="M745 2740 c-312 -187 -586 -355 -607 -371 -52 -42 -97 -110 -120
-181 -17 -56 -18 -113 -18 -984 0 -1021 -4 -950 63 -1022 60 -62 57 -62 812
-62 579 0 690 2 740 15 47 12 219 111 779 448 396 238 730 436 743 442 22 8
57 -24 461 -428 302 -301 449 -442 477 -454 37 -17 93 -18 734 -21 699 -3 721
-2 721 32 0 6 -320 331 -711 722 -490 491 -710 717 -706 727 3 8 439 275 969
593 530 318 971 582 981 588 13 8 20 7 27 -4 6 -9 10 -486 10 -1255 0 -1178 1
-1242 19 -1280 23 -51 80 -101 130 -115 27 -7 367 -10 1078 -8 l1038 3 48 22
c26 12 714 455 1528 984 905 588 1485 959 1494 955 13 -5 15 -134 17 -1013 l3
-1008 30 0 c41 0 1135 659 1201 724 26 26 61 75 78 111 l31 65 3 963 c2 932 2
963 -17 1000 -24 47 -56 77 -103 97 -32 13 -110 15 -555 15 -609 -1 -538 13
-783 -146 -85 -56 -972 -631 -1970 -1279 -998 -648 -1839 -1194 -1869 -1212
-41 -25 -57 -30 -63 -20 -4 6 -8 570 -8 1253 l0 1240 -26 53 c-17 34 -41 62
-67 79 l-41 27 -1072 3 c-1021 2 -1075 1 -1121 -16 -26 -10 -358 -205 -738
-434 -2528 -1521 -2996 -1801 -3002 -1794 -5 4 -10 519 -13 1144 -5 1025 -7
1137 -21 1140 -8 1 -271 -151 -584 -338z"/>
</g>
</svg>
