<?xml version="1.0" standalone="no"?>
<!DOCTYPE svg PUBLIC "-//W3C//DTD SVG 20010904//EN"
 "http://www.w3.org/TR/2001/REC-SVG-20010904/DTD/svg10.dtd">
<svg version="1.0" xmlns="http://www.w3.org/2000/svg"
 width="1280.000000pt" height="249.000000pt" viewBox="0 0 1280.000000 249.000000"
 preserveAspectRatio="xMidYMid meet">
<metadata>
Created by potrace 1.16, written by Peter Selinger 2001-2019
</metadata>
<g transform="translate(0.000000,249.000000) scale(0.100000,-0.100000)"
fill="#000000" stroke="none">
<path d="M1165 2443 c-200 -186 -764 -537 -1093 -681 -40 -18 -70 -37 -67 -42
3 -5 355 -244 783 -531 427 -287 778 -523 780 -525 2 -1 -17 -16 -42 -33 l-45
-32 -292 197 c-296 200 -391 253 -487 273 -82 17 -217 13 -312 -9 -144 -34
-414 -180 -385 -208 14 -13 1204 -812 1214 -815 5 -1 52 34 106 78 257 212
764 525 1030 636 58 24 105 46 105 49 0 3 -358 246 -795 539 -437 294 -795
536 -795 537 0 5 81 54 90 54 5 0 139 -87 297 -194 310 -208 375 -246 473
-271 90 -23 244 -21 344 4 93 24 239 92 326 151 51 35 60 44 49 55 -30 27
-1212 815 -1222 815 -7 -1 -34 -22 -62 -47z"/>
<path d="M3655 1999 c-406 -39 -632 -223 -612 -499 8 -111 31 -165 96 -230
113 -112 291 -165 706 -210 216 -24 256 -33 290 -68 58 -57 13 -131 -95 -158
-76 -19 -185 -15 -246 11 -47 19 -108 77 -125 116 l-11 29 -324 0 c-276 0
-324 -2 -324 -15 0 -32 24 -123 46 -173 68 -154 273 -259 572 -291 130 -14
441 -14 552 0 279 34 475 140 552 297 31 62 33 74 33 167 0 86 -3 107 -25 150
-51 106 -175 195 -345 249 -109 34 -195 50 -433 81 -225 29 -283 43 -318 76
-47 44 -18 104 64 136 58 22 195 24 265 4 54 -16 134 -81 143 -117 l6 -24 299
0 299 0 0 40 c0 116 -107 254 -250 323 -85 41 -227 81 -341 96 -115 16 -362
21 -474 10z"/>
<path d="M4894 1444 c8 -554 10 -584 57 -677 76 -149 244 -240 512 -276 100
-14 397 -14 504 -1 261 33 451 136 521 281 48 99 52 149 52 692 l0 507 -254 0
-255 0 -4 -462 c-4 -512 -3 -508 -69 -583 -55 -63 -107 -80 -243 -80 -102 0
-114 2 -170 30 -67 34 -97 70 -120 148 -12 42 -15 131 -15 499 l0 448 -262 0
-261 0 7 -526z"/>
<path d="M8514 1959 c-3 -6 -3 -243 1 -528 8 -548 10 -572 59 -669 31 -61 125
-149 196 -183 142 -69 249 -89 501 -96 234 -6 367 5 496 43 197 57 308 149
366 302 21 55 21 72 25 600 l3 542 -255 0 -255 0 -3 -462 c-4 -518 -4 -517
-75 -590 -56 -57 -108 -73 -238 -73 -101 0 -115 2 -168 29 -68 33 -109 88
-126 167 -7 31 -11 217 -11 489 l0 440 -254 0 c-175 0 -257 -3 -262 -11z"/>
<path d="M12270 1250 l0 -720 265 0 265 0 0 720 0 720 -265 0 -265 0 0 -720z"/>
<path d="M6710 1785 l0 -175 400 0 400 0 -415 -387 -415 -388 0 -152 0 -153
835 0 835 0 0 180 0 180 -417 2 -417 3 417 384 417 383 0 149 0 149 -820 0
-820 0 0 -175z"/>
<path d="M10330 1245 l0 -715 270 0 270 0 2 255 3 255 269 -255 268 -255 359
0 c198 0 359 2 359 4 0 3 -175 168 -390 367 -214 199 -390 363 -390 365 0 1
180 157 400 345 220 188 400 343 400 345 0 2 -159 4 -352 4 l-353 0 -285 -246
-285 -245 -3 245 -2 246 -270 0 -270 0 0 -715z"/>
</g>
</svg>
