<?xml version="1.0" standalone="no"?>
<!DOCTYPE svg PUBLIC "-//W3C//DTD SVG 20010904//EN"
 "http://www.w3.org/TR/2001/REC-SVG-20010904/DTD/svg10.dtd">
<svg version="1.0" xmlns="http://www.w3.org/2000/svg"
 width="3840.000000pt" height="2160.000000pt" viewBox="0 0 3840.000000 2160.000000"
 preserveAspectRatio="xMidYMid meet">
<metadata>
Created by potrace 1.16, written by Peter Selinger 2001-2019
</metadata>
<g transform="translate(0.000000,2160.000000) scale(0.100000,-0.100000)"
fill="#000000" stroke="none">
<path d="M4342 18548 c-5 -7 -27 -47 -49 -88 -46 -86 -432 -820 -518 -985 -31
-60 -79 -150 -105 -200 -99 -186 -142 -268 -300 -570 -89 -170 -197 -375 -240
-455 -43 -80 -112 -212 -155 -295 -42 -82 -92 -177 -110 -210 -30 -54 -150
-283 -307 -585 -33 -63 -75 -142 -93 -175 -18 -33 -67 -127 -110 -210 -43 -82
-90 -172 -105 -200 -15 -27 -126 -237 -245 -465 -120 -228 -234 -446 -255
-485 -20 -38 -66 -124 -100 -190 -35 -66 -100 -190 -145 -275 -81 -152 -145
-275 -266 -507 -34 -65 -78 -149 -99 -188 -21 -38 -68 -128 -105 -200 -37 -71
-85 -161 -105 -200 -20 -38 -131 -248 -245 -465 -313 -597 -315 -600 -352
-668 -22 -42 -31 -68 -25 -75 5 -7 62 -113 127 -237 65 -124 137 -261 160
-305 23 -44 75 -143 115 -220 40 -77 92 -177 116 -222 24 -46 64 -120 88 -165
24 -46 76 -146 116 -223 40 -77 94 -180 120 -230 26 -49 168 -319 315 -600
147 -280 287 -546 310 -590 23 -44 73 -138 110 -210 139 -267 190 -364 262
-497 40 -76 73 -140 73 -143 0 -3 24 -49 53 -102 30 -54 91 -170 137 -258 46
-88 100 -191 120 -230 20 -38 74 -142 120 -230 45 -88 100 -191 120 -230 52
-95 227 -430 312 -595 39 -74 78 -148 88 -165 10 -16 57 -106 105 -200 48 -93
125 -240 170 -325 45 -85 95 -182 111 -215 17 -33 41 -80 56 -105 14 -25 59
-110 100 -190 42 -80 97 -185 123 -235 59 -111 130 -247 226 -430 40 -77 101
-194 136 -260 35 -66 78 -150 96 -187 l32 -67 477 -1 476 0 53 98 c28 53 68
126 87 162 19 36 49 92 67 125 18 33 81 155 140 270 59 116 111 215 115 220 4
6 38 69 75 140 37 72 85 162 105 200 21 39 75 142 120 230 46 88 86 165 90
170 4 6 39 71 77 145 127 245 215 414 243 465 15 28 58 109 95 180 37 72 87
166 110 210 46 86 508 965 595 1130 29 55 98 188 155 295 155 294 404 768 480
915 37 72 71 135 75 140 4 6 49 91 100 190 51 99 96 185 100 190 4 6 51 96
105 200 54 105 101 195 105 200 4 6 40 73 80 150 40 77 102 196 138 265 35 69
79 152 97 185 18 33 106 200 195 370 90 171 179 342 200 380 20 39 72 138 115
220 42 83 89 171 102 197 l25 47 -19 33 c-11 18 -45 80 -76 138 -152 289 -362
688 -464 885 -63 121 -134 256 -158 300 -51 96 -206 390 -300 570 -37 72 -96
182 -130 245 -34 63 -86 162 -115 220 -29 58 -56 110 -60 115 -4 6 -38 69 -75
140 -37 72 -87 166 -110 210 -23 44 -75 143 -115 220 -40 77 -110 210 -155
295 -77 145 -124 235 -248 470 -27 52 -98 187 -157 300 -60 113 -140 265 -178
339 -68 130 -70 133 -85 110 -8 -13 -68 -127 -134 -254 -221 -422 -261 -499
-327 -620 l-64 -120 58 -110 c32 -60 131 -249 220 -420 90 -170 179 -341 200
-380 20 -38 68 -128 105 -200 37 -71 82 -157 100 -190 18 -33 63 -118 100
-190 37 -71 177 -337 310 -590 133 -253 268 -509 300 -570 31 -60 79 -150 105
-200 26 -49 68 -128 93 -175 24 -47 82 -157 128 -245 45 -88 104 -199 129
-247 l47 -86 -76 -144 c-43 -78 -111 -208 -153 -288 -41 -80 -114 -217 -160
-305 -47 -88 -118 -223 -158 -300 -40 -77 -112 -214 -160 -305 -48 -91 -116
-219 -150 -285 -56 -107 -153 -292 -300 -570 -26 -49 -98 -187 -160 -305 -62
-118 -120 -228 -130 -245 -9 -16 -52 -97 -95 -180 -43 -82 -142 -271 -220
-420 -78 -148 -179 -342 -225 -430 -46 -88 -91 -173 -100 -190 -10 -16 -118
-221 -240 -455 -122 -234 -237 -452 -255 -485 -18 -33 -65 -123 -105 -200 -40
-77 -108 -205 -150 -285 -43 -80 -106 -199 -140 -265 -35 -66 -110 -210 -168
-320 -58 -110 -142 -270 -186 -355 -95 -182 -103 -196 -109 -190 -2 3 -42 79
-89 170 -47 91 -101 194 -120 230 -19 36 -63 119 -98 185 -166 317 -431 819
-555 1055 -51 96 -121 229 -155 295 -113 218 -193 369 -220 420 -15 28 -98
185 -185 350 -86 165 -197 374 -245 465 -48 91 -121 230 -163 310 -41 80 -88
170 -104 200 -16 30 -105 199 -197 375 -93 176 -203 385 -245 465 -43 80 -92
174 -111 210 -18 36 -70 135 -115 220 -45 85 -113 214 -150 285 -37 72 -105
200 -150 285 -45 85 -113 214 -150 285 -37 72 -88 167 -112 213 -209 395 -262
503 -256 519 4 10 59 117 123 238 65 121 139 263 165 315 27 52 69 133 95 180
26 47 84 157 130 245 45 88 102 196 125 240 23 44 68 130 100 190 32 61 66
124 75 140 10 17 64 120 120 230 57 110 106 205 110 210 4 6 40 73 80 150 40
77 92 176 115 220 23 44 75 143 115 220 40 77 85 163 100 190 15 28 52 97 82
155 31 58 81 155 113 215 63 120 124 236 190 360 24 44 92 175 153 290 60 116
200 383 312 595 111 212 227 432 257 490 31 58 80 152 110 210 31 58 64 121
74 140 10 19 44 85 77 145 32 61 93 175 134 255 42 80 117 224 168 320 51 96
117 222 147 280 52 98 74 140 188 355 23 44 77 148 120 230 72 139 283 538
396 752 27 50 49 96 49 102 0 17 -1054 15 -1068 -1z"/>
<path d="M6572 18478 c-23 -46 -88 -171 -145 -278 -57 -107 -176 -334 -266
-505 -90 -170 -187 -355 -216 -410 -154 -292 -375 -713 -507 -965 -83 -157
-169 -321 -193 -365 -23 -44 -75 -143 -115 -220 -40 -77 -110 -210 -155 -295
-137 -259 -184 -349 -405 -770 -117 -223 -235 -448 -263 -500 -27 -52 -73
-138 -100 -190 -58 -111 -425 -809 -502 -955 -262 -498 -303 -575 -415 -790
-34 -66 -73 -138 -85 -160 -12 -22 -57 -107 -100 -190 -43 -82 -94 -181 -115
-220 -21 -38 -67 -127 -103 -196 -36 -69 -81 -155 -100 -190 -19 -35 -64 -120
-100 -189 -37 -69 -77 -145 -91 -170 l-24 -45 65 -125 c36 -69 83 -156 103
-195 38 -71 104 -197 202 -385 31 -58 71 -134 90 -170 19 -36 70 -132 113
-215 42 -82 94 -181 115 -220 21 -38 63 -119 95 -180 32 -60 75 -141 95 -180
20 -38 65 -124 100 -190 59 -113 97 -186 218 -415 27 -52 65 -124 84 -160 19
-36 66 -123 103 -195 37 -71 107 -204 155 -295 48 -91 115 -219 150 -285 35
-66 90 -172 124 -235 67 -128 125 -239 202 -387 29 -54 128 -243 222 -420 94
-178 174 -332 177 -343 4 -12 11 -20 17 -18 5 2 37 55 69 118 33 63 90 171
126 240 36 69 93 177 126 240 33 63 70 133 82 155 12 22 48 90 79 150 l57 111
-54 99 c-29 55 -110 208 -179 340 -69 132 -197 375 -284 540 -86 165 -179 343
-207 395 -27 52 -68 131 -92 175 -50 94 -231 440 -317 605 -33 63 -73 138 -88
165 -15 28 -58 109 -95 180 -37 72 -129 247 -205 390 -75 143 -190 360 -254
483 l-118 223 43 82 c56 110 242 465 289 552 21 39 75 142 120 230 46 88 91
174 100 190 10 17 42 77 73 135 30 58 101 193 157 300 57 107 127 242 158 300
30 58 74 141 97 185 24 44 68 130 100 190 100 192 373 711 505 960 70 132 160
303 200 380 40 77 109 210 155 295 45 85 139 263 208 395 69 132 139 265 155
295 16 30 82 156 147 280 65 124 134 257 155 295 21 39 64 120 95 180 113 215
158 301 195 370 43 81 129 246 225 430 37 72 80 153 95 180 15 28 55 104 90
170 34 66 65 123 69 127 3 4 23 -25 43 -65 41 -80 154 -295 240 -457 31 -58
84 -159 118 -225 34 -66 104 -199 155 -295 146 -276 177 -335 265 -505 45 -88
91 -173 100 -190 10 -16 46 -84 80 -150 60 -115 97 -184 194 -367 24 -46 99
-189 166 -318 67 -129 139 -266 160 -305 65 -120 223 -420 314 -596 24 -47 63
-121 86 -165 43 -81 96 -181 213 -404 36 -69 81 -154 99 -190 19 -36 99 -186
177 -335 79 -148 170 -322 203 -385 33 -63 80 -151 103 -195 23 -44 71 -134
105 -200 35 -66 82 -156 105 -200 23 -44 70 -134 105 -200 34 -66 82 -156 105
-200 24 -44 72 -136 107 -205 123 -237 181 -345 189 -354 5 -5 -11 -46 -35
-90 -24 -45 -74 -139 -111 -211 -37 -71 -82 -157 -100 -190 -18 -33 -63 -118
-100 -190 -37 -71 -85 -161 -105 -200 -21 -38 -68 -128 -105 -200 -37 -71 -75
-143 -85 -160 -9 -16 -55 -102 -100 -190 -45 -88 -120 -230 -165 -315 -45 -85
-117 -222 -160 -305 -43 -82 -108 -206 -145 -275 -37 -69 -95 -179 -130 -245
-34 -66 -89 -172 -122 -235 -33 -63 -73 -137 -88 -165 -15 -27 -62 -117 -105
-200 -43 -82 -143 -274 -223 -425 -148 -281 -199 -378 -305 -580 -33 -63 -95
-180 -137 -260 -42 -80 -110 -208 -150 -285 -40 -77 -89 -171 -110 -210 -20
-38 -66 -124 -100 -190 -58 -110 -192 -365 -295 -560 -23 -44 -73 -138 -110
-210 -37 -71 -84 -161 -105 -200 -35 -66 -69 -130 -203 -385 -271 -517 -389
-741 -504 -958 -74 -140 -132 -256 -130 -259 8 -8 1061 -3 1069 5 4 4 50 90
103 192 95 180 162 308 233 440 19 36 88 169 154 295 66 127 137 262 158 300
21 39 63 118 94 178 123 236 172 328 246 467 43 80 112 213 155 295 43 83 94
182 115 220 62 117 123 231 215 410 48 94 112 214 142 268 29 53 53 99 53 102
0 3 24 49 54 102 29 54 81 152 116 218 34 66 84 161 110 210 26 50 82 158 125
240 43 83 81 155 85 160 4 6 34 62 66 125 32 63 86 167 119 230 95 176 145
271 230 435 43 83 131 250 197 373 65 122 118 224 118 227 0 2 26 53 59 112
32 59 90 169 128 243 39 74 112 214 163 310 91 172 142 270 263 500 33 63 97
185 142 270 45 85 115 218 155 295 40 77 85 163 100 190 15 28 53 100 84 160
l57 110 -69 130 c-37 72 -106 202 -152 290 -45 88 -86 165 -90 170 -4 6 -53
100 -110 210 -56 110 -137 265 -180 345 -68 128 -125 237 -275 525 -23 44 -90
172 -149 285 -60 113 -140 266 -178 340 -39 74 -83 158 -98 185 -15 28 -83
156 -150 285 -124 237 -188 359 -265 505 -23 44 -82 157 -130 250 -48 94 -95
184 -105 200 -16 28 -62 115 -210 400 -99 191 -379 723 -420 800 -21 39 -75
142 -120 230 -46 88 -109 209 -142 268 -32 59 -58 109 -58 111 0 2 -36 73 -81
157 -45 85 -108 206 -141 269 -34 63 -71 133 -83 155 -12 22 -62 117 -110 210
-85 164 -240 462 -350 670 -29 55 -81 154 -115 220 -34 66 -102 195 -151 286
-49 91 -89 171 -89 177 0 9 -122 12 -478 12 l-477 0 -43 -82z"/>
<path d="M13080 10825 l0 -1555 405 0 405 0 0 485 0 485 483 0 482 0 279 -481
c154 -265 284 -483 290 -485 6 -2 217 -3 468 -2 l457 3 -330 565 c-181 310
-329 568 -329 572 0 4 4 8 9 8 19 0 169 120 239 191 131 133 230 301 273 466
27 101 36 290 19 420 -61 489 -370 789 -895 868 -84 13 -271 15 -1177 15
l-1078 0 0 -1555z m2045 911 c32 -13 71 -40 107 -76 77 -77 99 -145 106 -328
4 -122 2 -139 -21 -215 -32 -102 -86 -181 -151 -222 l-49 -30 -614 -1 -613 0
0 448 0 449 593 -3 c554 -3 595 -5 642 -22z"/>
<path d="M17080 10825 l0 -1555 1355 0 1355 0 0 315 0 315 -950 0 -950 0 0
310 0 310 835 0 835 0 0 315 0 315 -835 0 -835 0 0 305 0 305 930 0 930 0 0
310 0 310 -1335 0 -1335 0 0 -1555z"/>
<path d="M20520 10825 l0 -1555 405 0 405 0 0 996 0 995 883 -993 882 -993
408 -3 407 -2 0 1555 0 1555 -405 0 -405 0 -2 -987 -3 -986 -875 986 -875 986
-412 0 -413 1 0 -1555z"/>
<path d="M25737 12373 c-5 -8 -1328 -3010 -1354 -3070 l-13 -33 463 0 464 0
22 58 c12 31 59 150 103 265 l82 207 780 -2 779 -3 102 -260 102 -260 462 -3
c253 -1 461 1 461 5 0 5 -307 704 -682 1556 l-682 1547 -542 0 c-299 0 -545
-3 -547 -7z m606 -748 c30 -77 109 -277 175 -445 263 -667 292 -742 292 -751
0 -5 -220 -9 -531 -9 -421 0 -530 3 -526 13 3 6 50 127 105 267 55 140 168
428 252 640 84 212 156 396 161 409 5 13 11 22 13 20 3 -2 29 -67 59 -144z"/>
<path d="M28582 11238 l3 -1143 23 -80 c29 -103 97 -244 156 -322 144 -191
402 -337 726 -412 103 -24 282 -51 339 -51 22 0 41 -4 41 -10 0 -6 97 -10 270
-10 173 0 270 4 270 10 0 6 22 10 48 10 26 0 102 7 169 15 714 88 1075 371
1143 896 5 43 10 524 10 1157 l0 1082 -405 0 -405 0 -2 -1067 -3 -1068 -27
-51 c-81 -154 -328 -267 -642 -294 -264 -23 -561 34 -723 139 -78 50 -130 105
-159 166 l-24 50 0 1063 0 1062 -405 0 -406 0 3 -1142z"/>
<path d="M32660 10825 l0 -1555 1290 0 1290 0 -2 313 -3 312 -882 3 -883 2 0
1240 0 1240 -405 0 -405 0 0 -1555z"/>
<path d="M34840 12070 l0 -310 605 0 605 0 0 -1245 0 -1245 405 0 405 0 0
1245 0 1245 605 0 605 0 0 310 0 310 -1615 0 -1615 0 0 -310z"/>
</g>
</svg>
