<?xml version="1.0" standalone="no"?>
<!DOCTYPE svg PUBLIC "-//W3C//DTD SVG 20010904//EN"
 "http://www.w3.org/TR/2001/REC-SVG-20010904/DTD/svg10.dtd">
<svg version="1.0" xmlns="http://www.w3.org/2000/svg"
 width="2548.000000pt" height="1058.000000pt" viewBox="0 0 2548.000000 1058.000000"
 preserveAspectRatio="xMidYMid meet">

<g transform="translate(0.000000,1058.000000) scale(0.100000,-0.100000)"
fill="#000000" stroke="none">
<path d="M2817 10388 c-14 -24 -282 -533 -597 -1133 -315 -599 -752 -1430
-970 -1845 -219 -415 -516 -980 -660 -1255 -144 -275 -303 -576 -351 -668 -49
-92 -89 -174 -89 -182 0 -8 15 -43 34 -77 19 -35 204 -387 411 -783 208 -396
499 -952 648 -1235 148 -283 341 -650 427 -815 86 -165 210 -401 275 -525 66
-124 200 -380 299 -571 100 -190 271 -517 381 -727 l200 -382 317 0 316 0 105
198 c130 246 268 509 477 907 230 437 1075 2045 1423 2705 79 151 240 457 357
680 117 223 240 456 273 519 l60 115 -17 30 c-10 17 -117 220 -239 451 -121
231 -281 535 -355 675 -74 140 -228 434 -343 652 -114 218 -306 583 -425 810
-120 227 -223 421 -229 431 -11 16 -20 4 -78 -105 -35 -68 -114 -218 -176
-334 -61 -116 -111 -214 -111 -217 0 -4 228 -440 506 -969 730 -1387 747
-1421 747 -1432 0 -10 -276 -538 -781 -1496 -80 -151 -261 -495 -402 -765
-252 -479 -899 -1709 -1027 -1952 -35 -68 -68 -125 -72 -127 -4 -3 -28 34 -53
82 -83 158 -656 1248 -908 1727 -817 1551 -1286 2446 -1307 2491 l-23 51 86
164 c47 90 132 252 189 359 56 107 217 413 358 680 140 267 392 746 559 1065
1419 2698 1474 2803 1484 2828 6 16 -15 17 -345 17 l-350 0 -24 -42z"/>
<path d="M3927 9623 c-356 -677 -1414 -2688 -2005 -3813 -85 -162 -180 -342
-210 -400 l-55 -105 195 -370 c107 -203 408 -775 668 -1270 723 -1375 745
-1417 755 -1417 4 0 87 150 183 332 l175 332 -21 37 c-11 20 -163 308 -337
641 -175 333 -450 856 -612 1163 l-294 558 309 587 c314 596 1613 3066 1846
3510 71 133 131 242 136 242 7 0 312 -575 910 -1715 195 -370 412 -784 810
-1540 567 -1077 570 -1083 563 -1102 -4 -10 -88 -173 -188 -363 -100 -190
-279 -529 -397 -755 -119 -225 -256 -486 -305 -580 -50 -93 -163 -309 -253
-480 -89 -170 -412 -785 -718 -1365 -776 -1477 -800 -1523 -808 -1542 -6 -17
15 -18 345 -18 l350 0 24 43 c14 23 98 181 187 352 90 171 247 470 350 665
103 195 242 461 310 590 68 129 164 312 213 405 49 94 181 343 292 555 111
212 295 561 407 775 113 215 363 691 557 1058 193 367 351 672 351 678 0 9
-448 867 -982 1884 -53 99 -149 284 -215 410 -208 397 -440 839 -598 1140
-221 421 -448 854 -645 1230 -95 182 -188 358 -207 393 l-35 62 -313 0 -313 0
-425 -807z"/>
<path d="M8660 5275 l0 -1035 270 0 270 0 0 325 0 325 323 0 322 -1 165 -286
c91 -157 177 -303 193 -325 l27 -38 300 0 c165 0 300 4 300 8 0 5 -95 171
-210 370 -116 198 -212 366 -215 374 -3 8 16 27 45 47 69 46 178 164 223 241
62 108 87 202 87 335 0 63 -5 138 -11 167 -57 280 -247 455 -558 512 -70 14
-195 16 -807 16 l-724 0 0 -1035z m1396 590 c77 -55 99 -103 110 -239 11 -132
-28 -239 -109 -297 l-40 -29 -409 0 -408 0 0 301 0 300 408 -3 407 -3 41 -30z"/>
<path d="M11330 5275 l0 -1035 900 0 900 0 0 210 0 210 -630 0 -630 0 0 205 0
205 555 0 555 0 0 210 0 210 -555 0 -555 0 0 205 0 205 620 0 620 0 0 205 0
205 -890 0 -890 0 0 -1035z"/>
<path d="M13620 5275 l0 -1035 270 0 270 0 2 662 3 662 589 -662 588 -662 269
0 269 0 0 1035 0 1035 -270 0 -270 0 -2 -656 -3 -656 -582 656 -583 656 -275
0 -275 0 0 -1035z"/>
<path d="M17087 6278 c-8 -18 -209 -474 -447 -1013 -238 -539 -436 -990 -441
-1003 l-9 -22 307 2 307 3 66 170 66 170 524 0 524 0 67 -170 66 -170 307 -3
307 -2 -6 21 c-4 12 -201 461 -437 998 -237 537 -437 993 -446 1014 l-15 37
-363 0 -364 0 -13 -32z m552 -815 c94 -241 171 -441 171 -445 0 -5 -157 -8
-350 -8 -192 0 -350 3 -350 8 0 15 344 882 350 882 4 0 84 -197 179 -437z"/>
<path d="M18997 5543 c5 -847 2 -802 71 -938 48 -94 152 -196 258 -252 195
-103 474 -159 749 -150 621 19 936 182 1025 532 18 71 20 129 26 826 l7 749
-270 0 -271 0 -4 -712 -3 -713 -23 -37 c-45 -72 -136 -126 -277 -164 -109 -29
-372 -27 -478 4 -97 28 -146 53 -198 99 -84 76 -79 22 -79 818 l0 705 -269 0
-270 0 6 -767z"/>
<path d="M21710 5275 l0 -1035 860 0 860 0 0 210 0 210 -590 0 -590 0 0 825 0
825 -270 0 -270 0 0 -1035z"/>
<path d="M23170 6105 l0 -205 400 0 400 0 0 -830 0 -830 270 0 270 0 0 830 0
830 405 0 405 0 0 205 0 205 -1075 0 -1075 0 0 -205z"/>
</g>
</svg>
