<?xml version="1.0" standalone="no"?>
<!DOCTYPE svg PUBLIC "-//W3C//DTD SVG 20010904//EN"
 "http://www.w3.org/TR/2001/REC-SVG-20010904/DTD/svg10.dtd">
<svg version="1.0" xmlns="http://www.w3.org/2000/svg"
 width="960.000000pt" height="449.000000pt" viewBox="0 0 960.000000 449.000000"
 preserveAspectRatio="xMidYMid meet">
<metadata>
Created by potrace 1.16, written by Peter Selinger 2001-2019
</metadata>
<g transform="translate(0.000000,449.000000) scale(0.100000,-0.100000)"
fill="#000000" stroke="none">
<path d="M3220 4160 l0 -330 -1166 -2 -1165 -3 -444 -855 c-245 -470 -445
-861 -445 -867 0 -10 329 -13 1610 -13 l1610 0 0 -330 0 -330 1560 0 1560 0 0
330 0 330 1173 2 1172 3 447 860 c246 473 447 863 448 868 0 4 -729 7 -1620 7
l-1620 0 0 330 0 330 -1560 0 -1560 0 0 -330z m2720 -395 l0 -335 1285 -2
1284 -3 -242 -467 -242 -468 -1042 0 -1043 0 0 -335 0 -335 -1155 0 -1155 0 0
335 0 335 -1283 2 -1282 3 244 473 245 472 1038 0 1038 0 0 330 0 330 1155 0
1155 0 0 -335z"/>
<path d="M121 845 c-111 -35 -123 -78 -119 -437 3 -254 4 -276 24 -313 13 -25
36 -47 64 -62 43 -23 45 -23 452 -23 l408 0 0 75 0 75 -322 2 -323 3 -3 259
c-2 182 1 263 9 272 9 11 70 14 315 14 l304 0 0 75 0 75 -382 -1 c-293 0 -393
-4 -427 -14z"/>
<path d="M1040 435 l0 -425 150 0 150 0 0 185 0 185 225 0 225 0 0 -185 0
-185 150 0 150 0 0 425 0 425 -150 0 -150 0 0 -165 0 -165 -225 0 -225 0 0
165 0 165 -150 0 -150 0 0 -425z"/>
<path d="M2352 845 c-50 -15 -77 -37 -101 -80 -14 -26 -16 -70 -16 -330 0
-291 1 -301 22 -341 16 -29 36 -48 66 -63 42 -20 57 -21 460 -21 l417 0 0 75
0 75 -332 2 -333 3 -3 108 -3 107 306 0 305 0 0 75 0 75 -305 0 -305 0 0 78
c0 47 5 83 12 90 9 9 100 12 349 12 l337 0 42 -97 c214 -491 242 -549 269
-575 37 -34 94 -41 273 -37 153 4 174 13 208 80 16 31 312 704 337 767 4 9
-22 12 -113 12 l-119 0 -141 -348 c-127 -310 -144 -347 -165 -350 -23 -3 -33
19 -165 345 l-141 348 -559 2 c-447 1 -568 -1 -602 -12z"/>
<path d="M5668 850 c-53 -16 -89 -45 -111 -90 -21 -43 -22 -56 -22 -325 0
-205 3 -290 13 -317 17 -47 71 -95 119 -105 21 -4 205 -8 408 -8 408 0 423 2
474 60 46 53 53 111 49 403 -3 253 -3 258 -28 301 -16 28 -39 52 -65 65 -38
20 -56 21 -425 23 -212 1 -397 -2 -412 -7z m620 -152 c9 -9 12 -80 12 -259 0
-136 -3 -254 -6 -263 -5 -14 -35 -16 -225 -16 -206 0 -219 1 -229 19 -13 25
-14 470 0 505 l10 26 213 0 c152 0 216 -3 225 -12z"/>
<path d="M6740 435 l0 -425 455 0 455 0 0 75 0 75 -305 0 -305 0 0 350 0 350
-150 0 -150 0 0 -425z"/>
<path d="M7801 850 c-39 -9 -77 -35 -104 -73 -28 -37 -40 -204 -33 -442 6
-169 9 -195 29 -235 16 -33 34 -51 67 -67 44 -23 49 -23 457 -23 l413 0 0 75
0 75 -325 0 -325 0 -10 26 c-6 14 -10 63 -10 110 l0 84 310 0 310 0 0 75 0 75
-310 0 -310 0 0 64 c0 36 4 76 10 90 l10 26 495 0 495 0 0 -350 0 -350 150 0
150 0 0 350 0 350 165 0 165 0 0 75 0 75 -882 -1 c-486 -1 -898 -5 -917 -9z"/>
<path d="M4380 425 l0 -425 150 0 150 0 0 355 0 355 213 0 c152 0 216 -3 225
-12 7 -7 12 -44 12 -94 0 -65 -3 -83 -16 -88 -9 -3 -94 -6 -190 -6 l-174 0 0
-69 0 -70 213 -185 212 -185 203 -1 c111 0 202 4 202 8 0 5 -109 89 -242 188
l-242 179 120 6 c65 4 120 7 121 8 1 0 18 15 37 32 44 38 60 108 54 231 -6 95
-23 136 -71 172 -28 21 -38 21 -503 24 l-474 3 0 -426z"/>
</g>
</svg>
