<?xml version="1.0" encoding="UTF-8"?>
<svg version="1.1" xmlns="http://www.w3.org/2000/svg" width="467" height="112">
<path d="M0 0 C7.32637168 4.29973945 11.1839188 10.87701871 13.8046875 18.81640625 C16.07928069 29.23097618 15.4238617 40.44354729 10.5 50 C6.21660184 56.42993178 1.14640172 61.22013314 -6.5 63 C-14.11803486 63.98419332 -20.08907234 63.52290672 -26.6953125 59.484375 C-28.5 58 -28.5 58 -31.5 54 C-31.83 63.57 -32.16 73.14 -32.5 83 C-36.79 83 -41.08 83 -45.5 83 C-47.25439163 81.24560837 -46.61982963 78.94502544 -46.62442017 76.60829163 C-46.62082489 75.8357756 -46.61722961 75.06325958 -46.61352539 74.26733398 C-46.61367142 73.4576416 -46.61381744 72.64794922 -46.6139679 71.8137207 C-46.61326854 69.12448492 -46.6054751 66.43531751 -46.59765625 63.74609375 C-46.59579215 61.88664284 -46.59436821 60.02719144 -46.59336853 58.16773987 C-46.58954271 53.26370904 -46.57971188 48.35970764 -46.56866455 43.45568848 C-46.55845181 38.45548908 -46.55387121 33.45528494 -46.54882812 28.45507812 C-46.53808967 18.63670579 -46.52101248 8.81835534 -46.5 -1 C-44.52090602 -1.02686553 -42.54171029 -1.04633375 -40.5625 -1.0625 C-39.46035156 -1.07410156 -38.35820313 -1.08570312 -37.22265625 -1.09765625 C-34.5 -1 -34.5 -1 -33.5 0 C-33.04540142 2.65463121 -32.79756762 5.32189138 -32.5 8 C-31.84 7.0925 -31.18 6.185 -30.5 5.25 C-22.88080742 -3.65664618 -10.47872825 -4.66952392 0 0 Z M-25.90625 14.3984375 C-31.41466981 20.70749972 -31.9449439 25.26426425 -31.81640625 33.5078125 C-31.26214216 39.62524579 -29.33306046 43.29787243 -24.875 47.4375 C-20.37258031 50.39961822 -16.81828193 50.61029465 -11.5 50 C-7.11887312 48.58508354 -4.45941271 46.38675735 -2.125 42.4375 C0.96075467 35.90994205 1.71009714 29.50847621 -0.18359375 22.453125 C-2.30477364 17.20738552 -4.63898035 13.93495526 -9.5 11 C-15.81741786 9.18530187 -21.03410046 9.55335545 -25.90625 14.3984375 Z " fill="#05B8EB" transform="translate(49.5,26)"/>
<path d="M0 0 C6.42091363 3.85039712 9.19623469 8.68557094 11.25 15.8125 C11.60655337 18.56693393 11.60410959 21.25762309 11.54296875 24.03125 C11.53872391 24.77459595 11.53447906 25.51794189 11.53010559 26.28381348 C11.51349081 28.62709858 11.47587454 30.96948077 11.4375 33.3125 C11.42243078 34.91404996 11.40874632 36.51561358 11.39648438 38.1171875 C11.36364426 42.01596583 11.31198563 45.91408056 11.25 49.8125 C13.23 49.8125 15.21 49.8125 17.25 49.8125 C17.27687279 51.62492052 17.29633715 53.43745233 17.3125 55.25 C17.32410156 56.25933594 17.33570313 57.26867187 17.34765625 58.30859375 C17.25 60.8125 17.25 60.8125 16.25 61.8125 C10.48243358 62.2102632 6.33493803 61.90334469 1.25 58.8125 C-0.20042114 56.49799818 -0.9051581 54.44641886 -1.75 51.8125 C-2.41 52.72 -3.07 53.6275 -3.75 54.5625 C-7.59064156 59.20418966 -13.66050745 62.3023588 -19.66015625 63.05078125 C-26.535639 63.28786686 -33.16589721 61.97832077 -38.45703125 57.3046875 C-41.98144354 52.93726017 -42.91691664 48.35020513 -42.75 42.8125 C-41.57896563 35.78629378 -38.38496211 32.81736247 -32.875 28.625 C-26.09850818 24.69463475 -19.9661822 24.54423453 -12.3125 24.6875 C-11.39017578 24.69652344 -10.46785156 24.70554687 -9.51757812 24.71484375 C-7.26144191 24.7382234 -5.00586316 24.77099084 -2.75 24.8125 C-3.00620684 23.2059324 -3.28055871 21.6022517 -3.5625 20 C-3.71332031 19.10667969 -3.86414063 18.21335937 -4.01953125 17.29296875 C-4.82692475 14.55128495 -5.45905108 13.48828671 -7.75 11.8125 C-12.29905112 10.3140946 -16.56350978 10.35261592 -20.9375 12.3125 C-25.102122 14.68274579 -27.92259403 17.99978589 -30.75 21.8125 C-34.80281712 20.58722971 -38.19360764 19.11369506 -41.75 16.8125 C-40.9650225 10.54373606 -37.26383708 6.97612558 -32.75 2.8125 C-23.45215331 -3.23769456 -10.20188288 -4.86457494 0 0 Z M-26.75 37.8125 C-28.7845567 40.37781062 -28.76421348 41.58034648 -28.5625 44.875 C-27.70409508 47.97846393 -27.24460035 48.8970033 -24.75 50.8125 C-19.88836083 51.74131575 -15.7868682 51.3309341 -11.375 49.125 C-6.33882729 44.68837166 -4.48083603 41.28795234 -2.75 34.8125 C-5.62557703 34.73111574 -8.49882262 34.67182149 -11.375 34.625 C-12.18324219 34.59986328 -12.99148438 34.57472656 -13.82421875 34.54882812 C-18.90870502 34.48682219 -22.33818566 34.99059067 -26.75 37.8125 Z " fill="#06B8EB" transform="translate(414.75,26.1875)"/>
<path d="M0 0 C2.75 2.375 2.75 2.375 5 5 C6.0209375 6.051875 6.0209375 6.051875 7.0625 7.125 C13.16379729 16.17853792 13 23.76851757 13 35 C-2.18 35 -17.36 35 -33 35 C-28.71559877 43.7819843 -28.71559877 43.7819843 -21 48 C-14.55557339 49.83963242 -8.98282427 48.90394394 -3 46 C-1.6078125 44.88625 -1.6078125 44.88625 -0.1875 43.75 C2 42 2 42 3.93359375 42.16796875 C6.47894747 43.19284652 7.54485839 44.43107299 9.25 46.5625 C10.03117187 47.52349609 10.03117187 47.52349609 10.828125 48.50390625 C11.21484375 48.99761719 11.6015625 49.49132812 12 50 C5.78922708 57.10943781 -1.31177869 61.4403546 -10.84765625 62.23828125 C-20.61711399 62.46382159 -28.65807468 61.05335769 -36.375 54.75 C-43.66982919 47.7391908 -46.9361903 40.15992547 -47.3125 30.125 C-47.04869203 19.9916705 -43.20844986 11.59969492 -36.3359375 4.2109375 C-26.72986873 -4.69331802 -11.53511724 -6.19478518 0 0 Z M-29 14 C-31.26819582 17.02618984 -33 20.15990595 -33 24 C-22.44 24 -11.88 24 -1 24 C-1.98380413 17.1133711 -2.25447204 15.5346156 -7 11 C-15.06884717 7.22309282 -21.94620528 8.93914386 -29 14 Z " fill="#05B8EB" transform="translate(118,27)"/>
<path d="M0 0 C8.46723415 7.15010884 13.88728255 14.38536178 15.1875 25.61328125 C15.54339045 35.07774288 13.56594436 42.40402732 7.4375 49.6875 C6.24928868 50.93612885 5.04203216 52.16703858 3.8125 53.375 C3.3278125 53.87 2.843125 54.365 2.34375 54.875 C-4.506706 61.26875893 -12.75320082 61.9569032 -21.7578125 61.71484375 C-31.01732267 60.79732964 -38.20025966 56.4477133 -44.1875 49.375 C-49.00918101 41.56509231 -52.33788336 33.70413627 -51.1875 24.375 C-48.29779723 13.83432252 -43.32698109 5.59143432 -34.1875 -0.625 C-22.35654783 -5.74650045 -11.55977855 -5.89322044 0 0 Z M-35.05859375 17.69140625 C-38.32719993 22.56604038 -37.69895166 28.77034223 -37.1875 34.375 C-35.60731629 39.70812001 -32.97011017 43.44021649 -28.1875 46.375 C-22.4667547 49.38591858 -17.4687124 50.07956693 -11.1875 48.375 C-5.36171547 45.35007342 -1.37775138 41.18832144 1.1875 35.125 C2.440682 27.605908 1.68667538 21.39283859 -2.72265625 15.06640625 C-6.0324369 11.24471286 -10.12080361 8.74397136 -15.16796875 8.13671875 C-24.03318666 7.83859638 -29.50065031 10.89163349 -35.05859375 17.69140625 Z " fill="#05B8EB" transform="translate(285.1875,27.625)"/>
<path d="M0 0 C5.35315892 4.66977693 6.86899814 10.0865073 8 17 C8.48555873 24.38200861 8.28359594 31.79536513 8.1875 39.1875 C8.17242767 41.20897442 8.15874378 43.23045969 8.14648438 45.25195312 C8.11367671 50.1682401 8.06203458 55.0839985 8 60 C5.37670316 61.31164842 3.36301375 61.13262846 0.4375 61.125 C-0.55378906 61.12757812 -1.54507813 61.13015625 -2.56640625 61.1328125 C-5 61 -5 61 -6 60 C-6.12338298 57.05370616 -6.18619187 54.1272851 -6.2109375 51.1796875 C-6.23902494 49.34634553 -6.26768951 47.51301232 -6.296875 45.6796875 C-6.3380154 42.78320739 -6.37489135 39.88688765 -6.40136719 36.99023438 C-6.42910863 34.19887125 -6.47500196 31.40825829 -6.5234375 28.6171875 C-6.52669037 27.7596286 -6.52994324 26.9020697 -6.53329468 26.01852417 C-6.64261376 20.62666771 -7.39187306 16.75762301 -10 12 C-14.06859041 9.28760639 -17.22783659 9.37896504 -22 10 C-26.28720205 11.7795933 -28.24032516 13.88208962 -30.125 18.00390625 C-33.14039757 25.86657144 -32.64259428 34.26147309 -32.6875 42.5625 C-32.71657383 45.0529982 -32.75101077 47.54331391 -32.78999329 50.03367615 C-32.81246995 51.57384398 -32.82829594 53.11412605 -32.83683777 54.6544342 C-32.8903416 59.8903416 -32.8903416 59.8903416 -34 61 C-35.99799572 61.09873816 -37.99957158 61.12971799 -40 61.125 C-41.093125 61.12757812 -42.18625 61.13015625 -43.3125 61.1328125 C-46 61 -46 61 -47 60 C-47.09396057 58.06693502 -47.11743517 56.13041162 -47.11352539 54.19506836 C-47.11344986 52.95385727 -47.11337433 51.71264618 -47.11329651 50.43382263 C-47.10818911 49.0691626 -47.1029731 47.70450298 -47.09765625 46.33984375 C-47.095792 44.95121817 -47.09436813 43.56259193 -47.09336853 42.17396545 C-47.08954387 38.51278885 -47.07971403 34.8516517 -47.06866455 31.19049072 C-47.05844932 27.45707737 -47.05387067 23.72365766 -47.04882812 19.99023438 C-47.0380917 12.66013615 -47.02049534 5.33007862 -47 -2 C-42.71 -2 -38.42 -2 -34 -2 C-33.67 0.97 -33.34 3.94 -33 7 C-32.13375 5.906875 -31.2675 4.81375 -30.375 3.6875 C-22.1115894 -5.95964209 -10.58192084 -5.73112521 0 0 Z " fill="#07B8EB" transform="translate(355,27)"/>
<path d="M0 0 C3.75710947 3.55975158 7.07742508 6.76818275 8 12 C6.73308493 12.67408308 5.46129251 13.33900497 4.1875 14 C3.47980469 14.37125 2.77210938 14.7425 2.04296875 15.125 C0 16 0 16 -3 16 C-4.24377577 14.53298243 -5.48518173 13.05985071 -6.62109375 11.5078125 C-8.9351258 8.97745451 -11.08196567 8.0986198 -14.47265625 7.734375 C-15.32730469 7.73953125 -16.18195313 7.7446875 -17.0625 7.75 C-17.91972656 7.74484375 -18.77695313 7.7396875 -19.66015625 7.734375 C-22.27052798 7.85007512 -22.27052798 7.85007512 -25 10 C-26.17778312 12.30371421 -26.17778312 12.30371421 -26 15 C-22.158113 19.82327991 -18.23986782 21.33117411 -12.5625 23.0625 C-4.38449868 25.61232225 2.03544133 28.62408426 7 36 C8.66983359 40.93779013 8.19523622 45.37217088 6.13671875 50.11328125 C3.06746616 55.20760771 -1.96015538 58.70686106 -7.57421875 60.52734375 C-16.72672936 62.31068318 -25.90264938 61.83319371 -34 57 C-37.61892686 54.26448121 -40.79835911 51.20164089 -44 48 C-44 45.56699753 -43.34837726 44.35650268 -41.66015625 42.62890625 C-37.45555949 39 -37.45555949 39 -35 39 C-33.33333333 40.66666667 -31.66666667 42.33333333 -30 44 C-23.99309692 48.41323492 -20.40355941 49.25977401 -13 49 C-11.32442621 48.71479595 -9.65182755 48.40044304 -8 48 C-7.05392193 45.25038489 -7.05392193 45.25038489 -7 42 C-10.83573101 37.06391787 -15.1741807 35.45643881 -20.875 33.5 C-27.84339604 31.08475162 -34.15886105 28.598776 -38.875 22.625 C-40.88068833 17.94506056 -41.53274512 13.9039789 -40.0625 9 C-37.59758165 3.28183356 -33.20335935 -0.43331501 -27.67578125 -3.13671875 C-18.6527871 -6.3478004 -7.82672121 -5.89523422 0 0 Z " fill="#06B8EB" transform="translate(221,28)"/>
<path d="M0 0 C4.62 0 9.24 0 14 0 C14 24.42 14 48.84 14 74 C17.3 74 20.6 74 24 74 C24.02687279 75.81242052 24.04633715 77.62495233 24.0625 79.4375 C24.07410156 80.44683594 24.08570313 81.45617187 24.09765625 82.49609375 C24 85 24 85 23 86 C15.90643575 86.53458745 9.10113759 86.97900278 3 83 C0.12107713 78.42948314 -0.42211993 74.53084637 -0.34057617 69.25048828 C-0.34101425 68.49858719 -0.34145233 67.7466861 -0.34190369 66.97200012 C-0.33982565 64.50450011 -0.31654202 62.03769275 -0.29296875 59.5703125 C-0.28736927 57.85253267 -0.28310084 56.13474802 -0.28010559 54.41696167 C-0.26868447 49.90908439 -0.23924101 45.40149988 -0.20599365 40.89373779 C-0.17523368 36.28857381 -0.16158761 31.68336224 -0.14648438 27.078125 C-0.11436846 18.05193441 -0.06162304 9.02603742 0 0 Z " fill="#06B8EB" transform="translate(441,2)"/>
<path d="M0 0 C3.96 0 7.92 0 12 0 C12.66 2.31 13.32 4.62 14 7 C14.721875 6.21625 15.44375 5.4325 16.1875 4.625 C21.570516 -0.39914827 25.92789956 -0.21110748 33 0 C33 4.62 33 9.24 33 14 C29.74479167 14.16276042 26.48958333 14.32552083 23.234375 14.48828125 C19.84985961 15.0237541 18.39545512 15.59884142 16 18 C15.10432798 20.68701607 14.85874037 22.32372269 14.81054688 25.08837891 C14.79382935 25.90577545 14.77711182 26.723172 14.7598877 27.56533813 C14.74631226 28.44354218 14.73273682 29.32174622 14.71875 30.2265625 C14.70034058 31.12998383 14.68193115 32.03340515 14.66296387 32.96420288 C14.58421234 36.83343581 14.51634708 40.70284132 14.44775391 44.57226562 C14.39617159 47.39462276 14.3388821 50.21682349 14.28125 53.0390625 C14.26767456 53.921315 14.25409912 54.8035675 14.2401123 55.71255493 C14.11284684 61.88715316 14.11284684 61.88715316 13 63 C11.00200428 63.09873816 9.00042842 63.12971799 7 63.125 C5.906875 63.12757812 4.81375 63.13015625 3.6875 63.1328125 C1 63 1 63 0 62 C-0.09396057 60.06693502 -0.11743517 58.13041162 -0.11352539 56.19506836 C-0.11344986 54.95385727 -0.11337433 53.71264618 -0.11329651 52.43382263 C-0.10818911 51.0691626 -0.1029731 49.70450298 -0.09765625 48.33984375 C-0.095792 46.95121817 -0.09436813 45.56259193 -0.09336853 44.17396545 C-0.08954387 40.51278885 -0.07971403 36.8516517 -0.06866455 33.19049072 C-0.05844932 29.45707737 -0.05387067 25.72365766 -0.04882812 21.99023438 C-0.0380917 14.66013615 -0.02049534 7.33007862 0 0 Z " fill="#06B8EB" transform="translate(141,25)"/>
<path d="M0 0 C0.33 0 0.66 0 1 0 C1.33 2.64 1.66 5.28 2 8 C2.721875 7.05125 3.44375 6.1025 4.1875 5.125 C6.49809898 2.32587438 8.44811452 1.01482442 12 0 C11.06409496 1.1055189 10.12620142 2.20935453 9.1875 3.3125 C8.40439453 4.23482422 8.40439453 4.23482422 7.60546875 5.17578125 C7.07566406 5.77777344 6.54585937 6.37976562 6 7 C5.50113281 7.57105469 5.00226562 8.14210938 4.48828125 8.73046875 C3 10 3 10 0 10 C0 6.7 0 3.4 0 0 Z " fill="#23C1ED" transform="translate(15,26)"/>
<path d="M0 0 C0.66 0.33 1.32 0.66 2 1 C-0.64 3.64 -3.28 6.28 -6 9 C-6.33 8.01 -6.66 7.02 -7 6 C-4.69 4.02 -2.38 2.04 0 0 Z " fill="#18BEEC" transform="translate(184,67)"/>
<path d="M0 0 C0.66 0.33 1.32 0.66 2 1 C-0.64 3.64 -3.28 6.28 -6 9 C-6 6 -6 6 -3.5625 3.375 C-2.716875 2.59125 -1.87125 1.8075 -1 1 C-0.67 0.67 -0.34 0.34 0 0 Z " fill="#1ABEED" transform="translate(381,55)"/>
</svg>
