<?xml version="1.0" standalone="no"?>
<!DOCTYPE svg PUBLIC "-//W3C//DTD SVG 20010904//EN"
 "http://www.w3.org/TR/2001/REC-SVG-20010904/DTD/svg10.dtd">
<svg version="1.0" xmlns="http://www.w3.org/2000/svg"
 width="3346.000000pt" height="497.000000pt" viewBox="0 0 3346.000000 497.000000"
 preserveAspectRatio="xMidYMid meet">
<metadata>
Created by potrace 1.16, written by Peter Selinger 2001-2019
</metadata>
<g transform="translate(0.000000,497.000000) scale(0.100000,-0.100000)"
fill="#000000" stroke="none">
<path d="M20860 2485 l0 -2445 95 0 95 0 0 2445 0 2445 -95 0 -95 0 0 -2445z"/>
<path d="M23943 4158 l-383 -211 0 -149 c0 -81 3 -148 7 -148 22 0 635 312
665 339 62 54 92 129 96 241 2 52 2 105 1 117 -4 20 -36 5 -386 -189z"/>
<path d="M26832 4262 c5 -89 10 -120 31 -165 49 -107 86 -133 424 -298 168
-82 307 -149 309 -149 2 0 4 67 4 149 l0 149 -362 200 c-200 109 -374 205
-387 212 l-24 12 5 -110z"/>
<path d="M1090 3530 c0 -456 2 -830 4 -830 6 0 1470 821 1479 830 8 7 -1451
830 -1472 830 -8 0 -11 -229 -11 -830z"/>
<path d="M25410 2896 l0 -1276 200 0 200 0 -2 1133 -3 1132 -27 57 c-57 123
-182 214 -307 225 l-61 6 0 -1277z"/>
<path d="M23855 3550 c-478 -52 -786 -389 -821 -900 -32 -465 210 -864 606
-1002 227 -79 512 -72 732 16 104 42 171 89 273 191 88 87 108 113 153 203 77
153 83 145 -105 140 -152 -4 -161 -5 -225 -35 -39 -18 -93 -56 -131 -92 -108
-100 -204 -136 -357 -136 -116 1 -209 27 -295 83 -123 80 -209 212 -230 355
l-7 47 721 0 721 0 4 23 c25 118 11 343 -29 483 -82 282 -286 492 -565 582
-125 40 -303 57 -445 42z m273 -356 c195 -51 326 -197 357 -401 l7 -43 -521 0
-521 0 6 28 c28 127 71 211 149 289 134 134 321 179 523 127z"/>
<path d="M27126 3550 c-301 -34 -542 -182 -682 -420 -169 -286 -187 -711 -43
-1018 103 -221 284 -386 509 -464 137 -48 312 -66 465 -49 139 16 205 35 320
91 115 56 208 132 290 235 49 62 121 193 140 253 l6 22 -130 0 c-208 0 -277
-23 -396 -131 -82 -74 -164 -114 -264 -130 -283 -43 -543 125 -606 392 -8 35
-15 70 -15 77 0 9 151 12 720 12 677 0 721 1 728 18 11 29 7 323 -6 389 -75
374 -326 632 -691 708 -90 18 -250 25 -345 15z m274 -356 c197 -56 329 -202
355 -391 l7 -53 -520 0 -520 0 14 63 c69 299 360 466 664 381z"/>
<path d="M31260 3549 c-222 -22 -418 -115 -566 -272 -160 -168 -239 -374 -251
-652 -17 -427 168 -770 502 -932 117 -56 204 -80 341 -94 222 -23 442 22 611
122 74 45 194 157 249 235 47 65 114 201 114 229 0 15 -15 17 -157 13 -197 -6
-241 -20 -342 -113 -123 -113 -213 -149 -371 -149 -150 0 -262 41 -363 134
-89 81 -148 191 -164 305 l-6 45 721 0 721 0 7 46 c12 83 -3 352 -24 429 -104
379 -384 614 -783 655 -111 11 -116 11 -239 -1z m279 -356 c74 -19 144 -58
209 -118 84 -76 125 -155 141 -266 l8 -59 -519 0 -519 0 7 38 c39 217 213 390
425 422 65 10 174 3 248 -17z"/>
<path d="M28372 3512 c2 -10 163 -440 358 -955 l355 -937 238 2 239 3 354 930
c195 512 357 940 360 953 6 21 4 22 -62 22 -105 0 -203 -18 -260 -45 -58 -28
-132 -102 -162 -161 -10 -21 -120 -329 -243 -683 -122 -354 -225 -638 -227
-630 -32 100 -446 1279 -458 1305 -27 57 -99 128 -162 162 -64 34 -152 51
-265 52 -61 0 -68 -2 -65 -18z"/>
<path d="M12761 3370 c-311 -65 -557 -301 -642 -615 -30 -109 -32 -345 -5
-450 43 -162 111 -282 225 -396 100 -100 189 -155 322 -200 82 -28 111 -33
230 -37 269 -9 456 61 662 248 106 97 107 85 -24 216 l-113 114 -41 -39 c-78
-75 -161 -135 -233 -169 -65 -31 -86 -36 -173 -40 -122 -6 -203 13 -287 67
-284 185 -324 613 -78 850 68 65 113 91 200 116 80 23 229 17 307 -14 60 -23
161 -92 244 -165 l51 -45 109 119 c61 66 111 126 113 133 3 15 -103 112 -183
169 -71 50 -161 94 -247 119 -58 17 -106 22 -233 25 -88 1 -180 -1 -204 -6z"/>
<path d="M5453 3317 c-73 -23 -137 -47 -142 -52 -10 -10 -705 -1539 -717
-1577 -5 -18 3 -18 177 -16 l183 3 258 575 c141 316 259 578 260 582 2 4 120
-255 263 -577 l260 -585 188 0 c104 0 186 3 184 8 -2 4 -174 384 -382 845
-208 460 -383 837 -389 836 -6 0 -71 -19 -143 -42z"/>
<path d="M14483 3317 c-73 -23 -136 -46 -142 -52 -9 -10 -721 -1580 -721
-1590 0 -3 82 -5 183 -5 l182 1 47 107 c26 59 144 322 261 584 l214 478 259
-585 259 -585 188 0 c103 0 187 2 187 4 0 19 -763 1681 -772 1683 -7 1 -72
-17 -145 -40z"/>
<path d="M18017 3315 c-76 -24 -140 -45 -141 -47 -7 -9 -716 -1584 -716 -1591
0 -4 82 -6 181 -5 l182 3 248 555 c137 305 254 567 261 583 12 26 25 1 272
-558 l259 -585 189 0 c176 0 188 1 180 18 -5 9 -177 389 -383 845 -205 455
-378 827 -384 826 -5 0 -72 -20 -148 -44z"/>
<path d="M6600 2500 l0 -830 170 0 170 0 2 499 3 499 145 -214 145 -214 166 0
166 0 144 212 144 213 3 -497 2 -498 170 0 170 0 0 830 0 830 -152 0 -153 -1
-246 -369 -246 -370 -246 370 -247 370 -155 0 -155 0 0 -830z"/>
<path d="M8400 2500 l0 -830 630 0 630 0 0 160 0 160 -460 0 -460 0 0 175 0
175 120 0 120 0 0 165 0 165 -120 0 -120 0 0 165 0 165 455 0 455 0 0 165 0
165 -625 0 -625 0 0 -830z"/>
<path d="M9870 2501 l0 -831 175 0 175 0 0 665 0 665 223 0 c240 0 299 -8 361
-50 93 -64 108 -204 30 -290 -54 -60 -119 -83 -251 -88 l-113 -5 0 -135 0
-135 233 -313 232 -312 213 -1 c116 -1 212 1 212 4 0 3 -106 147 -236 320
-130 174 -235 317 -233 318 2 1 31 15 64 32 32 16 87 56 122 88 206 193 202
552 -8 741 -64 58 -119 89 -215 123 l-79 28 -452 3 -453 3 0 -830z"/>
<path d="M15520 2500 l0 -830 170 0 170 0 2 524 3 525 413 -525 413 -524 135
0 134 0 0 830 0 830 -170 0 -170 0 -2 -508 -3 -509 -399 509 -399 508 -149 0
-148 0 0 -830z"/>
<path d="M11530 2485 l0 -835 170 0 170 0 0 835 0 835 -170 0 -170 0 0 -835z"/>
<path d="M1730 1365 l0 -1086 68 38 c1083 605 1852 1040 1853 1048 1 7 -1197
685 -1848 1046 l-73 40 0 -1086z"/>
</g>
</svg>
