<?xml version="1.0" encoding="UTF-8"?>
<svg version="1.1" xmlns="http://www.w3.org/2000/svg" width="1280" height="464">
<path d="M0 0 C0.97195312 0.763125 1.94390625 1.52625 2.9453125 2.3125 C9.17187626 7.30762636 15.15435081 12.56560251 21 18 C21.67675781 18.62261719 22.35351562 19.24523437 23.05078125 19.88671875 C40.18382944 36.26440209 50.91365152 57.66023793 58.72265625 79.75 C58.96894775 80.44609375 59.21523926 81.1421875 59.46899414 81.859375 C60.07472174 84.30122308 60.035168 86.49261067 60 89 C51.8290835 89.37238885 43.66175884 89.65576922 35.48443031 89.82899475 C31.68593478 89.9121891 27.89327707 90.02471707 24.09814453 90.20703125 C-0.40000554 91.35349704 -0.40000554 91.35349704 -6.28707886 87.50482178 C-9.76700648 83.82877481 -11.61249296 79.62579573 -13.2746582 74.89587402 C-14.233648 72.3892987 -15.62356661 70.53576995 -17.36328125 68.5078125 C-17.85006348 67.93369629 -18.3368457 67.35958008 -18.83837891 66.76806641 C-19.32483887 66.22585449 -19.81129883 65.68364258 -20.3125 65.125 C-20.85825684 64.51188965 -21.40401367 63.8987793 -21.96630859 63.26708984 C-37.13138451 46.68341572 -59.71377307 35.23088801 -82.32568359 33.85888672 C-111.94155473 32.72485586 -135.51605512 41.435647 -157.52636719 61.58544922 C-176.39443541 79.6970442 -185.63817934 104.93809385 -186.1875 130.6875 C-185.77504878 160.12151879 -173.63007816 183.15657099 -152.734375 203.50390625 C-134.77799828 219.895513 -110.55885464 227.63919881 -86.4921875 227.18359375 C-64.70449383 226.03815572 -44.28882088 218.73884658 -28 204 C-27.25492188 203.33613281 -26.50984375 202.67226563 -25.7421875 201.98828125 C-20.15077883 196.71832987 -15.72230173 190.81306945 -11.359375 184.52734375 C-10.7928849 183.73089195 -10.7928849 183.73089195 -10.21495056 182.91835022 C-8.94066138 181.03924842 -8.94066138 181.03924842 -8.18519592 178.93299866 C-7.06685417 176.39433473 -6.08351536 174.85314715 -4 173 C0.80327698 171.84720048 5.58343923 172.06839777 10.48828125 172.21875 C11.91599859 172.23368169 13.34375708 172.24506435 14.77153015 172.25305176 C18.51928012 172.28351614 22.26452691 172.36201932 26.0112915 172.45068359 C29.83856337 172.53270454 33.66624215 172.56909724 37.49414062 172.609375 C44.99723179 172.6950282 52.49826444 172.83145495 60 173 C59.49491933 177.04064535 58.93246398 180.73970995 57.43359375 184.53125 C57.11745117 185.33393311 56.80130859 186.13661621 56.47558594 186.96362305 C56.13301758 187.80062744 55.79044922 188.63763184 55.4375 189.5 C54.89851074 190.82221558 54.89851074 190.82221558 54.34863281 192.17114258 C46.00950023 212.24878778 34.27316288 229.53015449 19 245 C18.45980225 245.56066162 17.91960449 246.12132324 17.36303711 246.69897461 C-6.72178998 271.3887261 -42.39467039 287.7073375 -77.06231689 288.18978882 C-77.77007263 288.19418976 -78.47782837 288.1985907 -79.20703125 288.203125 C-79.96578552 288.21018463 -80.72453979 288.21724426 -81.50628662 288.22451782 C-113.28528968 288.45311745 -113.28528968 288.45311745 -127 285 C-128.16909912 284.71793701 -128.16909912 284.71793701 -129.36181641 284.43017578 C-152.66046204 278.64120611 -172.84600115 267.57972427 -191 252 C-192.23169922 250.95392578 -192.23169922 250.95392578 -193.48828125 249.88671875 C-210.46030532 235.0801842 -223.85044501 217.60611613 -233 197 C-233.27537598 196.38979004 -233.55075195 195.77958008 -233.83447266 195.15087891 C-237.13266828 187.74534623 -239.64442606 180.25158859 -241.75 172.4375 C-242.04813599 171.34151489 -242.04813599 171.34151489 -242.35229492 170.22338867 C-245.7345685 156.99729273 -246.37354867 143.88085965 -246.3125 130.3125 C-246.31067719 129.47272614 -246.30885437 128.63295227 -246.30697632 127.76773071 C-246.26262821 115.64307275 -245.99479102 103.81407404 -243 92 C-242.73461426 90.93096436 -242.73461426 90.93096436 -242.46386719 89.84033203 C-235.46765571 62.47777435 -222.36841587 39.41702437 -203 19 C-202.53787109 18.50532227 -202.07574219 18.01064453 -201.59960938 17.50097656 C-150.78337833 -36.61198245 -59.2460828 -47.0350581 0 0 Z " fill="#E30512" transform="translate(246,172)"/>
<path d="M0 0 C1.19665283 -0.01058945 1.19665283 -0.01058945 2.41748047 -0.02139282 C36.25734997 -0.25276179 74.94884679 1.99973979 101.40234375 25.99609375 C113.38516764 38.37482592 117.61303924 56.61848356 117.54603577 73.33396912 C117.5473174 74.51900366 117.5473174 74.51900366 117.54862493 75.72797829 C117.55026432 78.35960994 117.54478373 80.99117701 117.53930664 83.62280273 C117.53902441 85.51543679 117.5391832 87.40807096 117.53974915 89.30070496 C117.54003572 94.42823571 117.53416157 99.555743 117.52717519 104.68326831 C117.52091839 110.04576673 117.52033601 115.4082657 117.51914978 120.77076721 C117.51604333 130.9207555 117.50783918 141.070733 117.49780029 151.22071654 C117.48661786 162.77809404 117.48112333 174.33547205 117.47610486 185.89285362 C117.465656 209.66295143 117.44731903 233.43303447 117.42578125 257.203125 C96.96578125 257.203125 76.50578125 257.203125 55.42578125 257.203125 C55.42578125 249.613125 55.42578125 242.023125 55.42578125 234.203125 C53.44578125 235.54375 51.46578125 236.884375 49.42578125 238.265625 C37.39281061 246.12097676 24.50194831 251.25337765 10.42578125 254.203125 C9.36931396 254.42742187 9.36931396 254.42742187 8.29150391 254.65625 C-16.59913647 259.73396252 -44.0322089 259.38448558 -66.38671875 245.953125 C-81.48425149 235.61507839 -89.77334855 220.94058967 -93.15625 203.140625 C-95.54012376 180.68319738 -94.49453455 157.37006722 -80.578125 138.64453125 C-58.5561892 111.81468743 -24.42902338 107.57475725 7.86328125 102.015625 C11.55050272 101.37864679 15.23708439 100.73870853 18.9221344 100.08927917 C21.18804519 99.690046 23.45519438 99.29775346 25.72373962 98.91377258 C34.34168128 97.39713291 42.15550383 95.76504323 48.42578125 89.203125 C52.18815264 83.17509201 51.7652351 76.97307779 50.42578125 70.203125 C48.67562429 65.2289947 45.93768701 61.9084528 41.42578125 59.203125 C27.1138709 52.94035072 8.29625565 51.16356468 -6.76171875 55.890625 C-14.81607821 59.30510235 -21.0547415 65.44152974 -24.58203125 73.5078125 C-26.06085118 77.77198259 -26.82319263 81.69696828 -27.57421875 86.203125 C-48.03421875 86.203125 -68.49421875 86.203125 -89.57421875 86.203125 C-89.57421875 80.08707627 -89.42029974 74.79371526 -88.32421875 68.890625 C-88.18927002 68.15497314 -88.05432129 67.41932129 -87.9152832 66.66137695 C-84.96653757 51.33625302 -78.97742768 37.91183466 -68.57421875 26.203125 C-68.01992188 25.56632812 -67.465625 24.92953125 -66.89453125 24.2734375 C-50.50558539 6.6298355 -23.24347436 0.13727698 0 0 Z M43.2109375 135.9765625 C36.59786036 139.30508928 30.05142787 141.16736362 22.86328125 142.828125 C21.64253906 143.12388428 20.42179688 143.41964355 19.1640625 143.72436523 C12.89790655 145.22535693 6.6209325 146.5897688 0.29418945 147.80737305 C-11.23217053 150.0375532 -22.20845097 153.40953432 -29.57421875 163.203125 C-34.88052349 171.7322774 -36.08879954 181.32364358 -33.92578125 191.1484375 C-31.55838305 198.41250548 -28.00357723 204.32278603 -21.5078125 208.546875 C-10.22694664 214.19739815 3.14490706 212.6051393 14.88671875 209.19921875 C27.41398718 204.69118747 37.48592236 198.45636428 44.11328125 186.765625 C51.71624922 170.16172398 49.74174703 151.01387278 49.42578125 133.203125 C47.3151088 133.203125 44.99714024 135.02096386 43.2109375 135.9765625 Z " fill="#E30512" transform="translate(528.57421875,204.796875)"/>
<path d="M0 0 C28.48269872 22.43327598 45.02032378 52.25706075 49.8984375 88.11328125 C50.19112892 91.00116991 50.35337495 93.85270093 50.44140625 96.75390625 C50.48136719 97.95789063 50.52132813 99.161875 50.5625 100.40234375 C51.11202335 133.30909517 41.97529303 163.49706851 20.44140625 188.75390625 C19.81621094 189.51316406 19.19101563 190.27242187 18.546875 191.0546875 C13.43925901 197.07772142 7.68644178 201.94342496 1.44140625 206.75390625 C0.57644531 207.43453125 -0.28851562 208.11515625 -1.1796875 208.81640625 C-28.80129342 229.83016885 -63.89049346 236.520138 -97.94165039 231.98046875 C-123.71421766 227.82313741 -145.7088882 215.55811427 -164.55859375 197.75390625 C-165.29722656 197.07972656 -166.03585937 196.40554688 -166.796875 195.7109375 C-188.28691156 175.36601834 -202.41726705 145.41644375 -203.68505859 115.79956055 C-204.55633815 78.47605299 -196.88722004 44.87553043 -170.63647461 16.9934082 C-169.28115472 15.57642937 -167.91998348 14.16505437 -166.55859375 12.75390625 C-165.841875 11.97402344 -165.12515625 11.19414062 -164.38671875 10.390625 C-122.70965049 -33.71499423 -47.38969043 -35.9931961 0 0 Z M-124.84375 57.703125 C-139.09333705 74.74420291 -142.62486287 91.8361522 -141.55859375 113.75390625 C-140.05798497 126.53909307 -132.08180872 140.33254604 -123.55859375 149.75390625 C-122.92824219 150.49898438 -122.29789063 151.2440625 -121.6484375 152.01171875 C-111.15133778 163.58795957 -96.60135398 169.13865893 -81.30859375 170.56640625 C-62.84109592 171.4467028 -47.33257743 166.76878881 -33.2578125 154.796875 C-20.18327843 142.62559026 -11.10139204 124.62908642 -9.55859375 106.75390625 C-8.94119047 89.17607171 -15.02744877 71.28960323 -26.93359375 58.25390625 C-39.6340984 45.06736264 -53.77093067 37.03647635 -72.41088867 36.40063477 C-92.86339923 36.18092765 -110.64875083 42.60575424 -124.84375 57.703125 Z " fill="#E30512" transform="translate(1032.55859375,231.24609375)"/>
<path d="M0 0 C0 20.79 0 41.58 0 63 C-8.25 63 -16.5 63 -25 63 C-40.39944287 65.91656115 -56.27859609 72.69333114 -65.6875 85.8125 C-66.80570773 87.53262001 -67.91005303 89.26183517 -69 91 C-69.82177734 92.20849609 -69.82177734 92.20849609 -70.66015625 93.44140625 C-78.68888175 105.73107698 -79.13727955 119.77320926 -79.20532227 134.02539062 C-79.21522186 135.31403015 -79.22512146 136.60266968 -79.23532104 137.93035889 C-79.26219364 141.44215049 -79.2832979 144.95395528 -79.30332303 148.4657917 C-79.32529236 152.14400723 -79.35262714 155.82218292 -79.37937927 159.50036621 C-79.42915894 166.45577389 -79.47415197 173.41120386 -79.51740164 180.36665487 C-79.57616661 189.77245435 -79.64237374 199.1782013 -79.70815182 208.58395386 C-79.81149595 223.3892671 -79.90493817 238.19462589 -80 253 C-100.46 253 -120.92 253 -142 253 C-142 172.81 -142 92.62 -142 10 C-122.53 10 -103.06 10 -83 10 C-82.67 18.91 -82.34 27.82 -82 37 C-80.288125 35.06125 -78.57625 33.1225 -76.8125 31.125 C-64.17061302 17.26761385 -49.3300474 7.79264462 -31.3125 2.5 C-30.07802124 2.11666504 -30.07802124 2.11666504 -28.81860352 1.72558594 C-18.89642162 -0.94436253 -10.98731247 0 0 0 Z " fill="#E30613" transform="translate(825,208)"/>
<path d="M0 0 C20.46 0 40.92 0 62 0 C62 104.94 62 209.88 62 318 C41.54 318 21.08 318 0 318 C0 213.06 0 108.12 0 0 Z " fill="#E20512" transform="translate(336,143)"/>
<path d="M0 0 C2.21807258 1.15309874 3.74904189 2.50959106 5.53083706 4.26771259 C6.2545097 4.97547337 6.97818233 5.68323414 7.72378445 6.41244221 C8.49373241 7.18218876 9.26368038 7.95193531 10.05696011 8.74500751 C10.85272961 9.53316349 11.64849911 10.32131947 12.46838284 11.13335896 C14.14736596 12.80153793 15.82238823 14.47371148 17.49372768 16.14954853 C20.06228993 18.71908492 22.65142968 21.26656049 25.24250698 23.81336689 C26.869457 25.43511166 28.49515199 27.05811667 30.11946011 28.68250751 C30.89952923 29.44618137 31.67959835 30.20985523 32.48330593 30.99667072 C33.19121777 31.71388798 33.8991296 32.43110523 34.62849331 33.17005634 C35.25818523 33.79769382 35.88787716 34.42533131 36.53665066 35.07198811 C37.75617886 36.91297626 37.75617886 36.91297626 37.67600346 38.66230679 C36.29765418 42.03491571 33.81415486 44.25294956 31.25851345 46.76467609 C30.67920572 47.34584153 30.09989799 47.92700697 29.50303549 48.52578348 C27.55548964 50.47593391 25.59740714 52.41515026 23.6392355 54.35462666 C22.24268514 55.74869434 20.84680149 57.1434302 19.45153713 58.53878498 C15.65650964 62.33039589 11.85237374 66.11275054 8.04671693 69.89368844 C4.07016458 73.84779233 0.10247235 77.8107649 -3.86602879 81.77294636 C-11.38727291 89.27969106 -18.91570471 96.7791814 -26.44708496 104.27575535 C-39.93826408 117.70504855 -53.41731448 131.14651038 -66.89363486 144.59071249 C-71.62600018 149.31122636 -76.36152301 154.0285438 -81.09968078 158.74324334 C-84.0435472 161.67330372 -86.98544302 164.60533696 -89.92689419 167.53782177 C-91.29422342 168.90007257 -92.66242872 170.26144466 -94.03155994 171.62188435 C-95.89638736 173.47506101 -97.75814053 175.33127268 -99.6191721 177.18826008 C-100.16517895 177.72930773 -100.71118581 178.27035539 -101.27373832 178.82779843 C-103.5466266 181.10133 -105.45290891 183.22660791 -107.24382114 185.91297626 C-110.47127638 184.49395965 -112.61640221 182.78441861 -115.09440708 180.28944111 C-115.83487278 179.54882435 -116.57533848 178.80820759 -117.33824253 178.0451479 C-118.52126957 176.846637 -118.52126957 176.846637 -119.72819614 175.62391376 C-120.54379002 174.80549 -121.35938389 173.98706623 -122.19969273 173.14384174 C-124.80246676 170.52987653 -127.39819877 167.90904122 -129.99382114 165.28797626 C-131.75768454 163.51408172 -133.52200205 161.7406386 -135.28678989 159.96766376 C-139.61108251 155.62132484 -143.92961445 151.26932546 -148.24382114 146.91297626 C-144.41155874 142.33829383 -140.45140743 137.97066432 -136.23426914 133.74952412 C-135.37326672 132.88194831 -135.37326672 132.88194831 -134.49487031 131.99684572 C-132.59044822 130.07917723 -130.68255832 128.16499951 -128.77458286 126.25086689 C-127.40072016 124.86909299 -126.02703714 123.48714041 -124.65351963 122.10502338 C-120.16392418 117.58935933 -115.6690064 113.07901327 -111.17350864 108.56922626 C-109.62394213 107.01429675 -108.07438289 105.45935999 -106.52483082 103.90441608 C-100.08444231 97.44243504 -93.64262901 90.98188 -87.19708157 84.52504444 C-77.96221817 75.27389798 -68.73597986 66.01433504 -59.52141082 56.74297285 C-53.0365796 50.21953476 -46.54227951 43.7056216 -40.04076684 37.19880915 C-36.15787038 33.31225106 -32.2793103 29.42157989 -28.410779 25.52071857 C-24.77889063 21.85890724 -21.13548394 18.20897462 -17.48269367 14.56801701 C-16.14155276 13.22709804 -14.80471705 11.88185785 -13.47245121 10.5321207 C-11.65937107 8.6965563 -9.83171828 6.8768952 -7.99940586 5.06055927 C-7.47041718 4.51768851 -6.94142851 3.97481774 -6.39640987 3.41549635 C-2.79511552 -0.10840498 -2.79511552 -0.10840498 0 0 Z " fill="#E30512" transform="translate(1202.243821144104,30.087023735046387)"/>
<path d="M0 0 C53.13 0 106.26 0 161 0 C161 18.48 161 36.96 161 56 C107.87 56 54.74 56 0 56 C0 37.52 0 19.04 0 0 Z " fill="#E30513" transform="translate(1119,276)"/>
<path d="M0 0 C18.48 0 36.96 0 56 0 C56 52.14 56 104.28 56 158 C37.52 158 19.04 158 0 158 C0 105.86 0 53.72 0 0 Z " fill="#E30512" transform="translate(936,0)"/>
</svg>
