<?xml version="1.0" standalone="no"?>
<!DOCTYPE svg PUBLIC "-//W3C//DTD SVG 20010904//EN"
 "http://www.w3.org/TR/2001/REC-SVG-20010904/DTD/svg10.dtd">
<svg version="1.0" xmlns="http://www.w3.org/2000/svg"
 width="2560.000000pt" height="1196.000000pt" viewBox="0 0 2560.000000 1196.000000"
 preserveAspectRatio="xMidYMid meet">

<g transform="translate(0.000000,1196.000000) scale(0.100000,-0.100000)"
fill="#000000" stroke="none">
<path d="M18700 10400 l0 -1560 560 0 560 0 0 1560 0 1560 -560 0 -560 0 0
-1560z"/>
<path d="M23949 11372 c-61 -50 -2713 -2714 -2797 -2809 -45 -51 -82 -96 -82
-100 0 -5 161 -170 358 -369 262 -265 370 -367 405 -385 l48 -24 21 30 c11 17
652 660 1424 1430 771 770 1415 1420 1429 1444 17 27 25 51 21 65 -7 27 -672
692 -724 723 -48 30 -62 29 -103 -5z"/>
<path d="M2918 9150 c-712 -46 -1392 -331 -1898 -793 -36 -33 -114 -112 -174
-176 -391 -420 -626 -832 -775 -1361 -73 -256 -73 -257 -68 -895 l4 -570 25
-111 c170 -732 535 -1310 1126 -1784 381 -305 732 -479 1207 -598 250 -63 269
-64 776 -59 411 4 465 6 574 26 499 90 942 294 1322 608 191 158 441 430 601
653 193 270 412 723 446 924 8 44 14 82 13 83 -7 6 -1154 19 -1205 13 -78 -10
-102 -30 -147 -122 -35 -72 -118 -194 -199 -293 -297 -364 -700 -588 -1191
-660 -128 -19 -380 -19 -515 0 -436 62 -792 241 -1078 540 -293 306 -467 629
-548 1010 -35 168 -44 428 -19 609 68 509 305 946 670 1236 358 284 709 421
1153 450 322 20 594 -33 887 -175 214 -103 369 -218 548 -405 125 -130 154
-170 191 -265 59 -150 114 -221 203 -263 55 -25 65 -27 203 -25 80 0 334 8
565 17 231 9 435 16 453 16 32 0 32 0 32 52 0 157 -253 709 -454 993 -162 228
-458 514 -791 767 -528 400 -1236 604 -1937 558z"/>
<path d="M6700 5960 l0 -3180 620 0 620 0 0 3180 0 3180 -620 0 -620 0 0
-3180z"/>
<path d="M10330 7894 c-309 -37 -524 -96 -731 -198 -234 -117 -392 -258 -546
-486 -175 -260 -292 -647 -293 -967 l0 -63 619 0 618 0 17 85 c23 115 46 183
87 252 64 108 209 231 316 268 201 69 501 71 760 4 206 -53 299 -113 357 -230
49 -102 59 -244 25 -355 -26 -84 -78 -138 -184 -189 -103 -50 -180 -68 -600
-140 -504 -87 -624 -110 -786 -150 -443 -111 -732 -264 -970 -512 -222 -233
-331 -534 -346 -953 -17 -488 90 -822 351 -1098 132 -139 263 -224 456 -295
220 -82 391 -110 670 -110 226 -1 331 9 555 54 334 66 582 166 848 338 l107
70 0 -229 0 -230 620 0 620 0 -3 1953 c-2 1818 -4 1958 -20 2040 -63 313 -179
533 -361 681 -289 237 -683 381 -1206 442 -129 15 -890 29 -980 18z m1215
-2811 c10 -201 0 -493 -19 -602 -37 -200 -79 -310 -164 -420 -193 -252 -583
-416 -952 -398 -281 13 -437 129 -526 392 -23 69 -27 97 -28 200 -1 276 102
454 334 575 111 57 193 81 535 155 396 85 521 122 670 195 66 32 125 59 131
59 8 1 14 -48 19 -156z"/>
<path d="M18835 7864 c-16 -3 -79 -11 -140 -20 -452 -62 -873 -252 -1210 -544
-85 -74 -312 -313 -398 -420 -236 -294 -401 -670 -477 -1085 -37 -205 -45
-315 -44 -610 0 -273 2 -298 27 -426 72 -370 232 -727 454 -1019 157 -206 430
-458 668 -616 274 -183 560 -304 875 -371 134 -28 139 -28 485 -28 324 0 359
2 470 23 476 91 786 232 1153 525 151 119 256 224 371 367 381 473 571 1028
571 1665 0 276 -30 485 -104 740 -195 669 -660 1241 -1254 1544 -236 120 -475
198 -752 248 -126 22 -179 26 -405 28 -143 2 -273 1 -290 -1z m446 -1224 c253
-29 480 -132 691 -313 226 -195 369 -442 440 -758 19 -86 23 -132 22 -269 0
-152 -3 -174 -31 -282 -74 -277 -200 -497 -398 -693 -122 -121 -225 -191 -372
-255 -328 -141 -727 -143 -1044 -6 -163 70 -227 114 -359 246 -191 191 -319
394 -393 625 l-32 100 0 230 c0 254 10 330 67 498 165 494 591 824 1128 876
123 12 184 12 281 1z"/>
<path d="M15995 7824 c-237 -42 -547 -184 -770 -352 -88 -67 -255 -224 -337
-319 l-46 -53 -6 98 c-3 53 -8 175 -12 270 l-6 172 -589 0 -589 0 0 -2430 0
-2430 620 0 620 0 1 328 c1 878 19 2324 29 2397 29 223 75 344 202 540 171
263 396 415 746 506 111 28 119 29 368 29 l254 0 0 630 0 630 -202 -1 c-128 0
-233 -6 -283 -15z"/>
<path d="M22360 5920 l0 -560 1610 0 1610 0 0 560 0 560 -1610 0 -1610 0 0
-560z"/>
</g>
</svg>
