<?xml version="1.0" encoding="UTF-8"?>
<svg version="1.1" xmlns="http://www.w3.org/2000/svg" width="1537" height="225">
<path d="M0 0 C3.42211747 0.01609834 6.84305442 0.000042 10.26513672 -0.01904297 C43.44190631 -0.05022064 75.45965865 5.20082868 100.46435547 28.84423828 C122.22217988 51.36185974 125.60021961 83.48968965 125.17138672 113.23876953 C124.44936528 140.42772605 116.67898095 166.13345587 96.92529297 185.39111328 C95.94109375 186.38884766 95.94109375 186.38884766 94.93701172 187.40673828 C81.12850676 200.53516698 61.32801312 206.62061404 42.92529297 209.39111328 C41.95003662 209.54555908 41.95003662 209.54555908 40.95507812 209.703125 C1.91595981 215.61361577 -47.71103584 215.09678275 -81.48876953 192.32470703 C-102.2070898 176.83291166 -113.08537979 154.57330703 -116.73876953 129.34423828 C-120.45385133 96.68607739 -118.30258546 60.14405596 -97.07470703 33.39111328 C-72.72309866 4.77616695 -35.47004584 -0.19781664 0 0 Z M-31.22314453 64.04345703 C-43.62962178 79.77403262 -43.38254539 100.34756652 -42.07470703 119.39111328 C-40.97284988 128.34494345 -38.36317106 136.99911454 -33.07470703 144.39111328 C-32.58357422 145.08591797 -32.09244141 145.78072266 -31.58642578 146.49658203 C-25.45205846 154.29996576 -16.80043232 158.72898009 -7.07470703 160.39111328 C6.15431967 161.60073206 20.01979409 161.47538765 31.30029297 153.64111328 C41.21871198 145.26787955 46.91758463 135.25445391 48.92529297 122.39111328 C49.03615234 121.73240234 49.14701172 121.07369141 49.26123047 120.39501953 C51.81398441 102.14627852 50.56312078 80.30896303 39.23779297 65.14111328 C31.5185931 56.0353164 21.77759358 51.378805 9.92529297 50.39111328 C-5.76278954 49.5148035 -20.15983455 52.25287767 -31.22314453 64.04345703 Z " fill="#27448E" transform="translate(1402.07470703125,8.60888671875)"/>
<path d="M0 0 C1.01653656 -0.00570007 2.03307312 -0.01140015 3.08041382 -0.01727295 C5.22677592 -0.02666837 7.37315208 -0.03323504 9.51953125 -0.03710938 C12.71642207 -0.04670389 15.91263753 -0.07773392 19.109375 -0.109375 C44.28149343 -0.23927086 70.18167493 2.10485711 93.1484375 13.203125 C94.3240625 13.76966797 94.3240625 13.76966797 95.5234375 14.34765625 C110.86776531 22.31285419 120.04256526 34.13983926 125.2734375 50.3046875 C126.36960436 55.18850237 126.69527711 60.2183607 127.1484375 65.203125 C99.7584375 65.203125 72.3684375 65.203125 44.1484375 65.203125 C43.1584375 61.243125 43.1584375 61.243125 42.1484375 57.203125 C37.87946385 50.35004979 30.32244402 48.20797842 22.7734375 46.390625 C4.55587263 45.33484538 4.55587263 45.33484538 -11.8515625 52.203125 C-13.67790046 54.58530495 -13.84474097 56.15732333 -14.2890625 59.140625 C-13.68761783 63.35073766 -12.10474401 64.52498989 -8.8515625 67.203125 C-6.27670047 68.01183885 -4.10945409 68.52448695 -1.4765625 68.90625 C-0.73962158 69.03003021 -0.00268066 69.15381042 0.7565918 69.28134155 C2.36766126 69.54909764 3.98032032 69.80742019 5.59423828 70.05743408 C8.19761292 70.46074315 10.79601735 70.88831361 13.39453125 71.32177734 C17.21579149 71.95597488 21.03867294 72.57869867 24.86328125 73.19238281 C35.13409277 74.84093014 45.39721478 76.53501458 55.65722656 78.24938965 C59.07716833 78.81631076 62.49928919 79.36824597 65.921875 79.91894531 C88.57536101 83.63235499 110.23206901 88.37672998 125.4609375 107.015625 C135.6694057 121.64872673 136.72702782 139.45825416 133.76757812 156.52441406 C130.87815774 170.72760386 123.27256943 183.44894369 111.30883789 191.71606445 C84.28103364 209.4968338 51.11071134 211.43277138 19.6484375 211.390625 C18.81250061 211.39002075 17.97656372 211.3894165 17.11529541 211.38879395 C-14.88998964 211.32612989 -53.37613961 209.74499113 -77.8515625 186.203125 C-88.41957151 173.86465507 -92.8515625 160.35878371 -92.8515625 144.203125 C-64.4715625 144.203125 -36.0915625 144.203125 -6.8515625 144.203125 C-6.1915625 146.843125 -5.5315625 149.483125 -4.8515625 152.203125 C-2.33220796 156.56354632 0.36713176 158.02825742 4.953125 159.625 C16.25586791 162.60152304 32.47538841 163.53964954 43.1484375 158.203125 C46.79426281 155.75636726 46.79426281 155.75636726 49.1484375 152.203125 C49.65164667 147.54225317 49.79334284 143.52097504 47.7109375 139.265625 C40.54799545 133.50033018 30.04487968 133.00451518 21.21006393 131.60064888 C18.68364783 131.19896598 16.15893357 130.78777463 13.63442993 130.37425232 C7.36185785 129.3487367 1.08675732 128.33906044 -5.18835449 127.32922363 C-10.49626439 126.47444022 -15.80307523 125.61332325 -21.10865402 124.74418449 C-23.56837127 124.34379268 -26.02940113 123.95238307 -28.4906311 123.56141663 C-47.08094689 120.55560679 -65.7830898 116.98994359 -78.8515625 102.203125 C-89.95411411 86.49196706 -91.73243551 69.26604866 -89.390625 50.51171875 C-85.96888859 35.39569495 -77.35813796 23.20503354 -64.44140625 14.7265625 C-45.17312581 3.39227989 -22.04369215 0.09914458 0 0 Z " fill="#27448E" transform="translate(781.8515625,8.796875)"/>
<path d="M0 0 C3.28826235 0.01611774 6.57529927 0.00002772 9.86352539 -0.01904297 C38.59969591 -0.04794773 69.25396726 3.82877598 91.72485352 23.39111328 C92.60463867 24.05820312 92.60463867 24.05820312 93.50219727 24.73876953 C107.99226407 36.00882149 116.55357195 55.70718726 119.72485352 73.39111328 C120.05485352 77.35111328 120.38485352 81.31111328 120.72485352 85.39111328 C94.32485352 85.39111328 67.92485352 85.39111328 40.72485352 85.39111328 C39.73485352 81.43111328 38.74485352 77.47111328 37.72485352 73.39111328 C34.46720508 65.32188065 30.15320475 59.02871341 22.23266602 55.18017578 C9.79195852 49.9750133 -2.46809421 50.27514642 -15.27514648 54.39111328 C-25.3285959 58.71246303 -31.94636379 66.12634323 -36.47436523 76.00830078 C-43.71711303 95.44794356 -43.28844142 120.08006251 -35.07592773 139.18017578 C-33.9207145 141.35941085 -32.68423237 143.3688141 -31.27514648 145.39111328 C-30.55327148 146.44298828 -29.83139648 147.49486328 -29.08764648 148.57861328 C-21.29988847 156.3663713 -12.17975928 159.5885115 -1.32324219 159.72070312 C-0.52362061 159.71506348 0.27600098 159.70942383 1.09985352 159.70361328 C2.35439331 159.69515381 2.35439331 159.69515381 3.63427734 159.68652344 C13.66466638 159.48933233 21.31093096 157.42072883 28.72485352 150.39111328 C34.87880958 143.88799659 37.92956655 135.77697416 40.72485352 127.39111328 C67.12485352 127.39111328 93.52485352 127.39111328 120.72485352 127.39111328 C118.03326126 151.61544357 109.31111639 174.04683357 90.52954102 190.23095703 C65.87284381 209.22142159 33.17227841 211.62441681 3.16235352 211.57861328 C1.97039871 211.5772084 1.97039871 211.5772084 0.75436401 211.57577515 C-22.75478419 211.51579605 -46.82943113 210.05014442 -68.27514648 199.39111328 C-69.20327148 198.93994141 -70.13139648 198.48876953 -71.08764648 198.02392578 C-90.64330875 187.97448823 -103.90259915 171.4005905 -111.15014648 150.89111328 C-121.2472198 117.88412879 -121.063896 77.56083312 -105.02514648 46.45361328 C-101.30945986 39.56186582 -96.89158311 33.87435378 -91.27514648 28.39111328 C-90.49139648 27.52486328 -89.70764648 26.65861328 -88.90014648 25.76611328 C-64.40549249 3.60428348 -31.72619582 -0.18435844 0 0 Z " fill="#27448E" transform="translate(1147.275146484375,8.60888671875)"/>
<path d="M0 0 C62.37 0 124.74 0 189 0 C189 16.17 189 32.34 189 49 C150.06 49 111.12 49 71 49 C71 57.58 71 66.16 71 75 C107.3 75 143.6 75 181 75 C181 91.17 181 107.34 181 124 C144.7 124 108.4 124 71 124 C71 132.25 71 140.5 71 149 C109.94 149 148.88 149 189 149 C189 165.17 189 181.34 189 198 C126.63 198 64.26 198 0 198 C0 132.66 0 67.32 0 0 Z " fill="#28458D" transform="translate(243,15)"/>
<path d="M0 0 C36.01125 -0.061875 36.01125 -0.061875 72.75 -0.125 C80.29456055 -0.14320801 87.83912109 -0.16141602 95.61230469 -0.18017578 C104.91650391 -0.18920898 104.91650391 -0.18920898 109.28985596 -0.19088745 C112.30567445 -0.19273006 115.32142055 -0.20014085 118.33721924 -0.21115112 C178.69424036 -0.42126795 178.69424036 -0.42126795 197.1875 16.625 C213.73159448 34.27203411 213.74760032 57.74465818 213.17480469 80.47216797 C212.37621885 96.58887938 205.7500959 111.67155304 193.87109375 122.6640625 C180.78292077 133.31267126 163.85742314 137.19128504 147.2890625 137.11352539 C146.04372993 137.11374443 146.04372993 137.11374443 144.77323914 137.1139679 C142.05713188 137.11327695 139.34109512 137.10552322 136.625 137.09765625 C134.73071327 137.09578916 132.83642606 137.09436663 130.94213867 137.09336853 C125.97738288 137.08956626 121.01265674 137.07975571 116.0479126 137.06866455 C110.07978427 137.05659372 104.11164598 137.05203728 98.14350891 137.04621124 C89.09565204 137.03654259 80.04786012 137.01737004 71 137 C71 157.13 71 177.26 71 198 C47.57 198 24.14 198 0 198 C0 132.66 0 67.32 0 0 Z M71 48 C71 61.2 71 74.4 71 88 C78.24116613 88.06906093 85.48117844 88.12874018 92.72241211 88.16479492 C95.18306359 88.1798334 97.64368849 88.20026942 100.10424805 88.22631836 C103.65159692 88.26291856 107.19858977 88.27977635 110.74609375 88.29296875 C111.8370787 88.30845261 112.92806366 88.32393646 114.05210876 88.33988953 C121.80723963 88.34157855 128.51489591 87.5759465 134.875 82.875 C139.63200623 76.4390504 140.54021601 70.37946448 139.5078125 62.515625 C138.5763865 57.90148389 137.04707904 55.01877961 133.6875 51.75 C126.95977491 47.36915575 120.36874328 47.73498125 112.6015625 47.8046875 C111.41146576 47.8075174 110.22136902 47.81034729 108.99520874 47.81326294 C105.20503563 47.82443183 101.41510134 47.84953083 97.625 47.875 C95.05078467 47.88503403 92.47656562 47.89415915 89.90234375 47.90234375 C83.60139712 47.92265628 77.30096498 47.96181233 71 48 Z " fill="#27448D" transform="translate(460,15)"/>
<path d="M0 0 C35.76375 -0.061875 35.76375 -0.061875 72.25 -0.125 C79.74235352 -0.14320801 87.23470703 -0.16141602 94.95410156 -0.18017578 C104.19482422 -0.18920898 104.19482422 -0.18920898 108.53851318 -0.19088745 C111.53349856 -0.19272985 114.52841103 -0.20013979 117.52337646 -0.21115112 C163.93133247 -0.37397907 163.93133247 -0.37397907 180 6 C180.87785156 6.34804688 181.75570312 6.69609375 182.66015625 7.0546875 C194.69967998 12.45107372 203.00080332 21.94098424 208 34 C215.60839893 56.08367816 216.21845094 83.7746524 206.4375 105.2578125 C198.79855208 119.82993597 187.27590945 129.01507339 171.71484375 134.06640625 C163.30031366 136.26843878 155.0482556 137.15470642 146.38085938 137.11352539 C145.15015717 137.11374443 145.15015717 137.11374443 143.89459229 137.1139679 C141.2109503 137.11327706 138.5273797 137.10552389 135.84375 137.09765625 C133.97188352 137.09578912 132.10001656 137.09436661 130.22814941 137.09336853 C125.32257721 137.08956659 120.41703503 137.07975632 115.51147461 137.06866455 C109.61426412 137.05659284 103.71704355 137.05203712 97.81982422 137.04621124 C88.87986199 137.03654317 79.93996552 137.0173704 71 137 C71 157.13 71 177.26 71 198 C47.57 198 24.14 198 0 198 C0 132.66 0 67.32 0 0 Z M71 48 C71 61.2 71 74.4 71 88 C78.24116613 88.06906093 85.48117844 88.12874018 92.72241211 88.16479492 C95.18306359 88.1798334 97.64368849 88.20026942 100.10424805 88.22631836 C103.65159692 88.26291856 107.19858977 88.27977635 110.74609375 88.29296875 C111.8370787 88.30845261 112.92806366 88.32393646 114.05210876 88.33988953 C121.23030674 88.3414529 128.34515843 87.91327951 134.15625 83.28125 C134.82140625 82.39953125 134.82140625 82.39953125 135.5 81.5 C135.9640625 80.9121875 136.428125 80.324375 136.90625 79.71875 C140.36980323 74.2760235 139.47825615 67.16950432 139 61 C137.76431466 56.12425364 135.75907901 53.15361623 131.4375 50.5625 C127.20887135 48.64039607 124.29678243 47.87576508 119.70239258 47.88647461 C118.62149857 47.88655014 117.54060455 47.88662567 116.42695618 47.88670349 C114.67840584 47.89444542 114.67840584 47.89444542 112.89453125 47.90234375 C111.70018967 47.9037587 110.50584808 47.90517365 109.27531433 47.90663147 C105.45435092 47.9122365 101.63344575 47.92478989 97.8125 47.9375 C95.22461022 47.94251435 92.63671952 47.94707737 90.04882812 47.95117188 C83.69917817 47.96135739 77.34965441 47.98093197 71 48 Z " fill="#27458D" transform="translate(8,15)"/>
<path d="M0 0 C23.1 0 46.2 0 70 0 C70 65.34 70 130.68 70 198 C46.9 198 23.8 198 0 198 C0 132.66 0 67.32 0 0 Z " fill="#28458D" transform="translate(939,15)"/>
</svg>
