<?xml version="1.0" standalone="no"?>
<!DOCTYPE svg PUBLIC "-//W3C//DTD SVG 20010904//EN"
 "http://www.w3.org/TR/2001/REC-SVG-20010904/DTD/svg10.dtd">
<svg version="1.0" xmlns="http://www.w3.org/2000/svg"
 width="2200.000000pt" height="650.000000pt" viewBox="0 0 2200.000000 650.000000"
 preserveAspectRatio="xMidYMid meet">

<g transform="translate(0.000000,650.000000) scale(0.100000,-0.100000)"
fill="#000000" stroke="none">
<path d="M2000 6335 c-280 -38 -555 -142 -787 -297 -132 -89 -132 -88 -266
-218 -216 -207 -351 -409 -460 -685 -15 -40 -33 -96 -61 -190 -57 -193 -79
-461 -56 -683 14 -135 56 -341 81 -397 5 -11 13 -33 19 -50 31 -102 116 -285
132 -285 4 0 36 30 71 66 67 73 262 244 276 244 22 0 18 34 -9 89 -17 33 -30
69 -30 81 0 12 -4 29 -9 39 -6 10 -19 60 -30 112 -62 302 -20 633 118 909 37
76 107 192 129 216 10 10 23 27 28 36 5 10 42 51 81 91 263 271 556 414 918
447 248 24 498 -21 730 -130 82 -39 215 -120 215 -131 0 -6 -26 -50 -57 -97
-32 -48 -61 -95 -65 -104 -4 -9 -17 -34 -30 -55 -37 -59 -115 -248 -143 -348
-84 -292 -99 -649 -39 -935 8 -41 16 -86 17 -100 2 -30 -2 -30 -133 -2 -445
95 -949 10 -1346 -229 -178 -107 -237 -152 -375 -289 -232 -230 -416 -554
-494 -870 -56 -224 -72 -531 -40 -745 15 -97 57 -282 74 -328 5 -12 17 -42 26
-67 29 -74 41 -101 86 -195 45 -93 158 -269 203 -318 14 -15 26 -31 26 -36 0
-7 216 -221 224 -221 2 0 24 -18 48 -40 44 -42 90 -70 115 -70 7 0 13 -7 13
-15 0 -9 11 -20 24 -25 13 -5 25 -12 27 -17 2 -4 36 -24 74 -43 39 -19 71 -38
73 -42 5 -11 52 -10 52 1 0 18 -31 41 -55 41 -15 0 -25 7 -28 21 -4 17 -11 20
-29 16 -17 -4 -28 1 -41 19 l-18 24 41 16 c37 15 40 19 40 55 0 21 5 39 10 39
6 0 10 -11 10 -25 0 -21 5 -25 30 -25 17 0 33 7 39 17 9 17 10 17 28 0 11 -9
22 -14 26 -11 10 10 77 -17 77 -31 0 -8 6 -13 13 -11 6 3 27 7 46 10 29 5 32
4 21 -9 -7 -8 -9 -15 -4 -15 5 0 19 12 31 27 13 14 23 21 23 15 0 -7 13 -12
29 -12 16 0 34 -7 41 -15 7 -8 21 -15 32 -15 18 0 19 2 7 18 -9 11 -5 10 11
-4 23 -19 34 -21 115 -17 90 5 99 7 101 24 1 5 2 13 3 18 0 6 36 10 79 9 43 0
112 3 154 7 69 7 77 5 90 -13 12 -18 20 -20 50 -13 20 5 42 12 49 17 8 5 50
11 94 14 54 3 79 9 78 17 -2 6 5 12 15 12 52 1 82 14 82 35 0 12 3 16 8 10 14
-22 50 -33 86 -27 35 5 49 27 24 36 -7 2 -10 8 -6 12 9 10 38 -19 38 -39 0 -9
6 -16 14 -16 8 0 16 -7 20 -15 3 -8 13 -15 23 -15 17 -1 17 -1 1 -14 -22 -16
-24 -66 -3 -66 9 0 15 9 15 25 0 15 6 25 14 25 18 0 28 -40 15 -57 -8 -9 -5
-11 12 -8 23 5 79 -14 79 -26 0 -4 12 -21 27 -38 26 -30 63 -42 63 -21 0 6 -4
10 -8 10 -17 0 -223 224 -282 306 -25 34 -37 35 -92 10 -67 -30 -143 -56 -166
-56 -10 0 -22 -4 -28 -10 -5 -5 -43 -12 -84 -16 -41 -4 -80 -11 -86 -15 -14
-11 -279 -13 -296 -3 -7 4 -49 13 -93 20 -104 16 -172 32 -212 50 -17 8 -40
14 -51 14 -12 0 -23 4 -27 9 -3 5 -19 12 -35 16 -17 4 -30 10 -30 15 0 5 -14
11 -30 15 -17 4 -30 10 -30 15 0 5 -10 12 -22 16 -26 8 -117 63 -137 82 -8 7
-26 21 -40 30 -14 9 -32 21 -40 27 -21 16 -203 197 -231 231 -39 47 -100 139
-100 152 0 7 -4 12 -8 12 -4 0 -13 12 -19 28 -6 15 -20 43 -31 62 -196 358
-201 875 -13 1251 98 194 138 243 170 205 38 -46 277 -178 421 -233 172 -66
349 -106 532 -121 147 -12 420 3 536 29 136 30 137 30 136 -6 -1 -16 -7 -57
-13 -90 -7 -33 -17 -87 -23 -120 -19 -96 -15 -472 5 -580 41 -215 79 -331 176
-535 32 -67 36 -74 84 -148 15 -24 27 -45 27 -47 0 -5 68 -100 118 -165 32
-42 216 -230 225 -230 3 0 18 -11 33 -25 34 -32 172 -125 184 -125 6 0 10 -4
10 -10 0 -5 11 -12 25 -16 14 -3 29 -12 33 -18 10 -17 174 -96 197 -95 18 0
18 1 -2 9 -13 5 -23 14 -23 20 0 6 -11 15 -25 20 -15 6 -25 17 -25 29 0 11 -9
39 -21 61 -16 31 -27 40 -48 41 -14 1 -4 5 23 10 27 4 57 4 65 0 9 -5 37 -11
63 -13 38 -4 51 -2 64 13 9 11 24 19 33 19 13 0 13 -2 3 -9 -11 -7 -11 -9 2
-14 10 -4 16 -1 16 8 0 8 9 15 19 15 11 0 26 9 34 21 8 11 16 16 18 10 3 -6
10 -7 18 -2 11 7 9 13 -7 29 l-21 21 21 24 c30 34 66 26 60 -14 -4 -24 -1 -29
16 -29 12 0 24 -5 28 -12 4 -6 3 -8 -4 -5 -20 13 -39 -4 -38 -33 1 -15 4 -26
9 -23 4 2 7 -1 7 -6 0 -16 23 -13 46 4 10 8 14 14 9 13 -12 -3 -15 4 -15 33 0
18 4 20 31 14 22 -5 29 -4 25 4 -5 7 5 11 27 11 35 0 58 -24 34 -34 -7 -2 1
-5 16 -5 16 -1 37 -6 48 -11 13 -8 19 -7 19 0 0 6 7 6 19 -2 23 -14 18 -30 -7
-21 -15 6 -15 5 -3 -10 9 -12 28 -17 60 -17 l46 1 -23 19 -22 19 22 15 c33 23
307 11 358 -16 39 -20 57 -23 62 -8 2 5 12 11 23 13 11 2 27 7 35 10 26 10 74
19 102 19 15 1 29 7 32 14 4 9 22 14 53 14 65 0 76 -9 68 -54 -7 -32 -5 -36
14 -36 13 0 25 9 31 24 10 28 54 40 71 19 7 -7 26 -12 45 -11 20 1 41 -5 52
-15 10 -9 24 -17 30 -17 7 0 12 -5 12 -11 0 -8 24 -9 80 -4 70 6 80 5 80 -9 0
-9 -6 -16 -14 -16 -8 0 -16 -7 -20 -15 -3 -8 -15 -15 -26 -15 -11 0 -20 -7
-20 -15 0 -16 35 -21 45 -6 3 6 26 20 51 33 26 12 49 28 51 35 3 7 10 13 15
13 6 0 27 14 48 30 21 17 40 30 43 30 26 0 271 250 352 358 19 26 38 52 43 57
4 6 11 17 15 25 4 8 13 24 20 35 7 11 24 38 37 60 14 23 31 50 38 60 6 11 15
27 18 35 3 8 19 42 34 75 179 393 219 844 111 1265 -38 148 -47 174 -105 303
-20 42 -36 80 -36 83 0 2 -7 16 -16 30 l-17 25 -111 -108 c-61 -60 -141 -133
-178 -162 -73 -58 -77 -70 -52 -129 61 -143 104 -358 104 -522 0 -82 -21 -255
-40 -335 -50 -203 -150 -403 -290 -576 -40 -50 -166 -179 -174 -179 -3 0 -19
-12 -35 -28 -41 -37 -118 -92 -131 -92 -5 0 -10 -3 -10 -8 0 -4 -24 -18 -52
-32 -29 -13 -59 -30 -66 -37 -7 -7 -22 -13 -33 -13 -10 0 -19 -4 -19 -10 0 -5
-6 -10 -12 -10 -7 0 -26 -7 -41 -15 -15 -8 -43 -17 -63 -21 -19 -3 -37 -10
-39 -15 -3 -4 -26 -11 -50 -15 -25 -3 -45 -10 -45 -14 0 -4 -35 -10 -77 -14
-42 -3 -82 -11 -87 -16 -12 -12 -303 -14 -310 -1 -3 4 -40 11 -81 14 -42 3
-82 10 -88 15 -7 6 -33 13 -60 17 -26 4 -49 11 -52 15 -3 5 -23 11 -45 15 -22
4 -40 11 -40 16 0 5 -8 9 -18 9 -10 0 -49 16 -87 36 -39 21 -85 44 -102 53
-18 8 -33 19 -33 23 0 4 -6 8 -13 8 -26 0 -67 45 -67 73 0 15 4 27 9 27 5 0
26 26 47 58 20 31 50 76 66 100 15 24 28 48 28 54 0 6 6 19 13 27 25 30 117
260 143 359 63 236 82 429 66 644 -11 135 -38 302 -56 349 -11 26 19 43 51 31
103 -39 445 -68 620 -52 254 24 470 84 689 191 110 54 273 153 333 204 282
237 455 467 586 780 16 38 39 106 70 205 36 115 75 383 75 508 0 232 -62 542
-150 747 -144 338 -388 639 -677 835 -328 223 -682 330 -1086 330 -286 -1
-549 -56 -785 -166 -41 -19 -77 -34 -80 -34 -4 0 -18 -9 -32 -20 l-25 -19 120
-123 c67 -68 138 -145 160 -173 60 -77 59 -76 118 -51 46 20 128 46 248 77 20
5 96 14 169 20 342 29 686 -71 963 -279 90 -68 221 -196 283 -277 35 -46 154
-242 154 -254 0 -5 12 -35 26 -67 82 -184 115 -395 102 -634 -9 -159 -28 -245
-92 -426 -33 -92 -156 -304 -177 -304 -6 0 -28 13 -48 28 -74 58 -358 212
-390 212 -4 0 -28 9 -52 19 -53 24 -159 53 -294 83 -88 19 -131 22 -370 22
-276 1 -311 -3 -458 -46 -20 -6 -40 -8 -43 -5 -4 4 1 46 11 94 43 218 55 430
34 621 -34 318 -127 579 -298 842 -89 136 -78 120 -143 195 -192 218 -368 354
-613 474 -272 134 -529 191 -845 190 -91 -1 -208 -7 -260 -14z m1484 -1155
c87 -155 144 -301 178 -460 29 -130 31 -417 4 -535 -37 -166 -79 -282 -144
-400 -18 -33 -39 -74 -47 -92 -17 -38 -47 -35 -68 6 -80 152 -110 220 -137
301 -115 350 -87 753 74 1069 67 132 74 143 88 152 19 13 25 8 52 -41z m-953
-1689 c156 -33 313 -91 457 -171 89 -50 84 -59 -67 -136 -454 -230 -951 -215
-1384 40 -67 40 -61 57 38 111 124 68 270 121 425 156 115 25 409 25 531 0z
m2354 -1 c177 -38 275 -74 425 -153 107 -56 112 -75 30 -119 -30 -16 -68 -37
-85 -46 -89 -48 -215 -91 -375 -129 -108 -25 -414 -25 -520 1 -152 36 -278 81
-395 140 -138 70 -152 90 -88 123 21 11 65 33 98 51 129 67 204 93 380 133
118 26 407 26 530 -1z m-1341 -769 c51 -102 78 -177 114 -320 24 -98 26 -122
26 -311 0 -223 -8 -278 -67 -455 -51 -155 -146 -335 -177 -335 -12 0 -27 20
-46 58 -16 31 -31 59 -34 62 -10 9 -70 139 -70 151 0 6 -6 25 -14 42 -75 168
-101 512 -57 739 34 170 80 295 170 458 53 94 68 85 155 -89z m301 -1881 c-3
-5 -13 -10 -21 -10 -8 0 -14 5 -14 10 0 6 9 10 21 10 11 0 17 -4 14 -10z
m1592 4 c-3 -3 -12 -4 -19 -1 -8 3 -5 6 6 6 11 1 17 -2 13 -5z m-3907 -60 c0
-8 -5 -12 -10 -9 -6 4 -8 11 -5 16 9 14 15 11 15 -7z m3810 -4 c0 -5 -7 -10
-16 -10 -8 0 -12 5 -9 10 3 6 10 10 16 10 5 0 9 -4 9 -10z m-4269 -59 c49 -46
59 -78 21 -64 -30 12 -94 83 -88 98 8 21 10 20 67 -34z m4802 2 c-7 -45 -20
-42 -17 5 3 48 2 48 13 37 5 -6 7 -25 4 -42z m-579 29 c7 -12 -5 -26 -45 -50
-36 -22 -73 -28 -103 -16 -20 8 47 44 81 44 13 0 26 7 29 15 7 16 30 20 38 7z
m-2462 -34 c-9 -9 -15 -9 -24 0 -9 9 -7 12 12 12 19 0 21 -3 12 -12z m2988
-18 c0 -5 -7 -10 -15 -10 -8 0 -15 5 -15 10 0 6 7 10 15 10 8 0 15 -4 15 -10z
m-4020 -40 c0 -5 -2 -10 -4 -10 -3 0 -8 5 -11 10 -3 6 -1 10 4 10 6 0 11 -4
11 -10z m890 -5 c0 -8 -9 -15 -20 -15 -11 0 -20 7 -20 15 0 8 9 15 20 15 11 0
20 -7 20 -15z m1550 5 c0 -5 -11 -10 -25 -10 -14 0 -25 5 -25 10 0 6 11 10 25
10 14 0 25 -4 25 -10z m1487 -17 c4 -9 1 -19 -5 -21 -7 -2 -12 -11 -12 -21 0
-23 -19 -41 -36 -34 -17 6 -18 65 -2 81 17 17 48 15 55 -5z m-2199 -13 c9 -11
30 -34 45 -50 20 -22 23 -30 12 -30 -8 0 -15 5 -15 10 0 6 -7 10 -15 10 -8 0
-15 7 -15 15 0 10 -10 15 -30 15 -20 0 -30 5 -30 15 0 8 -4 15 -10 15 -5 0
-10 5 -10 10 0 18 50 10 68 -10z m-1603 -10 c-3 -5 -10 -10 -16 -10 -5 0 -9 5
-9 10 0 6 7 10 16 10 8 0 12 -4 9 -10z m1745 -100 c0 -5 12 -10 28 -10 40 0
55 -12 39 -32 -9 -12 -19 -13 -44 -6 -18 5 -33 14 -33 20 0 6 -8 17 -17 24
-17 12 -16 13 5 14 12 0 22 -4 22 -10z"/>
<path d="M12480 5904 c-108 -29 -213 -102 -265 -183 -51 -82 -85 -227 -85
-363 0 -112 4 -108 -111 -108 -119 0 -111 14 -107 -190 l3 -145 105 -5 105 -5
5 -690 5 -690 184 -3 c108 -1 189 2 194 7 6 6 9 266 8 684 -2 573 0 675 12
685 11 9 117 12 413 10 l399 -3 6 -515 c4 -321 10 -533 17 -562 28 -117 101
-223 187 -271 96 -53 259 -76 403 -57 90 11 211 51 237 77 12 11 15 45 15 159
0 125 -2 145 -16 151 -9 3 -25 1 -35 -5 -26 -16 -144 -42 -193 -42 -90 0 -186
56 -204 119 -4 14 -7 233 -7 486 l0 460 225 5 225 5 3 154 c1 85 -2 159 -7
164 -4 4 -102 8 -216 7 -144 0 -211 3 -221 11 -11 9 -14 56 -14 234 0 194 -2
224 -16 229 -27 10 -344 7 -365 -4 -18 -10 -19 -23 -19 -228 0 -156 -3 -221
-12 -230 -16 -16 -769 -17 -799 -2 -16 9 -19 22 -19 79 0 168 86 261 243 261
34 0 87 -7 117 -15 107 -29 100 -38 100 145 l0 159 -38 11 c-128 34 -361 41
-462 14z"/>
<path d="M10707 5270 c-122 -19 -295 -90 -387 -158 -154 -113 -270 -274 -336
-467 -26 -75 -28 -90 -28 -260 -1 -125 3 -194 13 -225 29 -98 56 -167 78 -202
13 -21 23 -40 23 -44 0 -14 98 -134 153 -187 131 -124 284 -199 475 -231 295
-50 578 31 801 229 53 47 157 190 195 268 64 135 80 212 80 392 0 173 -15 253
-72 375 -114 246 -351 438 -611 496 -81 18 -305 26 -384 14z m308 -357 c74
-25 143 -69 206 -133 67 -68 102 -125 137 -223 21 -61 25 -89 25 -182 -1 -154
-36 -260 -123 -368 -114 -143 -320 -214 -501 -173 -90 20 -195 80 -266 152
-71 73 -104 135 -134 254 -45 180 -2 388 106 511 85 97 193 159 315 183 46 9
185 -4 235 -21z"/>
<path d="M19950 5269 c-114 -19 -209 -69 -297 -159 -59 -58 -123 -150 -123
-174 0 -13 -28 -36 -44 -36 -3 0 -6 74 -6 164 0 115 -4 167 -12 172 -10 7
-369 6 -376 0 -5 -6 -2 -1698 3 -1707 8 -13 372 -12 380 1 4 6 6 164 5 353 -1
342 6 446 37 562 62 232 251 392 489 412 41 3 77 11 81 16 9 16 10 370 1 390
-10 19 -46 21 -138 6z"/>
<path d="M20870 5265 c-254 -44 -474 -221 -595 -478 -57 -122 -77 -213 -82
-375 -7 -209 24 -342 121 -515 44 -79 167 -212 241 -261 301 -201 715 -208
1010 -18 90 58 195 159 194 186 0 12 -20 37 -47 60 -26 21 -71 60 -100 87 -29
27 -57 49 -62 49 -6 0 -37 -22 -70 -49 -66 -53 -179 -113 -250 -132 -71 -20
-235 -17 -300 5 -163 54 -269 155 -319 302 -11 32 -22 66 -26 75 -3 9 1 24 11
33 15 16 67 17 618 16 330 -1 609 -1 619 -1 15 1 17 14 17 126 0 183 -29 311
-106 480 -34 71 -76 128 -158 210 -80 79 -167 135 -268 171 -118 42 -302 54
-448 29z m268 -321 c109 -32 229 -133 272 -230 28 -64 52 -157 48 -185 l-3
-24 -425 -2 c-243 -2 -431 1 -439 6 -20 13 1 103 46 196 95 198 302 296 501
239z"/>
<path d="M8960 5264 c-217 -42 -390 -185 -443 -364 -24 -82 -27 -127 -18 -213
12 -103 48 -176 126 -252 91 -89 215 -145 512 -231 145 -42 237 -95 269 -156
32 -62 5 -152 -59 -195 -63 -42 -130 -57 -235 -49 -152 10 -287 55 -434 147
-53 33 -87 48 -99 44 -11 -4 -19 -10 -19 -14 0 -10 -130 -205 -141 -212 -30
-18 61 -88 206 -158 214 -104 437 -141 662 -110 145 19 252 69 344 159 110
108 143 191 144 365 0 117 -1 122 -34 188 -73 146 -201 227 -531 337 -101 34
-193 66 -204 72 -61 31 -127 84 -141 115 -33 70 6 150 95 195 114 57 313 27
519 -79 46 -24 90 -43 97 -43 11 0 84 107 84 124 0 3 18 35 40 70 l39 65 -36
30 c-48 40 -194 104 -313 136 -80 23 -120 27 -250 30 -85 2 -166 1 -180 -1z"/>
<path d="M17770 5264 c-119 -12 -299 -61 -434 -119 -45 -19 -46 -6 18 -190 30
-85 51 -131 61 -133 9 -2 31 3 48 11 18 9 57 23 87 32 30 9 66 21 79 26 50 20
275 33 364 21 191 -25 304 -131 326 -304 10 -84 -1 -105 -45 -88 -77 30 -246
53 -394 54 -332 2 -535 -78 -652 -258 -57 -88 -78 -168 -78 -291 0 -144 22
-213 106 -325 53 -70 76 -90 144 -128 99 -54 181 -74 327 -79 233 -9 374 37
519 170 30 27 59 47 65 45 8 -3 11 -32 10 -90 -1 -54 2 -89 9 -93 19 -12 353
-5 368 7 11 10 13 109 10 597 -4 570 -5 588 -27 665 -49 173 -136 293 -276
378 -46 28 -104 50 -190 73 -60 16 -348 28 -445 19z m430 -973 c41 -10 88 -25
104 -32 l28 -13 -4 -96 c-4 -110 -26 -165 -93 -233 -128 -132 -388 -176 -555
-95 -99 49 -140 113 -140 220 0 62 4 80 29 124 39 67 123 120 236 148 47 12
322 -4 395 -23z"/>
<path d="M14478 5233 c-6 -8 -6 -19 1 -32 6 -11 23 -57 37 -103 14 -46 36
-114 49 -153 12 -38 46 -144 75 -235 28 -91 55 -174 60 -185 4 -11 29 -87 55
-170 47 -152 65 -208 154 -480 27 -82 63 -196 81 -253 17 -56 36 -105 41 -108
20 -12 334 -4 345 9 6 7 89 248 184 537 196 599 194 593 207 597 6 2 52 -124
103 -279 137 -418 214 -652 245 -753 16 -49 33 -96 38 -102 13 -18 340 -18
355 0 6 6 14 26 18 42 4 17 37 122 74 235 37 113 105 320 150 460 46 140 107
329 136 420 30 91 63 194 75 230 11 36 24 74 29 85 22 54 72 225 68 235 -3 9
-50 12 -188 11 -102 -1 -188 -5 -191 -9 -4 -4 -19 -47 -34 -97 -15 -49 -33
-110 -41 -135 -8 -25 -34 -115 -59 -200 -25 -85 -59 -198 -75 -250 -49 -160
-102 -343 -113 -385 -5 -22 -11 -46 -13 -52 -6 -21 -34 -15 -43 10 -5 12 -16
47 -25 77 -9 30 -36 116 -60 190 -24 74 -85 263 -136 420 -128 396 -131 402
-141 423 -9 16 -25 17 -172 15 -189 -3 -165 15 -223 -173 -20 -66 -60 -192
-89 -280 -48 -148 -106 -328 -176 -550 -15 -49 -31 -103 -34 -118 -4 -22 -11
-28 -28 -25 -17 2 -23 12 -28 43 -4 22 -23 94 -42 160 -105 356 -188 638 -232
790 -21 72 -44 134 -52 138 -23 14 -373 14 -385 0z"/>
<path d="M12377 3143 c-4 -3 -7 -106 -7 -228 0 -187 -2 -225 -15 -235 -11 -9
-40 -11 -99 -8 -46 3 -89 2 -95 -1 -8 -5 -11 -55 -9 -167 l3 -159 101 -3 c96
-2 102 -4 108 -25 3 -12 6 -239 6 -504 0 -525 4 -571 56 -672 57 -109 154
-176 296 -205 133 -27 281 -16 407 31 96 35 91 25 91 199 0 85 -4 154 -8 154
-5 0 -38 -10 -73 -22 -90 -30 -218 -31 -274 -1 -50 26 -78 64 -93 125 -16 61
-17 870 -2 899 10 18 23 19 230 19 219 0 220 0 225 23 3 12 4 85 3 162 l-3
140 -219 3 c-144 1 -224 6 -233 14 -11 9 -13 57 -13 229 1 120 -1 223 -5 229
-7 11 -367 14 -378 3z"/>
<path d="M9385 2704 c-150 -22 -299 -115 -401 -250 -35 -47 -45 -25 -40 89 3
57 2 108 -2 114 -9 15 -369 20 -383 6 -5 -5 -8 -371 -7 -859 l3 -849 185 -3
c165 -2 186 -1 197 15 10 13 13 136 13 537 0 555 1 559 50 657 30 58 100 123
169 156 51 25 67 28 166 28 102 0 114 -2 168 -29 94 -48 165 -148 187 -267 6
-30 10 -274 10 -569 0 -463 2 -519 16 -524 31 -12 359 -7 372 6 20 20 17 1103
-3 1228 -26 159 -75 265 -165 357 -103 106 -220 153 -390 158 -63 2 -128 1
-145 -1z"/>
<path d="M16320 2700 c-111 -20 -210 -73 -292 -157 -67 -68 -84 -90 -118 -158
-14 -27 -33 -51 -41 -53 -14 -3 -16 15 -11 161 4 155 4 165 -14 173 -11 5
-101 8 -202 6 l-182 -3 2 -857 3 -857 184 -3 c121 -2 188 1 197 8 10 9 13 100
16 428 5 450 5 454 66 592 78 177 283 310 479 310 46 0 53 3 58 23 3 12 4 105
3 207 l-3 185 -50 2 c-27 0 -70 -3 -95 -7z"/>
<path d="M10918 2685 c-47 -8 -112 -21 -145 -30 -94 -26 -245 -88 -250 -102
-3 -7 17 -78 44 -156 57 -162 50 -157 158 -117 108 40 208 61 320 67 190 10
313 -24 399 -111 53 -52 74 -97 88 -184 12 -76 5 -116 -20 -109 -262 80 -566
86 -775 16 -106 -35 -175 -78 -243 -151 -93 -99 -127 -192 -127 -353 -1 -167
34 -257 143 -366 118 -119 256 -169 469 -169 145 0 223 16 326 67 78 39 122
69 178 122 48 46 58 34 55 -67 -1 -39 3 -77 8 -82 7 -7 78 -9 190 -8 l179 3 5
510 c5 543 1 662 -25 765 -52 201 -184 349 -375 419 -135 49 -409 66 -602 36z
m438 -951 c114 -22 173 -43 184 -64 13 -24 13 -81 -1 -156 -18 -103 -99 -199
-209 -251 -86 -40 -123 -47 -240 -48 -108 0 -119 2 -180 31 -118 56 -168 139
-156 257 8 78 62 158 131 194 100 53 311 69 471 37z"/>
<path d="M17075 2684 c-107 -16 -182 -35 -290 -76 -101 -38 -118 -53 -106 -93
18 -59 90 -257 95 -263 6 -5 31 2 113 32 167 62 397 84 522 51 126 -33 203
-90 248 -184 27 -58 42 -174 26 -198 -6 -9 -31 -6 -98 12 -135 36 -327 51
-475 37 -147 -15 -238 -39 -327 -87 -195 -104 -289 -296 -262 -534 15 -132 65
-230 162 -316 109 -97 256 -145 447 -145 218 0 358 52 502 189 24 22 41 32 48
25 5 -5 10 -47 12 -94 l3 -85 190 0 190 0 0 580 c0 538 -1 585 -19 655 -32
124 -61 188 -123 272 -123 164 -322 239 -629 237 -76 -1 -179 -7 -229 -15z
m447 -953 c175 -35 186 -46 174 -173 -9 -95 -37 -157 -100 -216 -98 -93 -194
-127 -356 -126 -102 0 -121 3 -171 26 -67 32 -111 67 -140 114 -17 29 -22 51
-22 115 0 70 4 85 29 127 36 58 119 115 194 135 83 22 279 21 392 -2z"/>
<path d="M13577 2672 c-16 -3 -17 -47 -17 -595 0 -646 4 -695 57 -818 74 -172
196 -279 371 -324 34 -9 103 -15 177 -15 170 0 243 22 360 110 69 52 78 61
123 118 54 68 61 59 64 -75 l3 -118 184 -3 c102 -1 188 1 193 6 4 4 8 390 9
857 l1 850 -186 5 c-103 3 -191 4 -196 2 -6 -2 -10 -191 -10 -524 0 -551 -2
-577 -49 -673 -60 -122 -187 -195 -337 -196 -157 -1 -259 59 -325 189 l-34 67
-3 563 c-3 484 -5 564 -18 569 -15 6 -339 10 -367 5z"/>
<path d="M2720 570 c0 -5 7 -10 16 -10 8 0 12 5 9 10 -3 6 -10 10 -16 10 -5 0
-9 -4 -9 -10z"/>
<path d="M1701 554 c0 -11 3 -14 6 -6 3 7 2 16 -1 19 -3 4 -6 -2 -5 -13z"/>
<path d="M1605 530 c-3 -5 -2 -10 4 -10 5 0 13 5 16 10 3 6 2 10 -4 10 -5 0
-13 -4 -16 -10z"/>
<path d="M3055 400 c-16 -11 -38 -20 -47 -20 -10 0 -18 -4 -18 -10 0 -5 -9
-10 -19 -10 -11 0 -23 -4 -26 -10 -4 -6 5 -10 19 -10 14 0 26 5 26 10 0 6 10
10 23 10 25 0 117 41 117 52 0 15 -45 8 -75 -12z"/>
<path d="M5405 413 c-11 -3 -31 -15 -45 -28 -14 -13 -36 -25 -50 -27 -14 -1
-25 -7 -25 -13 0 -17 42 -17 58 0 9 8 30 18 46 21 17 4 31 10 31 14 0 4 14 10
31 14 17 3 28 10 24 16 -6 10 -34 11 -70 3z"/>
<path d="M5290 400 c0 -5 5 -10 10 -10 6 0 10 5 10 10 0 6 -4 10 -10 10 -5 0
-10 -4 -10 -10z"/>
<path d="M1460 381 c0 -11 25 -21 52 -21 10 0 26 -7 34 -15 19 -18 57 -20 52
-2 -3 6 -13 14 -24 16 -10 2 -23 9 -27 17 -9 15 -87 20 -87 5z"/>
<path d="M3900 352 c0 -5 18 -12 40 -16 22 -3 40 -11 40 -16 0 -6 12 -10 28
-10 27 1 27 1 -8 19 -44 23 -100 36 -100 23z"/>
<path d="M1630 325 c-11 -13 -6 -15 29 -15 30 0 41 -4 41 -15 0 -11 12 -15 47
-15 51 0 52 8 1 20 -18 4 -49 15 -70 24 -32 14 -37 14 -48 1z"/>
<path d="M2873 313 c9 -2 25 -2 35 0 9 3 1 5 -18 5 -19 0 -27 -2 -17 -5z"/>
<path d="M5223 313 c9 -2 25 -2 35 0 9 3 1 5 -18 5 -19 0 -27 -2 -17 -5z"/>
<path d="M2763 300 c-34 -14 -28 -20 17 -20 29 0 40 4 40 15 0 17 -23 19 -57
5z"/>
<path d="M4075 290 c-4 -6 11 -10 37 -9 33 0 38 2 23 9 -28 12 -53 12 -60 0z"/>
<path d="M5040 275 c-19 -7 -46 -14 -59 -14 -13 -1 -21 -4 -17 -8 11 -11 100
-3 108 10 4 6 31 14 60 18 l53 6 -55 1 c-30 0 -71 -6 -90 -13z"/>
<path d="M1831 261 c-17 -11 40 -20 78 -13 l26 6 -25 7 c-35 10 -63 10 -79 0z"/>
<path d="M2645 260 c-15 -6 -8 -9 28 -9 30 -1 46 3 42 9 -7 12 -42 12 -70 0z"/>
<path d="M4200 260 c-11 -7 1 -10 39 -10 30 0 52 2 50 4 -11 10 -76 14 -89 6z"/>
<path d="M2030 230 c-41 -6 -39 -7 25 -8 47 0 64 2 50 8 -11 5 -22 8 -25 8 -3
-1 -25 -4 -50 -8z"/>
<path d="M2410 230 c-19 -6 -12 -8 29 -9 30 -1 52 1 50 3 -11 9 -57 13 -79 6z"/>
<path d="M4775 230 c-15 -6 -7 -9 30 -9 36 -1 46 2 35 9 -18 12 -38 12 -65 0z"/>
<path d="M4443 223 c48 -2 126 -2 175 0 48 1 8 3 -88 3 -96 0 -136 -2 -87 -3z"/>
</g>
</svg>
