<?xml version="1.0" encoding="UTF-8"?>
<svg version="1.1" xmlns="http://www.w3.org/2000/svg" width="600" height="315">
<path d="M0 0 C1.02777306 -0.00143509 1.02777306 -0.00143509 2.0763092 -0.00289917 C3.51758924 -0.00357604 4.9588724 -0.00175632 6.40014648 0.00244141 C8.58779867 0.00778841 10.77524481 0.00248391 12.96289062 -0.00390625 C14.3710942 -0.00324522 15.77929764 -0.00196354 17.1875 0 C18.45327881 0.00112793 19.71905762 0.00225586 21.02319336 0.00341797 C24.63512599 0.13192198 28.09492263 0.55482164 31.66015625 1.1328125 C31.66015625 1.7928125 31.66015625 2.4528125 31.66015625 3.1328125 C33.31015625 3.1328125 34.96015625 3.1328125 36.66015625 3.1328125 C36.66015625 3.7928125 36.66015625 4.4528125 36.66015625 5.1328125 C37.98015625 5.4628125 39.30015625 5.7928125 40.66015625 6.1328125 C40.66015625 6.7928125 40.66015625 7.4528125 40.66015625 8.1328125 C41.65015625 8.1328125 42.64015625 8.1328125 43.66015625 8.1328125 C43.66015625 8.7928125 43.66015625 9.4528125 43.66015625 10.1328125 C44.32015625 10.1328125 44.98015625 10.1328125 45.66015625 10.1328125 C45.66015625 7.8228125 45.66015625 5.5128125 45.66015625 3.1328125 C47.97015625 3.1328125 50.28015625 3.1328125 52.66015625 3.1328125 C52.66015625 2.4728125 52.66015625 1.8128125 52.66015625 1.1328125 C57.15937761 0.26227433 61.42024233 0.00408464 66 0 C67.02777306 -0.00143509 67.02777306 -0.00143509 68.0763092 -0.00289917 C69.51758924 -0.00357604 70.9588724 -0.00175632 72.40014648 0.00244141 C74.58779867 0.00778841 76.77524481 0.00248391 78.96289062 -0.00390625 C80.3710942 -0.00324522 81.77929764 -0.00196354 83.1875 0 C84.45327881 0.00112793 85.71905762 0.00225586 87.02319336 0.00341797 C90.63512599 0.13192198 94.09492263 0.55482164 97.66015625 1.1328125 C97.66015625 1.4628125 97.66015625 1.7928125 97.66015625 2.1328125 C99.31015625 2.4628125 100.96015625 2.7928125 102.66015625 3.1328125 C102.66015625 3.7928125 102.66015625 4.4528125 102.66015625 5.1328125 C103.77390625 5.5865625 104.88765625 6.0403125 106.03515625 6.5078125 C109.66015625 8.1328125 109.66015625 8.1328125 111.66015625 10.1328125 C111.66015625 11.1228125 111.66015625 12.1128125 111.66015625 13.1328125 C113.31015625 13.7928125 114.96015625 14.4528125 116.66015625 15.1328125 C116.66015625 15.7928125 116.66015625 16.4528125 116.66015625 17.1328125 C117.32015625 17.1328125 117.98015625 17.1328125 118.66015625 17.1328125 C118.66015625 18.1228125 118.66015625 19.1128125 118.66015625 20.1328125 C120.31015625 20.7928125 121.96015625 21.4528125 123.66015625 22.1328125 C123.66015625 23.7828125 123.66015625 25.4328125 123.66015625 27.1328125 C124.32015625 27.1328125 124.98015625 27.1328125 125.66015625 27.1328125 C125.99015625 29.1128125 126.32015625 31.0928125 126.66015625 33.1328125 C127.65015625 32.1428125 127.65015625 32.1428125 128.66015625 31.1328125 C128.66015625 34.4328125 128.66015625 37.7328125 128.66015625 41.1328125 C129.32015625 41.1328125 129.98015625 41.1328125 130.66015625 41.1328125 C130.66015625 49.7128125 130.66015625 58.2928125 130.66015625 67.1328125 C130.00015625 67.1328125 129.34015625 67.1328125 128.66015625 67.1328125 C128.66015625 69.4428125 128.66015625 71.7528125 128.66015625 74.1328125 C127.67015625 74.1328125 126.68015625 74.1328125 125.66015625 74.1328125 C125.66015625 76.4428125 125.66015625 78.7528125 125.66015625 81.1328125 C125.00015625 81.1328125 124.34015625 81.1328125 123.66015625 81.1328125 C122.8824322 83.46598466 122.23600057 85.74717173 121.66015625 88.1328125 C120.67015625 88.1328125 119.68015625 88.1328125 118.66015625 88.1328125 C118.66015625 88.7928125 118.66015625 89.4528125 118.66015625 90.1328125 C118.00015625 90.1328125 117.34015625 90.1328125 116.66015625 90.1328125 C116.66015625 91.1228125 116.66015625 92.1128125 116.66015625 93.1328125 C115.67015625 93.1328125 114.68015625 93.1328125 113.66015625 93.1328125 C113.66015625 93.7928125 113.66015625 94.4528125 113.66015625 95.1328125 C113.00015625 95.1328125 112.34015625 95.1328125 111.66015625 95.1328125 C111.66015625 95.7928125 111.66015625 96.4528125 111.66015625 97.1328125 C110.67015625 97.6278125 110.67015625 97.6278125 109.66015625 98.1328125 C110.65015625 98.4628125 111.64015625 98.7928125 112.66015625 99.1328125 C112.66015625 98.4728125 112.66015625 97.8128125 112.66015625 97.1328125 C113.65015625 97.1328125 114.64015625 97.1328125 115.66015625 97.1328125 C115.66015625 96.1428125 115.66015625 95.1528125 115.66015625 94.1328125 C116.32015625 94.1328125 116.98015625 94.1328125 117.66015625 94.1328125 C117.66015625 93.4728125 117.66015625 92.8128125 117.66015625 92.1328125 C120.30015625 92.1328125 122.94015625 92.1328125 125.66015625 92.1328125 C125.66015625 94.4428125 125.66015625 96.7528125 125.66015625 99.1328125 C126.65015625 99.1328125 127.64015625 99.1328125 128.66015625 99.1328125 C128.66015625 101.4428125 128.66015625 103.7528125 128.66015625 106.1328125 C129.32015625 106.1328125 129.98015625 106.1328125 130.66015625 106.1328125 C130.66015625 114.7128125 130.66015625 123.2928125 130.66015625 132.1328125 C130.00015625 132.1328125 129.34015625 132.1328125 128.66015625 132.1328125 C128.66015625 135.4328125 128.66015625 138.7328125 128.66015625 142.1328125 C128.00015625 141.8028125 127.34015625 141.4728125 126.66015625 141.1328125 C126.33015625 142.7828125 126.00015625 144.4328125 125.66015625 146.1328125 C125.00015625 146.1328125 124.34015625 146.1328125 123.66015625 146.1328125 C123.66015625 147.7828125 123.66015625 149.4328125 123.66015625 151.1328125 C121.18515625 152.1228125 121.18515625 152.1228125 118.66015625 153.1328125 C118.66015625 154.1228125 118.66015625 155.1128125 118.66015625 156.1328125 C118.00015625 156.1328125 117.34015625 156.1328125 116.66015625 156.1328125 C116.33015625 157.1228125 116.00015625 158.1128125 115.66015625 159.1328125 C113.59765625 159.8203125 113.59765625 159.8203125 111.66015625 160.1328125 C111.66015625 161.1228125 111.66015625 162.1128125 111.66015625 163.1328125 C108.84765625 165.1953125 108.84765625 165.1953125 105.66015625 167.1328125 C104.67015625 167.7928125 103.68015625 168.4528125 102.66015625 169.1328125 C102.66015625 169.4628125 102.66015625 169.7928125 102.66015625 170.1328125 C101.01015625 170.4628125 99.36015625 170.7928125 97.66015625 171.1328125 C97.66015625 171.4628125 97.66015625 171.7928125 97.66015625 172.1328125 C92.78945695 172.9224437 88.11982809 173.26122983 83.1875 173.265625 C82.50136124 173.26658173 81.81522247 173.26753845 81.10829163 173.26852417 C79.66879178 173.26919989 78.22928878 173.26738838 76.78979492 173.26318359 C74.60002749 173.25781831 72.41046435 173.26315354 70.22070312 173.26953125 C68.81380164 173.26887052 67.40690027 173.26758947 66 173.265625 C64.73534912 173.26449707 63.47069824 173.26336914 62.16772461 173.26220703 C58.90585431 173.14187632 55.86080348 172.75209423 52.66015625 172.1328125 C52.66015625 171.4728125 52.66015625 170.8128125 52.66015625 170.1328125 C50.35015625 170.1328125 48.04015625 170.1328125 45.66015625 170.1328125 C45.66015625 169.4728125 45.66015625 168.8128125 45.66015625 168.1328125 C45.00015625 167.8028125 44.34015625 167.4728125 43.66015625 167.1328125 C43.66015625 166.4728125 43.66015625 165.8128125 43.66015625 165.1328125 C42.67015625 165.1328125 41.68015625 165.1328125 40.66015625 165.1328125 C40.66015625 164.4728125 40.66015625 163.8128125 40.66015625 163.1328125 C39.34015625 163.1328125 38.02015625 163.1328125 36.66015625 163.1328125 C36.66015625 165.4428125 36.66015625 167.7528125 36.66015625 170.1328125 C35.01015625 170.1328125 33.36015625 170.1328125 31.66015625 170.1328125 C31.66015625 170.7928125 31.66015625 171.4528125 31.66015625 172.1328125 C26.78945695 172.9224437 22.11982809 173.26122983 17.1875 173.265625 C16.50136124 173.26658173 15.81522247 173.26753845 15.10829163 173.26852417 C13.66879178 173.26919989 12.22928878 173.26738838 10.78979492 173.26318359 C8.60002749 173.25781831 6.41046435 173.26315354 4.22070312 173.26953125 C2.81380164 173.26887052 1.40690027 173.26758947 0 173.265625 C-1.26465088 173.26449707 -2.52930176 173.26336914 -3.83227539 173.26220703 C-7.09414569 173.14187632 -10.13919652 172.75209423 -13.33984375 172.1328125 C-13.33984375 171.4728125 -13.33984375 170.8128125 -13.33984375 170.1328125 C-15.64984375 170.1328125 -17.95984375 170.1328125 -20.33984375 170.1328125 C-20.60796875 169.4934375 -20.87609375 168.8540625 -21.15234375 168.1953125 C-22.22652127 165.80149564 -22.22652127 165.80149564 -25.33984375 165.1328125 C-25.33984375 164.4728125 -25.33984375 163.8128125 -25.33984375 163.1328125 C-25.95859375 163.0503125 -26.57734375 162.9678125 -27.21484375 162.8828125 C-29.33984375 162.1328125 -29.33984375 162.1328125 -30.58984375 160.0703125 C-30.83734375 159.4309375 -31.08484375 158.7915625 -31.33984375 158.1328125 C-32.32984375 158.1328125 -33.31984375 158.1328125 -34.33984375 158.1328125 C-35.80047225 155.48542334 -36.33984375 154.23832916 -36.33984375 151.1328125 C-36.99984375 151.1328125 -37.65984375 151.1328125 -38.33984375 151.1328125 C-38.99984375 150.4728125 -39.65984375 149.8128125 -40.33984375 149.1328125 C-40.66984375 149.1328125 -40.99984375 149.1328125 -41.33984375 149.1328125 C-41.33984375 146.8228125 -41.33984375 144.5128125 -41.33984375 142.1328125 C-41.99984375 142.1328125 -42.65984375 142.1328125 -43.33984375 142.1328125 C-44.35483809 137.93474753 -44.46894848 133.98401307 -44.47265625 129.671875 C-44.47361298 128.96308197 -44.4745697 128.25428894 -44.47555542 127.52401733 C-44.47623351 126.02968252 -44.47440515 124.53534471 -44.47021484 123.04101562 C-44.46487728 120.77206688 -44.47016418 118.50331751 -44.4765625 116.234375 C-44.47590134 114.77604124 -44.4746194 113.31770759 -44.47265625 111.859375 C-44.47152832 110.54533691 -44.47040039 109.23129883 -44.46923828 107.87744141 C-44.34198538 104.1947905 -43.93142583 100.76278831 -43.33984375 97.1328125 C-42.67984375 97.1328125 -42.01984375 97.1328125 -41.33984375 97.1328125 C-41.33984375 95.4828125 -41.33984375 93.8328125 -41.33984375 92.1328125 C-40.34984375 92.1328125 -39.35984375 92.1328125 -38.33984375 92.1328125 C-38.33984375 90.4828125 -38.33984375 88.8328125 -38.33984375 87.1328125 C-37.67984375 87.1328125 -37.01984375 87.1328125 -36.33984375 87.1328125 C-36.33984375 86.4728125 -36.33984375 85.8128125 -36.33984375 85.1328125 C-35.67984375 85.1328125 -35.01984375 85.1328125 -34.33984375 85.1328125 C-33.28713912 82.50174489 -33.28713912 82.50174489 -33.33984375 81.1328125 C-35.97984375 81.1328125 -38.61984375 81.1328125 -41.33984375 81.1328125 C-41.33984375 79.4828125 -41.33984375 77.8328125 -41.33984375 76.1328125 C-41.99984375 76.1328125 -42.65984375 76.1328125 -43.33984375 76.1328125 C-44.1481857 71.17278779 -44.46832895 66.44755828 -44.47265625 61.40625 C-44.47361298 60.69554352 -44.4745697 59.98483704 -44.47555542 59.25259399 C-44.47623129 57.76181957 -44.47441875 56.27104209 -44.47021484 54.78027344 C-44.46484205 52.50709411 -44.4701882 50.2341109 -44.4765625 47.9609375 C-44.47590192 46.5052079 -44.47462119 45.04947842 -44.47265625 43.59375 C-44.47152832 42.28196777 -44.47040039 40.97018555 -44.46923828 39.61865234 C-44.35887567 36.64552535 -44.03676561 34.01531452 -43.33984375 31.1328125 C-42.67984375 31.1328125 -42.01984375 31.1328125 -41.33984375 31.1328125 C-41.33984375 28.8228125 -41.33984375 26.5128125 -41.33984375 24.1328125 C-40.67984375 24.1328125 -40.01984375 24.1328125 -39.33984375 24.1328125 C-39.00984375 23.4728125 -38.67984375 22.8128125 -38.33984375 22.1328125 C-37.67984375 22.1328125 -37.01984375 22.1328125 -36.33984375 22.1328125 C-35.5621197 19.79964034 -34.91568807 17.51845327 -34.33984375 15.1328125 C-33.34984375 15.1328125 -32.35984375 15.1328125 -31.33984375 15.1328125 C-31.33984375 14.4728125 -31.33984375 13.8128125 -31.33984375 13.1328125 C-28.65490224 10.44787099 -25.89372294 8.44751658 -22.58984375 6.5703125 C-21.84734375 6.0959375 -21.10484375 5.6215625 -20.33984375 5.1328125 C-20.33984375 4.4728125 -20.33984375 3.8128125 -20.33984375 3.1328125 C-18.02984375 3.1328125 -15.71984375 3.1328125 -13.33984375 3.1328125 C-13.33984375 2.4728125 -13.33984375 1.8128125 -13.33984375 1.1328125 C-8.84062239 0.26227433 -4.57975767 0.00408464 0 0 Z M46.66015625 9.1328125 C46.33015625 10.1228125 46.00015625 11.1128125 45.66015625 12.1328125 C46.65015625 12.4628125 47.64015625 12.7928125 48.66015625 13.1328125 C48.66015625 13.7928125 48.66015625 14.4528125 48.66015625 15.1328125 C49.32015625 15.1328125 49.98015625 15.1328125 50.66015625 15.1328125 C50.66015625 15.7928125 50.66015625 16.4528125 50.66015625 17.1328125 C51.98015625 16.8028125 53.30015625 16.4728125 54.66015625 16.1328125 C54.00015625 16.1328125 53.34015625 16.1328125 52.66015625 16.1328125 C52.66015625 15.1428125 52.66015625 14.1528125 52.66015625 13.1328125 C52.00015625 13.1328125 51.34015625 13.1328125 50.66015625 13.1328125 C50.66015625 12.4728125 50.66015625 11.8128125 50.66015625 11.1328125 C49.67015625 11.1328125 48.68015625 11.1328125 47.66015625 11.1328125 C47.33015625 10.4728125 47.00015625 9.8128125 46.66015625 9.1328125 Z M4.66015625 16.1328125 C4.66015625 16.4628125 4.66015625 16.7928125 4.66015625 17.1328125 C0.20515625 17.6278125 0.20515625 17.6278125 -4.33984375 18.1328125 C-4.33984375 18.7928125 -4.33984375 19.4528125 -4.33984375 20.1328125 C-5.08234375 20.2359375 -5.82484375 20.3390625 -6.58984375 20.4453125 C-9.53630932 21.18192889 -11.02690549 22.2186567 -13.33984375 24.1328125 C-14.32984375 24.6278125 -14.32984375 24.6278125 -15.33984375 25.1328125 C-15.33984375 25.7928125 -15.33984375 26.4528125 -15.33984375 27.1328125 C-15.99984375 27.1328125 -16.65984375 27.1328125 -17.33984375 27.1328125 C-17.33984375 28.1228125 -17.33984375 29.1128125 -17.33984375 30.1328125 C-17.99984375 30.1328125 -18.65984375 30.1328125 -19.33984375 30.1328125 C-19.33984375 30.7928125 -19.33984375 31.4528125 -19.33984375 32.1328125 C-20.32984375 32.4628125 -21.31984375 32.7928125 -22.33984375 33.1328125 C-22.00984375 34.4528125 -21.67984375 35.7728125 -21.33984375 37.1328125 C-22.32984375 37.1328125 -23.31984375 37.1328125 -24.33984375 37.1328125 C-24.33984375 38.4528125 -24.33984375 39.7728125 -24.33984375 41.1328125 C-24.99984375 41.1328125 -25.65984375 41.1328125 -26.33984375 41.1328125 C-26.33984375 44.4328125 -26.33984375 47.7328125 -26.33984375 51.1328125 C-26.99984375 51.1328125 -27.65984375 51.1328125 -28.33984375 51.1328125 C-28.33984375 53.1128125 -28.33984375 55.0928125 -28.33984375 57.1328125 C-27.67984375 57.1328125 -27.01984375 57.1328125 -26.33984375 57.1328125 C-26.33984375 60.1028125 -26.33984375 63.0728125 -26.33984375 66.1328125 C-25.67984375 66.1328125 -25.01984375 66.1328125 -24.33984375 66.1328125 C-24.33984375 68.4428125 -24.33984375 70.7528125 -24.33984375 73.1328125 C-22.85484375 72.6378125 -22.85484375 72.6378125 -21.33984375 72.1328125 C-20.00877753 71.79053833 -18.67584296 71.45529507 -17.33984375 71.1328125 C-17.33984375 70.4728125 -17.33984375 69.8128125 -17.33984375 69.1328125 C-15.68984375 69.1328125 -14.03984375 69.1328125 -12.33984375 69.1328125 C-12.33984375 68.4728125 -12.33984375 67.8128125 -12.33984375 67.1328125 C-9.69984375 66.8028125 -7.05984375 66.4728125 -4.33984375 66.1328125 C-4.33984375 65.8028125 -4.33984375 65.4728125 -4.33984375 65.1328125 C3.58015625 64.8028125 11.50015625 64.4728125 19.66015625 64.1328125 C19.99015625 55.5528125 20.32015625 46.9728125 20.66015625 38.1328125 C20.99015625 38.1328125 21.32015625 38.1328125 21.66015625 38.1328125 C21.66015625 35.8228125 21.66015625 33.5128125 21.66015625 31.1328125 C22.65015625 31.1328125 23.64015625 31.1328125 24.66015625 31.1328125 C25.16383382 29.67574524 25.66298181 28.21711154 26.16015625 26.7578125 C26.43859375 25.94570312 26.71703125 25.13359375 27.00390625 24.296875 C27.7568893 22.19072008 27.7568893 22.19072008 27.66015625 20.1328125 C26.01015625 20.1328125 24.36015625 20.1328125 22.66015625 20.1328125 C22.66015625 19.4728125 22.66015625 18.8128125 22.66015625 18.1328125 C19.69015625 17.8028125 16.72015625 17.4728125 13.66015625 17.1328125 C13.66015625 16.8028125 13.66015625 16.4728125 13.66015625 16.1328125 C10.69015625 16.1328125 7.72015625 16.1328125 4.66015625 16.1328125 Z M69.66015625 16.1328125 C69.66015625 16.4628125 69.66015625 16.7928125 69.66015625 17.1328125 C67.02015625 17.4628125 64.38015625 17.7928125 61.66015625 18.1328125 C61.66015625 18.7928125 61.66015625 19.4528125 61.66015625 20.1328125 C59.68015625 20.1328125 57.70015625 20.1328125 55.66015625 20.1328125 C55.66015625 21.4528125 55.66015625 22.7728125 55.66015625 24.1328125 C56.32015625 24.1328125 56.98015625 24.1328125 57.66015625 24.1328125 C57.99015625 25.4528125 58.32015625 26.7728125 58.66015625 28.1328125 C58.99015625 28.1328125 59.32015625 28.1328125 59.66015625 28.1328125 C59.99015625 30.1128125 60.32015625 32.0928125 60.66015625 34.1328125 C60.99015625 34.1328125 61.32015625 34.1328125 61.66015625 34.1328125 C61.99015625 36.4428125 62.32015625 38.7528125 62.66015625 41.1328125 C63.32015625 41.1328125 63.98015625 41.1328125 64.66015625 41.1328125 C64.66015625 48.7228125 64.66015625 56.3128125 64.66015625 64.1328125 C72.58015625 64.4628125 80.50015625 64.7928125 88.66015625 65.1328125 C88.66015625 65.4628125 88.66015625 65.7928125 88.66015625 66.1328125 C90.36171875 66.3184375 90.36171875 66.3184375 92.09765625 66.5078125 C93.27328125 66.7140625 94.44890625 66.9203125 95.66015625 67.1328125 C95.99015625 67.7928125 96.32015625 68.4528125 96.66015625 69.1328125 C98.31015625 69.1328125 99.96015625 69.1328125 101.66015625 69.1328125 C101.66015625 69.7928125 101.66015625 70.4528125 101.66015625 71.1328125 C102.65015625 71.1328125 103.64015625 71.1328125 104.66015625 71.1328125 C104.66015625 71.7928125 104.66015625 72.4528125 104.66015625 73.1328125 C105.32015625 73.1328125 105.98015625 73.1328125 106.66015625 73.1328125 C106.66015625 71.8128125 106.66015625 70.4928125 106.66015625 69.1328125 C107.32015625 69.1328125 107.98015625 69.1328125 108.66015625 69.1328125 C108.66015625 67.4828125 108.66015625 65.8328125 108.66015625 64.1328125 C109.65015625 64.1328125 110.64015625 64.1328125 111.66015625 64.1328125 C111.66015625 57.5328125 111.66015625 50.9328125 111.66015625 44.1328125 C110.67015625 44.1328125 109.68015625 44.1328125 108.66015625 44.1328125 C108.66015625 41.8228125 108.66015625 39.5128125 108.66015625 37.1328125 C108.00015625 37.1328125 107.34015625 37.1328125 106.66015625 37.1328125 C106.66015625 36.1428125 106.66015625 35.1528125 106.66015625 34.1328125 C106.00015625 34.1328125 105.34015625 34.1328125 104.66015625 34.1328125 C104.66015625 32.8128125 104.66015625 31.4928125 104.66015625 30.1328125 C103.67015625 30.1328125 102.68015625 30.1328125 101.66015625 30.1328125 C101.66015625 29.1428125 101.66015625 28.1528125 101.66015625 27.1328125 C101.00015625 27.1328125 100.34015625 27.1328125 99.66015625 27.1328125 C99.66015625 26.4728125 99.66015625 25.8128125 99.66015625 25.1328125 C96.70638127 22.76301237 96.70638127 22.76301237 92.66015625 23.1328125 C92.66015625 22.1428125 92.66015625 21.1528125 92.66015625 20.1328125 C91.34015625 20.1328125 90.02015625 20.1328125 88.66015625 20.1328125 C88.66015625 19.4728125 88.66015625 18.8128125 88.66015625 18.1328125 C85.69015625 17.8028125 82.72015625 17.4728125 79.66015625 17.1328125 C79.66015625 16.8028125 79.66015625 16.4728125 79.66015625 16.1328125 C76.36015625 16.1328125 73.06015625 16.1328125 69.66015625 16.1328125 Z M52.66015625 18.1328125 C53.32015625 18.7928125 53.98015625 19.4528125 54.66015625 20.1328125 C54.99015625 19.4728125 55.32015625 18.8128125 55.66015625 18.1328125 C54.67015625 18.1328125 53.68015625 18.1328125 52.66015625 18.1328125 Z M41.66015625 37.1328125 C41.66015625 38.4528125 41.66015625 39.7728125 41.66015625 41.1328125 C40.67015625 41.1328125 39.68015625 41.1328125 38.66015625 41.1328125 C38.99015625 44.4328125 39.32015625 47.7328125 39.66015625 51.1328125 C38.67015625 51.1328125 37.68015625 51.1328125 36.66015625 51.1328125 C36.66015625 53.1128125 36.66015625 55.0928125 36.66015625 57.1328125 C37.65015625 57.1328125 38.64015625 57.1328125 39.66015625 57.1328125 C39.33015625 60.1028125 39.00015625 63.0728125 38.66015625 66.1328125 C39.65015625 66.1328125 40.64015625 66.1328125 41.66015625 66.1328125 C41.66015625 67.7828125 41.66015625 69.4328125 41.66015625 71.1328125 C43.94744359 69.29397369 43.94744359 69.29397369 43.78515625 66.5078125 C43.74390625 65.7240625 43.70265625 64.9403125 43.66015625 64.1328125 C44.32015625 64.1328125 44.98015625 64.1328125 45.66015625 64.1328125 C45.66015625 57.5328125 45.66015625 50.9328125 45.66015625 44.1328125 C45.00015625 44.1328125 44.34015625 44.1328125 43.66015625 44.1328125 C43.33015625 41.8228125 43.00015625 39.5128125 42.66015625 37.1328125 C42.33015625 37.1328125 42.00015625 37.1328125 41.66015625 37.1328125 Z M-29.33984375 74.1328125 C-29.33984375 74.7928125 -29.33984375 75.4528125 -29.33984375 76.1328125 C-29.99984375 76.1328125 -30.65984375 76.1328125 -31.33984375 76.1328125 C-31.33984375 76.7928125 -31.33984375 77.4528125 -31.33984375 78.1328125 C-30.01984375 78.1328125 -28.69984375 78.1328125 -27.33984375 78.1328125 C-27.33984375 77.4728125 -27.33984375 76.8128125 -27.33984375 76.1328125 C-26.34984375 76.1328125 -25.35984375 76.1328125 -24.33984375 76.1328125 C-24.33984375 75.4728125 -24.33984375 74.8128125 -24.33984375 74.1328125 C-25.98984375 74.1328125 -27.63984375 74.1328125 -29.33984375 74.1328125 Z M-2.33984375 83.1328125 C-2.66984375 83.7928125 -2.99984375 84.4528125 -3.33984375 85.1328125 C-5.90234375 85.7578125 -5.90234375 85.7578125 -8.33984375 86.1328125 C-8.33984375 86.4628125 -8.33984375 86.7928125 -8.33984375 87.1328125 C-7.13328125 87.3184375 -7.13328125 87.3184375 -5.90234375 87.5078125 C-4.63390625 87.8171875 -4.63390625 87.8171875 -3.33984375 88.1328125 C-3.00984375 88.7928125 -2.67984375 89.4528125 -2.33984375 90.1328125 C5.25015625 90.1328125 12.84015625 90.1328125 20.66015625 90.1328125 C20.99015625 89.4728125 21.32015625 88.8128125 21.66015625 88.1328125 C24.22265625 87.5078125 24.22265625 87.5078125 26.66015625 87.1328125 C26.66015625 86.8028125 26.66015625 86.4728125 26.66015625 86.1328125 C25.85578125 86.0090625 25.05140625 85.8853125 24.22265625 85.7578125 C22.95421875 85.4484375 22.95421875 85.4484375 21.66015625 85.1328125 C21.33015625 84.4728125 21.00015625 83.8128125 20.66015625 83.1328125 C13.07015625 83.1328125 5.48015625 83.1328125 -2.33984375 83.1328125 Z M62.66015625 83.1328125 C62.66015625 83.7928125 62.66015625 84.4528125 62.66015625 85.1328125 C61.01015625 85.4628125 59.36015625 85.7928125 57.66015625 86.1328125 C57.66015625 86.4628125 57.66015625 86.7928125 57.66015625 87.1328125 C60.13515625 87.6278125 60.13515625 87.6278125 62.66015625 88.1328125 C62.66015625 88.7928125 62.66015625 89.4528125 62.66015625 90.1328125 C70.58015625 90.1328125 78.50015625 90.1328125 86.66015625 90.1328125 C86.99015625 89.4728125 87.32015625 88.8128125 87.66015625 88.1328125 C90.22265625 87.5078125 90.22265625 87.5078125 92.66015625 87.1328125 C92.66015625 86.8028125 92.66015625 86.4728125 92.66015625 86.1328125 C91.69078125 86.0090625 90.72140625 85.8853125 89.72265625 85.7578125 C88.71203125 85.5515625 87.70140625 85.3453125 86.66015625 85.1328125 C86.33015625 84.4728125 86.00015625 83.8128125 85.66015625 83.1328125 C78.07015625 83.1328125 70.48015625 83.1328125 62.66015625 83.1328125 Z M104.66015625 100.1328125 C104.66015625 100.7928125 104.66015625 101.4528125 104.66015625 102.1328125 C103.67015625 102.1328125 102.68015625 102.1328125 101.66015625 102.1328125 C101.66015625 102.7928125 101.66015625 103.4528125 101.66015625 104.1328125 C100.01015625 104.1328125 98.36015625 104.1328125 96.66015625 104.1328125 C96.33015625 104.7928125 96.00015625 105.4528125 95.66015625 106.1328125 C93.33859028 106.54010478 91.00327755 106.87719927 88.66015625 107.1328125 C88.66015625 107.4628125 88.66015625 107.7928125 88.66015625 108.1328125 C80.74015625 108.4628125 72.82015625 108.7928125 64.66015625 109.1328125 C64.66015625 116.7228125 64.66015625 124.3128125 64.66015625 132.1328125 C64.00015625 132.1328125 63.34015625 132.1328125 62.66015625 132.1328125 C62.33015625 134.4428125 62.00015625 136.7528125 61.66015625 139.1328125 C61.33015625 139.1328125 61.00015625 139.1328125 60.66015625 139.1328125 C60.66015625 141.4428125 60.66015625 143.7528125 60.66015625 146.1328125 C59.67015625 146.1328125 58.68015625 146.1328125 57.66015625 146.1328125 C57.66015625 147.1228125 57.66015625 148.1128125 57.66015625 149.1328125 C57.00015625 149.1328125 56.34015625 149.1328125 55.66015625 149.1328125 C55.99015625 150.4528125 56.32015625 151.7728125 56.66015625 153.1328125 C58.31015625 153.1328125 59.96015625 153.1328125 61.66015625 153.1328125 C61.66015625 153.7928125 61.66015625 154.4528125 61.66015625 155.1328125 C64.30015625 155.4628125 66.94015625 155.7928125 69.66015625 156.1328125 C69.66015625 156.4628125 69.66015625 156.7928125 69.66015625 157.1328125 C72.96015625 157.1328125 76.26015625 157.1328125 79.66015625 157.1328125 C79.66015625 156.8028125 79.66015625 156.4728125 79.66015625 156.1328125 C84.11515625 155.6378125 84.11515625 155.6378125 88.66015625 155.1328125 C88.66015625 154.4728125 88.66015625 153.8128125 88.66015625 153.1328125 C89.98015625 153.1328125 91.30015625 153.1328125 92.66015625 153.1328125 C92.66015625 152.1428125 92.66015625 151.1528125 92.66015625 150.1328125 C93.25828125 149.9884375 93.85640625 149.8440625 94.47265625 149.6953125 C96.22166029 149.2455686 97.94692648 148.70388909 99.66015625 148.1328125 C99.66015625 147.4728125 99.66015625 146.8128125 99.66015625 146.1328125 C100.32015625 146.1328125 100.98015625 146.1328125 101.66015625 146.1328125 C101.66015625 145.1428125 101.66015625 144.1528125 101.66015625 143.1328125 C102.65015625 142.8028125 103.64015625 142.4728125 104.66015625 142.1328125 C104.66015625 141.1428125 104.66015625 140.1528125 104.66015625 139.1328125 C105.32015625 139.1328125 105.98015625 139.1328125 106.66015625 139.1328125 C106.66015625 138.1428125 106.66015625 137.1528125 106.66015625 136.1328125 C107.32015625 136.1328125 107.98015625 136.1328125 108.66015625 136.1328125 C108.66015625 133.8228125 108.66015625 131.5128125 108.66015625 129.1328125 C109.65015625 129.1328125 110.64015625 129.1328125 111.66015625 129.1328125 C111.66015625 122.5328125 111.66015625 115.9328125 111.66015625 109.1328125 C110.67015625 109.1328125 109.68015625 109.1328125 108.66015625 109.1328125 C108.66015625 106.1628125 108.66015625 103.1928125 108.66015625 100.1328125 C107.34015625 100.1328125 106.02015625 100.1328125 104.66015625 100.1328125 Z M-24.33984375 102.1328125 C-24.33984375 103.7828125 -24.33984375 105.4328125 -24.33984375 107.1328125 C-24.99984375 107.1328125 -25.65984375 107.1328125 -26.33984375 107.1328125 C-26.33984375 110.1028125 -26.33984375 113.0728125 -26.33984375 116.1328125 C-26.99984375 116.1328125 -27.65984375 116.1328125 -28.33984375 116.1328125 C-28.33984375 118.1128125 -28.33984375 120.0928125 -28.33984375 122.1328125 C-27.67984375 122.1328125 -27.01984375 122.1328125 -26.33984375 122.1328125 C-26.33984375 125.4328125 -26.33984375 128.7328125 -26.33984375 132.1328125 C-25.67984375 132.1328125 -25.01984375 132.1328125 -24.33984375 132.1328125 C-24.33984375 133.4528125 -24.33984375 134.7728125 -24.33984375 136.1328125 C-23.34984375 136.1328125 -22.35984375 136.1328125 -21.33984375 136.1328125 C-21.83484375 138.6078125 -21.83484375 138.6078125 -22.33984375 141.1328125 C-21.34984375 141.1328125 -20.35984375 141.1328125 -19.33984375 141.1328125 C-19.33984375 141.7928125 -19.33984375 142.4528125 -19.33984375 143.1328125 C-18.67984375 143.1328125 -18.01984375 143.1328125 -17.33984375 143.1328125 C-17.33984375 144.1228125 -17.33984375 145.1128125 -17.33984375 146.1328125 C-16.67984375 146.1328125 -16.01984375 146.1328125 -15.33984375 146.1328125 C-15.33984375 146.7928125 -15.33984375 147.4528125 -15.33984375 148.1328125 C-12.06303709 151.40961916 -8.86245696 152.37904363 -4.33984375 153.1328125 C-4.33984375 153.7928125 -4.33984375 154.4528125 -4.33984375 155.1328125 C-1.69984375 155.4628125 0.94015625 155.7928125 3.66015625 156.1328125 C3.66015625 156.4628125 3.66015625 156.7928125 3.66015625 157.1328125 C7.29015625 157.1328125 10.92015625 157.1328125 14.66015625 157.1328125 C14.66015625 156.8028125 14.66015625 156.4728125 14.66015625 156.1328125 C17.30015625 155.8028125 19.94015625 155.4728125 22.66015625 155.1328125 C22.66015625 154.4728125 22.66015625 153.8128125 22.66015625 153.1328125 C23.25828125 153.4628125 23.85640625 153.7928125 24.47265625 154.1328125 C26.71402096 155.34069238 26.71402096 155.34069238 29.66015625 155.1328125 C29.66015625 155.7928125 29.66015625 156.4528125 29.66015625 157.1328125 C30.32015625 156.8028125 30.98015625 156.4728125 31.66015625 156.1328125 C31.00015625 154.4828125 30.34015625 152.8328125 29.66015625 151.1328125 C28.67015625 151.1328125 27.68015625 151.1328125 26.66015625 151.1328125 C26.70140625 150.3903125 26.74265625 149.6478125 26.78515625 148.8828125 C26.65617491 146.04522298 26.08964403 144.54507312 24.66015625 142.1328125 C24.00015625 142.1328125 23.34015625 142.1328125 22.66015625 142.1328125 C22.16515625 138.6678125 22.16515625 138.6678125 21.66015625 135.1328125 C21.33015625 135.1328125 21.00015625 135.1328125 20.66015625 135.1328125 C20.16515625 122.2628125 20.16515625 122.2628125 19.66015625 109.1328125 C11.74015625 108.8028125 3.82015625 108.4728125 -4.33984375 108.1328125 C-4.33984375 107.8028125 -4.33984375 107.4728125 -4.33984375 107.1328125 C-6.97984375 106.8028125 -9.61984375 106.4728125 -12.33984375 106.1328125 C-12.33984375 105.4728125 -12.33984375 104.8128125 -12.33984375 104.1328125 C-13.98984375 104.1328125 -15.63984375 104.1328125 -17.33984375 104.1328125 C-17.33984375 103.4728125 -17.33984375 102.8128125 -17.33984375 102.1328125 C-19.64984375 102.1328125 -21.95984375 102.1328125 -24.33984375 102.1328125 Z M41.66015625 102.1328125 C41.66015625 103.7828125 41.66015625 105.4328125 41.66015625 107.1328125 C40.67015625 107.4628125 39.68015625 107.7928125 38.66015625 108.1328125 C38.99015625 110.7728125 39.32015625 113.4128125 39.66015625 116.1328125 C38.67015625 116.1328125 37.68015625 116.1328125 36.66015625 116.1328125 C36.66015625 118.1128125 36.66015625 120.0928125 36.66015625 122.1328125 C37.65015625 122.1328125 38.64015625 122.1328125 39.66015625 122.1328125 C39.33015625 125.4328125 39.00015625 128.7328125 38.66015625 132.1328125 C39.65015625 132.1328125 40.64015625 132.1328125 41.66015625 132.1328125 C41.99015625 133.4528125 42.32015625 134.7728125 42.66015625 136.1328125 C42.99015625 133.8228125 43.32015625 131.5128125 43.66015625 129.1328125 C44.32015625 129.1328125 44.98015625 129.1328125 45.66015625 129.1328125 C45.66015625 122.5328125 45.66015625 115.9328125 45.66015625 109.1328125 C45.00015625 109.1328125 44.34015625 109.1328125 43.66015625 109.1328125 C43.33015625 106.8228125 43.00015625 104.5128125 42.66015625 102.1328125 C42.33015625 102.1328125 42.00015625 102.1328125 41.66015625 102.1328125 Z M31.66015625 158.1328125 C31.66015625 158.7928125 31.66015625 159.4528125 31.66015625 160.1328125 C32.65015625 159.8028125 33.64015625 159.4728125 34.66015625 159.1328125 C33.67015625 158.8028125 32.68015625 158.4728125 31.66015625 158.1328125 Z M34.66015625 160.1328125 C34.33015625 160.7928125 34.00015625 161.4528125 33.66015625 162.1328125 C34.98015625 161.8028125 36.30015625 161.4728125 37.66015625 161.1328125 C36.67015625 160.8028125 35.68015625 160.4728125 34.66015625 160.1328125 Z " fill="#CE283B" transform="translate(44.33984375,70.8671875)"/>
<path d="M0 0 C6.93 0 13.86 0 21 0 C21 4.95 21 9.9 21 15 C17.04 15 13.08 15 9 15 C9 15.66 9 16.32 9 17 C8.34 17 7.68 17 7 17 C7 17.66 7 18.32 7 19 C13.27 19 19.54 19 26 19 C25.67 18.34 25.34 17.68 25 17 C24.86139009 12.99694593 24.95737794 9.00647376 25 5 C30.94 5 36.88 5 43 5 C43.125 16.75 43.125 16.75 42 19 C45.96 19 49.92 19 54 19 C54 23.95 54 28.9 54 34 C50.37 34.33 46.74 34.66 43 35 C43.01160156 36.34835938 43.02320313 37.69671875 43.03515625 39.0859375 C43.04453401 40.84895695 43.05363423 42.6119779 43.0625 44.375 C43.07087891 45.26445313 43.07925781 46.15390625 43.08789062 47.0703125 C43.09111328 47.92109375 43.09433594 48.771875 43.09765625 49.6484375 C43.10289307 50.43395996 43.10812988 51.21948242 43.11352539 52.02880859 C43 54 43 54 42 56 C44.78918149 57.10540926 44.78918149 57.10540926 47 57 C47 56.67 47 56.34 47 56 C49.31 56 51.62 56 54 56 C54 60.95 54 65.9 54 71 C52.35 71 50.7 71 49 71 C49 71.66 49 72.32 49 73 C44.71 73 40.42 73 36 73 C36 72.34 36 71.68 36 71 C35.05125 71.04125 34.1025 71.0825 33.125 71.125 C30 71 30 71 28 69 C27.875 65.375 27.875 65.375 28 62 C27.34 62 26.68 62 26 62 C25.67 62.66 25.34 63.32 25 64 C25 54.43 25 44.86 25 35 C19.06 34.67 13.12 34.34 7 34 C7 46.21 7 58.42 7 71 C2.38 71 -2.24 71 -7 71 C-7 58.79 -7 46.58 -7 34 C-9.31 34 -11.62 34 -14 34 C-13.91621094 34.90621094 -13.83242188 35.81242187 -13.74609375 36.74609375 C-13.16445388 43.70368463 -12.92878268 50.09659946 -14 57 C-14.66 57 -15.32 57 -16 57 C-16 58.65 -16 60.3 -16 62 C-16.99 62.495 -16.99 62.495 -18 63 C-18.33 63.99 -18.66 64.98 -19 66 C-19 65.34 -19 64.68 -19 64 C-19.66 64 -20.32 64 -21 64 C-21 64.66 -21 65.32 -21 66 C-21.66 66.66 -22.32 67.32 -23 68 C-23.391875 68.53625 -23.78375 69.0725 -24.1875 69.625 C-26.98477448 71.7470703 -29.60673895 71.19207138 -33 71 C-33 71.66 -33 72.32 -33 73 C-38.28 73 -43.56 73 -49 73 C-49 72.34 -49 71.68 -49 71 C-50.093125 71.061875 -51.18625 71.12375 -52.3125 71.1875 C-56 71 -56 71 -57.8125 69.75 C-59 68 -59 68 -60 65.875 C-60.91202978 63.6469565 -60.91202978 63.6469565 -64 63 C-64.99 62.505 -64.99 62.505 -66 62 C-66 60.35 -66 58.7 -66 57 C-66.66 57 -67.32 57 -68 57 C-68 58.65 -68 60.3 -68 62 C-68.66 62 -69.32 62 -70 62 C-70 63.32 -70 64.64 -70 66 C-70.66 66.66 -71.32 67.32 -72 68 C-72.391875 68.53625 -72.78375 69.0725 -73.1875 69.625 C-75.98477448 71.7470703 -78.60673895 71.19207138 -82 71 C-82 71.66 -82 72.32 -82 73 C-86.62 73 -91.24 73 -96 73 C-96 72.34 -96 71.68 -96 71 C-97.2375 71.04125 -98.475 71.0825 -99.75 71.125 C-103.01637962 71.13658291 -105.2146947 70.8568702 -108 69 C-108 68.01 -108 67.02 -108 66 C-108.99 66 -109.98 66 -111 66 C-110.49202991 61.6822542 -109.80317221 57.96697886 -108 54 C-105.36 54 -102.72 54 -100 54 C-100 54.33 -100 54.66 -100 55 C-97.69 55.33 -95.38 55.66 -93 56 C-93.66 56.66 -94.32 57.32 -95 58 C-91.7 58 -88.4 58 -85 58 C-85 57.34 -85 56.68 -85 56 C-86.32 55.34 -87.64 54.68 -89 54 C-88.67 53.67 -88.34 53.34 -88 53 C-91.465 52.505 -91.465 52.505 -95 52 C-95 51.34 -95 50.68 -95 50 C-96.60875 50.0928125 -96.60875 50.0928125 -98.25 50.1875 C-103.19540473 49.94022976 -104.64331492 48.35668508 -108 45 C-109.11341214 38.61966434 -109.29734753 32.3425879 -108 26 C-107.34 26 -106.68 26 -106 26 C-105.67 25.01 -105.34 24.02 -105 23 C-104 21 -104 21 -101 19 C-98.45629883 18.77294922 -98.45629883 18.77294922 -95.45703125 18.8046875 C-93.84731445 18.81435547 -93.84731445 18.81435547 -92.20507812 18.82421875 C-90.52575195 18.84935547 -90.52575195 18.84935547 -88.8125 18.875 C-87.68134766 18.88402344 -86.55019531 18.89304687 -85.38476562 18.90234375 C-82.58963172 18.92593138 -79.79492155 18.958847 -77 19 C-77 19.33 -77 19.66 -77 20 C-76.195625 20.12375 -75.39125 20.2475 -74.5625 20.375 C-73.2940625 20.684375 -73.2940625 20.684375 -72 21 C-71.505 21.99 -71.505 21.99 -71 23 C-70.67 23 -70.34 23 -70 23 C-70 25.64 -70 28.28 -70 31 C-70.66 31 -71.32 31 -72 31 C-72 32.65 -72 34.3 -72 36 C-74.97 36 -77.94 36 -81 36 C-81 35.67 -81 35.34 -81 35 C-82.98 34.67 -84.96 34.34 -87 34 C-86.67 33.34 -86.34 32.68 -86 32 C-88.31 31.67 -90.62 31.34 -93 31 C-93 31.99 -93 32.98 -93 34 C-91.68 34.66 -90.36 35.32 -89 36 C-89.33 36.33 -89.66 36.66 -90 37 C-88.02 37.33 -86.04 37.66 -84 38 C-84 38.66 -84 39.32 -84 40 C-81.69 40 -79.38 40 -77 40 C-77 40.33 -77 40.66 -77 41 C-75.35 41.33 -73.7 41.66 -72 42 C-72 42.66 -72 43.32 -72 44 C-71.01 44.495 -71.01 44.495 -70 45 C-70 46.32 -70 47.64 -70 49 C-69.34 49 -68.68 49 -68 49 C-68 44.38 -68 39.76 -68 35 C-67.34 35 -66.68 35 -66 35 C-66.04125 34.2575 -66.0825 33.515 -66.125 32.75 C-65.99601866 29.91241048 -65.42948778 28.41226062 -64 26 C-63.01 26 -62.02 26 -61 26 C-61 25.34 -61 24.68 -61 24 C-60.34 23.34 -59.68 22.68 -59 22 C-59 21.67 -59 21.34 -59 21 C-57.02 21 -55.04 21 -53 21 C-53 20.34 -53 19.68 -53 19 C-52.32453125 18.93941406 -51.6490625 18.87882812 -50.953125 18.81640625 C-50.06109375 18.73261719 -49.1690625 18.64882812 -48.25 18.5625 C-47.36828125 18.48128906 -46.4865625 18.40007812 -45.578125 18.31640625 C-43.30649548 18.03761535 -41.20148177 17.61209423 -39 17 C-39 17.66 -39 18.32 -39 19 C-35.37 19 -31.74 19 -28 19 C-28 19.33 -28 19.66 -28 20 C-26.35 20.33 -24.7 20.66 -23 21 C-23 21.66 -23 22.32 -23 23 C-22.34 23.33 -21.68 23.66 -21 24 C-21 24.66 -21 25.32 -21 26 C-20.34 26 -19.68 26 -19 26 C-19 26.66 -19 27.32 -19 28 C-18.01 28 -17.02 28 -16 28 C-16 29.65 -16 31.3 -16 33 C-15.34 33 -14.68 33 -14 33 C-14 28.38 -14 23.76 -14 19 C-11.69 19 -9.38 19 -7 19 C-7 15.04 -7 11.08 -7 7 C-6.34 7 -5.68 7 -5 7 C-5 6.34 -5 5.68 -5 5 C-4.34 5 -3.68 5 -3 5 C-3 4.34 -3 3.68 -3 3 C-2.01 2.34 -1.02 1.68 0 1 C0 0.67 0 0.34 0 0 Z M-48 34 C-48.33 35.32 -48.66 36.64 -49 38 C-49.66 38 -50.32 38 -51 38 C-51 39.65 -51 41.3 -51 43 C-51.99 43 -52.98 43 -54 43 C-54 44.32 -54 45.64 -54 47 C-53.01 47 -52.02 47 -51 47 C-51.04125 48.11375 -51.0825 49.2275 -51.125 50.375 C-51.41121859 54.04366025 -51.41121859 54.04366025 -49 56 C-46.93125966 56.6425235 -46.93125966 56.6425235 -45 57 C-45 57.66 -45 58.32 -45 59 C-42.36 59 -39.72 59 -37 59 C-36.67 58.34 -36.34 57.68 -36 57 C-35.01 56.67 -34.02 56.34 -33 56 C-33 55.34 -33 54.68 -33 54 C-32.34 54 -31.68 54 -31 54 C-31 52.35 -31 50.7 -31 49 C-30.01 49 -29.02 49 -28 49 C-27.6772494 44.37390802 -28.15549386 41.71973879 -31 38 C-31.66 38 -32.32 38 -33 38 C-33.33 36.68 -33.66 35.36 -34 34 C-38.62 34 -43.24 34 -48 34 Z " fill="#1E1E1E" transform="translate(334,81)"/>
<path d="M0 0 C0.99 0 1.98 0 3 0 C3 0.66 3 1.32 3 2 C6.3 2 9.6 2 13 2 C13 2.66 13 3.32 13 4 C14.65 4 16.3 4 18 4 C18 4.99 18 5.98 18 7 C18.99 7 19.98 7 21 7 C21 8.32 21 9.64 21 11 C21.66 11 22.32 11 23 11 C24.29229291 15.91478329 24.11096715 20.77406063 24.0625 25.8125 C24.041875 28.844375 24.02125 31.87625 24 35 C13.44 35 2.88 35 -8 35 C-8 35.66 -8 36.32 -8 37 C-7.01 37.33 -6.02 37.66 -5 38 C-4.01 38.495 -4.01 38.495 -3 39 C-3 39.99 -3 40.98 -3 42 C0.63 41.67 4.26 41.34 8 41 C8 40.34 8 39.68 8 39 C8.99 39 9.98 39 11 39 C11 38.34 11 37.68 11 37 C18.38461538 36.63076923 18.38461538 36.63076923 21.5 38.5 C21.995 38.995 22.49 39.49 23 40 C22.67 40.33 22.34 40.66 22 41 C22.33 41 22.66 41 23 41 C23.1953125 47.0546875 23.1953125 47.0546875 23 49 C22.01 49.99 22.01 49.99 21 51 C21 51.33 21 51.66 21 52 C19.35 52 17.7 52 16 52 C16 52.66 16 53.32 16 54 C14.02 54 12.04 54 10 54 C10 54.66 10 55.32 10 56 C4.72 56 -0.56 56 -6 56 C-6 55.34 -6 54.68 -6 54 C-7.98 54 -9.96 54 -12 54 C-12 53.34 -12 52.68 -12 52 C-13.65 52 -15.3 52 -17 52 C-16.34 51.67 -15.68 51.34 -15 51 C-15 50.34 -15 49.68 -15 49 C-15.66 49 -16.32 49 -17 49 C-17 48.34 -17 47.68 -17 47 C-17.66 47 -18.32 47 -19 47 C-19.495 47.99 -19.495 47.99 -20 49 C-20 48.01 -20 47.02 -20 46 C-20.99 45.505 -20.99 45.505 -22 45 C-22 43.35 -22 41.7 -22 40 C-22.66 40 -23.32 40 -24 40 C-24 32.41 -24 24.82 -24 17 C-24.99 17.66 -25.98 18.32 -27 19 C-29.33199388 19.07905064 -31.66832622 19.08798769 -34 19 C-34 19.66 -34 20.32 -34 21 C-34.66 21 -35.32 21 -36 21 C-35.67 21.99 -35.34 22.98 -35 24 C-35.99 24 -36.98 24 -38 24 C-38 25.32 -38 26.64 -38 28 C-38.66 28 -39.32 28 -40 28 C-40 36.58 -40 45.16 -40 54 C-44.95 54 -49.9 54 -55 54 C-55 36.84 -55 19.68 -55 2 C-50.05 2 -45.1 2 -40 2 C-39.67 2.66 -39.34 3.32 -39 4 C-38.01 4 -37.02 4 -36 4 C-36 3.34 -36 2.68 -36 2 C-32.04 2 -28.08 2 -24 2 C-24 6.62 -24 11.24 -24 16 C-23.34 16 -22.68 16 -22 16 C-22 14.35 -22 12.7 -22 11 C-21.34 11 -20.68 11 -20 11 C-20 10.34 -20 9.68 -20 9 C-19.01 9 -18.02 9 -17 9 C-17 8.34 -17 7.68 -17 7 C-16.34 6.34 -15.68 5.68 -15 5 C-15 4.67 -15 4.34 -15 4 C-13.35 4 -11.7 4 -10 4 C-10 3.34 -10 2.68 -10 2 C-9.04287109 1.90912109 -9.04287109 1.90912109 -8.06640625 1.81640625 C-7.24011719 1.73261719 -6.41382813 1.64882812 -5.5625 1.5625 C-4.73878906 1.48128906 -3.91507813 1.40007812 -3.06640625 1.31640625 C-1.01337975 1.21069185 -1.01337975 1.21069185 0 0 Z M-3.875 15.375 C-5.18973666 16.94466014 -5.18973666 16.94466014 -5 19 C-5.66 19 -6.32 19 -7 19 C-7.66 20.32 -8.32 21.64 -9 23 C-2.4 23 4.2 23 11 23 C8.87170906 18.74341811 7.89060033 18.25245282 4 16 C4 15.34 4 14.68 4 14 C-0.2109755 13.61571652 -0.2109755 13.61571652 -3.875 15.375 Z " fill="#1E1E1E" transform="translate(576,98)"/>
<path d="M0 0 C4.95 0 9.9 0 15 0 C15 0.66 15 1.32 15 2 C15.66 2 16.32 2 17 2 C17 4.31 17 6.62 17 9 C17.99 9 18.98 9 20 9 C20 12.3 20 15.6 20 19 C20.66 19 21.32 19 22 19 C22 21.31 22 23.62 22 26 C22.66 26 23.32 26 24 26 C24 23.69 24 21.38 24 19 C24.66 19 25.32 19 26 19 C26 16.69 26 14.38 26 12 C26.66 12 27.32 12 28 12 C28 9.69 28 7.38 28 5 C28.99 5 29.98 5 31 5 C31 3.35 31 1.7 31 0 C35.62 0 40.24 0 45 0 C45 1.65 45 3.3 45 5 C45.99 5 46.98 5 48 5 C48 7.31 48 9.62 48 12 C48.66 12 49.32 12 50 12 C50 14.31 50 16.62 50 19 C50.66 19 51.32 19 52 19 C52.495 22.465 52.495 22.465 53 26 C53.33 23.69 53.66 21.38 54 19 C54.99 19 55.98 19 57 19 C56.505 15.535 56.505 15.535 56 12 C56.99 12 57.98 12 59 12 C58.95875 10.7625 58.9175 9.525 58.875 8.25 C58.75148437 4.544531 59.19431894 3.61136212 61 0 C65.95 0 70.9 0 76 0 C76 3.96 76 7.92 76 12 C75.67 12 75.34 12 75 12 C74.67 14.31 74.34 16.62 74 19 C73.34 19 72.68 19 72 19 C71.67 21.31 71.34 23.62 71 26 C70.34 26 69.68 26 69 26 C69 28.31 69 30.62 69 33 C68.34 33 67.68 33 67 33 C67 35.31 67 37.62 67 40 C66.01 40 65.02 40 64 40 C64 42.31 64 44.62 64 47 C63.34 47 62.68 47 62 47 C62 49.31 62 51.62 62 54 C57.05 54 52.1 54 47 54 C47 53.34 47 52.68 47 52 C46.34 52 45.68 52 45 52 C45 49.69 45 47.38 45 45 C44.01 45 43.02 45 42 45 C42 42.69 42 40.38 42 38 C41.34 38 40.68 38 40 38 C40 35.69 40 33.38 40 31 C38.68 31 37.36 31 36 31 C36 33.31 36 35.62 36 38 C35.34 38 34.68 38 34 38 C34 40.31 34 42.62 34 45 C33.01 45 32.02 45 31 45 C31 47.31 31 49.62 31 52 C30.34 52 29.68 52 29 52 C29 52.66 29 53.32 29 54 C24.05 54 19.1 54 14 54 C14 51.69 14 49.38 14 47 C13.34 47 12.68 47 12 47 C12 44.69 12 42.38 12 40 C11.34 40 10.68 40 10 40 C10 37.69 10 35.38 10 33 C9.01 33 8.02 33 7 33 C6.67 30.69 6.34 28.38 6 26 C5.67 26 5.34 26 5 26 C5 23.03 5 20.06 5 17 C4.34 17 3.68 17 3 17 C3 14.69 3 12.38 3 10 C2.01 10 1.02 10 0 10 C0 6.7 0 3.4 0 0 Z " fill="#1E1E1E" transform="translate(392,100)"/>
<path d="M0 0 C4.41654255 -0.08706286 8.83286457 -0.14041378 13.25 -0.1875 C14.50425781 -0.21263672 15.75851562 -0.23777344 17.05078125 -0.26367188 C18.85869141 -0.27817383 18.85869141 -0.27817383 20.703125 -0.29296875 C22.36843262 -0.31653442 22.36843262 -0.31653442 24.06738281 -0.34057617 C27.34155967 0.03966664 28.64857611 0.74092913 31 3 C32.25 5.1875 32.25 5.1875 33 7 C33.66 7 34.32 7 35 7 C35 8.65 35 10.3 35 12 C35.99 12 36.98 12 38 12 C38 25.2 38 38.4 38 52 C30.74 52 23.48 52 16 52 C16 52.66 16 53.32 16 54 C11.38 54 6.76 54 2 54 C2 53.34 2 52.68 2 52 C0.88625 52.04125 -0.2275 52.0825 -1.375 52.125 C-5 52 -5 52 -7 50 C-7 49.01 -7 48.02 -7 47 C-7.99 47 -8.98 47 -10 47 C-10 40.07 -10 33.14 -10 26 C-9.01 26 -8.02 26 -7 26 C-7 25.01 -7 24.02 -7 23 C-5 21 -5 21 -1.875 20.875 C-0.451875 20.936875 -0.451875 20.936875 1 21 C1 20.34 1 19.68 1 19 C7.6 19 14.2 19 21 19 C21 18.34 21 17.68 21 17 C17.38132441 15.7937748 14.07493749 15.89183082 10.3125 15.9375 C9.61060547 15.94201172 8.90871094 15.94652344 8.18554688 15.95117188 C6.45699462 15.96293073 4.72848635 15.98086546 3 16 C3 16.33 3 16.66 3 17 C0.36 17 -2.28 17 -5 17 C-5 14.69 -5 12.38 -5 10 C-5.66 10 -6.32 10 -7 10 C-7 7.36 -7 4.72 -7 2 C-4.69 2 -2.38 2 0 2 C0 1.34 0 0.68 0 0 Z M7 31 C7 31.66 7 32.32 7 33 C6.34 33 5.68 33 5 33 C5.27540704 36.81813447 5.27540704 36.81813447 7 40 C9.01964199 40.07244053 11.04167124 40.08377188 13.0625 40.0625 C14.16722656 40.05347656 15.27195312 40.04445313 16.41015625 40.03515625 C17.26480469 40.02355469 18.11945313 40.01195312 19 40 C19 39.34 19 38.68 19 38 C19.66 37.67 20.32 37.34 21 37 C21 35.68 21 34.36 21 33 C21.66 33 22.32 33 23 33 C23 32.34 23 31.68 23 31 C17.72 31 12.44 31 7 31 Z " fill="#1D1D1D" transform="translate(477,100)"/>
<path d="M0 0 C4.62 0 9.24 0 14 0 C14 0.33 14 0.66 14 1 C16.64 1.33 19.28 1.66 22 2 C21.67 2.99 21.34 3.98 21 5 C22.65 5 24.3 5 26 5 C26 5.66 26 6.32 26 7 C26.99 7 27.98 7 29 7 C29 8.65 29 10.3 29 12 C29.66 12 30.32 12 31 12 C31 25.86 31 39.72 31 54 C26.05 54 21.1 54 16 54 C16 53.34 16 52.68 16 52 C15.34 52 14.68 52 14 52 C14 52.66 14 53.32 14 54 C11.03 54.495 11.03 54.495 8 55 C8.66 55.66 9.32 56.32 10 57 C5.05 57 0.1 57 -5 57 C-4.34 56.34 -3.68 55.68 -3 55 C-4.98 54.67 -6.96 54.34 -9 54 C-9 53.34 -9 52.68 -9 52 C-9.99 52 -10.98 52 -12 52 C-12 51.34 -12 50.68 -12 50 C-12.66 50 -13.32 50 -14 50 C-14 49.01 -14 48.02 -14 47 C-14.99 47 -15.98 47 -17 47 C-17 40.73 -17 34.46 -17 28 C-16.01 28 -15.02 28 -14 28 C-14 27.34 -14 26.68 -14 26 C-13.34 25.34 -12.68 24.68 -12 24 C-12 23.67 -12 23.34 -12 23 C-10.35 22.67 -8.7 22.34 -7 22 C-7 21.67 -7 21.34 -7 21 C3.395 20.505 3.395 20.505 14 20 C14 19.01 14 18.02 14 17 C12.02 17 10.04 17 8 17 C8 16.34 8 15.68 8 15 C7.4328125 15.31839844 6.865625 15.63679687 6.28125 15.96484375 C3.89636696 17.04702526 2.09635698 17.35354661 -0.5 17.5625 C-3.43895859 17.8090907 -6.15358828 18.21723678 -9 19 C-9 18.34 -9 17.68 -9 17 C-9.99 17 -10.98 17 -12 17 C-12 13.04 -12 9.08 -12 5 C-11.01 4.67 -10.02 4.34 -9 4 C-9.33 3.34 -9.66 2.68 -10 2 C-6.7 1.67 -3.4 1.34 0 1 C0 0.67 0 0.34 0 0 Z M0 33 C0 33.99 0 34.98 0 36 C-0.66 36 -1.32 36 -2 36 C-2 37.32 -2 38.64 -2 40 C-1.34 40 -0.68 40 0 40 C0 40.66 0 41.32 0 42 C3.96 42 7.92 42 12 42 C12 41.34 12 40.68 12 40 C12.66 40 13.32 40 14 40 C14 39.01 14 38.02 14 37 C14.66 37 15.32 37 16 37 C16 35.68 16 34.36 16 33 C10.72 33 5.44 33 0 33 Z " fill="#1E1E1E" transform="translate(294,170)"/>
<path d="M0 0 C4.29 0 8.58 0 13 0 C13 0.33 13 0.66 13 1 C16.3 1.33 19.6 1.66 23 2 C22.34 2.66 21.68 3.32 21 4 C22.32 4.33 23.64 4.66 25 5 C25 5.66 25 6.32 25 7 C25.99 7 26.98 7 28 7 C28 8.65 28 10.3 28 12 C28.66 12 29.32 12 30 12 C30 25.86 30 39.72 30 54 C24.33333333 54 18.66666667 54 13 54 C11.65117592 54.63474075 10.3153341 55.29848848 9 56 C9 56.33 9 56.66 9 57 C5.04 57 1.08 57 -3 57 C-3 56.34 -3 55.68 -3 55 C-5.31 54.67 -7.62 54.34 -10 54 C-10 53.34 -10 52.68 -10 52 C-10.99 51.67 -11.98 51.34 -13 51 C-13.66 50.67 -14.32 50.34 -15 50 C-15 49.01 -15 48.02 -15 47 C-15.99 47 -16.98 47 -18 47 C-18 41.72 -18 36.44 -18 31 C-17.01 30.67 -16.02 30.34 -15 30 C-15 28.68 -15 27.36 -15 26 C-14.34 25.34 -13.68 24.68 -13 24 C-13 23.67 -13 23.34 -13 23 C-11.35 22.67 -9.7 22.34 -8 22 C-8 21.67 -8 21.34 -8 21 C-0.41 21 7.18 21 15 21 C15 20.34 15 19.68 15 19 C14.34 19 13.68 19 13 19 C13 18.34 13 17.68 13 17 C12.071875 17 11.14375 17 10.1875 17 C4.79166667 17 -0.60416667 17 -6 17 C-6 17.66 -6 18.32 -6 19 C-7.32 19 -8.64 19 -10 19 C-10 17.68 -10 16.36 -10 15 C-10.99 15 -11.98 15 -13 15 C-13 11.7 -13 8.4 -13 5 C-11.68 4.67 -10.36 4.34 -9 4 C-9.33 3.34 -9.66 2.68 -10 2 C-6.7 1.67 -3.4 1.34 0 1 C0 0.67 0 0.34 0 0 Z M0 33 C-0.70074844 36.153368 -1 38.72724974 -1 42 C2.96 42 6.92 42 11 42 C11 41.34 11 40.68 11 40 C11.66 40 12.32 40 13 40 C13 39.01 13 38.02 13 37 C13.66 37 14.32 37 15 37 C15.33 36.01 15.66 35.02 16 34 C14.83722968 32.60843516 14.83722968 32.60843516 11.62109375 32.90234375 C10.22652923 32.90901631 8.83198257 32.92097468 7.4375 32.9375 C6.72658203 32.94201172 6.01566406 32.94652344 5.28320312 32.95117188 C3.52209987 32.96299136 1.76103964 32.98092737 0 33 Z " fill="#1D1D1D" transform="translate(466,170)"/>
<path d="M0 0 C4.95 0 9.9 0 15 0 C15 10.23 15 20.46 15 31 C15.99 31 16.98 31 18 31 C18 31.99 18 32.98 18 34 C18.66 34.66 19.32 35.32 20 36 C19.67 36.33 19.34 36.66 19 37 C22.3 37.33 25.6 37.66 29 38 C29 37.01 29 36.02 29 35 C29.66 35 30.32 35 31 35 C31 23.45 31 11.9 31 0 C36.61 0 42.22 0 48 0 C48 17.16 48 34.32 48 52 C42 52 36 52 30 52 C28.33034549 52.31802943 26.66321482 52.64984951 25 53 C25 53.66 25 54.32 25 55 C21.37 55 17.74 55 14 55 C14 54.34 14 53.68 14 53 C12.02 52.67 10.04 52.34 8 52 C8 51.34 8 50.68 8 50 C7.01 50 6.02 50 5 50 C5 49.34 5 48.68 5 48 C4.34 48 3.68 48 3 48 C3 46.35 3 44.7 3 43 C2.34 43 1.68 43 1 43 C0.67 43.66 0.34 44.32 0 45 C0 30.15 0 15.3 0 0 Z " fill="#1E1E1E" transform="translate(366,172)"/>
<path d="M0 0 C4.29 0 8.58 0 13 0 C13 0.33 13 0.66 13 1 C14.98 1.33 16.96 1.66 19 2 C18.67 2.99 18.34 3.98 18 5 C18.99 5 19.98 5 21 5 C21 5.66 21 6.32 21 7 C21.66 7 22.32 7 23 7 C23 7.66 23 8.32 23 9 C23.66 9 24.32 9 25 9 C25 23.85 25 38.7 25 54 C20.38 54 15.76 54 11 54 C11 43.44 11 32.88 11 22 C10.01 22 9.02 22 8 22 C8 20.35 8 18.7 8 17 C6.68 17 5.36 17 4 17 C4 16.34 4 15.68 4 15 C3.34 15.66 2.68 16.32 2 17 C-0.625 17.125 -0.625 17.125 -3 17 C-3 17.66 -3 18.32 -3 19 C-3.66 19 -4.32 19 -5 19 C-5 30.55 -5 42.1 -5 54 C-10.61 54 -16.22 54 -22 54 C-22 36.84 -22 19.68 -22 2 C-14.74 1.67 -7.48 1.34 0 1 C0 0.67 0 0.34 0 0 Z M-5 3 C-4 5 -4 5 -4 5 Z " fill="#1E1E1E" transform="translate(248,170)"/>
<path d="M0 0 C4.62 0 9.24 0 14 0 C14 4.62 14 9.24 14 14 C18.62 14 23.24 14 28 14 C28 18.95 28 23.9 28 29 C23.38 29 18.76 29 14 29 C14.12568359 31.23910156 14.12568359 31.23910156 14.25390625 33.5234375 C14.35705799 35.47394317 14.45990692 37.42446487 14.5625 39.375 C14.61857422 40.35984375 14.67464844 41.3446875 14.73242188 42.359375 C14.78076172 43.30039063 14.82910156 44.24140625 14.87890625 45.2109375 C14.9260376 46.08024902 14.97316895 46.94956055 15.02172852 47.84521484 C15 50 15 50 14 52 C18.62 52 23.24 52 28 52 C28 56.62 28 61.24 28 66 C23.545 66.495 23.545 66.495 19 67 C19.66 67.66 20.32 68.32 21 69 C17.7 69 14.4 69 11 69 C11 68.34 11 67.68 11 67 C9.02 66.67 7.04 66.34 5 66 C5 65.34 5 64.68 5 64 C4.01 64 3.02 64 2 64 C2 63.34 2 62.68 2 62 C1.34 62 0.68 62 0 62 C0 51.11 0 40.22 0 29 C-2.31 29 -4.62 29 -7 29 C-7 24.05 -7 19.1 -7 14 C-4.69 14 -2.38 14 0 14 C0 9.38 0 4.76 0 0 Z " fill="#1E1E1E" transform="translate(334,158)"/>
<path d="M0 0 C3.3 0 6.6 0 10 0 C10 5.61 10 11.22 10 17 C7.36 17 4.72 17 2 17 C2 17.66 2 18.32 2 19 C0.68 19 -0.64 19 -2 19 C-2 19.99 -2 20.98 -2 22 C-2.66 22.66 -3.32 23.32 -4 24 C-4.66 24.99 -5.32 25.98 -6 27 C-5.67 27.66 -5.34 28.32 -5 29 C-5.66 29 -6.32 29 -7 29 C-7 37.25 -7 45.5 -7 54 C-12.61 54 -18.22 54 -24 54 C-24 36.84 -24 19.68 -24 2 C-18.39 2 -12.78 2 -7 2 C-7 2.99 -7 3.98 -7 5 C-6.34 4.34 -5.68 3.68 -5 3 C-5 2.67 -5 2.34 -5 2 C-3.35 1.67 -1.7 1.34 0 1 C0 0.67 0 0.34 0 0 Z " fill="#1E1E1E" transform="translate(442,170)"/>
<path d="M0 0 C0.33 0 0.66 0 1 0 C1 2.64 1 5.28 1 8 C0.67 8 0.34 8 0 8 C0 5.36 0 2.72 0 0 Z " fill="#1E1E1E" transform="translate(322,123)"/>
<path d="M0 0 C0.33 0 0.66 0 1 0 C1 2.31 1 4.62 1 7 C0.67 7 0.34 7 0 7 C0 4.69 0 2.38 0 0 Z " fill="#292929" transform="translate(465,133)"/>
<path d="M0 0 C0.33 0 0.66 0 1 0 C1 1.98 1 3.96 1 6 C0.67 6 0.34 6 0 6 C0 4.02 0 2.04 0 0 Z " fill="#1E1E1E" transform="translate(223,113)"/>
<path d="M0 0 C0.33 0 0.66 0 1 0 C1 1.65 1 3.3 1 5 C0.67 5 0.34 5 0 5 C0 3.35 0 1.7 0 0 Z " fill="#1F1F1F" transform="translate(221,142)"/>
<path d="" fill="#232323" transform="translate(0,0)"/>
<path d="" fill="#202020" transform="translate(0,0)"/>
<path d="" fill="#212121" transform="translate(0,0)"/>
<path d="" fill="#EA561B" transform="translate(0,0)"/>
<path d="" fill="#E94431" transform="translate(0,0)"/>
<path d="" fill="#E94C1F" transform="translate(0,0)"/>
<path d="" fill="#1F1F1F" transform="translate(0,0)"/>
<path d="" fill="#1F1F1F" transform="translate(0,0)"/>
<path d="" fill="#E64923" transform="translate(0,0)"/>
<path d="" fill="#1E1E1E" transform="translate(0,0)"/>
<path d="" fill="#1E1E1E" transform="translate(0,0)"/>
<path d="" fill="#1F1F1F" transform="translate(0,0)"/>
<path d="" fill="#DB1944" transform="translate(0,0)"/>
<path d="" fill="#1E1E1E" transform="translate(0,0)"/>
<path d="" fill="#1F1F1F" transform="translate(0,0)"/>
<path d="" fill="#1E1E1E" transform="translate(0,0)"/>
<path d="" fill="#242424" transform="translate(0,0)"/>
<path d="" fill="#1F1F1F" transform="translate(0,0)"/>
<path d="" fill="#B11351" transform="translate(0,0)"/>
<path d="" fill="#1E1E1E" transform="translate(0,0)"/>
<path d="" fill="#1F1F1F" transform="translate(0,0)"/>
<path d="" fill="#1F1F1F" transform="translate(0,0)"/>
<path d="" fill="#A91451" transform="translate(0,0)"/>
<path d="" fill="#B91C51" transform="translate(0,0)"/>
<path d="" fill="#9C1752" transform="translate(0,0)"/>
</svg>
