<?xml version="1.0" encoding="UTF-8"?>
<svg version="1.1" xmlns="http://www.w3.org/2000/svg" width="500" height="500">
<path d="M0 0 C4.56364254 0.01139334 9.1270516 0.00459541 13.69068623 -0.00687695 C44.95375031 -0.07345417 76.1742394 0.85635075 107.29003906 4.07324219 C108.12166565 4.15689026 108.95329224 4.24053833 109.81011963 4.32672119 C197.03569871 13.14581156 197.03569871 13.14581156 215.88769531 33.28417969 C223.60057504 42.87316529 227.77748557 53.93148952 230.35253906 65.82324219 C230.72934814 67.55562134 230.72934814 67.55562134 231.11376953 69.32299805 C236.17153433 93.46604499 239.35641084 117.97134071 241.72753906 142.51074219 C241.8431015 143.68432785 241.8431015 143.68432785 241.96099854 144.88162231 C244.92637976 175.49306449 245.86058056 206.13959749 245.7953949 236.87815857 C245.78993767 239.56057882 245.78758213 242.24299021 245.78552246 244.92541504 C245.7528398 272.28135747 245.18958701 299.49398716 242.7053833 326.75421143 C242.47657998 329.27129316 242.25731138 331.78907001 242.03955078 334.30712891 C233.46261812 432.14218856 233.46261812 432.14218856 209.85253906 452.57324219 C178.98836072 475.32746376 123.93484764 475.21590558 86.95739746 478.06933594 C85.36648667 478.19212935 83.77573028 478.31694967 82.18518066 478.44433594 C30.92611334 482.54210183 -22.27257945 482.40837424 -73.52246094 478.26074219 C-74.7676651 478.16246124 -74.7676651 478.16246124 -76.0380249 478.06219482 C-105.54799755 475.72309421 -134.76424266 472.27705988 -163.77246094 466.26074219 C-164.87251465 466.03596191 -165.97256836 465.81118164 -167.10595703 465.57958984 C-183.10273866 462.09156979 -198.79543775 456.07683244 -208.52246094 442.26074219 C-249.30780814 376.44221737 -237.37595757 256.65010328 -223.45996094 87.07324219 C-223.3421225 86.38215363 -223.22428406 85.69106506 -223.10287476 84.97903442 C-217.98583785 55.36837003 -217.98583785 55.36837003 -212.83496094 45.82324219 C-212.49029785 45.16839844 -212.14563477 44.51355469 -211.79052734 43.83886719 C-203.75599853 29.16617521 -191.6790886 21.84899597 -176.00683594 17.21142578 C-170.34763465 15.66735839 -164.64559827 14.42445124 -158.89746094 13.26074219 C-157.63385742 13.00437988 -156.37025391 12.74801758 -155.06835938 12.48388672 C-135.7286759 8.63959975 -116.31607843 6.12111837 -96.70996094 4.13574219 C-95.93680542 4.05515564 -95.1636499 3.97456909 -94.36706543 3.89154053 C-62.99536341 0.66041015 -31.51383934 -0.07921034 0 0 Z M-181.17480469 213.32324219 C-184.63127338 218.2925421 -184.2613545 224.47872072 -183.52246094 230.26074219 C-181.51848418 235.27438145 -178.49837954 239.06365221 -173.83496094 241.82324219 C-168.18639726 244.1669101 -162.05757796 244.32726902 -156.21777344 242.56542969 C-150.1710372 239.85010285 -146.08874042 235.40188261 -143.52246094 229.26074219 C-142.54186421 222.6133286 -143.11383136 217.3892741 -147.10058594 211.91308594 C-151.74869461 206.51157503 -156.34916599 204.51665307 -163.39746094 203.94824219 C-171.48855371 204.24106269 -176.05240978 207.16236631 -181.17480469 213.32324219 Z M163.1315918 211.17871094 C161.99048447 211.37891846 160.84937714 211.57912598 159.6736908 211.78540039 C157.81122459 212.11350708 157.81122459 212.11350708 155.91113281 212.44824219 C154.6473732 212.67020264 153.38361359 212.89216309 152.08155823 213.12084961 C148.7161865 213.71193665 145.35099533 214.30404556 141.98583984 214.8963623 C138.55414423 215.50020641 135.12228009 216.10309103 131.69042969 216.70605469 C124.95263349 217.89000769 118.21504317 219.07512814 111.47753906 220.26074219 C111.47753906 226.86074219 111.47753906 233.46074219 111.47753906 240.26074219 C130.61753906 240.26074219 149.75753906 240.26074219 169.47753906 240.26074219 C169.47753906 230.36074219 169.47753906 220.46074219 169.47753906 210.26074219 C167.35586651 210.26074219 165.21074718 210.81314516 163.1315918 211.17871094 Z M-90.96777344 222.31933594 C-92.82982422 222.65094727 -92.82982422 222.65094727 -94.72949219 222.98925781 C-96.02242187 223.22322266 -97.31535156 223.4571875 -98.64746094 223.69824219 C-99.9612194 223.93091053 -101.27502107 224.163335 -102.58886719 224.39550781 C-108.72784504 225.26945439 -108.72784504 225.26945439 -114.52246094 227.26074219 C-114.52246094 237.16074219 -114.52246094 247.06074219 -114.52246094 257.26074219 C-120.13246094 257.26074219 -125.74246094 257.26074219 -131.52246094 257.26074219 C-131.52246094 265.84074219 -131.52246094 274.42074219 -131.52246094 283.26074219 C-125.91246094 283.26074219 -120.30246094 283.26074219 -114.52246094 283.26074219 C-114.53817139 285.0102417 -114.55388184 286.75974121 -114.57006836 288.56225586 C-114.61877496 294.39354838 -114.65306412 300.22483397 -114.67789745 306.05626965 C-114.69344153 309.58605168 -114.7144688 313.11561021 -114.7487793 316.64526367 C-114.78812252 320.71893247 -114.80226293 324.79237274 -114.81542969 328.86621094 C-114.83091354 330.11154099 -114.8463974 331.35687103 -114.86235046 332.63993835 C-114.864795 345.58862266 -112.8938478 357.06073575 -104.52246094 367.26074219 C-95.06197213 376.50928522 -83.93927596 378.43923347 -71.20996094 378.44824219 C-70.31083984 378.46048828 -69.41171875 378.47273437 -68.48535156 378.48535156 C-67.59396484 378.48728516 -66.70257813 378.48921875 -65.78417969 378.49121094 C-64.98971436 378.49531982 -64.19524902 378.49942871 -63.37670898 378.50366211 C-59.36967125 378.16263033 -55.44822048 377.1331332 -51.52246094 376.26074219 C-51.52246094 367.68074219 -51.52246094 359.10074219 -51.52246094 350.26074219 C-57.55058885 350.37890676 -57.55058885 350.37890676 -63.57788086 350.53100586 C-68.37689027 350.57837959 -71.68695425 350.4750557 -75.52246094 347.26074219 C-77.99423581 344.41669875 -78.92290833 342.50730581 -79.19018555 338.75537109 C-79.25454803 337.87391418 -79.31891052 336.99245728 -79.38522339 336.08428955 C-79.62398795 331.17190904 -79.76000285 326.26411695 -79.83886719 321.34667969 C-79.85964828 320.25102692 -79.88042938 319.15537415 -79.90184021 318.02651978 C-79.96667037 314.56298448 -80.02590796 311.0993803 -80.08496094 307.63574219 C-80.1282096 305.27245412 -80.17182579 302.90917274 -80.21582031 300.54589844 C-80.32296678 294.7842489 -80.42253309 289.02253943 -80.52246094 283.26074219 C-70.62246094 283.26074219 -60.72246094 283.26074219 -50.52246094 283.26074219 C-50.52246094 274.68074219 -50.52246094 266.10074219 -50.52246094 257.26074219 C-60.42246094 257.26074219 -70.32246094 257.26074219 -80.52246094 257.26074219 C-80.52246094 245.38074219 -80.52246094 233.50074219 -80.52246094 221.26074219 C-84.20941001 221.26074219 -87.35014472 221.6744454 -90.96777344 222.31933594 Z M-31.52246094 262.26074219 C-31.61004097 264.26039201 -31.6294267 266.26310328 -31.62011719 268.26464844 C-31.61689453 269.47958984 -31.61367187 270.69453125 -31.61035156 271.94628906 C-31.60197266 273.22568359 -31.59359375 274.50507813 -31.58496094 275.82324219 C-31.58044922 277.10650391 -31.5759375 278.38976562 -31.57128906 279.71191406 C-31.55945639 282.89490241 -31.54297162 286.07779981 -31.52246094 289.26074219 C-30.61536377 288.99596069 -30.61536377 288.99596069 -29.68994141 288.72583008 C-26.92679597 287.92143363 -24.16215547 287.12229742 -21.39746094 286.32324219 C-19.97046875 285.90655273 -19.97046875 285.90655273 -18.51464844 285.48144531 C-9.92555133 283.00611524 -2.14121622 282.03406463 6.79003906 281.94824219 C7.78455078 281.91923828 8.7790625 281.89023437 9.80371094 281.86035156 C16.47581133 281.80339995 21.73239771 282.73524354 27.47753906 286.26074219 C32.19793269 290.98113582 33.45932543 295.82386125 34.47753906 302.26074219 C33.36064697 302.23717651 33.36064697 302.23717651 32.22119141 302.21313477 C10.84689171 301.82147642 -10.9800463 301.48035817 -27.52246094 317.26074219 C-34.96313202 325.04951484 -37.5865941 332.51061638 -37.95996094 343.19824219 C-37.7086595 352.84193482 -35.18057263 360.47716026 -28.43652344 367.47949219 C-18.72115009 376.52073759 -8.54771246 379.68955898 4.73925781 379.46777344 C16.68841024 378.56434251 25.23199254 373.78738688 33.47753906 365.26074219 C34.46753906 370.70574219 34.46753906 370.70574219 35.47753906 376.26074219 C46.03753906 376.26074219 56.59753906 376.26074219 67.47753906 376.26074219 C67.50190671 358.89879363 67.4883518 341.539014 67.27001953 324.17822266 C67.24141927 321.62490975 67.22040457 319.07150186 67.20654297 316.51806641 C67.18504837 312.74695846 67.13850132 308.97685676 67.08691406 305.20605469 C67.08568542 304.08087433 67.08445679 302.95569397 67.08319092 301.79641724 C66.83572683 288.28813887 62.24867537 275.52019268 52.41503906 266.01074219 C36.2739193 252.60954359 -14.36423037 245.10251162 -31.52246094 262.26074219 Z M-180.52246094 257.26074219 C-180.52246094 296.53074219 -180.52246094 335.80074219 -180.52246094 376.26074219 C-169.30246094 376.26074219 -158.08246094 376.26074219 -146.52246094 376.26074219 C-146.52246094 336.99074219 -146.52246094 297.72074219 -146.52246094 257.26074219 C-157.74246094 257.26074219 -168.96246094 257.26074219 -180.52246094 257.26074219 Z M85.47753906 257.26074219 C85.40952441 268.13610996 85.35458576 279.01133443 85.32210255 289.88686752 C85.30650535 294.9378429 85.28537673 299.9886641 85.2512207 305.03955078 C85.21841389 309.92196398 85.20064143 314.8042297 85.19290733 319.68674469 C85.18740186 321.54129606 85.17665194 323.39584018 85.16034889 325.25032806 C85.02389518 341.42843385 86.22917406 356.57974456 97.72753906 369.13574219 C105.98770816 376.7227257 116.76707729 379.78532211 127.80175781 379.51074219 C140.55057011 378.31961228 148.94669516 373.51137604 157.47753906 364.26074219 C157.538125 365.04320312 157.59871094 365.82566406 157.66113281 366.63183594 C157.74492187 367.64375 157.82871094 368.65566406 157.91503906 369.69824219 C157.99625 370.70757812 158.07746094 371.71691406 158.16113281 372.75683594 C158.20965375 375.19714997 158.20965375 375.19714997 159.47753906 376.26074219 C170.03753906 376.26074219 180.59753906 376.26074219 191.47753906 376.26074219 C191.47753906 336.99074219 191.47753906 297.72074219 191.47753906 257.26074219 C180.25753906 257.26074219 169.03753906 257.26074219 157.47753906 257.26074219 C157.45175781 262.78695313 157.42597656 268.31316406 157.39941406 274.00683594 C157.37422941 277.52055336 157.34788412 281.03418608 157.31738281 284.54785156 C157.26914433 290.11743423 157.22506349 295.68682068 157.20654297 301.2565918 C157.19133094 305.75019324 157.15680537 310.24327926 157.10923004 314.73665047 C157.09446294 316.44568448 157.08650074 318.1547921 157.08565521 319.86388969 C157.07530154 330.30392295 156.98685609 338.98154176 149.91503906 347.26074219 C144.67074246 351.56375479 137.94195756 350.84118813 131.47753906 350.26074219 C127.36384905 348.77116963 124.85355038 345.84991075 122.47753906 342.26074219 C119.54616959 333.29350565 120.1313367 323.3329154 120.06347656 313.99902344 C120.04472902 312.35563728 120.02515305 310.71226038 120.00479126 309.06889343 C119.95384232 304.77993271 119.91401938 300.4909409 119.87664795 296.20184326 C119.82926963 291.03616667 119.76783404 285.87063978 119.70880127 280.70508575 C119.62104399 272.89036624 119.55095494 265.07566877 119.47753906 257.26074219 C108.25753906 257.26074219 97.03753906 257.26074219 85.47753906 257.26074219 Z " fill="#FF6100" transform="translate(244.5224609375,9.7392578125)"/>
<path d="M0 0 C1.11003549 17.71945549 1.11003549 17.71945549 -4.21875 25.109375 C-9.04906897 30.23629251 -14.38493288 31.72191791 -21.25 32.25 C-27.2147229 31.85235181 -32.24581981 30.7980347 -36.5 26.4375 C-39.49446385 21.57149625 -39.44360235 17.64505741 -39 12 C-37.76368132 7.63167399 -35.91404141 5.63969663 -32.1875 3.25 C-23.40187349 -1.2000486 -9.51736355 -3.17245452 0 0 Z " fill="#FF6100" transform="translate(279,333)"/>
</svg>
