<?xml version="1.0" encoding="UTF-8"?>
<svg version="1.1" xmlns="http://www.w3.org/2000/svg" width="1280" height="383">
<path d="M0 0 C0.69744452 0.00892289 1.39488903 0.01784577 2.11346823 0.02703905 C3.22933195 0.01767911 3.22933195 0.01767911 4.36773837 0.00813007 C6.86867399 -0.00786506 9.3686436 0.00483003 11.869587 0.0173955 C13.66022187 0.01197646 15.45085228 0.00485504 17.24147421 -0.00384474 C22.11656139 -0.02212943 26.99131103 -0.01498352 31.86640435 -0.0023284 C36.98067945 0.00779924 42.09492564 -0.00159589 47.20920187 -0.00787306 C55.81691539 -0.01516135 64.42449194 -0.00554252 73.03218466 0.01348925 C82.93909971 0.03514283 92.84568398 0.02829576 102.75259066 0.00618362 C111.27946095 -0.01207778 119.8062326 -0.01447314 128.33311617 -0.0040617 C133.41540588 0.0021298 138.49754131 0.00313247 143.57982069 -0.01020765 C148.37751114 -0.02191822 153.17478496 -0.01346852 157.97243124 0.00936937 C159.71687579 0.01458158 161.46135646 0.01327447 163.20578581 0.00431871 C192.01530162 -0.1297331 219.16151448 7.99899573 239.99287802 28.57012987 C257.16029132 46.09789556 263.17647177 67.07850599 263.17647177 91.13262987 C262.90922452 111.27335436 256.19511461 129.99134266 241.86397177 144.53497362 C238.64766468 147.3770712 235.32558173 150.00004681 231.86397177 152.53497362 C230.53036586 153.53461008 229.19693898 154.53448565 227.86397177 155.53497362 C228.45822958 155.81470018 229.05248739 156.09442675 229.66475302 156.38262987 C236.39148967 159.63615257 242.69665111 163.31522791 248.86397177 167.53497362 C249.49045614 167.96036425 250.11694052 168.38575487 250.76240927 168.82403612 C266.64138538 180.97555305 274.83501574 203.42706176 277.45381552 222.51153612 C280.47124399 248.79944936 275.42818379 278.46294867 258.86397177 299.53497362 C251.83737914 307.63877283 244.32647004 314.38104805 234.86397177 319.53497362 C233.98998739 320.04286425 233.11600302 320.55075487 232.21553427 321.07403612 C218.1222896 328.77202691 201.68811292 332.45995488 185.86397177 334.53497362 C185.21882337 334.62260564 184.57367497 334.71023766 183.90897661 334.80052519 C175.34926657 335.80715642 166.76544767 335.69858211 158.16109091 335.71197557 C156.38125358 335.71825054 154.60141752 335.72489823 152.82158285 335.73188829 C147.01410694 335.75278038 141.20663116 335.76326572 135.39912802 335.77325487 C133.3951091 335.77730576 131.39109032 335.78142278 129.38707167 335.78560495 C119.98395583 335.80461128 110.58084769 335.81886076 101.17771637 335.82721692 C90.32666793 335.83702082 79.47582176 335.86344105 68.62484467 335.90371782 C60.22806092 335.93381754 51.83133547 335.9486793 43.43449879 335.95199794 C38.42156459 335.95435223 33.40884768 335.96336456 28.39597136 335.98845911 C23.69021505 336.01164226 18.98482077 336.01601275 14.27902228 336.00569773 C12.54998772 336.00520014 10.82093585 336.01158589 9.09195524 336.02525377 C6.73716443 336.0428331 4.38369349 336.03593755 2.02890402 336.02272081 C0.70990134 336.02510917 -0.60910133 336.02749752 -1.96807379 336.02995825 C-5.13602823 335.53497362 -5.13602823 335.53497362 -6.81043017 333.85328072 C-8.43814868 331.00660232 -8.51194204 329.21769024 -8.51355165 325.94707537 C-8.52137489 324.80250762 -8.52919814 323.65793986 -8.53725845 322.47868824 C-8.53056628 321.22072799 -8.52387412 319.96276774 -8.51697916 318.66668749 C-8.52043509 317.31727246 -8.52519922 315.96786026 -8.53116089 314.61845398 C-8.54370959 310.90682261 -8.53748305 307.195422 -8.52820224 303.48378968 C-8.52142786 299.48236669 -8.53188495 295.480984 -8.540142 291.47956896 C-8.55349879 283.63940429 -8.55059295 275.79932566 -8.54190408 267.95915759 C-8.53513558 261.58866536 -8.53420719 255.21819729 -8.53747553 248.8477025 C-8.53793523 247.94185623 -8.53839492 247.03600995 -8.53886855 246.10271379 C-8.53982771 244.26264385 -8.54080035 242.42257391 -8.54178633 240.58250397 C-8.55034592 223.31834294 -8.54049717 206.05422964 -8.52438523 188.79007643 C-8.51098153 173.96885288 -8.51330946 159.14769981 -8.52714151 144.32647753 C-8.54318728 127.12511407 -8.5495219 109.92379249 -8.54030472 92.7224226 C-8.53934905 90.88902999 -8.53840594 89.05563737 -8.53747553 87.22224474 C-8.5370127 86.32012348 -8.53654987 85.41800222 -8.53607302 84.48854396 C-8.53348012 78.12391896 -8.53786059 71.75932047 -8.54491419 65.39469957 C-8.55331825 57.64090072 -8.55107215 49.887193 -8.53507195 42.13340461 C-8.52717444 38.17545944 -8.5241227 34.21766636 -8.53401941 30.25972223 C-8.54293638 26.63890495 -8.5380834 23.01838122 -8.52208675 19.3975907 C-8.51712997 17.46214654 -8.52696228 15.52668212 -8.53725845 13.591259 C-8.5294352 12.44669125 -8.52161196 11.3021235 -8.51355165 10.12287188 C-8.5130646 9.13321066 -8.51257754 8.14354945 -8.51207572 7.12389851 C-7.72319476 1.69279311 -5.34628415 0.08739992 0 0 Z M47.86397177 51.53497362 C47.64987524 54.13810475 47.55986954 56.63622292 47.55757529 59.24176073 C47.54925177 60.03702669 47.54092825 60.83229265 47.53235251 61.65165758 C47.50819625 64.28859351 47.49947404 66.92528243 47.49287802 69.56231737 C47.48391663 71.39073307 47.47479489 73.21914799 47.46551901 75.04756212 C47.44901163 78.88347201 47.44132561 82.71929442 47.43843466 86.55523729 C47.43304608 91.47643728 47.39535428 96.39681825 47.3496905 101.31778669 C47.31998529 105.09498665 47.31271255 108.87198774 47.31170851 112.64929438 C47.30749389 114.46385055 47.29501011 116.27840667 47.27419096 118.0928483 C47.24740803 120.62878015 47.25206136 123.16279213 47.26460654 125.69879198 C47.24977225 126.45162462 47.23493796 127.20445726 47.21965414 127.98010302 C47.26672687 131.31250729 47.4190819 133.08252515 49.7976113 135.50146532 C54.0938672 136.94950647 58.01875585 136.94517795 62.52510458 136.90728807 C63.49339194 136.91093874 64.46167929 136.91458941 65.45930868 136.9183507 C68.66208311 136.92645722 71.86435125 136.91283297 75.06709677 136.89825487 C77.30609009 136.89773577 79.54508388 136.8982554 81.78407675 136.89976549 C86.48493104 136.89967573 91.18561399 136.8892475 95.88643271 136.87115526 C101.86748064 136.8486253 107.84827486 136.84789515 113.82935339 136.85467291 C118.4606534 136.85804295 123.09189726 136.85132363 127.72318655 136.84154367 C129.92525569 136.83773157 132.12733113 136.83652662 134.32940298 136.83812952 C166.93609092 137.22980376 166.93609092 137.22980376 195.05537802 122.57012987 C204.03789726 113.4221867 205.96300812 102.01355387 205.86397177 89.53497362 C205.22907033 78.70112345 201.62276042 68.65266716 193.61397177 61.09747362 C177.35113855 48.0547355 158.19110152 49.09207676 138.41084677 49.17169237 C135.85731894 49.17221171 133.30379071 49.17169117 130.75026327 49.17018175 C125.42823621 49.17027101 120.10636609 49.18026885 114.78438193 49.19879198 C108.63223398 49.22008178 102.48027264 49.22343847 96.32809526 49.21723002 C90.38854884 49.21154381 84.44905859 49.21727136 78.50951773 49.22840357 C75.98803096 49.23225875 73.46653857 49.23340247 70.94504935 49.23181772 C67.43842055 49.23144877 63.93208076 49.24401483 60.42549521 49.26031542 C59.37934546 49.257838 58.33319571 49.25536058 57.25534445 49.25280809 C56.30519964 49.2598929 55.35505484 49.26697771 54.37611777 49.27427721 C53.54809527 49.27633008 52.72007277 49.27838295 51.86695868 49.28049803 C49.63427807 49.35643532 49.63427807 49.35643532 47.86397177 51.53497362 Z M47.86397177 187.53497362 C47.6650007 190.59791354 47.59134858 193.57047815 47.60518271 196.634583 C47.60167807 197.57775881 47.59817343 198.52093462 47.59456259 199.49269152 C47.58573449 202.62144297 47.59159825 205.74996972 47.59834677 208.87872362 C47.59700043 211.04583832 47.59506016 213.21295273 47.59254843 215.38006639 C47.5895957 219.92636024 47.5938996 224.4725756 47.60322958 229.01886034 C47.61462416 234.85685265 47.60806549 240.69466109 47.59608465 246.53264666 C47.58887008 251.0089258 47.59115213 255.48516108 47.59634024 259.96144152 C47.59767785 262.11450774 47.59602514 264.26757789 47.59138113 266.42063951 C47.58632253 269.42565561 47.5940168 272.43037067 47.60518271 275.43536425 C47.60113425 276.33205324 47.59708578 277.22874224 47.59291464 278.15260363 C47.39942407 282.82583962 47.39942407 282.82583962 49.86397177 286.53497362 C52.01255037 286.83873696 52.01255037 286.83873696 54.52797323 286.78894091 C55.51177466 286.79458055 56.49557608 286.8002202 57.50918967 286.80603075 C58.59274237 286.80198229 59.67629507 286.79793383 60.79268271 286.79376268 C61.93116156 286.79726732 63.06964041 286.80077196 64.24261862 286.8043828 C68.02792242 286.81322411 71.81304087 286.80733778 75.59834677 286.80059862 C78.22995928 286.8019457 80.86157154 286.80388659 83.4931832 286.80639696 C89.02484021 286.81004124 94.55644394 286.80523189 100.08809286 286.79571581 C106.45105313 286.78489482 112.81388457 286.78830828 119.17684156 286.79936862 C125.3192143 286.80961263 131.46153081 286.8084312 137.6039086 286.80260515 C140.20479481 286.80127788 142.80568434 286.80288378 145.40656668 286.80756426 C179.70279488 287.18453373 179.70279488 287.18453373 209.86397177 272.53497362 C220.04048665 261.94519925 222.17437301 249.96905324 222.30147177 235.84747362 C222.31178427 234.89775682 222.32209677 233.94804003 222.33272177 232.96954393 C222.18078313 220.77646811 218.67216173 208.67017171 210.29365927 199.55450487 C195.91498859 187.60310175 176.89013169 185.3822869 158.88008505 185.38970995 C157.11287855 185.38467203 157.11287855 185.38467203 155.30997092 185.37953234 C151.43473119 185.37006988 147.55953481 185.36808218 143.68428427 185.36700487 C142.345792 185.36558047 141.00729991 185.36398435 139.66880804 185.36221933 C132.6703817 185.35299402 125.67197431 185.34888167 118.67354208 185.34967089 C112.15004106 185.35027374 105.62662217 185.33967432 99.10314196 185.32392722 C93.49534857 185.31087261 87.88758214 185.30548598 82.27977365 185.3061263 C78.93302508 185.30638152 75.58634988 185.30351565 72.23961645 185.29294825 C68.51683718 185.28320958 64.79427365 185.28600113 61.0714913 185.2920537 C59.40397063 185.28362444 59.40397063 185.28362444 57.70276266 185.27502489 C56.69346197 185.27921938 55.68416128 185.28341387 54.64427572 185.28773546 C53.32418351 185.28691831 53.32418351 185.28691831 51.97742277 185.28608465 C49.64659622 185.33931347 49.64659622 185.33931347 47.86397177 187.53497362 Z " fill="#00447F" transform="translate(346.1360282301903,47.46502637863159)"/>
<path d="M0 0 C0.70424831 0.0030972 1.40849661 0.00619441 2.13408577 0.00938547 C3.25479318 0.0025888 3.25479318 0.0025888 4.39814115 -0.00434518 C6.91574489 -0.01706088 9.43313427 -0.01536411 11.95076668 -0.01371634 C13.75110319 -0.01969796 15.55143713 -0.02650265 17.35176766 -0.03407156 C22.25780794 -0.05179665 27.1637785 -0.05643025 32.0698477 -0.05770314 C35.14114494 -0.05912399 38.21242444 -0.06339279 41.28371727 -0.06869757 C52.01812278 -0.08723382 62.75247853 -0.0953655 73.4868995 -0.09379447 C83.45568791 -0.09259873 93.42425781 -0.11357951 103.39299107 -0.14528179 C111.97077797 -0.17157711 120.54849425 -0.18215593 129.12632108 -0.18088365 C134.23994785 -0.180377 139.35338143 -0.18589129 144.4669677 -0.20723975 C149.29497942 -0.22684093 154.12261847 -0.22659978 158.95064461 -0.21220648 C160.70638883 -0.21014262 162.46215769 -0.21467119 164.21786034 -0.2269274 C191.61841008 -0.40553232 217.22351946 6.61103277 237.96687996 25.276811 C238.6977784 25.92520944 239.42867684 26.57360788 240.18172371 27.24165475 C245.53546233 32.2665649 249.32415211 37.92882202 252.96687996 44.276811 C253.43094246 45.07989694 253.89500496 45.88298288 254.37312996 46.71040475 C264.76067696 65.99703927 266.63002934 92.66707294 260.35750496 113.604936 C253.68537618 131.2223547 243.94655434 144.8831546 227.96687996 155.276811 C229.256587 155.75247507 229.256587 155.75247507 230.57234871 156.2377485 C249.03975916 163.52804576 262.76925535 176.24542006 271.14607918 194.36421335 C282.19459111 220.10902073 280.59141385 253.47726975 270.73982918 279.40669382 C261.70054297 301.27685566 244.5279804 316.21187523 222.96687996 325.276811 C201.79711359 333.21680115 179.89404387 335.59408198 157.45345223 335.53560007 C155.67095974 335.53831841 153.88846837 335.54188402 152.10597908 335.54622018 C147.32391745 335.55523637 142.54194334 335.55184774 137.75988042 335.54546201 C132.73870372 335.54035748 127.71753393 335.54510463 122.69635689 335.54823434 C114.28513422 335.55185607 105.87394687 335.54711696 97.46272957 335.53755319 C87.73361249 335.52661887 78.00457891 335.53023729 68.27546376 335.541206 C59.90317726 335.55026691 51.53091595 335.55157164 43.15862614 335.54632866 C38.16546768 335.54320918 33.1723486 335.54280014 28.17919266 335.54940164 C23.49967798 335.55515888 18.820272 335.55120825 14.14076912 335.53961313 C12.42099799 335.53696009 10.70121776 335.53774253 8.9814502 335.54213846 C6.64232616 335.54756877 4.3035551 335.54079143 1.96445382 335.53077829 C0.65362108 335.53002424 -0.65721166 335.52927019 -2.0077666 335.52849329 C-5.03312004 335.276811 -5.03312004 335.276811 -7.03312004 333.276811 C-7.28381836 330.90833366 -7.28381836 330.90833366 -7.28480232 327.8669523 C-7.29001781 326.71119967 -7.29523331 325.55544703 -7.30060685 324.36467159 C-7.2961454 323.08395762 -7.29168396 321.80324366 -7.28708732 320.48372018 C-7.28938978 319.11810884 -7.29256486 317.75249874 -7.29654181 316.38689125 C-7.30492798 312.62131682 -7.30074732 308.85584315 -7.29456937 305.09026825 C-7.29006143 301.03432377 -7.29702037 296.97839713 -7.30252922 292.92245615 C-7.31144266 284.97174464 -7.30949255 277.02107081 -7.30370393 269.0703578 C-7.2991951 262.61113181 -7.29857116 256.15191641 -7.30075157 249.6926893 C-7.30105803 248.77489315 -7.3013645 247.85709701 -7.30168025 246.91148886 C-7.30231967 245.04725639 -7.3029681 243.18302392 -7.30362543 241.31879145 C-7.30933444 223.8200789 -7.3027619 206.32138727 -7.2920247 188.82267815 C-7.28308867 173.7938695 -7.28464056 158.76509175 -7.29386222 143.73628366 C-7.30455479 126.30203576 -7.30878507 108.86780621 -7.3026377 91.43355548 C-7.30200057 89.57601456 -7.30137183 87.71847364 -7.30075157 85.86093271 C-7.30044302 84.94688361 -7.30013446 84.03283451 -7.29981656 83.09108695 C-7.29808658 76.63638386 -7.30101125 70.18169236 -7.30571067 63.72699106 C-7.31130827 55.86550801 -7.30982678 48.00406492 -7.29914919 40.14258647 C-7.2938773 36.1282242 -7.29186138 32.11392866 -7.29844749 28.09956682 C-7.30437788 24.42948962 -7.30118043 20.75954143 -7.29049239 17.08947605 C-7.28717623 15.12263408 -7.29375527 13.15578325 -7.30060685 11.18895042 C-7.29539135 10.03319778 -7.29017586 8.87744515 -7.28480232 7.68666971 C-7.28447761 6.68301386 -7.28415291 5.67935801 -7.28381836 4.64528835 C-6.78538048 -0.06371327 -4.12285456 0.04157211 0 0 Z M51.96687996 49.276811 C49.52348293 52.94190655 49.68467614 55.67668111 49.7080909 59.91352975 C49.70458626 60.6894346 49.70108162 61.46533945 49.69747078 62.26475656 C49.68866312 64.83136553 49.69449916 67.3976992 49.70125496 69.964311 C49.69990803 71.74645673 49.69796727 73.52860209 49.69545662 75.31074655 C49.69250667 79.04654059 49.69679887 82.78223901 49.70613778 86.51802194 C49.71753224 91.31000508 49.71097208 96.10176419 49.69899285 100.8937391 C49.69177078 104.57398805 49.69406378 108.25418376 49.69924843 111.93443429 C49.70058397 113.70150406 49.69894057 115.46857864 49.69428933 117.23564279 C49.6892184 119.70392313 49.69694219 122.1718391 49.7080909 124.64009225 C49.70201821 125.73893243 49.70201821 125.73893243 49.69582283 126.8599714 C49.72678879 130.55481835 49.86015881 132.11672927 51.96687996 135.276811 C54.67335205 136.17896836 56.23198364 136.40399138 59.00963509 136.41052377 C59.83060677 136.41478876 60.65157845 136.41905374 61.49742806 136.42344797 C62.39500832 136.42299478 63.29258858 136.42254159 64.21736825 136.42207468 C65.1658564 136.42543329 66.11434456 136.4287919 67.09157479 136.43225229 C70.24012724 136.44177921 73.38862647 136.44370721 76.53719246 136.44477975 C78.734204 136.44799445 80.93121531 136.45135869 83.1282264 136.45486581 C87.74681257 136.46086375 92.36538002 136.46270536 96.98396981 136.46211374 C102.85967715 136.46201284 108.73526168 136.47558695 114.6109401 136.49288595 C119.15815939 136.50409755 123.70535003 136.50603005 128.25258172 136.50550401 C130.41558289 136.50667338 132.57858507 136.51103555 134.7415725 136.51883638 C166.7168628 136.94988319 166.7168628 136.94988319 194.59187996 123.026811 C203.28069015 112.96608342 206.64478854 102.63711966 206.25594246 89.25727975 C205.15617103 77.91774454 201.73174013 68.03523134 193.34969246 60.16352975 C177.56864643 47.66804577 157.94502393 48.82428951 138.95125496 48.8783735 C136.44256677 48.87634993 133.93387915 48.87343614 131.42519295 48.86967599 C125.53122109 48.86471514 119.6374119 48.87511106 113.74346387 48.8911283 C108.36646258 48.90407111 102.98967299 48.89484085 97.61268508 48.88021851 C91.77777542 48.86498816 85.94298089 48.86656528 80.10806191 48.87536371 C77.63122941 48.87736805 75.15438919 48.87489828 72.67756569 48.86792505 C69.23310145 48.86034568 65.78922949 48.87186085 62.34480965 48.88862741 C60.80363724 48.87951837 60.80363724 48.87951837 59.23133004 48.87022531 C57.83135529 48.88291452 57.83135529 48.88291452 56.40309823 48.89586008 C55.58982441 48.89699115 54.7765506 48.89812223 53.93863213 48.89928758 C52.96261481 49.08616168 52.96261481 49.08616168 51.96687996 49.276811 Z M47.96687996 188.276811 C47.66521923 191.34815345 47.54697765 194.21741878 47.56282723 197.29048288 C47.55596398 198.21269128 47.54910073 199.13489969 47.5420295 200.0850538 C47.52370187 203.13871204 47.52760717 206.19185948 47.53328621 209.245561 C47.52872758 211.36401161 47.52342297 213.48246073 47.51740181 215.60090768 C47.50845921 220.04290399 47.51090731 224.48472061 47.52083504 228.92671335 C47.53233159 234.62686484 47.51210827 240.32639751 47.4829179 246.02646768 C47.46459756 250.40158677 47.46483995 254.77655639 47.47055542 259.15170419 C47.47070912 261.25371295 47.46462513 263.35573153 47.45226395 265.45770395 C47.43743284 268.39324748 47.44797259 271.32763257 47.46517098 274.26313913 C47.45550301 275.13596033 47.44583504 276.00878152 47.4358741 276.90805185 C47.36144352 281.39935418 47.36144352 281.39935418 49.69641888 285.00011861 C52.30759582 286.46839735 53.81681302 286.65162696 56.79546273 286.65103281 C58.25004639 286.66155427 58.25004639 286.66155427 59.73401558 286.6722883 C60.79167626 286.66464456 61.84933693 286.65700082 62.93904793 286.64912546 C64.0583117 286.65277612 65.17757546 286.65642679 66.33075631 286.66018808 C70.04034665 286.66830899 73.74950197 286.6546616 77.45906746 286.64009225 C80.04298063 286.63957347 82.62689419 286.64009188 85.21080697 286.64160287 C90.63639834 286.64151306 96.06183087 286.63141086 101.48738778 286.61299264 C107.7265656 286.59193121 113.96555919 286.5882922 120.20476532 286.5945546 C126.23289092 286.60029195 132.26093599 286.59443853 138.28905785 286.58338106 C140.8397017 286.57955341 143.39035102 286.57837064 145.94099724 286.5799669 C180.64588752 286.79279292 180.64588752 286.79279292 210.95125496 271.53852975 C220.18052646 262.01344827 222.7244805 249.11020975 222.96687996 236.276811 C222.7098415 222.36460391 220.09808405 209.50040832 210.12703621 199.1752485 C206.68831523 196.15315375 203.14441649 194.11602103 198.96687996 192.276811 C198.16895028 191.91974069 197.37102059 191.56267038 196.54891121 191.19477975 C179.42248419 184.27684327 161.29349511 184.82949052 143.16219246 184.8783735 C140.50324156 184.87634912 137.84430309 184.87343855 135.18535531 184.86967599 C129.65008127 184.8642609 124.11492847 184.8713083 118.57967293 184.88569772 C112.18488546 184.90212971 105.79038344 184.89664309 99.39560246 184.88021851 C93.21416228 184.86498085 87.03284875 184.86656763 80.85139763 184.87536371 C78.23025516 184.87736642 75.60910538 184.87490396 72.98797143 184.86792505 C69.34288281 184.86033828 65.69835254 184.87187108 62.05330575 184.88862741 C60.4264132 184.87951837 60.4264132 184.87951837 58.76665413 184.87022531 C57.77739937 184.87868478 56.78814461 184.88714426 55.76891243 184.89586008 C54.90883646 184.89699115 54.0487605 184.89812223 53.16262162 184.89928758 C50.4404812 185.36731704 49.55751815 186.038037 47.96687996 188.276811 Z " fill="#00447F" transform="translate(7.033120036125183,47.723188996315)"/>
<path d="M0 0 C1.31291016 -0.02513672 1.31291016 -0.02513672 2.65234375 -0.05078125 C5.62126343 0.39672204 6.14260166 1.05386801 8.0625 3.3125 C9.09527468 5.02287349 10.06906694 6.76934866 11.00390625 8.53515625 C11.86532227 10.15260742 11.86532227 10.15260742 12.74414062 11.80273438 C13.37118556 12.99344124 13.99813571 14.18419802 14.625 15.375 C15.28662951 16.62199951 15.9487502 17.86873853 16.61132812 19.11523438 C18.39711503 22.47822014 20.17608406 25.84476641 21.95343018 29.21221924 C23.80842685 32.72508537 25.66810251 36.23547284 27.52734375 39.74609375 C29.80855577 44.05414436 32.08918697 48.36249842 34.36743164 52.67211914 C39.07101947 61.56751193 43.80236071 70.44720431 48.5625 79.3125 C55.21455131 91.70326117 61.79949976 104.12873179 68.37409973 116.56069946 C68.75209213 117.27543427 69.13008453 117.99016907 69.51953125 118.7265625 C69.89772507 119.44170013 70.27591888 120.15683777 70.66557312 120.89364624 C76.39193169 131.71932892 82.14308347 142.53185438 87.89163208 153.34576416 C90.38927562 158.04461392 92.88454031 162.74472216 95.37890625 167.4453125 C102.0625189 180.03872138 108.75809674 192.62517091 115.5 205.1875 C121.01292069 215.46144595 126.48610857 225.75579026 131.9375 236.0625 C132.31459106 236.77543213 132.69168213 237.48836426 133.0802002 238.22290039 C134.60568075 241.10709604 136.13112678 243.99130994 137.65652466 246.87554932 C148.28075604 266.96092637 158.95601029 287.01888357 169.6953125 307.04296875 C170.24219727 308.07083496 170.78908203 309.09870117 171.35253906 310.15771484 C172.55314605 312.37276959 173.7874066 314.56975431 175.04589844 316.75244141 C175.68817383 317.88214355 176.33044922 319.0118457 176.9921875 320.17578125 C177.57983887 321.18552002 178.16749023 322.19525879 178.77294922 323.2355957 C180.28628418 326.84645532 180.44178049 329.43291063 180.0625 333.3125 C177.40653787 335.96846213 176.1182291 335.5863308 172.40698242 335.63476562 C171.22202682 335.65398071 170.03707123 335.6731958 168.81620789 335.69299316 C167.52978897 335.70149292 166.24337006 335.70999268 164.91796875 335.71875 C163.60089432 335.73015015 162.28381989 335.74155029 160.92683411 335.7532959 C158.13504491 335.77431659 155.34337088 335.78600061 152.55151367 335.79296875 C148.97987885 335.80392624 145.40977389 335.85194726 141.83861828 335.90891266 C138.42759789 335.95521034 135.01678707 335.95906781 131.60546875 335.96875 C129.68494942 336.00579041 129.68494942 336.00579041 127.72563171 336.0435791 C119.10650723 336.00026601 119.10650723 336.00026601 116.1966095 334.08329773 C114.86132812 332.53979492 114.86132812 332.53979492 113.0625 329.3125 C112.62462158 328.58135986 112.18674316 327.85021973 111.7355957 327.09692383 C111.40648193 326.41138428 111.07736816 325.72584473 110.73828125 325.01953125 C110.35518799 324.23521729 109.97209473 323.45090332 109.57739258 322.64282227 C108.98220825 321.39650024 108.98220825 321.39650024 108.375 320.125 C107.4912815 318.31687737 106.60582417 316.50960369 105.71875 314.703125 C105.27402344 313.79498047 104.82929687 312.88683594 104.37109375 311.95117188 C102.43954205 308.05635644 100.41481777 304.2139379 98.375 300.375 C94.13827228 292.37946035 89.96510952 284.35196575 85.8125 276.3125 C85.16944398 275.06794711 84.52637753 273.8233996 83.88330078 272.57885742 C82.91089318 270.69682212 81.93853797 268.81475982 80.96630859 266.93263245 C73.3414812 252.17231549 65.71495263 237.41315652 57.95532227 222.72314453 C53.82815518 214.89544261 49.77067325 207.03175746 45.70977783 199.16955566 C41.01404306 190.07851927 36.30037901 180.99716313 31.55786133 171.93041992 C28.86438547 166.77782093 26.18583604 161.61795411 23.5234375 156.44921875 C14.94656351 136.79571609 14.94656351 136.79571609 3.0625 119.3125 C0.2349011 118.56005499 0.2349011 118.56005499 -2.9375 119.3125 C-4.26482637 120.81304393 -4.26482637 120.81304393 -5.3449707 122.7800293 C-5.7741983 123.50926605 -6.2034259 124.23850281 -6.6456604 124.98983765 C-8.73743092 128.7507354 -10.72725705 132.55371095 -12.66796875 136.39453125 C-13.10329422 137.24818771 -13.53861969 138.10184418 -13.98713684 138.98136902 C-15.36986174 141.69417932 -16.74770525 144.4094294 -18.125 147.125 C-19.92917337 150.6741033 -21.7354701 154.22212039 -23.54296875 157.76953125 C-23.99053528 158.64837982 -24.43810181 159.52722839 -24.89923096 160.43270874 C-28.74506173 167.96909091 -32.67880798 175.45729004 -36.63110352 182.93823242 C-39.89862811 189.12552201 -43.10586895 195.34347217 -46.3125 201.5625 C-47.6113871 204.07843105 -48.91101385 206.59397937 -50.2109375 209.109375 C-50.52963806 209.72611084 -50.84833862 210.34284668 -51.17669678 210.97827148 C-54.08197826 216.5975325 -57.00697877 222.20637206 -59.9375 227.8125 C-64.46099561 236.46707682 -68.95488816 245.13670502 -73.4375 253.8125 C-78.41785004 263.45139043 -83.41402236 273.08172247 -88.44262695 282.69555664 C-91.13596655 287.84781637 -93.81433057 293.00736935 -96.4765625 298.17578125 C-107.15688701 318.8991828 -107.15688701 318.8991828 -112.1875 327.9375 C-112.54610107 328.588396 -112.90470215 329.23929199 -113.27416992 329.90991211 C-115.69361268 334.19055634 -115.69361268 334.19055634 -117.9375 335.3125 C-119.83631811 335.41896151 -121.73886452 335.46132944 -123.640625 335.47363281 C-124.83526367 335.48324036 -126.02990234 335.4928479 -127.26074219 335.50274658 C-128.55657227 335.50699646 -129.85240234 335.51124634 -131.1875 335.515625 C-132.52506513 335.52137571 -133.86263024 335.52713345 -135.20019531 335.53289795 C-138.0045612 335.54340464 -140.80889844 335.54924993 -143.61328125 335.55273438 C-147.21161114 335.55822832 -150.80956437 335.5822763 -154.40777588 335.61070633 C-157.17009603 335.62930024 -159.93232469 335.63453648 -162.69470215 335.63607025 C-164.66793181 335.64058027 -166.64111256 335.65923922 -168.61425781 335.67803955 C-169.80889648 335.67503845 -171.00353516 335.67203735 -172.234375 335.66894531 C-173.28979492 335.67259094 -174.34521484 335.67623657 -175.43261719 335.67999268 C-176.25922852 335.55872009 -177.08583984 335.43744751 -177.9375 335.3125 C-180.02860714 332.17583928 -180.27055594 331.14475086 -179.61962891 327.54345703 C-178.02013139 322.31217275 -175.19812579 317.55258184 -172.625 312.75 C-171.98629447 311.54028046 -171.34836537 310.3301507 -170.71118164 309.11962891 C-166.35937214 300.87647321 -161.9026569 292.68971811 -157.40893555 284.52319336 C-153.64766152 277.6722347 -150.02422437 270.75622821 -146.4375 263.8125 C-141.8931657 255.01523 -137.22918096 246.29658491 -132.45703125 237.62109375 C-128.68262194 230.73601639 -125.04098364 223.788365 -121.4375 216.8125 C-116.89314789 208.0152388 -112.22918125 199.29658543 -107.45703125 190.62109375 C-103.68262194 183.73601639 -100.04098364 176.788365 -96.4375 169.8125 C-91.89314789 161.0152388 -87.22918125 152.29658543 -82.45703125 143.62109375 C-78.68262194 136.73601639 -75.04098364 129.788365 -71.4375 122.8125 C-66.89314789 114.0152388 -62.22918125 105.29658543 -57.45703125 96.62109375 C-53.68262171 89.73601599 -50.04099777 82.78835805 -46.4375 75.8125 C-41.8713019 66.97333965 -37.18795906 58.21076418 -32.39331055 49.49365234 C-28.75206957 42.85540381 -25.23150277 36.16072652 -21.75 29.4375 C-18.19122614 22.57510091 -14.58933048 15.74528399 -10.8125 9 C-10.26299683 8.01314209 -10.26299683 8.01314209 -9.70239258 7.00634766 C-5.75164265 0.02533763 -5.75164265 0.02533763 0 0 Z " fill="#00447F" transform="translate(1099.9375,-0.3125)"/>
<path d="M0 0 C1.80273628 -0.04346054 1.80273628 -0.04346054 3.64189148 -0.08779907 C8.43231014 -0.17214929 13.22263568 -0.24514656 18.01357555 -0.29209328 C21.65093045 -0.32783111 25.28606881 -0.3810455 28.92236328 -0.47753906 C32.43805928 -0.57055448 35.951796 -0.61904182 39.46865273 -0.63648605 C41.45548755 -0.65737772 43.441693 -0.72281489 45.42753601 -0.78897095 C54.23074266 -0.7705494 54.23074266 -0.7705494 57.46118164 2.11073303 C59.0415635 4.42709638 60.23879419 6.69932472 61.38208008 9.25634766 C61.96812012 10.29621826 62.55416016 11.33608887 63.15795898 12.4074707 C63.87604736 13.82346558 63.87604736 13.82346558 64.60864258 15.26806641 C65.43428711 16.88165039 65.43428711 16.88165039 66.27661133 18.52783203 C66.84766602 19.65511719 67.4187207 20.78240234 68.00708008 21.94384766 C69.24559004 24.36631495 70.48898919 26.78625069 71.73364258 29.20556641 C72.04319885 29.80795135 72.35275513 30.4103363 72.67169189 31.03097534 C75.48510196 36.48991785 78.41532286 41.87966302 81.38208008 47.25634766 C86.4747517 56.50033891 91.34013903 65.85157398 96.17333984 75.23339844 C99.79813632 82.25167443 103.50623827 89.21388395 107.31958008 96.13134766 C112.32744654 105.21820212 117.10846718 114.41279868 121.85006714 123.64007568 C125.92686058 131.56889958 130.07578787 139.44900488 134.38208008 147.25634766 C139.36646501 156.29307806 144.12553513 165.43685202 148.83724976 174.61746216 C153.63420706 183.96062497 158.56293587 193.22086524 163.70239258 202.38134766 C166.04616514 206.60013827 168.06626634 210.5787439 169.38208008 215.25634766 C172.19241034 215.31255426 173.8197988 215.27747097 176.38208008 214.25634766 C181.92265377 208.19670169 185.30050787 199.87853837 188.98538208 192.58905029 C190.74172524 189.11623437 192.51694713 185.65310093 194.29223633 182.18994141 C194.64460861 181.50192444 194.9969809 180.81390747 195.36003113 180.1050415 C198.29305221 174.39397465 201.33812296 168.74998778 204.44458008 163.13134766 C209.07334889 154.74813303 213.50580507 146.27300513 217.88208008 137.75634766 C222.7349485 128.31239077 227.6950071 118.94104094 232.82348633 109.64306641 C236.975218 102.08137913 240.9397016 94.42831884 244.88208008 86.75634766 C249.7589531 77.26602507 254.74229538 67.84735197 259.89379883 58.50244141 C263.8417721 51.31375211 267.62603466 44.04689129 271.38208008 36.75634766 C275.89652849 27.99786704 280.47733253 19.28249376 285.19458008 10.63134766 C285.7044043 9.69484375 286.21422852 8.75833984 286.73950195 7.79345703 C290.2508209 1.38760683 290.2508209 1.38760683 291.38208008 0.25634766 C293.23753313 0.14676213 295.09716313 0.10724837 296.95581055 0.09521484 C298.14729706 0.0856073 299.33878357 0.07599976 300.56637573 0.06610107 C301.86423004 0.0618512 303.16208435 0.05760132 304.49926758 0.05322266 C305.83586633 0.04747321 307.17246504 0.04171545 308.50906372 0.03594971 C311.31520981 0.02543081 314.12132719 0.01959414 316.92749023 0.01611328 C320.52463015 0.01062984 324.12139127 -0.01339066 327.7184124 -0.04185867 C330.48077504 -0.06047721 333.24304637 -0.06569024 336.00546646 -0.0672226 C337.97698592 -0.07172644 339.94845652 -0.09037847 341.91989136 -0.10919189 C343.71657761 -0.10469025 343.71657761 -0.10469025 345.54956055 -0.10009766 C346.60577606 -0.10374329 347.66199158 -0.10738892 348.75021362 -0.11114502 C351.70938473 0.30204985 352.59167349 0.92627353 354.38208008 3.25634766 C352.98094796 7.88675148 351.06163231 12.05011074 348.77661133 16.29541016 C348.24308296 17.29983658 348.24308296 17.29983658 347.69877625 18.32455444 C346.53512612 20.51253683 345.36491891 22.69693683 344.19458008 24.88134766 C343.37518414 26.41890268 342.5561786 27.95666582 341.73754883 29.49462891 C339.29207346 34.08527389 336.83808827 38.67133115 334.38208008 43.25634766 C333.70677444 44.5177341 333.03148067 45.7791269 332.35620117 47.04052734 C329.92749422 51.57555213 327.49747631 56.10986737 325.06445312 60.64257812 C320.18023491 69.7471277 315.3375197 78.87317973 310.50708008 88.00634766 C310.12989838 88.71946106 309.75271667 89.43257446 309.36410522 90.16729736 C307.83872384 93.05130107 306.31336848 95.93531854 304.78807068 98.81936646 C300.76393943 106.42709383 296.73158522 114.03044467 292.69458008 121.63134766 C292.34235382 122.29455017 291.99012756 122.95775269 291.62722778 123.64105225 C286.14869863 133.95404018 280.63798456 144.24941738 275.11572266 154.5390625 C269.78218818 164.48722409 264.501569 174.46301403 259.22659302 184.44232178 C254.14066951 194.06272367 249.02996412 203.66891514 243.88208008 213.25634766 C238.38905556 223.4881922 232.93650249 233.74065126 227.50708008 244.00634766 C226.94130753 245.07601776 226.94130753 245.07601776 226.36410522 246.16729736 C224.83872384 249.05130107 223.31336848 251.93531854 221.78807068 254.81936646 C210.61673998 275.9390649 199.41416262 297.04298928 188.08422852 318.078125 C186.86787337 320.34928267 185.66322001 322.62452848 184.46899414 324.90722656 C183.99455368 325.80686882 183.99455368 325.80686882 183.51052856 326.72468567 C182.62569756 328.40300552 181.74616569 330.08411601 180.86694336 331.76538086 C179.38208008 334.25634766 179.38208008 334.25634766 177.38208008 335.25634766 C171.10583777 335.8374812 171.10583777 335.8374812 168.38867188 333.65576172 C166.02005683 330.8234526 164.32854276 327.81906833 162.65161133 324.55322266 C162.30408813 323.89144012 161.95656494 323.22965759 161.59851074 322.54782104 C160.45709669 320.37079746 159.32598368 318.18858785 158.19458008 316.00634766 C157.39290599 314.47385664 156.59040308 312.94179893 155.78710938 311.41015625 C154.12967666 308.24873508 152.47547434 305.08565614 150.82348633 301.92138672 C147.49539862 295.55362365 144.12504164 289.20844958 140.75012207 282.86541748 C139.68819482 280.86934548 138.62731843 278.87271792 137.56665039 276.87597656 C133.04540555 268.36727941 128.50062517 259.87146874 123.94458008 251.38134766 C118.43170102 241.10737914 112.95847168 230.81305772 107.50708008 220.50634766 C107.12998901 219.79341553 106.75289795 219.0804834 106.36437988 218.34594727 C104.83889933 215.46175162 103.3134533 212.57753771 101.78805542 209.69329834 C97.76392706 202.0855823 93.73157989 194.4822406 89.69458008 186.88134766 C89.34235382 186.21814514 88.99012756 185.55494263 88.62722778 184.87164307 C83.14869863 174.55865513 77.63798456 164.26327794 72.11572266 153.97363281 C66.78218818 144.02547123 61.501569 134.04968128 56.22659302 124.07037354 C51.14066951 114.44997164 46.02996412 104.84378017 40.88208008 95.25634766 C35.38905529 85.0245026 29.9365526 74.77201798 24.50708008 64.50634766 C24.13322174 63.79954865 23.7593634 63.09274963 23.37417603 62.36453247 C21.86052783 59.50286088 20.34692478 56.64116541 18.83338928 53.7794342 C14.95372268 46.44477693 11.06879663 39.11291772 7.1786499 31.78381348 C6.45033232 30.41134907 5.72233541 29.03871442 4.99468994 27.66589355 C4.30934964 26.37296046 3.62357256 25.08025876 2.93731689 23.78781128 C1.98980685 22.00305795 1.04406517 20.21736616 0.09838867 18.43164062 C-1.77455688 14.96655813 -3.74327801 11.56829892 -5.79443359 8.20581055 C-6.82443564 5.76745705 -6.83130388 3.87740935 -6.61791992 1.25634766 C-4.86327443 -0.49829784 -2.38637846 0.0559379 0 0 Z " fill="#00447F" transform="translate(632.617919921875,47.74365234375)"/>
</svg>
