<?xml version="1.0" encoding="UTF-8"?>
<svg version="1.1" xmlns="http://www.w3.org/2000/svg" width="1600" height="900">
<path d="M0 0 C31.02 0 62.04 0 94 0 C93.21773245 4.69360528 92.35094666 8.0549032 90.625 12.375 C90.17382812 13.51453125 89.72265625 14.6540625 89.2578125 15.828125 C88.84273437 16.87484375 88.42765625 17.9215625 88 19 C87.49576095 20.37345112 86.99497178 21.74818195 86.5 23.125 C84.97065859 27.25859136 83.08002759 31.21539387 81.18359375 35.19140625 C80.11017558 37.73856027 79.35331169 40.24709999 78.62768555 42.90893555 C77.23034322 47.56402578 75.41133582 52.08326721 73.6875 56.625 C73.08192261 58.23133301 73.08192261 58.23133301 72.46411133 59.87011719 C70.39871549 65.34073734 68.30881897 70.80086189 66.1875 76.25 C64.66231552 80.17487746 63.29015417 84.11685306 62 88.125 C60.35723391 93.19468388 58.28715759 97.93507735 55.953125 102.72265625 C54.80696227 105.04977475 54.80696227 105.04977475 55 108 C55.37511719 107.48050781 55.75023437 106.96101563 56.13671875 106.42578125 C59.18630971 102.27004143 62.35159655 98.64840345 66 95 C68.1090057 92.36068338 70.18027554 89.69696225 72.23046875 87.01171875 C72.81441406 86.34785156 73.39835938 85.68398437 74 85 C74.66 85 75.32 85 76 85 C76.226875 84.29875 76.45375 83.5975 76.6875 82.875 C78.70372485 78.45850747 81.79054769 75.17585642 85.25 71.8125 C87.23329649 70.01920304 87.23329649 70.01920304 88 67 C88.74507812 66.40703125 89.49015625 65.8140625 90.2578125 65.203125 C93.34383113 62.72375961 95.55228273 59.91321041 97.875 56.75 C101.22453397 52.28540741 104.66162104 48.002984 108.40234375 43.85546875 C110.69693926 41.19059622 112.71898508 38.3455555 114.73828125 35.46875 C115.15464844 34.9840625 115.57101562 34.499375 116 34 C116.66 34 117.32 34 118 34 C118.20625 33.319375 118.4125 32.63875 118.625 31.9375 C120.42895027 28.08360625 122.9010345 24.92212236 126 22 C126.66 22 127.32 22 128 22 C128.226875 21.278125 128.45375 20.55625 128.6875 19.8125 C130.25621997 16.4509572 132.35641222 14.57911003 135 12 C135.556875 11.071875 136.11375 10.14375 136.6875 9.1875 C137.3371875 8.1046875 137.3371875 8.1046875 138 7 C138.66 7 139.32 7 140 7 C140.268125 6.401875 140.53625 5.80375 140.8125 5.1875 C142.04171188 2.92316233 142.99785941 1.61082946 145 0 C147.17437571 -0.37259549 147.17437571 -0.37259549 149.75762463 -0.36914349 C150.74243193 -0.37511663 151.72723923 -0.38108978 152.74188918 -0.38724393 C154.3688161 -0.37413614 154.3688161 -0.37413614 156.02861023 -0.36076355 C157.75367246 -0.36460846 157.75367246 -0.36460846 159.51358443 -0.36853105 C162.71078377 -0.37262632 165.90762055 -0.36321969 169.10477698 -0.34819686 C172.55056424 -0.33526585 175.99633398 -0.33962387 179.44213867 -0.34190369 C185.41388157 -0.34347829 191.38552629 -0.33404965 197.35724449 -0.31719017 C205.99137639 -0.29282994 214.62546072 -0.28499796 223.25962327 -0.2812262 C237.26726601 -0.27465703 251.2748564 -0.25468326 265.2824707 -0.22631836 C278.89119199 -0.19878982 292.49989907 -0.17755035 306.10864258 -0.16479492 C306.94720017 -0.16400675 307.78575775 -0.16321858 308.64972617 -0.16240653 C312.8564382 -0.15849147 317.06315033 -0.15470033 321.26986253 -0.15097082 C356.17994568 -0.11986042 391.08996801 -0.06701198 426 0 C425.69918873 1.41989399 425.39425937 2.83891586 425.08764648 4.25756836 C424.83361305 5.44303505 424.83361305 5.44303505 424.57444763 6.65245056 C423.72420589 10.12706585 422.43983673 13.25759279 421.0625 16.5625 C420.55847656 17.78066406 420.05445313 18.99882813 419.53515625 20.25390625 C419.28008301 20.86959473 419.02500977 21.4852832 418.76220703 22.11962891 C417.72850942 24.66976952 416.76803241 27.24451018 415.81030273 29.82397461 C413.8942272 34.96949473 411.91864814 40.0928656 409.9609375 45.22265625 C408.97247434 47.81454247 407.98565081 50.40704309 407 53 C406.72027344 53.73476562 406.44054688 54.46953125 406.15234375 55.2265625 C404.67568025 59.12970321 403.32088574 63.03734278 402 67 C370.98 67.33 339.96 67.66 308 68 C306.35 72.95 304.7 77.9 303 83 C300.3125 89 300.3125 89 299.11328125 91.4375 C297.75760512 94.55793347 296.92763965 97.72617685 296 101 C294.90609389 104.16530071 293.73591062 107.30093105 292.5625 110.4375 C292.26279297 111.24509766 291.96308594 112.05269531 291.65429688 112.88476562 C290.77279605 115.25774291 289.88707586 117.62910187 289 120 C288.73566162 120.70833984 288.47132324 121.41667969 288.19897461 122.14648438 C286.23594157 127.3980226 284.21440515 132.62586088 282.18359375 137.8515625 C281.04740402 140.87390217 280.02105162 143.93684513 279 147 C307.71 147 336.42 147 366 147 C363.75858685 157.08635918 363.75858685 157.08635918 362.1875 160.75 C360.52695025 164.73034398 358.92546579 168.72519206 357.375 172.75 C356.97023438 173.79671875 356.56546875 174.8434375 356.1484375 175.921875 C355.40792886 177.90663965 354.69953175 179.90382787 354.03125 181.9140625 C352.82547195 185.52226197 351.47969049 189.07098025 350.125 192.625 C347.92608916 198.41933699 345.88412625 204.23235308 344.0546875 210.15625 C342.66792767 213.89536538 340.7834846 217.43303079 339 221 C309.96 221.33 280.92 221.66 251 222 C249.10354564 226.42506017 247.47213125 230.48207996 246 235 C244.91740933 238.0287885 243.80258618 241.04554554 242.6875 244.0625 C242.37844727 244.90014893 242.06939453 245.73779785 241.75097656 246.60083008 C239.56650639 252.50625656 237.33390854 258.3906606 235.05859375 264.26171875 C234.12791528 266.66911952 233.21432298 269.08167868 232.3125 271.5 C231.56672135 273.48874305 230.80616955 275.47246173 230 277.4375 C228.8210181 280.45864111 227.84760487 283.52679358 226.87890625 286.62109375 C226 289 226 289 224.53125 291.875 C222.96690329 295.06754431 221.93179383 298.15291751 220.9375 301.5625 C219.78149281 305.50406669 218.53160024 309.1709994 217 313 C251.65 313.33 286.3 313.66 322 314 C320.87463398 321.87756214 320.87463398 321.87756214 319.40625 325.98828125 C318.94412109 327.29442383 318.94412109 327.29442383 318.47265625 328.62695312 C318.15167969 329.51318359 317.83070313 330.39941406 317.5 331.3125 C317.17902344 332.21806641 316.85804688 333.12363281 316.52734375 334.05664062 C314.18244724 340.63510552 314.18244724 340.63510552 313 343 C313.74983154 342.7733667 314.49966309 342.5467334 315.2722168 342.31323242 C318.74269043 341.2669965 322.21507068 340.22722582 325.6875 339.1875 C326.86634766 338.83107422 328.04519531 338.47464844 329.25976562 338.10742188 C336.15282674 336.04894609 343.04384887 334.24496596 350.06420898 332.67700195 C353.98915262 331.77189853 357.83511591 330.67130453 361.6875 329.5 C362.77381714 329.17636475 362.77381714 329.17636475 363.88208008 328.84619141 C366.86522921 327.95568916 369.84214232 327.04954977 372.8125 326.1171875 C377.36483337 324.69458332 381.88716934 323.57914911 386.5625 322.625 C392.51990102 321.38734833 398.28510283 319.80610735 404.10400391 318.05395508 C410.19306377 316.22396563 416.30631065 314.49588614 422.4375 312.8125 C423.33662109 312.56266357 424.23574219 312.31282715 425.16210938 312.05541992 C429.45573957 310.88180126 433.72182143 309.83150181 438.09765625 309.01171875 C442.05600854 308.25220676 445.73558683 307.1452539 449.53515625 305.81640625 C455.72702203 303.7655347 462.09994442 302.26159716 468.40625 300.60546875 C473.19790859 299.33478359 477.95443658 298.06286901 482.640625 296.44140625 C487.59322272 294.73739603 492.64587068 293.59157204 497.75 292.4375 C505.51860671 290.68792678 505.51860671 290.68792678 513 288 C514.3453266 287.6514029 515.7003405 287.3380814 517.0625 287.0625 C526.39100902 285.06896871 535.57356134 282.59674369 544.75 280 C545.63719727 279.75088867 546.52439453 279.50177734 547.43847656 279.24511719 C551.46031788 278.09623478 555.39918831 276.88857228 559.296875 275.3671875 C562.49439623 274.18666806 565.14458817 273.52962319 568.5 273.125 C574.32263695 272.25418738 579.69866492 270.63252703 585.27832031 268.82128906 C589.42306789 267.47957905 593.51572957 266.33044743 597.78125 265.4609375 C600.62090058 264.87101009 603.43316683 264.19053434 606.25 263.5 C607.22453125 263.2628125 608.1990625 263.025625 609.203125 262.78125 C611.90419157 262.02676213 614.40096173 261.04540013 617 260 C618.67855659 259.52935123 620.36736891 259.09443132 622.0625 258.6875 C623.11050781 258.43097656 624.15851563 258.17445313 625.23828125 257.91015625 C627.24257754 257.42521229 629.24690634 256.94040192 631.25146484 256.45654297 C640.31293766 254.26120939 649.27523704 251.99253486 658.14086914 249.08862305 C666.86062561 246.30672256 675.77387468 244.1708447 684.64770508 241.94213867 C690.77233519 240.39308362 696.83620419 238.77615859 702.859375 236.8671875 C708.06255626 235.23338459 713.17799192 234.02719862 718.5625 233.1875 C719.71202148 232.98737305 719.71202148 232.98737305 720.88476562 232.78320312 C724.58045709 232.18172853 727.41831837 231.92813166 731 233 C731.3125 235.25 731.3125 235.25 731 238 C725.0171769 244.16978632 716.09789162 246.75822203 708.25390625 249.703125 C704.41482608 251.23322658 700.79184512 253.05115629 697.125 254.94921875 C694.49288118 256.2507628 691.78982817 257.0890357 689 258 C687.49372159 258.67363315 685.99476058 259.36368166 684.5 260.0625 C677.78033672 263.17242681 670.92061611 265.92764214 664.05664062 268.70141602 C656.66829883 271.69490049 649.3070005 274.71583368 642.25 278.4375 C637.32445132 280.93474552 632.25546053 282.87943898 627.08984375 284.8203125 C621.91898205 286.79452265 616.92415331 289.10238613 611.91015625 291.44140625 C606.09371323 294.14941181 600.27928315 296.74373104 594.3046875 299.08203125 C591.38641467 300.24439416 588.52767936 301.51844835 585.6640625 302.80859375 C582.8923176 304.04815709 580.10953152 305.26120485 577.32519531 306.47216797 C571.56022181 308.98027056 565.8221384 311.52748857 560.125 314.1875 C555.79275121 316.20041072 551.44423064 318.06633515 546.99609375 319.8046875 C542.78758341 321.48370205 538.61345414 323.24183069 534.4375 325 C533.64585449 325.33241699 532.85420898 325.66483398 532.03857422 326.00732422 C521.2952179 330.53376651 521.2952179 330.53376651 510.8125 335.625 C507.25884484 337.42639202 503.78058228 338.73980591 500 340 C498.36623555 340.79472949 496.74205976 341.60930982 495.125 342.4375 C492.12141633 343.97515552 489.180361 345.3733539 486 346.5 C482.9775297 347.57171258 480.21502202 348.88560735 477.375 350.375 C473.43778687 352.39470017 469.49807023 353.94048664 465.3125 355.375 C459.44752515 357.39806532 453.92025603 359.80369908 448.33642578 362.47949219 C444.06408487 364.52332098 439.7554053 366.32674038 435.33984375 368.03125 C431.87180818 369.46709778 428.57020338 371.20536106 425.23046875 372.9140625 C422.55664119 374.21585595 419.82575342 375.077305 417 376 C414.35312732 377.16051753 411.73284276 378.37346997 409.109375 379.5859375 C405.8444556 381.07073753 402.55317407 382.47750328 399.25 383.875 C394.21278808 386.01567714 389.25496854 388.27515749 384.3125 390.625 C376.774387 394.19108489 369.23976983 397.50452576 361 399 C361 399.66 361 400.32 361 401 C360.33355469 401.23074219 359.66710938 401.46148437 358.98046875 401.69921875 C353.0615536 403.79360411 347.35877521 406.14030914 341.66796875 408.7890625 C339.2186124 409.90077621 336.75809751 410.90492592 334.25 411.875 C330.10525198 413.5016672 326.08299034 415.34124499 322.0625 417.25 C315.38314343 420.4169512 308.61166859 423.32410221 301.78540039 426.15917969 C297.1491473 428.0854437 292.55184018 430.08100924 287.96923828 432.1315918 C285.79399458 433.09084568 283.59707123 433.96778004 281.375 434.8125 C277.14687846 436.48029525 273.04127383 438.36315402 268.9375 440.3125 C261.99556278 443.60537889 254.93658223 446.54494808 247.8203125 449.4375 C243.50155549 451.19442499 239.24588357 453.07463893 235 455 C233.47923305 455.66681809 231.95839814 456.33348119 230.4375 457 C227.57126605 458.26670651 224.77896141 459.61523891 222 461.0625 C219.34949307 462.41109452 216.7792706 463.4413778 213.9375 464.3125 C207.01304144 466.49664464 200.54282066 469.88607551 194 473 C188.98464701 475.33581081 183.92754941 477.42260667 178.75 479.375 C170.57199665 482.48359777 162.638789 486.09288962 154.875 490.125 C149.4207768 492.89281476 143.17289913 496 137 496 C137 496.66 137 497.32 137 498 C135.906875 498.391875 134.81375 498.78375 133.6875 499.1875 C129.24401308 500.84692609 124.97183897 502.81990889 120.66796875 504.80859375 C118.40160672 505.82065879 116.14655177 506.7233419 113.8125 507.5625 C110.40378551 508.78935839 107.24812204 510.32879316 104.0546875 512.03515625 C102 513 102 513 99.12890625 513.94921875 C95.96700483 515.01108078 93.06958418 516.31031491 90.0625 517.75 C85.21981407 520.01949135 80.35002635 522.10886273 75.375 524.0625 C69.1511603 526.51037995 63.05973361 529.17151407 57 532 C50.56275829 534.99939591 44.07409992 537.81659094 37.5 540.5 C28.85165807 544.03177864 20.27787476 547.66903539 12.046875 552.10546875 C10 553 10 553 6.7265625 553.90234375 C2.82569987 555.05133998 -0.72982677 556.60579458 -4.375 558.375 C-13.71372473 562.84650803 -23.17794675 566.92768344 -32.75 570.875 C-40.35544173 574.02419142 -47.88449262 577.25448263 -55.328125 580.76953125 C-58.69235495 582.31884768 -62.11721345 583.66906013 -65.56640625 585.015625 C-68.10369663 586.0419447 -70.57904537 587.16226838 -73.0625 588.3125 C-78.49235358 590.81562399 -84.00304151 593.08995627 -89.54711914 595.32543945 C-94.46421931 597.32149002 -99.29299587 599.4789421 -104.11767578 601.68847656 C-108.95083289 603.88767358 -113.81860186 606.00639762 -118.6875 608.125 C-119.66783203 608.55425781 -120.64816406 608.98351562 -121.65820312 609.42578125 C-125.87043319 611.25963895 -130.07283876 613.06226893 -134.38671875 614.64453125 C-137.44124343 615.79039078 -140.24424147 617.0460611 -143.125 618.5625 C-146.70482379 620.39315344 -150.17493169 621.7509981 -154 623 C-158.78012016 625.06299922 -163.50558926 627.22290642 -168.125 629.625 C-170.5547778 630.78706765 -172.81958652 631.62480898 -175.375 632.4375 C-179.1539648 633.64651554 -182.53809432 635.20635068 -186.05078125 637.03515625 C-188.54744274 638.27097867 -191.10616125 639.20418814 -193.72265625 640.15234375 C-196.56871294 641.21168217 -199.37772498 642.34788907 -202.1875 643.5 C-203.17105469 643.9021875 -204.15460938 644.304375 -205.16796875 644.71875 C-207.99526463 645.92545048 -207.99526463 645.92545048 -210.4453125 647.5078125 C-214.43634175 649.83896414 -218.76612849 651.06822398 -223.13671875 652.5234375 C-227.0454584 653.92114871 -230.65569253 655.81180098 -234.34741211 657.69775391 C-238.77864829 659.87319926 -243.35440786 661.67252905 -247.9375 663.5 C-254.55012999 666.1688139 -261.11067235 668.88346549 -267.578125 671.890625 C-275.50321501 675.52082752 -283.62603071 678.66400369 -291.796875 681.69140625 C-294.23471055 682.68735126 -296.50129857 683.73848339 -298.8359375 684.9375 C-303.07233526 687.09456955 -307.42538622 688.77663474 -311.875 690.4375 C-316.74098287 692.28677069 -321.513269 694.13114522 -326.125 696.5625 C-332.10526998 699.69550833 -338.45617789 701.86115317 -344.78222656 704.17773438 C-348.66329253 705.6166853 -352.51894645 707.12055182 -356.375 708.625 C-357.14086426 708.92374023 -357.90672852 709.22248047 -358.69580078 709.53027344 C-368.38315403 713.29982618 -368.38315403 713.29982618 -377.984375 717.28125 C-382.92925476 719.3969697 -387.62772121 721.26384766 -392.87890625 722.41015625 C-396.74580792 723.4854825 -400.37282608 725.1965065 -404.05859375 726.76953125 C-410.67493266 729.53732243 -417.382225 731.37974113 -424.34375 733.05859375 C-427.11686053 733.77261046 -429.85038893 734.53238044 -432.59375 735.34765625 C-449.62620173 740.40730601 -466.89801255 744.58481647 -484.5859375 746.54296875 C-487.28729437 746.90459204 -489.80436282 747.40343263 -492.453125 748.00537109 C-498.36925535 749.1956134 -504.14391132 749.34109412 -510.1640625 749.37109375 C-511.31377533 749.38012222 -512.46348816 749.3891507 -513.64804077 749.39845276 C-516.07685777 749.41289815 -518.50571319 749.4218277 -520.93457031 749.42553711 C-524.56646687 749.43731026 -528.19659218 749.48645177 -531.828125 749.53710938 C-547.50270283 749.64447773 -561.81694698 747.82931314 -577 744 C-578.46241978 743.65156403 -579.92534503 743.30523828 -581.38891602 742.96166992 C-596.44443821 739.34830242 -610.58471548 733.10997521 -624.24267578 725.92138672 C-625.85005492 725.07861805 -627.46941006 724.25879316 -629.08984375 723.44140625 C-634.84465585 720.46310938 -639.76706566 717.02357477 -644.7109375 712.83203125 C-646.94191456 710.95851721 -646.94191456 710.95851721 -649.3984375 709.58203125 C-652.60429185 707.63252522 -655.40730991 705.30700895 -658.25 702.875 C-658.81775146 702.39144043 -659.38550293 701.90788086 -659.97045898 701.40966797 C-666.42743213 695.85271353 -673.1056368 690.02234721 -678 683 C-678 682.34 -678 681.68 -678 681 C-678.66 681 -679.32 681 -680 681 C-681.2890625 679.35546875 -681.2890625 679.35546875 -682.625 677.1875 C-683.07101562 676.47980469 -683.51703125 675.77210938 -683.9765625 675.04296875 C-685 673 -685 673 -685 670 C-685.66 670 -686.32 670 -687 670 C-707.30079915 630.84845878 -706.05352694 584.87177514 -693.66650391 543.38305664 C-693.0219903 541.07862538 -692.5038491 538.7802291 -692.01953125 536.4375 C-691.01848042 531.76267985 -689.45504349 527.39662856 -687.75 522.9375 C-687.29028809 521.71619385 -687.29028809 521.71619385 -686.82128906 520.47021484 C-686.1915961 518.7978569 -685.55976707 517.12630166 -684.92578125 515.45556641 C-684.03942657 513.10457605 -683.17227712 510.74754041 -682.3125 508.38671875 C-682.04856445 507.66685791 -681.78462891 506.94699707 -681.51269531 506.20532227 C-681.01922503 504.85933625 -680.52878477 503.51223382 -680.04199219 502.16381836 C-679.03112836 499.43383524 -677.96532806 496.94244809 -676.4609375 494.4453125 C-674.77504245 491.62346677 -673.87614938 488.87951881 -672.875 485.75 C-670.08037637 477.695405 -666.16244467 470.44057887 -662.07373047 462.98046875 C-658.37182021 456.15238871 -654.94101143 449.18913906 -652 442 C-651.34 442 -650.68 442 -650 442 C-649.34 439.69 -648.68 437.38 -648 435 C-647.34 435 -646.68 435 -646 435 C-645.76152344 434.17628906 -645.52304687 433.35257812 -645.27734375 432.50390625 C-643.76836824 428.36460645 -641.76152348 424.74227246 -639.5625 420.9375 C-639.16740234 420.24333984 -638.77230469 419.54917969 -638.36523438 418.83398438 C-635.39760809 413.6344661 -632.38318225 408.50511782 -629 403.5625 C-626.69570027 400.13471085 -624.72943428 396.74710761 -623 393 C-622.34 393 -621.68 393 -621 393 C-620.73960937 392.28714844 -620.47921875 391.57429688 -620.2109375 390.83984375 C-618.93408134 387.84541011 -617.39741981 385.29078813 -615.625 382.5625 C-615.00238281 381.60214844 -614.37976563 380.64179688 -613.73828125 379.65234375 C-613.16464844 378.77707031 -612.59101562 377.90179688 -612 377 C-611.60167969 376.38253906 -611.20335937 375.76507813 -610.79296875 375.12890625 C-609.27369096 372.79853993 -607.68276866 370.60586409 -605.9375 368.4375 C-603.96464382 366.06461647 -603.96464382 366.06461647 -602.5 363.5 C-601 361 -601 361 -598.875 358.375 C-596.83289928 356.06477194 -596.83289928 356.06477194 -596 353 C-595 352 -594 351 -593 350 C-592.67 349.01 -592.34 348.02 -592 347 C-591.34 347 -590.68 347 -590 347 C-589.79375 346.34 -589.5875 345.68 -589.375 345 C-586.51209597 338.75366394 -581.78047908 333.60520129 -577.19921875 328.54296875 C-575.7795659 326.89284679 -575.7795659 326.89284679 -575 324 C-574.34 324 -573.68 324 -573 324 C-572.7525 323.278125 -572.505 322.55625 -572.25 321.8125 C-570.86693509 318.70060396 -569.20877083 316.58741726 -567 314 C-563.47447512 309.7910131 -560.03538272 305.53924561 -556.6875 301.1875 C-555.88699219 300.14980469 -555.08648438 299.11210937 -554.26171875 298.04296875 C-552.78148234 296.05142442 -551.36337627 294.0117892 -550.01953125 291.92578125 C-547.92919484 288.89742154 -545.61753764 286.57793798 -543 284 C-541.16273216 281.8216535 -539.42549341 279.5704325 -537.6875 277.3125 C-536.72412165 276.07669558 -535.76057865 274.8410195 -534.796875 273.60546875 C-533.05364281 271.36084864 -531.31501096 269.11282871 -529.578125 266.86328125 C-528.87171875 265.95964844 -528.1653125 265.05601562 -527.4375 264.125 C-526.81746094 263.32320313 -526.19742188 262.52140625 -525.55859375 261.6953125 C-525.04425781 261.13585937 -524.52992188 260.57640625 -524 260 C-523.34 260 -522.68 260 -522 260 C-521.34 258.35 -520.68 256.7 -520 255 C-519.01 255.33 -518.02 255.66 -517 256 C-517.4125 256.87398438 -517.825 257.74796875 -518.25 258.6484375 C-519.83377131 262.01441625 -521.40266799 265.38713171 -522.96484375 268.76318359 C-523.64268896 270.22790477 -524.32230973 271.69180586 -525.00390625 273.15478516 C-530.11690076 284.17028068 -534.37824887 295.32440514 -538.26123047 306.828125 C-539.24196677 309.71134713 -540.2702122 312.57601614 -541.3125 315.4375 C-541.73982422 316.61119141 -541.73982422 316.61119141 -542.17578125 317.80859375 C-542.72859086 319.27838614 -543.33144728 320.73024043 -543.98046875 322.16015625 C-545.18938587 325.52752308 -545.80476702 328.87144545 -546.46875 332.38134766 C-546.9606259 334.80591609 -547.55213562 337.16138471 -548.21875 339.54296875 C-556.92965083 370.80762284 -558.95395728 410.38620697 -547 441 C-546.375 442.875 -545.75 444.75 -545.125 446.625 C-538.07752983 465.67298162 -521.99640992 490.50179504 -503 500 C-503 500.66 -503 501.32 -503 502 C-501.7934375 502.309375 -501.7934375 502.309375 -500.5625 502.625 C-497.52597624 503.79699163 -495.70405148 504.83117696 -493.125 506.6875 C-483.98550981 512.95850245 -473.25288611 516.71581467 -462.8125 520.25 C-462.12551025 520.48396484 -461.43852051 520.71792969 -460.73071289 520.95898438 C-450.01907497 524.45891335 -439.12642595 526.49304306 -427.9375 527.6875 C-426.76356689 527.81342529 -425.58963379 527.93935059 -424.38012695 528.0690918 C-386.53393799 531.87769172 -350.41440241 523.69236663 -314.34350586 512.69677734 C-310.56700502 511.57393815 -306.75351074 510.60320356 -302.9375 509.625 C-295.86945853 507.79366441 -288.85337675 505.83469828 -281.87084961 503.69970703 C-277.70834892 502.44221406 -273.5395276 501.43255757 -269.28955078 500.51586914 C-265.49087721 499.65997265 -261.7482863 498.61445926 -258 497.5625 C-256.81446533 497.23318481 -256.81446533 497.23318481 -255.60498047 496.8972168 C-251.7327754 495.81093484 -247.9119013 494.67190047 -244.125 493.3125 C-240.89025972 492.17783335 -237.76759715 491.6141443 -234.375 491.125 C-229.7812878 490.42270315 -225.63369883 489.2896884 -221.25 487.75 C-213.36021394 484.98611445 -205.33854504 483.00013427 -197.21191406 481.05566406 C-196.2215918 480.81686523 -195.23126953 480.57806641 -194.2109375 480.33203125 C-193.32712402 480.12296143 -192.44331055 479.9138916 -191.53271484 479.69848633 C-188.92437215 478.97914293 -186.50522549 478.01627312 -184 477 C-181.4402474 476.35936247 -178.88757375 475.7574979 -176.3125 475.1875 C-164.51186002 472.48619487 -152.90088654 469.2031008 -141.32641602 465.6628418 C-140.47619873 465.402854 -139.62598145 465.14286621 -138.75 464.875 C-137.91073975 464.61823486 -137.07147949 464.36146973 -136.20678711 464.09692383 C-130.15016137 462.27298267 -124.11523409 460.88219567 -117.91015625 459.6484375 C-115.37526135 459.08361528 -113.09665321 458.38984628 -110.6875 457.4375 C-107.14052608 456.05478135 -103.79621307 455.23095867 -100.0859375 454.46484375 C-97.8234782 453.99799691 -97.8234782 453.99799691 -95 453 C-92.65466166 452.21822055 -90.46851403 451.63577393 -88.0625 451.125 C-78.98635662 449.17248512 -70.03594648 446.67474458 -61.1875 443.875 C-56.70755445 442.4688857 -52.30831501 441.41136215 -47.6953125 440.56640625 C-38.20277609 439.01021214 -38.20277609 439.01021214 -30 435 C-28.52957902 434.67286804 -27.04947373 434.38893942 -25.56640625 434.125 C-20.22867318 433.09979073 -15.11876368 431.62644175 -9.9375 430 C-4.3577104 428.25658546 1.17918104 426.67256945 6.89868164 425.45605469 C10.0220747 424.77817642 13.10120786 423.95394861 16.1875 423.125 C16.82115479 422.95500488 17.45480957 422.78500977 18.10766602 422.60986328 C23.72393442 421.09428496 29.31335976 419.48805513 34.90234375 417.875 C37.42742202 417.16173703 39.95075765 416.49417082 42.5 415.875 C45.92426444 415.07449059 45.92426444 415.07449059 48.875 414 C51.40810767 413.18940555 53.71058285 412.65698589 56.3125 412.1875 C61.7889884 411.14318464 67.05806897 409.56684738 72.38989258 407.9621582 C77.238262 406.50631174 82.10109906 405.14993679 87 403.875 C90.9925631 402.82942909 94.91751408 401.73926827 98.8125 400.375 C101.67847063 399.38089949 104.45388768 398.67115276 107.4375 398.125 C113.28427061 397.04602183 118.95656376 395.39693528 124.66772461 393.76416016 C125.78546265 393.44584229 125.78546265 393.44584229 126.92578125 393.12109375 C127.59005127 392.9295874 128.25432129 392.73808105 128.9387207 392.54077148 C131.2690037 391.92942755 133.63764292 391.47247142 136 391 C95.41 390.67 54.82 390.34 13 390 C12.16099921 383.28799366 11.70958386 376.8606737 11.5 370.125 C11.43800415 368.22560669 11.43800415 368.22560669 11.37475586 366.2878418 C10.90909158 351.23379379 10.73639508 336.17314494 10.50588989 321.11413574 C10.05666641 292.39482984 9.07383463 263.70204871 8 235 C5.96007236 238.9922319 4.35725911 242.74959311 3.125 247.0625 C0.27252513 256.5852108 -3.08040171 265.76802525 -7.88671875 274.48828125 C-9.09004492 277.20315398 -9.72459195 279.9152342 -10.40356445 282.7980957 C-11.49129293 286.81374169 -13.15445749 290.60187302 -14.75 294.4375 C-17.35888529 300.82790955 -19.86406521 307.22795577 -22.125 313.75 C-24.94776772 321.88693479 -27.9393733 329.94976518 -31 338 C-31.30164063 338.79390137 -31.60328125 339.58780273 -31.9140625 340.40576172 C-33.5776913 344.78208607 -35.24459504 349.1571498 -36.9140625 353.53125 C-38.32888084 357.23831406 -39.74009553 360.94672074 -41.1484375 364.65625 C-41.67655029 366.04614136 -41.67655029 366.04614136 -42.21533203 367.46411133 C-42.88102417 369.21630476 -43.54611237 370.96872782 -44.21044922 372.72143555 C-46.41097273 378.50921669 -48.69950792 384.2487698 -51 390 C-82.02 390 -113.04 390 -145 390 C-143.18395541 383.94651802 -141.41363428 378.18139947 -139.1875 372.3125 C-138.93033203 371.63243896 -138.67316406 370.95237793 -138.40820312 370.25170898 C-136.66379172 365.66414043 -134.84360001 361.11101447 -133 356.5625 C-130.64741638 350.75398927 -128.51734591 344.89027556 -126.4609375 338.97119141 C-123.1603272 329.51578919 -119.58902514 320.16035392 -116.05322266 310.79101562 C-114.59418533 306.92460052 -113.13967438 303.05649731 -111.6875 299.1875 C-111.44717041 298.5476416 -111.20684082 297.9077832 -110.95922852 297.24853516 C-109.59562153 293.61128992 -108.25656874 289.96611103 -106.9375 286.3125 C-105.5447715 282.4610039 -104.09993459 278.63328295 -102.625 274.8125 C-98.41687252 263.9072916 -94.31948412 252.98496204 -90.5 241.9375 C-87.98739476 234.67064473 -85.26029989 227.53649253 -82.34765625 220.421875 C-80.65915907 216.13456041 -79.22928585 211.78875983 -77.859375 207.390625 C-77 205 -77 205 -75 202 C-74.34969864 200.07749337 -73.75234776 198.13682568 -73.1875 196.1875 C-70.11669025 185.96284085 -66.59910158 176.10521264 -62.05078125 166.4453125 C-60.86313504 163.68149641 -60.21799047 161.0097483 -59.5859375 158.08203125 C-58.57765008 154.49924995 -56.87715169 151.22369315 -55.296875 147.86328125 C-52.95621071 142.69548931 -51.09615123 137.34897246 -49.33227539 131.95996094 C-47.61823704 126.7316085 -45.72169906 121.61132692 -43.6875 116.5 C-41.07845194 109.86912917 -38.6180098 103.20369054 -36.27246094 96.47558594 C-31.1436779 81.78213202 -25.72726741 67.17087026 -19.875 52.75 C-18.63267052 49.6739922 -17.51455624 46.59571538 -16.5 43.4375 C-15.26886297 39.61626593 -13.71705589 36.04357298 -11.96484375 32.43359375 C-10.89737576 29.74115425 -10.26920085 27.01726169 -9.59594727 24.20532227 C-8.53376211 20.2746715 -7.00507863 16.52844008 -5.5 12.75 C-5.19191406 11.96109375 -4.88382813 11.1721875 -4.56640625 10.359375 C-3.16746203 6.80497596 -1.7125583 3.42511659 0 0 Z M231 16.875 C227.736243 20.20403214 224.65157722 23.69486683 221.54296875 27.16796875 C218.77382646 30.25188298 215.98571372 33.31748326 213.1875 36.375 C212.50373291 37.12438843 212.50373291 37.12438843 211.80615234 37.88891602 C209.81298121 40.0645192 207.80707345 42.18482039 205.67578125 44.2265625 C203.77106282 45.83562129 203.77106282 45.83562129 204 48 C202.02 48.99 202.02 48.99 200 50 C200 50.99 200 51.98 200 53 C198.515 53.495 198.515 53.495 197 54 C195.31784035 55.62168112 195.31784035 55.62168112 193.6875 57.625 C193.07519531 58.34558594 192.46289062 59.06617188 191.83203125 59.80859375 C191.22746094 60.53175781 190.62289062 61.25492188 190 62 C186.47191344 66.17732283 182.86940147 70.13059853 179 74 C177.7625 75.485 177.7625 75.485 176.5 77 C174.13491821 79.83809815 171.60966825 82.39033175 169 85 C168.67 85.66 168.34 86.32 168 87 C166.515 87.495 166.515 87.495 165 88 C164.505 89.485 164.505 89.485 164 91 C163.01 91.66 162.02 92.32 161 93 C161 93.66 161 94.32 161 95 C160.01 95.33 159.02 95.66 158 96 C158 96.99 158 97.98 158 99 C157.43925781 99.22429687 156.87851562 99.44859375 156.30078125 99.6796875 C153.31494172 101.39312343 151.46645963 103.54816061 149.1875 106.125 C148.31480469 107.10855469 147.44210937 108.09210938 146.54296875 109.10546875 C145.70378906 110.06066406 144.86460937 111.01585937 144 112 C143.29488281 112.77988281 142.58976563 113.55976563 141.86328125 114.36328125 C140.94095703 115.39001953 140.94095703 115.39001953 140 116.4375 C139.195625 117.33275391 139.195625 117.33275391 138.375 118.24609375 C136.94195718 120.07403758 135.96358988 121.89214713 135 124 C134.34 124 133.68 124 133 124 C131.29515534 125.68522729 131.29515534 125.68522729 129.5625 127.8125 C126.15582391 131.85194962 126.15582391 131.85194962 124.27734375 133.63671875 C122.77208919 134.93187886 122.77208919 134.93187886 123 137 C121.515 137.495 121.515 137.495 120 138 C118.78286809 139.71056377 117.56969267 141.42439755 116.39453125 143.1640625 C115.01798148 144.97632691 113.66346204 146.23150848 111.875 147.625 C109.05767778 149.95235314 107.7755791 151.87159873 106 155 C104.515 155.99 104.515 155.99 103 157 C103 157.66 103 158.32 103 159 C102.34 159 101.68 159 101 159 C98.60397302 162.68552952 98.82099061 166.13646192 99.01660156 170.36352539 C99.04239729 171.10735851 99.06819302 171.85119164 99.09477043 172.61756516 C99.18356422 175.11139531 99.28733406 177.6043878 99.390625 180.09765625 C99.45639794 181.88429365 99.52105786 183.67097232 99.58468628 185.45768738 C99.72333027 189.30645173 99.86790948 193.15492798 100.01715088 197.0032959 C100.41542907 207.29942051 100.77402683 217.59696768 101.1328125 227.89453125 C101.17016888 228.95786053 101.20752525 230.0211898 101.24601364 231.11674118 C102.20119949 258.4282604 102.76720277 285.74713688 103.2966671 313.06971455 C103.36912074 316.78385239 103.44388859 320.4979421 103.51883316 324.21203041 C103.56827968 326.72482035 103.61355236 329.23765883 103.65841675 331.75053406 C103.83939023 341.19456774 104.27409806 350.5810062 105 360 C107.36985822 357.63014178 107.55790233 356.28921518 108.3125 353.0625 C109.33438435 349.11291699 110.55431392 345.55479331 112.3125 341.875 C114.44453688 337.38249371 116.19357279 332.82211555 117.8125 328.125 C120.09279428 321.51565703 122.49705275 314.96589732 125 308.4375 C125.33974854 307.55094727 125.67949707 306.66439453 126.02954102 305.75097656 C126.70111812 303.99942869 127.37290742 302.24796216 128.04492188 300.49658203 C132.30035046 289.37285691 136.49613524 278.22030051 140.40234375 266.96875 C143.03020885 259.41670382 145.76623466 251.98295246 148.91796875 244.62890625 C149.89644419 242.25159949 150.72652931 239.88754404 151.5 237.4375 C152.60882028 233.94630014 154.01340052 230.69449888 155.5625 227.375 C157.4658139 223.29162922 158.78130783 219.34159085 160 215 C160.81511426 212.99250575 161.65038485 210.99313786 162.5 209 C164.32750774 204.70562321 165.75023489 200.49915439 167 196 C167.96064794 193.47307824 168.97458281 190.97164027 169.99609375 188.46875 C173.24518163 180.47877515 176.09052771 172.31977494 179.00390625 164.203125 C180.61605013 159.72705493 182.27084682 155.28260308 184.0625 150.875 C185.32834599 147.757177 186.47268797 144.64160294 187.5 141.4375 C188.46043651 138.46201644 189.57098207 135.65173536 190.88671875 132.81640625 C192.99349588 128.13216857 194.67699405 123.36500263 196.3125 118.5 C198.58328794 111.86011678 201.01860488 105.33910746 203.75 98.875 C205.87690589 93.84055628 207.74074296 88.86088739 209.19140625 83.58984375 C210.48375584 79.45057911 212.1709344 75.46799751 213.80883789 71.45654297 C215.14785053 68.16544565 216.42449872 64.88654868 217.5 61.5 C218.7910185 57.43482865 220.38857727 53.50856328 222 49.5625 C224.03720101 44.57157339 225.76958916 39.59878145 227.21484375 34.40625 C228.45087741 30.61820654 230.22626116 27.09417683 231.92578125 23.49609375 C233.13575501 20.68455473 233.75259964 18.05127109 234 15 C232.66467886 14.88600981 232.66467886 14.88600981 231 16.875 Z M53 109 C54 111 54 111 54 111 Z M52 111 C53 113 53 113 53 113 Z " fill="#020202" transform="translate(785,76)"/>
<path d="M0 0 C32.67 0 65.34 0 99 0 C100.0850696 4.34027841 99.85470427 7.95412026 99.4765625 12.33984375 C99.34174381 14.04516182 99.20698047 15.75048427 99.07226562 17.45581055 C98.99919189 18.34988617 98.92611816 19.24396179 98.85083008 20.16513062 C97.76424078 33.50448266 96.81509802 46.80526823 96.5 60.1875 C96.22634648 71.25952123 95.28013307 82.17021449 94.08813477 93.17871094 C93.18082133 101.69461525 92.62830568 110.1548158 92.34594727 118.7121582 C92.10818158 125.52387278 91.5795377 132.2776184 90.9375 139.0625 C90.14962591 147.41579596 89.73806123 155.60340718 90 164 C93.30338544 157.24430602 95.84751631 150.54251514 97.96875 143.33203125 C100.19756067 136.13060891 103.12148765 129.17494974 105.9375 122.1875 C109.39061328 113.59682794 112.76230784 104.93208026 115.625 96.125 C117.18696406 91.3217348 119.09177824 86.67450296 121 82 C124.61748277 73.10618877 128.05436633 64.18864796 131.24462891 55.13037109 C132.82884348 50.66241492 134.44660534 46.20657334 136.0625 41.75 C136.3910498 40.83919678 136.71959961 39.92839355 137.05810547 38.98999023 C138.65429976 34.59028527 140.29716073 30.22080506 142.0546875 25.8828125 C144.18000314 20.62575278 146.01324636 15.28667674 147.79882812 9.90625 C148.16331055 8.84277344 148.16331055 8.84277344 148.53515625 7.7578125 C148.745354 7.1302002 148.95555176 6.50258789 149.17211914 5.85595703 C150.28306337 3.36542386 150.99233859 1.92223228 153 0 C156.0497239 -0.38069168 158.73660284 -0.50572371 161.78588867 -0.45410156 C163.13253853 -0.45497772 163.13253853 -0.45497772 164.50639343 -0.45587158 C167.47731027 -0.45308223 170.44722694 -0.42195001 173.41796875 -0.390625 C175.47633821 -0.38316564 177.53471477 -0.37747127 179.59309387 -0.37347412 C185.01349458 -0.35819382 190.43346726 -0.31889117 195.85369873 -0.2746582 C201.38352671 -0.23375726 206.91342377 -0.21547416 212.44335938 -0.1953125 C223.29576108 -0.1523994 234.14784496 -0.08411895 245 0 C244.2912222 4.56821309 243.20031439 8.64640386 241.625 13 C240.99464844 14.7634375 240.99464844 14.7634375 240.3515625 16.5625 C239 20 239 20 237.390625 23.20703125 C235.99084801 26.01838111 235.35317477 28.67811668 234.6640625 31.7265625 C233.57214604 35.46477062 231.81667166 38.89038056 230.16015625 42.40625 C228.76156281 45.53307169 227.90050051 48.69816481 227 52 C226.41228492 53.53555901 225.8047952 55.06361715 225.18359375 56.5859375 C218.76105208 72.47099499 212.63169432 88.54214453 207.4375 104.875 C206.03371569 109.17772351 204.10427436 113.20280024 202.1953125 117.30078125 C200.83990641 120.36151853 199.75975492 123.44079412 198.7734375 126.63671875 C197.8770976 129.37553512 196.86221196 132.06404152 195.84277344 134.7590332 C194.96247052 137.09979232 194.10208974 139.44712363 193.24609375 141.796875 C192.80040039 143.01697266 192.80040039 143.01697266 192.34570312 144.26171875 C191.73474232 145.93561996 191.12539505 147.61011089 190.51757812 149.28515625 C190.22173828 150.09339844 189.92589844 150.90164062 189.62109375 151.734375 C189.3573999 152.45850586 189.09370605 153.18263672 188.82202148 153.92871094 C188 156 188 156 186.95239258 158.07495117 C185.85978431 160.2834147 185.28631295 162.5333981 184.63867188 164.90283203 C183.28597684 169.34459439 181.46811124 173.62726943 179.75 177.9375 C178.9393375 179.99188514 178.12944485 182.04657422 177.3203125 184.1015625 C176.92489258 185.10477539 176.52947266 186.10798828 176.12207031 187.14160156 C171.38153018 199.08932381 171.38153018 199.08932381 167.4375 211.3125 C166.46708839 214.72586642 165.21801485 217.79851167 163.6875 221 C161.01189735 226.66550802 159.10045716 232.48906319 157.1652832 238.43530273 C154.81229519 245.6479375 152.10397618 252.60544621 148.9375 259.5 C147.17202913 263.40876625 145.95321415 267.35002558 144.77734375 271.46875 C143.74011734 274.84625108 142.41849427 278.07449689 141.07202148 281.33862305 C140.10941041 283.72838012 139.21207906 286.12552614 138.34375 288.55078125 C135.44405473 296.56916847 132.44628878 304.55084724 129.4543457 312.53515625 C128.43479254 315.25722857 127.41758365 317.98017 126.40039062 320.703125 C125.74493589 322.45317902 125.0893418 324.20318086 124.43359375 325.953125 C124.13351913 326.75743958 123.83344452 327.56175415 123.52427673 328.39044189 C121.7992627 332.98447026 119.95232476 337.49809323 118 342 C117.49787337 343.45058804 117.0149197 344.90814854 116.5625 346.375 C115.57050646 349.44398002 114.43136428 352.33046915 113.0625 355.25 C110.88096192 359.98776782 109.45265646 364.876714 108.02734375 369.88671875 C106.96097683 373.11825651 105.54102454 375.97094911 104 379 C103.17467118 381.33292945 102.45922528 383.67782788 101.74609375 386.046875 C101 388 101 388 99 390 C97.19216728 390.24609566 97.19216728 390.24609566 94.96310425 390.24050903 C94.11893951 390.24325836 93.27477478 390.24600769 92.4050293 390.24884033 C91.477146 390.24164978 90.5492627 390.23445923 89.59326172 390.22705078 C88.61761261 390.22734283 87.6419635 390.22763489 86.63674927 390.22793579 C83.40097259 390.22653868 80.16542412 390.21095951 76.9296875 390.1953125 C74.69052252 390.19158373 72.45135591 390.18873612 70.21218872 390.18673706 C64.3102368 390.17908992 58.40838286 390.15943215 52.50646973 390.1373291 C46.48739955 390.11689392 40.46831359 390.10774033 34.44921875 390.09765625 C22.63276938 390.07618729 10.81639283 390.04203833 -1 390 C-0.84411556 386.94745011 -0.68695184 383.89497508 -0.52905273 380.8425293 C-0.4852523 379.98223869 -0.44145187 379.12194809 -0.39632416 378.23558807 C-0.09362901 372.40942716 0.34965984 366.61682418 0.9375 360.8125 C2.13729932 348.14243875 2.67332791 335.43784458 3.21459961 322.72583008 C3.57847458 314.52986394 4.11784144 306.41661242 5.0625 298.265625 C5.88937445 291.11335299 6.07718399 284.21457276 5.9765625 277.01025391 C5.94413519 269.71253312 6.79803113 262.44353398 7.5 255.1875 C8.39922643 245.78183292 9.27695529 236.4639212 9 227 C8.40251953 228.84464844 8.40251953 228.84464844 7.79296875 230.7265625 C7.25805578 232.35945472 6.72288592 233.99226279 6.1875 235.625 C5.92646484 236.43324219 5.66542969 237.24148438 5.39648438 238.07421875 C3.90455129 242.6052748 2.16703748 246.74065046 0 251 C-0.95540868 253.55599277 -1.87084815 256.10605104 -2.75 258.6875 C-3.2749034 260.2009161 -3.80099033 261.71392212 -4.328125 263.2265625 C-4.60076172 264.0093457 -4.87339844 264.79212891 -5.15429688 265.59863281 C-7.40288325 271.98347565 -9.77689224 278.3236614 -12.13427734 284.66894531 C-12.71126811 286.22255723 -13.2871154 287.7765943 -13.86181641 289.33105469 C-14.67631319 291.53410144 -15.49389668 293.73597634 -16.3125 295.9375 C-16.55484375 296.59371338 -16.7971875 297.24992676 -17.046875 297.92602539 C-17.9503531 300.34519009 -18.84964324 302.71111229 -20.04296875 305.00390625 C-21.1257469 307.2622721 -21.73405892 309.55985374 -22.39257812 311.96972656 C-23.60499276 316.02215425 -25.21583401 319.93584686 -26.75 323.875 C-29.33386661 330.5707633 -31.8403426 337.28009423 -34.1875 344.0625 C-36.22062228 349.92898316 -38.46817011 355.65360253 -40.9140625 361.36328125 C-42.19785522 364.48040385 -43.22997958 367.64081639 -44.25 370.8515625 C-45.29978206 373.8587507 -46.64527152 376.7029088 -48.03515625 379.56640625 C-49.36770188 382.9274424 -50.12309898 386.49239591 -51 390 C-82.02 390 -113.04 390 -145 390 C-143.62516128 383.81322574 -142.57549526 379.52475294 -140.0625 374 C-138.03398211 369.42232766 -136.21320803 364.91254316 -134.7109375 360.140625 C-133.61974317 356.85505085 -132.27621863 353.67694489 -130.96875 350.47265625 C-130.05757745 348.1469618 -129.26107866 345.81587082 -128.5 343.4375 C-127.49133736 340.31229935 -126.30629381 337.3600817 -124.9375 334.375 C-123.23513855 330.64786017 -122.06207531 326.96508116 -121 323 C-118.7073195 315.59394724 -115.8915966 308.4222461 -112.84375 301.296875 C-109.43402954 293.29714622 -106.53131786 285.16668788 -103.68017578 276.95654297 C-101.6185388 271.02619166 -99.56686735 265.14273105 -96.9375 259.4375 C-95.53306248 256.37277782 -94.47231527 253.3706893 -93.5625 250.125 C-92.24566919 245.48371107 -90.3903425 241.26669725 -88.28125 236.93359375 C-86.57967176 233.0376021 -85.29720567 229.04562887 -84 225 C-78.17112585 206.92614023 -78.17112585 206.92614023 -74.078125 198.3515625 C-72.77277242 195.50438043 -71.81905927 192.62299405 -70.875 189.640625 C-67.94856144 180.80905149 -64.48715952 172.13217714 -60.9934082 163.51245117 C-59.98988925 160.97442867 -59.04525772 158.4219927 -58.1171875 155.85546875 C-57.76736816 154.88939697 -57.41754883 153.9233252 -57.05712891 152.92797852 C-56.70827637 151.96174561 -56.35942383 150.9955127 -56 150 C-49.80444271 132.84442814 -43.56265722 115.70977127 -36.6875 98.8125 C-34.79566226 94.13108918 -33.20446158 89.49876665 -31.8359375 84.64453125 C-30.1333912 79.25843852 -27.87397886 74.06237436 -25.7421875 68.83447266 C-23.75350963 63.91903664 -21.88974016 58.95404257 -20 54 C-19.36210742 52.33719038 -18.72407585 50.67443407 -18.0859375 49.01171875 C-14.63166923 39.99600509 -11.22905447 30.97190432 -8.015625 21.8671875 C-7.1791674 19.50580336 -6.32222298 17.1560747 -5.4375 14.8125 C-3.58187015 9.89104693 -1.79745359 4.94299738 0 0 Z " fill="#020202" transform="translate(422,76)"/>
<path d="M0 0 C30.69 0 61.38 0 93 0 C92.29301011 3.53494943 91.58378719 6.41787143 90.36328125 9.73828125 C89.87287354 11.07995361 89.87287354 11.07995361 89.37255859 12.44873047 C89.02273926 13.39377441 88.67291992 14.33881836 88.3125 15.3125 C87.95236816 16.2936377 87.59223633 17.27477539 87.22119141 18.28564453 C84.68195062 25.19107208 82.11576586 32.08638985 79.51855469 38.97021484 C78.32225394 42.14154834 77.13385501 45.31577777 75.94786072 48.49098206 C73.5782116 54.83029115 71.18020411 61.15781414 68.74609375 67.47265625 C68.33843781 68.53166138 68.33843781 68.53166138 67.92254639 69.61206055 C66.817492 72.48241219 65.71231544 75.35270062 64.60180664 78.22094727 C61.21157726 86.98276046 58.00118226 95.76128262 55.11767578 104.70385742 C53.67768659 108.95053591 51.95429077 113.04523153 50.1875 117.1640625 C48.64130588 120.8566182 47.29941019 124.60847936 45.95703125 128.37890625 C45.07187496 130.80315062 44.11485083 133.17952578 43.125 135.5625 C41.20220178 140.28278112 39.63613237 145.09318074 38.0625 149.9375 C36.08769266 156.00681618 33.92734777 161.81603099 31.078125 167.54296875 C29.7280475 170.61977581 28.91723661 173.76882558 28 177 C27.11399786 179.32442127 26.19572969 181.63673287 25.25 183.9375 C23.10774409 189.20138519 21.04053881 194.48471707 19.0625 199.8125 C16.5995311 206.44589978 14.0522333 213.04323714 11.44750977 219.62231445 C9.7413185 223.96593688 8.18877085 228.33603401 6.73461914 232.77026367 C3.72376934 241.90887825 0.50338343 250.9945478 -3.14453125 259.8984375 C-4.18492596 262.45429299 -5.13575436 265.04127672 -6.09375 267.62890625 C-7.06293191 270.16465375 -8.07712803 272.68082491 -9.09521484 275.19726562 C-11.88774553 282.10077917 -14.48617664 289.03505049 -16.921875 296.07421875 C-18 299 -18 299 -19.015625 300.95703125 C-20.09640687 303.20008251 -20.689872 305.46367543 -21.34375 307.85888672 C-22.77434412 312.52641291 -24.6920857 317.03116208 -26.5 321.5625 C-28.79690485 327.3414539 -31.05928228 333.09035545 -33 339 C-34.22333209 342.30187774 -35.48776744 345.58783049 -36.75 348.875 C-37.46766618 350.75382289 -38.1851119 352.63273001 -38.90234375 354.51171875 C-39.90430032 357.13393798 -40.90655408 359.75603851 -41.91064453 362.37744141 C-44.63944647 369.51151249 -47.34711684 376.60609507 -49.359375 383.984375 C-50 386 -50 386 -52 390 C-98.53 390.495 -98.53 390.495 -146 391 C-145.31491024 387.57455119 -144.67958544 384.8592731 -143.4765625 381.671875 C-143.1775 380.87136719 -142.8784375 380.07085937 -142.5703125 379.24609375 C-142.25835938 378.42238281 -141.94640625 377.59867187 -141.625 376.75 C-139.81527999 371.94197269 -138.02526291 367.14054826 -136.42578125 362.2578125 C-135.29025963 358.80437525 -134.00515956 355.46440214 -132.5625 352.125 C-130.53426318 347.33981853 -128.70207688 342.51947061 -126.95703125 337.625 C-126.06643301 335.18221626 -125.11220762 332.78004901 -124.125 330.375 C-122.29441487 325.85955667 -120.66858905 321.28610935 -119.0625 316.6875 C-116.51637951 309.40024519 -113.79459014 302.19585597 -111 295 C-110.01499445 292.43952236 -109.03401894 289.87807371 -108.0625 287.3125 C-107.68544922 286.31706177 -107.68544922 286.31706177 -107.30078125 285.30151367 C-105.37981824 280.16404022 -103.67860875 274.97075308 -102 269.75 C-99.93820136 263.35197047 -97.40038279 257.54209604 -94.23828125 251.59375 C-92.76125581 248.49991753 -92.14654643 245.60606953 -91.546875 242.25390625 C-90.90169388 239.59483836 -89.86564352 237.34401065 -88.6875 234.875 C-86.38569093 230.03650338 -84.65623156 225.15244251 -83.02075195 220.05371094 C-81.08214849 214.0839239 -78.82514561 208.25763495 -76.49853516 202.42944336 C-75.04831701 198.77807561 -73.68955213 195.12696505 -72.47265625 191.390625 C-71.20945863 187.5318729 -69.70979695 183.83906474 -68.0625 180.125 C-65.05137208 173.20613038 -62.37188301 166.22763947 -60.04296875 159.05078125 C-59.00914762 156.02675764 -57.82397861 153.12309042 -56.5625 150.1875 C-54.73781326 145.85855111 -53.11108844 141.53596354 -51.671875 137.06640625 C-49.88963486 131.58498165 -47.70377841 126.29684426 -45.4375 121 C-44.02923705 117.66112138 -42.76384108 114.48026767 -42 110.9375 C-41.28292638 107.6497851 -40.0699545 104.8512831 -38.625 101.8125 C-36.2423831 96.76163084 -34.60683629 91.6853071 -33.03125 86.3359375 C-30.59264632 78.44742409 -27.423086 70.84774765 -24.01196289 63.3371582 C-23.02185746 61.05048045 -22.1523543 58.75593173 -21.3125 56.41015625 C-18.56694632 48.79440005 -15.78246973 41.1931893 -12.99145508 33.59399414 C-12.37294308 31.90848799 -11.75542728 30.22261594 -11.13891602 28.53637695 C-10.23184929 26.05587143 -9.32132226 23.57665849 -8.41015625 21.09765625 C-8.14227798 20.36289566 -7.87439972 19.62813507 -7.59840393 18.87110901 C-5.24516885 12.48677448 -2.62511117 6.30026681 0 0 Z " fill="#030303" transform="translate(678,76)"/>
<path d="M0 0 C29.7 0 59.4 0 90 0 C89.67 0.66 89.34 1.32 89 2 C87.35295578 2.01213028 87.35295578 2.01213028 85.67263794 2.02450562 C75.34242245 2.10187256 65.0123402 2.1895876 54.68229866 2.28752708 C49.37107091 2.3375479 44.05986361 2.38387727 38.74853516 2.421875 C33.62617629 2.4586549 28.5039862 2.50499462 23.38177109 2.55806351 C21.42411118 2.57664637 19.46641504 2.59173981 17.50870132 2.60334396 C14.77401564 2.62014007 12.03971983 2.6491584 9.30517578 2.68115234 C8.08166412 2.68439262 8.08166412 2.68439262 6.83343506 2.68769836 C2.44868676 2.58322577 2.44868676 2.58322577 -1 5 C-0.67 3.35 -0.34 1.7 0 0 Z " fill="#272727" transform="translate(1035,295)"/>
<path d="M0 0 C0.99 0.33 1.98 0.66 3 1 C2.21572648 2.64936913 1.42234741 4.29441127 0.625 5.9375 C0.18414062 6.85402344 -0.25671875 7.77054687 -0.7109375 8.71484375 C-2 11 -2 11 -4 12 C-3.34 10.35 -2.68 8.7 -2 7 C-2.66 7 -3.32 7 -4 7 C-4 6.34 -4 5.68 -4 5 C-3.34 5 -2.68 5 -2 5 C-1.34 3.35 -0.68 1.7 0 0 Z " fill="#848484" transform="translate(265,331)"/>
<path d="M0 0 C0.33 0.66 0.66 1.32 1 2 C-0.92333011 6.06036357 -3.40069448 8.37347975 -7 11 C-7 7.22089522 -6.00296038 6.53893899 -3.5 3.8125 C-2.8503125 3.09707031 -2.200625 2.38164062 -1.53125 1.64453125 C-1.0259375 1.10183594 -0.520625 0.55914062 0 0 Z " fill="#707070" transform="translate(260,338)"/>
<path d="M0 0 C0.66 0 1.32 0 2 0 C1.67 3.3 1.34 6.6 1 10 C0.34 8.68 -0.32 7.36 -1 6 C-1.66 6.66 -2.32 7.32 -3 8 C-2.45276317 4.62537285 -1.9451 2.91765 0 0 Z " fill="#7E7E7E" transform="translate(432,297)"/>
<path d="M0 0 C1 2 1 2 0.22265625 4.3828125 C-0.16019531 5.28773438 -0.54304687 6.19265625 -0.9375 7.125 C-1.31777344 8.03507813 -1.69804687 8.94515625 -2.08984375 9.8828125 C-2.39019531 10.58148438 -2.69054687 11.28015625 -3 12 C-3.33 12 -3.66 12 -4 12 C-4 10.02 -4 8.04 -4 6 C-3.34 6 -2.68 6 -2 6 C-1.855625 5.195625 -1.71125 4.39125 -1.5625 3.5625 C-1 1 -1 1 0 0 Z " fill="#808080" transform="translate(513,239)"/>
<path d="M0 0 C2.31 0 4.62 0 7 0 C7 0.66 7 1.32 7 2 C5.576875 2.185625 5.576875 2.185625 4.125 2.375 C0.91332809 2.71687177 0.91332809 2.71687177 -1 5 C-0.67 3.35 -0.34 1.7 0 0 Z " fill="#494949" transform="translate(1035,295)"/>
</svg>
