<?xml version="1.0" standalone="no"?>
<!DOCTYPE svg PUBLIC "-//W3C//DTD SVG 20010904//EN"
 "http://www.w3.org/TR/2001/REC-SVG-20010904/DTD/svg10.dtd">
<svg version="1.0" xmlns="http://www.w3.org/2000/svg"
 width="1378.000000pt" height="580.000000pt" viewBox="0 0 1378.000000 580.000000"
 preserveAspectRatio="xMidYMid meet">

<g transform="translate(0.000000,580.000000) scale(0.100000,-0.100000)"
fill="#000000" stroke="none">
<path d="M1960 5615 c0 -18 128 -383 410 -1165 177 -492 388 -1084 470 -1315
169 -478 230 -643 293 -800 l45 -110 371 -3 370 -2 15 22 c8 13 181 442 384
953 203 512 439 1103 525 1315 85 212 158 405 162 430 3 25 9 53 11 63 5 16
179 17 3464 17 3285 0 3459 1 3464 18 11 42 17 89 31 277 8 110 18 224 21 253
l5 52 -3759 0 -3759 0 -36 -77 c-41 -88 -427 -1058 -668 -1678 -148 -379 -201
-497 -217 -481 -3 4 -185 507 -403 1119 l-397 1112 -401 3 c-221 1 -401 0
-401 -3z"/>
<path d="M10582 4689 c-194 -23 -396 -102 -529 -209 -133 -106 -231 -258 -253
-391 -16 -96 -8 -288 15 -354 24 -70 113 -201 177 -262 95 -89 162 -115 628
-243 428 -117 444 -123 506 -184 59 -60 73 -110 52 -185 -12 -41 -18 -46 -97
-87 -101 -52 -154 -64 -269 -64 -156 1 -269 31 -355 94 -17 12 -48 58 -73 109
l-44 87 -321 0 -322 0 7 -74 c24 -264 200 -495 481 -632 180 -87 338 -118 620
-118 234 0 323 11 490 65 201 65 355 198 448 384 60 119 88 315 67 465 -37
267 -208 452 -515 557 -38 13 -158 46 -265 74 -416 108 -494 140 -547 227 -28
45 -29 99 -4 129 24 29 103 69 161 82 95 22 306 8 390 -25 35 -14 46 -27 75
-83 18 -36 45 -77 60 -91 l27 -25 299 1 c165 1 302 4 305 6 13 14 -33 164 -78
256 -112 228 -318 377 -635 458 -158 40 -338 52 -501 33z"/>
<path d="M5257 4173 c-547 -1376 -681 -1716 -708 -1803 -17 -52 -34 -107 -39
-122 l-9 -28 358 0 358 0 60 168 59 167 453 0 454 0 57 -165 57 -165 362 -3
c234 -1 361 1 361 8 0 5 -81 229 -179 497 -98 269 -244 668 -324 888 -81 220
-198 540 -261 710 l-114 310 -380 3 -379 2 -186 -467z m620 -613 c60 -174 122
-370 159 -502 5 -17 -11 -18 -247 -18 l-252 0 7 43 c4 23 54 177 111 342 129
372 123 357 137 353 6 -2 44 -101 85 -218z"/>
<path d="M7320 3430 l0 -1210 319 0 319 0 6 363 c3 199 9 455 12 569 l6 207
122 -166 c116 -160 294 -398 438 -588 38 -49 89 -130 114 -180 91 -180 158
-204 577 -205 l187 0 0 1210 0 1210 -329 0 -329 0 -6 -397 c-3 -219 -9 -497
-14 -618 l-7 -219 -234 374 c-136 218 -262 432 -302 514 -56 114 -85 161 -155
244 l-85 102 -320 0 -319 0 0 -1210z"/>
<path d="M11798 2463 c-35 -22 -53 -66 -51 -126 1 -59 21 -91 74 -118 70 -35
166 -3 195 66 23 55 9 139 -28 170 -25 21 -40 25 -96 25 -45 0 -76 -6 -94 -17z
m142 -33 c0 -5 -22 -10 -50 -10 -27 0 -50 5 -50 10 0 6 23 10 50 10 28 0 50
-4 50 -10z m-120 -82 l0 -71 -21 19 c-17 16 -20 26 -15 62 6 48 12 62 27 62 5
0 9 -32 9 -72z m160 2 c0 -44 -2 -50 -21 -50 -19 0 -20 4 -14 43 8 48 12 57
26 57 5 0 9 -22 9 -50z m-47 -69 c4 -4 5 -16 1 -25 -6 -15 -14 -17 -53 -11
-58 9 -61 12 -31 36 24 18 64 19 83 0z"/>
<path d="M1395 1306 c-197 -39 -331 -131 -404 -278 -55 -114 -73 -198 -69
-328 3 -100 5 -109 45 -193 58 -120 135 -197 257 -258 l89 -44 166 0 c146 0
175 3 241 23 144 45 252 128 305 231 54 109 76 194 76 296 0 226 -107 398
-303 489 -51 24 -113 48 -138 54 -79 19 -191 22 -265 8z m200 -287 c26 -7 57
-28 87 -59 55 -57 73 -89 92 -164 12 -45 12 -63 2 -103 -17 -64 -40 -106 -83
-154 -42 -47 -89 -62 -194 -62 -61 -1 -83 4 -112 22 -47 29 -91 80 -123 143
-23 46 -26 61 -22 123 6 93 38 166 88 200 84 58 178 78 265 54z"/>
<path d="M203 1128 c4 -95 10 -199 13 -230 l7 -58 119 0 119 0 -6 53 c-6 57
-35 381 -35 397 0 6 -45 10 -112 10 l-111 0 6 -172z"/>
<path d="M523 1128 c4 -95 10 -199 13 -230 l7 -58 119 0 119 0 -6 53 c-6 57
-35 381 -35 397 0 6 -45 10 -112 10 l-111 0 6 -172z"/>
<path d="M2260 760 l0 -540 160 0 160 0 0 180 0 180 260 0 260 0 0 140 0 140
-260 0 -260 0 0 80 0 80 290 0 290 0 0 140 0 140 -450 0 -450 0 0 -540z"/>
<path d="M3300 760 l0 -540 160 0 160 0 0 180 0 180 260 0 260 0 0 140 0 140
-260 0 -260 0 0 80 0 80 280 0 280 0 0 140 0 140 -440 0 -440 0 0 -540z"/>
<path d="M4680 1160 l0 -140 170 0 170 0 0 -400 0 -400 160 0 160 0 0 400 0
400 160 0 160 0 0 140 0 140 -490 0 -490 0 0 -140z"/>
<path d="M5840 760 l0 -540 160 0 160 0 0 200 0 200 180 0 180 0 0 -200 0
-200 160 0 160 0 0 540 0 540 -160 0 -160 0 0 -200 0 -200 -180 0 -180 0 0
200 0 200 -160 0 -160 0 0 -540z"/>
<path d="M7020 760 l0 -540 450 0 450 0 0 130 0 130 -290 0 -290 0 0 70 0 70
260 0 260 0 0 130 0 130 -260 0 -260 0 0 70 0 70 280 0 280 0 0 140 0 140
-440 0 -440 0 0 -540z"/>
<path d="M8360 1266 c0 -34 247 -778 318 -961 l40 -100 140 -3 140 -3 30 73
c16 40 60 160 97 266 38 105 72 192 76 192 13 0 36 -50 75 -166 20 -59 60
-164 88 -233 l52 -126 141 -3 141 -3 40 118 c181 530 256 757 285 862 l35 121
-169 0 c-93 0 -169 -2 -169 -5 0 -27 -169 -525 -179 -525 -3 0 -26 57 -50 128
-25 70 -68 188 -97 262 l-52 135 -140 3 -140 3 -87 -263 c-48 -145 -91 -267
-95 -272 -12 -12 -23 14 -69 169 -24 77 -58 191 -77 253 l-35 112 -170 0 -169
0 0 -34z"/>
<path d="M10307 1178 c-106 -237 -251 -575 -328 -765 l-77 -193 167 0 167 0
39 79 38 79 86 6 c47 3 138 9 202 12 l117 6 27 -83 c15 -46 31 -87 34 -92 4
-4 87 -6 183 -5 l176 3 -45 110 c-64 157 -249 590 -337 790 l-75 170 -159 3
-159 2 -56 -122z m271 -418 l41 -120 -100 0 -99 0 0 36 c0 21 16 73 38 120 30
67 41 84 59 84 18 0 27 -16 61 -120z"/>
<path d="M11260 760 l0 -540 420 0 420 0 0 130 0 130 -260 0 -260 0 0 410 0
410 -160 0 -160 0 0 -540z"/>
<path d="M12240 760 l0 -540 420 0 420 0 0 130 0 130 -260 0 -260 0 0 410 0
410 -160 0 -160 0 0 -540z"/>
<path d="M13020 1285 c0 -20 -28 -339 -35 -397 l-6 -48 119 0 119 0 7 68 c3
37 9 140 13 230 l6 162 -111 0 c-92 0 -112 -3 -112 -15z"/>
<path d="M13340 1285 c0 -20 -28 -339 -35 -397 l-6 -48 119 0 119 0 7 68 c3
37 9 140 13 230 l6 162 -111 0 c-92 0 -112 -3 -112 -15z"/>
</g>
</svg>
