<?xml version="1.0" encoding="UTF-8"?>
<svg version="1.1" xmlns="http://www.w3.org/2000/svg" width="1000" height="800">
<path d="M0 0 C13.2 0 26.4 0 40 0 C53.33333333 37.33333333 66.66666667 74.66666667 80 112 C82.08086425 109.91913575 82.66972948 108.66410359 83.71386719 105.96411133 C84.04391754 105.11874817 84.3739679 104.27338501 84.71401978 103.40240479 C85.071362 102.47168152 85.42870422 101.54095825 85.796875 100.58203125 C86.17862885 99.60111511 86.56038269 98.62019897 86.95370483 97.60955811 C87.7859525 95.47013579 88.6159199 93.32982539 89.44390869 91.18875122 C91.672222 85.42855247 93.91874673 79.6754629 96.1640625 73.921875 C96.63379486 72.71717056 97.10352722 71.51246613 97.5874939 70.27125549 C102.54754184 57.56602409 107.59146671 44.89464369 112.65734863 32.23129272 C113.63464351 29.78827907 114.61112664 27.34494053 115.58679199 24.90127563 C116.95437685 21.47637993 118.32438574 18.0524654 119.6953125 14.62890625 C120.10276703 13.60827087 120.51022156 12.5876355 120.93002319 11.53607178 C121.3064798 10.59805725 121.6829364 9.66004272 122.07080078 8.69360352 C122.3968631 7.87924332 122.72292542 7.06488312 123.05886841 6.22584534 C123.95270837 4.11184817 124.97355624 2.05288751 126 0 C250.08 0 374.16 0 502 0 C500 27 500 27 499 30 C384.82 30 270.64 30 153 30 C152.67 31.98 152.34 33.96 152 36 C151.33770752 38.07325745 151.33770752 38.07325745 150.56738281 39.97094727 C150.12736938 41.06819374 150.12736938 41.06819374 149.6784668 42.18760681 C149.19567261 43.36511253 149.19567261 43.36511253 148.703125 44.56640625 C148.1918103 45.83521385 148.1918103 45.83521385 147.67016602 47.12965393 C146.92698753 48.97204103 146.18106765 50.81332413 145.43273926 52.65362549 C143.8088819 56.64740285 142.19833002 60.64650203 140.58709717 64.64538574 C139.7280797 66.77723649 138.86840606 68.90882293 138.00811768 71.04016113 C133.48504931 82.2531021 129.03435742 93.4944021 124.58911133 104.7383728 C122.38464914 110.3134818 120.1767222 115.88721787 117.96875 121.4609375 C117.54597778 122.52819565 117.12320557 123.5954538 116.68762207 124.6950531 C113.01975419 133.95286019 109.35037274 143.21004979 105.66247559 152.4598999 C105.05942709 153.97341044 104.45727855 155.48727991 103.8560791 157.00152588 C103.04714178 159.03846846 102.23500741 161.07410418 101.421875 163.109375 C100.97424805 164.23311523 100.52662109 165.35685547 100.06542969 166.51464844 C99 169 99 169 98 170 C95.26105915 170.08858646 92.5474673 170.11523479 89.80859375 170.09765625 C88.98875504 170.0962413 88.16891632 170.09482635 87.32423401 170.09336853 C84.69528618 170.08775289 82.06642227 170.07519779 79.4375 170.0625 C77.65950643 170.05748701 75.88151154 170.05292376 74.10351562 170.04882812 C69.73564455 170.03777839 65.36783652 170.02050331 61 170 C57.39982803 161.61228936 54.17866311 153.14249238 51.15625 144.53125 C50.70628511 143.25738338 50.25598981 141.98363342 49.8053894 140.70999146 C48.8569439 138.02745324 47.91041825 135.34424944 46.96551514 132.66046143 C44.73361286 126.32184401 42.4911668 119.98695339 40.24967575 113.65172195 C39.51064533 111.56269509 38.77198619 109.4735372 38.03335571 107.3843689 C34.51997552 97.4502045 30.96997385 87.5299305 27.375 77.625 C22.09197351 63.05455171 16.85542095 48.46756142 11.63604736 33.87420654 C10.71731022 31.3055646 9.79764365 28.73725854 8.87713623 26.16925049 C7.58808233 22.57183753 6.3015213 18.97354265 5.015625 15.375 C4.62462616 14.28512787 4.23362732 13.19525574 3.83078003 12.07235718 C3.47186676 11.06621368 3.11295349 10.06007019 2.74316406 9.0234375 C2.42929749 8.14606934 2.11543091 7.26870117 1.79205322 6.36474609 C1.09203863 4.27478959 0.53456627 2.13826507 0 0 Z " fill="#030606" transform="translate(255,264)"/>
<path d="M0 0 C10.56 0 21.12 0 32 0 C40.99892956 10.60338987 40.99892956 10.60338987 43.05078125 15.5703125 C46.02606526 22.26342655 49.77523068 28.23726276 53.75 34.375 C54.91542926 36.23449631 56.0769203 38.09646694 57.234375 39.9609375 C61.81732905 47.31077875 66.4093514 54.65496224 71 62 C71.33 41.54 71.66 21.08 72 0 C82.89 0 93.78 0 105 0 C105 39.93 105 79.86 105 121 C75 121 75 121 69.125 115.3125 C67.93017578 113.30786133 67.93017578 113.30786133 67.1953125 111.45703125 C64.63236407 105.85392205 60.80310856 101.30798089 57 96.5 C51.58980872 89.46725485 46.30954147 82.36683794 41.2109375 75.10546875 C38.54086442 71.35510109 35.7622522 67.68300294 33 64 C32.67 82.81 32.34 101.62 32 121 C21.44 121 10.88 121 0 121 C0 81.07 0 41.14 0 0 Z " fill="#030606" transform="translate(523,313)"/>
<path d="M0 0 C12.54 0 25.08 0 38 0 C44.07397963 16.10310879 50.01923444 32.24555388 55.85708618 48.43557739 C58.13828937 54.76167119 60.42375768 61.08622107 62.7109375 67.41015625 C62.93721392 68.03588217 63.16349033 68.66160809 63.39662361 69.30629539 C68.23265889 82.67560232 73.13912777 96.01850796 78.08862305 109.34619141 C78.3588327 110.07540298 78.62904236 110.80461456 78.90744019 111.55592346 C79.6196013 113.47733285 80.33376301 115.39800041 81.0480957 117.31860352 C82 120 82 120 82 121 C70.12 121 58.24 121 46 121 C44.02 115.39 42.04 109.78 40 104 C25.15 104 10.3 104 -5 104 C-6.98 109.61 -8.96 115.22 -11 121 C-22.88 121 -34.76 121 -47 121 C-43.62513857 109.7504619 -43.62513857 109.7504619 -42.15332031 106.06152344 C-41.82100906 105.22251999 -41.48869781 104.38351654 -41.14631653 103.51908875 C-40.79381332 102.64138321 -40.44131012 101.76367767 -40.078125 100.859375 C-39.51281319 99.43677116 -39.51281319 99.43677116 -38.93608093 97.98542786 C-37.71122021 94.90541001 -36.48061785 91.82772153 -35.25 88.75 C-34.39351412 86.59905508 -33.53748081 84.44792989 -32.68188477 82.29663086 C-30.95043025 77.94372184 -29.2172248 73.59151627 -27.48291016 69.23974609 C-24.25752125 61.14091284 -21.06067628 53.03089277 -17.86611938 44.91986084 C-11.95992522 29.92660197 -6.00075171 14.95571965 0 0 Z M17 43 C15.28711039 47.94657616 13.57821574 52.89450704 11.87304688 57.84375 C11.29211922 59.52805031 10.71009192 61.21197176 10.12695312 62.89550781 C9.29008842 65.31216812 8.45715747 67.7301529 7.625 70.1484375 C7.36251465 70.9036972 7.1000293 71.65895691 6.82958984 72.43710327 C5.4774272 76.13287612 5.4774272 76.13287612 5 80 C13.25 80 21.5 80 30 80 C27.57207494 71.02633205 27.57207494 71.02633205 24.73828125 62.23828125 C24.34189453 61.10068359 23.94550781 59.96308594 23.53710938 58.79101562 C23.13298828 57.64310547 22.72886719 56.49519531 22.3125 55.3125 C21.89677734 54.12205078 21.48105469 52.93160156 21.05273438 51.70507812 C20.03847718 48.80220407 19.02084668 45.90056187 18 43 C17.67 43 17.34 43 17 43 Z " fill="#030606" transform="translate(429,313)"/>
<path d="M0 0 C8.03555587 7.19322639 12.58874867 15.3615754 14 26 C9.67693146 26.1983934 5.35629654 26.34319621 1.0300293 26.43945312 C-0.43984127 26.47958611 -1.90939433 26.53411158 -3.37817383 26.60351562 C-7.99654592 26.8162141 -12.437929 26.89874355 -17 26 C-19.05489901 24.10765673 -19.89853039 22.50488352 -21.00927734 19.96142578 C-21.97519401 17.61447714 -21.97519401 17.61447714 -25.30859375 16.0234375 C-29.30157069 14.91638993 -32.95167704 14.5545958 -37.0625 14.625 C-38.0844043 14.60759766 -38.0844043 14.60759766 -39.12695312 14.58984375 C-43.8089087 14.61682908 -47.04988434 15.49962961 -51 18 C-53.2408243 20.73740376 -53.2408243 20.73740376 -52.9375 23.4375 C-51.6554417 26.9417927 -50.13945175 27.99609463 -47 30 C-41.901833 32.17412561 -36.70923315 33.65876163 -31.3515625 35.05078125 C-30.65005569 35.23380798 -29.94854889 35.41683472 -29.2257843 35.60540771 C-26.29081882 36.36853793 -23.35555119 37.12929751 -20.4140625 37.86694336 C-7.2560991 41.18131025 3.58516596 44.93798586 11 57 C16.15211475 66.58179274 15.64943987 77.73342051 13 88 C9.80932358 97.20510146 3.14287178 104.04678187 -5.25390625 108.75 C-21.60286551 116.19191602 -44.00416519 116.23655451 -61 111 C-73.38614066 106.14250355 -82.70765213 99.55179882 -88.265625 87.18359375 C-90.28196115 81.96525899 -91 78.77577435 -91 73 C-80.44 73 -69.88 73 -59 73 C-57.68 75.64 -56.36 78.28 -55 81 C-50.56708271 85.55272586 -45.55637509 86.79126099 -39.31640625 87.30078125 C-27.80050607 87.54620074 -27.80050607 87.54620074 -18 82.1875 C-16.6287039 79.18778979 -16.53318848 77.26768064 -17 74 C-19.83279013 69.6091753 -22.24056682 68.13925112 -27.1875 66.625 C-27.81970459 66.42567871 -28.45190918 66.22635742 -29.10327148 66.02099609 C-33.39123916 64.69692532 -37.71899168 63.53154585 -42.0546875 62.375 C-74.95841096 53.57012894 -74.95841096 53.57012894 -84.14453125 39.2109375 C-87.73610989 31.76538178 -87.31047856 21.34840613 -84.96875 13.578125 C-79.74196192 2.13726664 -70.56224023 -4.55080462 -59 -9 C-39.47250659 -14.88659087 -16.47583407 -12.09981428 0 0 Z " fill="#030606" transform="translate(733,322)"/>
<path d="M0 0 C5.61 0 11.22 0 17 0 C17.84884766 2.79791016 17.84884766 2.79791016 18.71484375 5.65234375 C19.45556359 8.08077968 20.196458 10.50916236 20.9375 12.9375 C21.49727539 14.78504883 21.49727539 14.78504883 22.06835938 16.66992188 C22.42607422 17.83974609 22.78378906 19.00957031 23.15234375 20.21484375 C23.48226318 21.29886475 23.81218262 22.38288574 24.15209961 23.49975586 C24.76455912 25.9120764 24.76455912 25.9120764 26 27 C28.97 18.09 31.94 9.18 35 0 C39.62 0 44.24 0 49 0 C52.66739436 8.88637863 55.8412567 17.9238776 59 27 C61.28897411 21.06104015 63.29730373 15.07663097 65.1875 9 C65.46013672 8.12988281 65.73277344 7.25976562 66.01367188 6.36328125 C66.67777521 4.24281095 67.33917195 2.1214933 68 0 C73.61 0 79.22 0 85 0 C83.06083019 7.33873234 80.9019797 14.52564174 78.42578125 21.69921875 C78.09708542 22.6602803 77.76838959 23.62134186 77.42973328 24.61152649 C76.3938458 27.63795552 75.35326306 30.66274464 74.3125 33.6875 C73.60320248 35.75705416 72.89421534 37.82671473 72.18554688 39.89648438 C70.46061145 44.9322249 68.7314674 49.96650185 67 55 C62.38 55 57.76 55 53 55 C49.86606283 48.37051752 47.38744386 41.60901262 45.01904297 34.67797852 C44.00366378 31.06010752 44.00366378 31.06010752 42 28 C41.7326001 28.74685059 41.4652002 29.49370117 41.18969727 30.26318359 C39.9819192 33.63425204 38.77223411 37.00463303 37.5625 40.375 C37.14162109 41.550625 36.72074219 42.72625 36.28710938 43.9375 C35.88427734 45.05898438 35.48144531 46.18046875 35.06640625 47.3359375 C34.69459229 48.37282715 34.32277832 49.4097168 33.93969727 50.47802734 C33 53 33 53 32 55 C27.38 55 22.76 55 18 55 C15.29538598 48.37354762 12.80763245 41.73089345 10.546875 34.94140625 C10.24179016 34.03043686 9.93670532 33.11946747 9.62237549 32.18089294 C8.98566561 30.27645662 8.35048678 28.37150778 7.71679688 26.46606445 C6.7437939 23.54386134 5.76275952 20.6244335 4.78125 17.70507812 C4.16097269 15.84651618 3.54116392 13.98779777 2.921875 12.12890625 C2.62819031 11.25706192 2.33450562 10.38521759 2.03192139 9.48695374 C1.76454163 8.67858566 1.49716187 7.87021759 1.22167969 7.03735352 C0.98503601 6.32805191 0.74839233 5.61875031 0.50457764 4.88795471 C0 3 0 3 0 0 Z " fill="#030606" transform="translate(575,480)"/>
<path d="M0 0 C6.25063382 6.10527024 8.69663058 12.27859039 9.0625 20.9375 C8.92794007 27.92500489 6.57597876 33.42911286 3.0625 39.375 C-5.36865081 47.36240603 -13.86679783 49.09475875 -25.0625 48.90234375 C-30.1660254 48.67817229 -34.06886784 47.50173591 -38.3125 44.625 C-38.95574219 44.18929687 -39.59898437 43.75359375 -40.26171875 43.3046875 C-45.7049308 39.12813486 -48.17965803 34.02352591 -50.3125 27.625 C-51.17025529 17.47255218 -49.76057645 10.74785643 -44.125 2.375 C-31.88375715 -9.59421523 -13.52864875 -10.48470278 0 0 Z M-31.3125 11.625 C-33.94179344 16.03542771 -34.88954571 19.62543239 -34.03125 24.62890625 C-32.51928992 28.82788233 -29.31101463 32.62574268 -25.3125 34.625 C-21.17111277 35.04808868 -17.43851163 35.02535969 -13.5 33.625 C-9.87963563 30.31495258 -7.64052802 26.50071234 -7.078125 21.5703125 C-7.38584633 15.92142803 -10.23315722 12.35808557 -14.3125 8.625 C-20.19446217 5.68401891 -26.67761025 7.32117381 -31.3125 11.625 Z " fill="#030606" transform="translate(253.3125,486.375)"/>
<path d="M0 0 C5.28 0 10.56 0 16 0 C16 6.6 16 13.2 16 20 C21.94 20 27.88 20 34 20 C34 13.4 34 6.8 34 0 C39.28 0 44.56 0 50 0 C50 17.82 50 35.64 50 54 C44.72 54 39.44 54 34 54 C34 47.4 34 40.8 34 34 C28.06 34 22.12 34 16 34 C16 40.6 16 47.2 16 54 C10.72 54 5.44 54 0 54 C0 36.18 0 18.36 0 0 Z " fill="#030606" transform="translate(449,480)"/>
<path d="M0 0 C14.52 0 29.04 0 44 0 C44 4.62 44 9.24 44 14 C34.76 14 25.52 14 16 14 C16 16.31 16 18.62 16 21 C24.58 21 33.16 21 42 21 C42 25.29 42 29.58 42 34 C33.42 34 24.84 34 16 34 C16 36.31 16 38.62 16 41 C25.57 41 35.14 41 45 41 C45 45.29 45 49.58 45 54 C30.15 54 15.3 54 0 54 C0 36.18 0 18.36 0 0 Z " fill="#030606" transform="translate(508,480)"/>
<path d="M0 0 C5.28 0 10.56 0 16 0 C18.31425288 5.27820855 20.62529118 10.55780955 22.93359375 15.83862305 C23.71627953 17.62805445 24.49978303 19.41712845 25.28417969 21.20581055 C30.04714105 32.06865145 34.6616635 42.96011176 39 54 C33.06 54 27.12 54 21 54 C20.01 51.03 19.02 48.06 18 45 C8.1 45.495 8.1 45.495 -2 46 C-3.32 48.64 -4.64 51.28 -6 54 C-11.61 54 -17.22 54 -23 54 C-18.80807392 42.75725425 -14.06980999 31.79701875 -9.25 20.8125 C-8.46199011 19.00987466 -7.67422798 17.20714099 -6.88671875 15.40429688 C-1.20129324 2.40258647 -1.20129324 2.40258647 0 0 Z M7 21 C6.32645501 22.43429001 5.66140299 23.87257057 5 25.3125 C4.62875 26.11300781 4.2575 26.91351563 3.875 27.73828125 C2.81959333 30.06213959 2.81959333 30.06213959 3 33 C6.3 33 9.6 33 13 33 C12.525625 31.576875 12.05125 30.15375 11.5625 28.6875 C10.70833333 26.125 9.85416667 23.5625 9 21 C8.34 21 7.68 21 7 21 Z " fill="#030606" transform="translate(675,480)"/>
<path d="M0 0 C14.85 0 29.7 0 45 0 C45 4.62 45 9.24 45 14 C35.43 14 25.86 14 16 14 C16 16.64 16 19.28 16 22 C24.58 22 33.16 22 42 22 C42 26.62 42 31.24 42 36 C33.42 36 24.84 36 16 36 C16 41.94 16 47.88 16 54 C10.72 54 5.44 54 0 54 C0 36.18 0 18.36 0 0 Z " fill="#030606" transform="translate(270,480)"/>
<path d="M0 0 C14.52 0 29.04 0 44 0 C44 4.62 44 9.24 44 14 C34.76 14 25.52 14 16 14 C16 16.64 16 19.28 16 22 C24.58 22 33.16 22 42 22 C42 26.62 42 31.24 42 36 C33.42 36 24.84 36 16 36 C16 41.94 16 47.88 16 54 C10.72 54 5.44 54 0 54 C0 36.18 0 18.36 0 0 Z " fill="#030606" transform="translate(322,480)"/>
<path d="M0 0 C16.17 0 32.34 0 49 0 C49 4.62 49 9.24 49 14 C43.72 14 38.44 14 33 14 C33 27.2 33 40.4 33 54 C27.72 54 22.44 54 17 54 C17 40.8 17 27.6 17 14 C11.39 14 5.78 14 0 14 C0 9.38 0 4.76 0 0 Z " fill="#030606" transform="translate(391,480)"/>
<path d="M0 0 C5.28 0 10.56 0 16 0 C16 13.53 16 27.06 16 41 C24.58 41 33.16 41 42 41 C42 45.29 42 49.58 42 54 C28.14 54 14.28 54 0 54 C0 36.18 0 18.36 0 0 Z " fill="#030606" transform="translate(769,480)"/>
<path d="M0 0 C5.28 0 10.56 0 16 0 C16 13.53 16 27.06 16 41 C24.58 41 33.16 41 42 41 C42 45.29 42 49.58 42 54 C28.14 54 14.28 54 0 54 C0 36.18 0 18.36 0 0 Z " fill="#030606" transform="translate(720,480)"/>
<path d="M0 0 C3.63 0 7.26 0 11 0 C11.0913546 7.76514068 10.81286875 15.27774683 10 23 C6.04 23 2.08 23 -2 23 C-1.34 15.41 -0.68 7.82 0 0 Z " fill="#030606" transform="translate(808,480)"/>
<path d="M0 0 C3.63 0 7.26 0 11 0 C11.66 7.59 12.32 15.18 13 23 C9.04 23 5.08 23 1 23 C0.18713125 15.27774683 -0.0913546 7.76514068 0 0 Z " fill="#030606" transform="translate(183,480)"/>
<path d="M0 0 C3.63 0 7.26 0 11 0 C11.0913546 7.76514068 10.81286875 15.27774683 10 23 C6.04 23 2.08 23 -2 23 C-1.34 15.41 -0.68 7.82 0 0 Z " fill="#030606" transform="translate(824,480)"/>
<path d="M0 0 C3.63 0 7.26 0 11 0 C11.66 7.59 12.32 15.18 13 23 C9.04 23 5.08 23 1 23 C0.18713125 15.27774683 -0.0913546 7.76514068 0 0 Z " fill="#030606" transform="translate(167,480)"/>
<path d="M0 0 C1.9375 1.0625 1.9375 1.0625 3 3 C3.6414791 8.98713826 3.6414791 8.98713826 1.8125 11.875 C-0.57042043 13.35405406 -2.18417448 13.86591307 -5 14 C-7.75 12.9375 -7.75 12.9375 -10 11 C-11.02887287 7.77619834 -11.31430743 5.89456729 -10.1875 2.6875 C-7.61888608 -0.96263558 -4.11717046 -0.28892424 0 0 Z M-6 2 C-6 2.33 -6 2.66 -6 3 C-4.35 3 -2.7 3 -1 3 C-1 2.67 -1 2.34 -1 2 C-2.65 2 -4.3 2 -6 2 Z M-8 3 C-8.67958603 5.39719432 -8.67958603 5.39719432 -9 8 C-8.34 8.66 -7.68 9.32 -7 10 C-7 7.69 -7 5.38 -7 3 C-7.33 3 -7.66 3 -8 3 Z M0 4 C-0.33 5.65 -0.66 7.3 -1 9 C-0.34 9 0.32 9 1 9 C1 7.35 1 5.7 1 4 C0.67 4 0.34 4 0 4 Z M-4 9 C-4.99 9.66 -5.98 10.32 -7 11 C-4.525 11.495 -4.525 11.495 -2 12 C-1.67 11.34 -1.34 10.68 -1 10 C-1.99 9.67 -2.98 9.34 -4 9 Z " fill="#020505" transform="translate(755,421)"/>
</svg>
